%TF.GenerationSoftware,KiCad,Pcbnew,9.0.0*%
%TF.CreationDate,2025-04-10T14:52:18+00:00*%
%TF.ProjectId,jkembedded-audio-board,6a6b656d-6265-4646-9465-642d61756469,rev?*%
%TF.SameCoordinates,Original*%
%TF.FileFunction,Copper,L2,Inr*%
%TF.FilePolarity,Positive*%
%FSLAX46Y46*%
G04 Gerber Fmt 4.6, Leading zero omitted, Abs format (unit mm)*
G04 Created by KiCad (PCBNEW 9.0.0) date 2025-04-10 14:52:18*
%MOMM*%
%LPD*%
G01*
G04 APERTURE LIST*
%TA.AperFunction,ComponentPad*%
%ADD10R,1.700000X1.700000*%
%TD*%
%TA.AperFunction,ComponentPad*%
%ADD11O,1.700000X1.700000*%
%TD*%
%TA.AperFunction,ComponentPad*%
%ADD12C,1.700000*%
%TD*%
%TA.AperFunction,ComponentPad*%
%ADD13R,0.850000X0.850000*%
%TD*%
%TA.AperFunction,ViaPad*%
%ADD14C,0.500000*%
%TD*%
%TA.AperFunction,ViaPad*%
%ADD15C,0.800000*%
%TD*%
%TA.AperFunction,Conductor*%
%ADD16C,0.250000*%
%TD*%
%TA.AperFunction,Conductor*%
%ADD17C,0.500000*%
%TD*%
%TA.AperFunction,Conductor*%
%ADD18C,1.000000*%
%TD*%
G04 APERTURE END LIST*
D10*
%TO.N,/Audio CODEC/DI*%
%TO.C,J3*%
X88375000Y-88430000D03*
D11*
%TO.N,/Audio CODEC/WRD*%
X90915000Y-88430000D03*
%TO.N,/mikroBus Header/EEPROM_1WIRE*%
X93455000Y-88430000D03*
%TO.N,unconnected-(J3-Pin_4-Pad4)*%
X95995000Y-88430000D03*
%TO.N,/Clock Generation/COUNTER_FB*%
X98535000Y-88430000D03*
%TO.N,/Audio CODEC/WRD*%
X101075000Y-88430000D03*
%TO.N,+3V3*%
X103615000Y-88430000D03*
%TO.N,GND*%
X106155000Y-88430000D03*
%TD*%
D12*
%TO.N,/Audio CODEC/BIT*%
%TO.C,J4*%
X88375000Y-65570000D03*
D11*
%TO.N,/Audio CODEC/DO*%
X90915000Y-65570000D03*
%TO.N,unconnected-(J4-Pin_3-Pad3)*%
X93455000Y-65570000D03*
%TO.N,unconnected-(J4-Pin_4-Pad4)*%
X95995000Y-65570000D03*
%TO.N,/Audio CODEC/SCL*%
X98535000Y-65570000D03*
%TO.N,/Audio CODEC/SDA*%
X101075000Y-65570000D03*
%TO.N,+5V*%
X103615000Y-65570000D03*
%TO.N,GND*%
X106155000Y-65570000D03*
%TD*%
D13*
%TO.N,/mikroBus HAT/RST_WRD_B*%
%TO.C,J7*%
X81750000Y-113000000D03*
%TD*%
D14*
%TO.N,GND*%
X91300000Y-78500000D03*
X91300000Y-79500000D03*
D15*
X69000000Y-67500000D03*
D14*
X78500000Y-78000000D03*
D15*
X74500000Y-88500000D03*
D14*
X93300000Y-77500000D03*
D15*
X82000000Y-88500000D03*
D14*
X92300000Y-79500000D03*
D15*
X81000000Y-80250000D03*
D14*
X92300000Y-77500000D03*
X77750000Y-76500000D03*
D15*
X78000000Y-65000000D03*
X108500000Y-86500000D03*
X69000000Y-77500000D03*
X69000000Y-70000000D03*
X85500000Y-65000000D03*
X109000000Y-67000000D03*
X95000000Y-80500000D03*
D14*
X93300000Y-78500000D03*
D15*
X107500000Y-78000000D03*
D14*
X103400000Y-77250000D03*
X77750000Y-77250000D03*
D15*
X69000000Y-75000000D03*
X70500000Y-65000000D03*
X107500000Y-72000000D03*
X83000000Y-65000000D03*
D14*
X77000000Y-77250000D03*
D15*
X107500000Y-69500000D03*
D14*
X103900000Y-77750000D03*
D15*
X72000000Y-88500000D03*
D14*
X77000000Y-76500000D03*
D15*
X74250000Y-79750000D03*
D14*
X78500000Y-77250000D03*
X104400000Y-77250000D03*
D15*
X69000000Y-80000000D03*
D14*
X92300000Y-78500000D03*
D15*
X69000000Y-72500000D03*
X84500000Y-88500000D03*
D14*
X103400000Y-78250000D03*
D15*
X79500000Y-88500000D03*
X74000000Y-74000000D03*
D14*
X77000000Y-78000000D03*
D15*
X77000000Y-88500000D03*
D14*
X93300000Y-79500000D03*
D15*
X80750000Y-74500000D03*
X73000000Y-65000000D03*
X75500000Y-65000000D03*
X107500000Y-75500000D03*
D14*
X91300000Y-77500000D03*
D15*
X80500000Y-65000000D03*
D14*
X78500000Y-76500000D03*
X104400000Y-78250000D03*
D15*
X108500000Y-84500000D03*
X107500000Y-80500000D03*
X69500000Y-88500000D03*
D14*
X77750000Y-78000000D03*
D15*
%TO.N,/Clock Generation/COUNTER_FB*%
X97250000Y-76750000D03*
X96750000Y-86500000D03*
%TO.N,/Audio CODEC/IN_RIGHT*%
X76500000Y-74000000D03*
X79750000Y-72000000D03*
X59750000Y-66000000D03*
%TO.N,Net-(U3-FB0)*%
X103250000Y-80250000D03*
X100250000Y-84250000D03*
%TO.N,Net-(U3-FB1)*%
X98250000Y-76750000D03*
X102000000Y-76000000D03*
%TO.N,+3V3_OSC*%
X97000000Y-73750000D03*
X83750000Y-81250000D03*
X101500000Y-83750000D03*
X88250000Y-74731021D03*
X97000000Y-75750000D03*
%TO.N,+5V*%
X106000000Y-71500000D03*
X103250000Y-69500000D03*
%TO.N,Net-(U3-GPIO{slash}SDO)*%
X107250000Y-84000000D03*
X105250000Y-80250000D03*
%TO.N,+3V3*%
X101250000Y-85250000D03*
X79895321Y-81195932D03*
X84500000Y-67500000D03*
X70500000Y-80062500D03*
%TO.N,Net-(U1-CLK0)*%
X87500000Y-79250000D03*
X91974847Y-74999847D03*
%TO.N,Net-(U1-CLK1)*%
X92143910Y-73850000D03*
X87512653Y-78237347D03*
%TO.N,Net-(U1-CLK2)*%
X95250000Y-76750000D03*
X85750000Y-74500000D03*
%TO.N,Net-(U4-MICBIAS)*%
X82500000Y-72000000D03*
X79500000Y-74000000D03*
%TO.N,/Audio CODEC/OUT_LEFT*%
X73250000Y-75750000D03*
X72750000Y-72000000D03*
X68750000Y-86250000D03*
%TO.N,/Audio CODEC/OUT_RIGHT*%
X59750000Y-80000000D03*
X71000000Y-72000000D03*
X74250000Y-76737500D03*
%TO.N,Net-(U4-VREF)*%
X74750000Y-78750000D03*
X74750000Y-81000000D03*
%TO.N,/Audio CODEC/IN_LEFT*%
X81500000Y-72000000D03*
X78500000Y-74000000D03*
X67250000Y-74000000D03*
%TO.N,/Audio CODEC/SCL*%
X93737330Y-81512670D03*
X106250000Y-78500000D03*
X96750000Y-67750000D03*
X80750000Y-78750000D03*
%TO.N,/Audio CODEC/BIT*%
X82750000Y-80500000D03*
X87012653Y-67737347D03*
X76695298Y-80167947D03*
%TO.N,/Audio CODEC/DO*%
X92856178Y-67750000D03*
X78250000Y-81000000D03*
%TO.N,/Audio CODEC/SDA*%
X94737347Y-81487347D03*
X106250000Y-76500000D03*
X100000000Y-68500000D03*
X81911610Y-78401536D03*
%TO.N,/Audio CODEC/WRD*%
X77250000Y-81000000D03*
X92750000Y-86500000D03*
X100000000Y-86250000D03*
X80914768Y-77275000D03*
%TO.N,/Audio CODEC/DI*%
X87250000Y-86500000D03*
X78844638Y-80196004D03*
%TO.N,Net-(D1-A)*%
X69500000Y-123000000D03*
X97250000Y-114250000D03*
%TO.N,/mikroBus HAT/CIPO_CNT_A{slash}INT_DO_B*%
X85750000Y-111250000D03*
X97750000Y-140500000D03*
X88500000Y-139000000D03*
%TO.N,/mikroBus HAT/INT_DO_A*%
X97875000Y-135875000D03*
X86862500Y-135500000D03*
X97750000Y-145500000D03*
%TO.N,/mikroBus HAT/MCU_RESET*%
X97500000Y-117750000D03*
%TO.N,/mikroBus HAT/PWM_BIT_A*%
X97600000Y-110475000D03*
X97500000Y-102500000D03*
X86750000Y-103500000D03*
%TO.N,/mikroBus HAT/SCK_MB1*%
X93000000Y-150000000D03*
X93000000Y-129250000D03*
%TO.N,/mikroBus HAT/PWM_BIT_B{slash}CIPO_CNT_C*%
X85750000Y-113250000D03*
X86750000Y-105500000D03*
X97600000Y-111750000D03*
%TO.N,/mikroBus HAT/CS_MB1*%
X92250000Y-132000000D03*
X90500000Y-150000000D03*
%TO.N,/mikroBus HAT/CIPO_CNT_B{slash}AN_DI_A*%
X97750000Y-143000000D03*
X85318903Y-141931097D03*
X84000000Y-112000000D03*
X85500000Y-119000000D03*
%TO.N,/mikroBus HAT/COPI_MB1*%
X97750000Y-148250000D03*
X97500000Y-121450000D03*
%TO.N,/mikroBus HAT/MCU_BOOTLOADER_SEL*%
X73750000Y-115750000D03*
X97500000Y-122750000D03*
X97500000Y-116250000D03*
%TO.N,/mikroBus HAT/AN_DI_B*%
X97750000Y-139250000D03*
X86862500Y-138000000D03*
X86887500Y-121750000D03*
%TO.N,/mikroBus HAT/TX_MB1*%
X93650000Y-108500000D03*
X93000000Y-124750000D03*
%TO.N,/mikroBus HAT/RST_WRD_A*%
X97750000Y-141750000D03*
X86862500Y-142000000D03*
%TO.N,/mikroBus HAT/RX_MB1*%
X97500000Y-109250000D03*
X93000000Y-110750000D03*
X92000000Y-124750000D03*
%TO.N,/mikroBus HAT/RST_WRD_B*%
X86862500Y-144500000D03*
%TO.N,/mikroBus HAT/CIPO_MB1*%
X95250000Y-150000000D03*
X92500000Y-112250000D03*
%TO.N,/mikroBus HAT/RST_WRD_B_HAT*%
X92000000Y-107750000D03*
X83500000Y-108750000D03*
%TO.N,/mikroBus HAT/PWM_MB1*%
X90000000Y-107000000D03*
X85000000Y-107000000D03*
X85750000Y-124500000D03*
%TO.N,/mikroBus HAT/RST_MB1*%
X90612500Y-145500000D03*
X87750000Y-150000000D03*
%TO.N,/mikroBus HAT/HAT_SCL*%
X97500000Y-103750000D03*
X70750000Y-122750000D03*
X96000000Y-124750000D03*
%TO.N,/mikroBus HAT/INT_MB1*%
X90612500Y-139000000D03*
X88250000Y-124500000D03*
%TO.N,/mikroBus HAT/AN_MB1*%
X85500000Y-150000000D03*
X91137500Y-122750000D03*
%TO.N,/mikroBus HAT/INT_DO_SEL*%
X88000000Y-118000000D03*
X90500000Y-133000000D03*
X78750000Y-119243100D03*
%TO.N,/mikroBus HAT/HAT_SDA*%
X97500000Y-101250000D03*
X97500000Y-124000000D03*
X70000000Y-121500000D03*
%TO.N,/mikroBus HAT/PWM_BIT_SEL*%
X91250000Y-102000000D03*
X77167947Y-120547802D03*
X82000000Y-107250000D03*
%TO.N,/mikroBus HAT/CIPO_CNT_SEL_0*%
X78750000Y-113250000D03*
X78000000Y-118518100D03*
X91750000Y-113000000D03*
%TO.N,/mikroBus HAT/AN_DI_SEL*%
X78000000Y-119993100D03*
X91137500Y-118000000D03*
%TO.N,/mikroBus HAT/RST_WRD_SEL*%
X76000000Y-121250000D03*
X91112500Y-140750000D03*
X85000000Y-122250000D03*
X85750000Y-140750000D03*
%TO.N,/mikroBus HAT/CIPO_CNT_SEL_1*%
X91750000Y-114250000D03*
X77250000Y-114000000D03*
X77180766Y-117944636D03*
%TO.N,/Audio CODEC/OUT_COMMON*%
X57750000Y-88000000D03*
X68750000Y-84750000D03*
%TO.N,/Audio CODEC/IN_COMMON*%
X75000000Y-72000000D03*
X58000000Y-74000000D03*
%TO.N,Net-(U4-IN1M)*%
X77500000Y-74000000D03*
X78012653Y-72012653D03*
%TO.N,Net-(U4-IN2M)*%
X75500000Y-74000000D03*
X76250000Y-72000000D03*
%TO.N,Net-(U4-OUT1M)*%
X73500000Y-81000000D03*
X74250000Y-75242510D03*
%TO.N,Net-(U4-OUT2M)*%
X73612347Y-77837043D03*
X71750000Y-81000000D03*
%TO.N,GND_HAT*%
X65000000Y-125000000D03*
X77500000Y-142500000D03*
D14*
X72999999Y-119056900D03*
D15*
X85000000Y-102500000D03*
X108500000Y-120000000D03*
X108000000Y-152500000D03*
X70000000Y-112500000D03*
X108500000Y-148000000D03*
X108500000Y-117500000D03*
X108500000Y-105000000D03*
X77500000Y-150000000D03*
X108500000Y-145500000D03*
X108500000Y-125000000D03*
X102500000Y-95000000D03*
X77500000Y-147500000D03*
X108500000Y-97500000D03*
X108500000Y-115000000D03*
X87500000Y-100000000D03*
D14*
X73750000Y-119800000D03*
D15*
X67500000Y-130500000D03*
X72500000Y-112500000D03*
X108500000Y-150500000D03*
X97500000Y-95000000D03*
X75000000Y-112500000D03*
X80000000Y-107500000D03*
X65000000Y-127500000D03*
X107500000Y-95000000D03*
X108500000Y-130500000D03*
X75000000Y-130500000D03*
X67500000Y-112500000D03*
X82500000Y-105000000D03*
X65000000Y-115000000D03*
X108500000Y-102500000D03*
X95000000Y-97500000D03*
X65000000Y-130000000D03*
X108500000Y-122500000D03*
X74000000Y-122700000D03*
X77500000Y-152500000D03*
X108500000Y-128000000D03*
X108500000Y-143000000D03*
X77500000Y-137500000D03*
X108500000Y-133000000D03*
X90000000Y-100000000D03*
X77500000Y-145000000D03*
X65000000Y-117500000D03*
X108500000Y-110000000D03*
X100000000Y-95000000D03*
D14*
X72250000Y-119800000D03*
D15*
X108500000Y-140500000D03*
X92500000Y-100000000D03*
X108500000Y-100000000D03*
X70000000Y-130500000D03*
D14*
X72250000Y-118300000D03*
D15*
X77500000Y-110000000D03*
X65000000Y-122500000D03*
D14*
X73750000Y-118300000D03*
D15*
X77500000Y-135000000D03*
X77500000Y-140000000D03*
X65000000Y-120000000D03*
X105000000Y-95000000D03*
X108500000Y-112500000D03*
X108500000Y-138000000D03*
X108500000Y-135500000D03*
X108500000Y-107500000D03*
X72500000Y-130500000D03*
X77500000Y-132500000D03*
%TO.N,+3V3_HAT*%
X94750000Y-109750000D03*
X100500000Y-150000000D03*
X72500000Y-123500000D03*
X94750000Y-120250000D03*
X94750000Y-142725000D03*
X97500000Y-98590000D03*
X94750000Y-119000000D03*
X94750000Y-136225000D03*
X94750000Y-104750000D03*
X94750000Y-123500000D03*
%TO.N,+5V_HAT*%
X103000000Y-102250000D03*
X103000000Y-122750000D03*
%TO.N,/mikroBus Header/EEPROM_1WIRE*%
X94000000Y-86500000D03*
X86250000Y-72250000D03*
%TD*%
D16*
%TO.N,/Clock Generation/COUNTER_FB*%
X96750000Y-86500000D02*
X93012330Y-82762330D01*
X93012330Y-82762330D02*
X93012330Y-80987670D01*
X93012330Y-80987670D02*
X97250000Y-76750000D01*
%TO.N,/Audio CODEC/IN_RIGHT*%
X79000000Y-71250000D02*
X77750000Y-71250000D01*
X79750000Y-72000000D02*
X79000000Y-71250000D01*
X76500000Y-73000000D02*
X76500000Y-74000000D01*
X77250000Y-72250000D02*
X76500000Y-73000000D01*
X77250000Y-71750000D02*
X77250000Y-72250000D01*
X77750000Y-71250000D02*
X77250000Y-71750000D01*
%TO.N,Net-(U3-FB0)*%
X100250000Y-84250000D02*
X100250000Y-83250000D01*
X100250000Y-83250000D02*
X103250000Y-80250000D01*
%TO.N,Net-(U3-FB1)*%
X101250000Y-76750000D02*
X102000000Y-76000000D01*
X98250000Y-76750000D02*
X101250000Y-76750000D01*
%TO.N,+3V3_OSC*%
X96000000Y-74750000D02*
X96000000Y-73750000D01*
X88898959Y-75379980D02*
X88250000Y-74731021D01*
D17*
X83750000Y-80797918D02*
X83750000Y-81250000D01*
X88898959Y-75648959D02*
X83750000Y-80797918D01*
X96000000Y-73750000D02*
X97000000Y-73750000D01*
X91547918Y-73000000D02*
X92750000Y-73000000D01*
X92750000Y-73000000D02*
X93500000Y-73750000D01*
X93500000Y-73750000D02*
X96000000Y-73750000D01*
D16*
X97000000Y-75750000D02*
X96000000Y-74750000D01*
D17*
X88898959Y-75648959D02*
X91547918Y-73000000D01*
D16*
X88898959Y-75648959D02*
X88898959Y-75379980D01*
D17*
%TO.N,+3V3*%
X71397918Y-81850000D02*
X76000000Y-81850000D01*
X75750000Y-76750000D02*
X75750000Y-80702082D01*
X78791253Y-82300000D02*
X79895321Y-81195932D01*
X76000000Y-81850000D02*
X76448959Y-81401041D01*
X75750000Y-80702082D02*
X76448959Y-81401041D01*
X76975000Y-75525000D02*
X75750000Y-76750000D01*
X84500000Y-72250000D02*
X81225000Y-75525000D01*
X81225000Y-75525000D02*
X76975000Y-75525000D01*
X70500000Y-80062500D02*
X70500000Y-80952082D01*
X77347918Y-82300000D02*
X78791253Y-82300000D01*
X70500000Y-80952082D02*
X71397918Y-81850000D01*
X84500000Y-67500000D02*
X84500000Y-72250000D01*
X76448959Y-81401041D02*
X77347918Y-82300000D01*
D16*
%TO.N,Net-(U1-CLK0)*%
X91974847Y-74999847D02*
X91775458Y-74999847D01*
X87525305Y-79250000D02*
X87500000Y-79250000D01*
X91775458Y-74999847D02*
X87525305Y-79250000D01*
%TO.N,Net-(U1-CLK1)*%
X91900000Y-73850000D02*
X92143910Y-73850000D01*
X87512653Y-78237347D02*
X91900000Y-73850000D01*
%TO.N,Net-(U4-MICBIAS)*%
X79725000Y-73775000D02*
X80850000Y-73775000D01*
X80850000Y-73775000D02*
X82500000Y-72125000D01*
X82500000Y-72125000D02*
X82500000Y-72000000D01*
X79500000Y-74000000D02*
X79725000Y-73775000D01*
%TO.N,/Audio CODEC/OUT_LEFT*%
X72750000Y-75250000D02*
X72750000Y-72000000D01*
X73250000Y-75750000D02*
X72750000Y-75250000D01*
%TO.N,/Audio CODEC/OUT_RIGHT*%
X73987500Y-76475000D02*
X72949695Y-76475000D01*
X71000000Y-74525305D02*
X71000000Y-72000000D01*
X74250000Y-76737500D02*
X73987500Y-76475000D01*
X72949695Y-76475000D02*
X71000000Y-74525305D01*
%TO.N,Net-(U4-VREF)*%
X74750000Y-81000000D02*
X74975000Y-80775000D01*
X74975000Y-80775000D02*
X74975000Y-78975000D01*
X74975000Y-78975000D02*
X74750000Y-78750000D01*
%TO.N,/Audio CODEC/IN_LEFT*%
X80500000Y-73000000D02*
X81500000Y-72000000D01*
X79474695Y-73000000D02*
X80500000Y-73000000D01*
X78500000Y-73974695D02*
X79474695Y-73000000D01*
X78500000Y-74000000D02*
X78500000Y-73974695D01*
%TO.N,/Audio CODEC/SCL*%
X83642784Y-77676536D02*
X90069320Y-71250000D01*
X90069320Y-71250000D02*
X93250000Y-71250000D01*
X93737330Y-81512670D02*
X94437007Y-82212347D01*
X105500000Y-79250000D02*
X106250000Y-78500000D01*
X103224695Y-79250000D02*
X105500000Y-79250000D01*
X94437007Y-82212347D02*
X100262348Y-82212347D01*
X83642784Y-77676536D02*
X81611305Y-77676536D01*
X100262348Y-82212347D02*
X103224695Y-79250000D01*
X80750000Y-78537841D02*
X80750000Y-78750000D01*
X81611305Y-77676536D02*
X80750000Y-78537841D01*
X93250000Y-71250000D02*
X96750000Y-67750000D01*
%TO.N,/Audio CODEC/BIT*%
X79125000Y-77403067D02*
X79125000Y-78375000D01*
X78357937Y-79021004D02*
X77669638Y-79709303D01*
X87012653Y-67737347D02*
X87012653Y-69325646D01*
X77669638Y-79709303D02*
X77669638Y-79830362D01*
X85250000Y-72500000D02*
X81650000Y-76100000D01*
X87012653Y-69325646D02*
X85250000Y-71088299D01*
X80428067Y-76100000D02*
X79125000Y-77403067D01*
X81650000Y-76100000D02*
X80428067Y-76100000D01*
X77332053Y-80167947D02*
X76695298Y-80167947D01*
X77669638Y-79830362D02*
X77332053Y-80167947D01*
X79125000Y-78375000D02*
X78478996Y-79021004D01*
X78478996Y-79021004D02*
X78357937Y-79021004D01*
X85250000Y-71088299D02*
X85250000Y-72500000D01*
%TO.N,/Audio CODEC/DO*%
X81950000Y-76550000D02*
X85250000Y-73250000D01*
X80614463Y-76550000D02*
X81950000Y-76550000D01*
X87356178Y-73250000D02*
X92856178Y-67750000D01*
X85250000Y-73250000D02*
X87356178Y-73250000D01*
X79575000Y-77589463D02*
X80614463Y-76550000D01*
X78778996Y-79471004D02*
X79575000Y-78675000D01*
X78119638Y-80869638D02*
X78119638Y-79895699D01*
X78544333Y-79471004D02*
X78778996Y-79471004D01*
X78119638Y-79895699D02*
X78544333Y-79471004D01*
X78250000Y-81000000D02*
X78119638Y-80869638D01*
X79575000Y-78675000D02*
X79575000Y-77589463D01*
%TO.N,/Audio CODEC/SDA*%
X96775000Y-71975000D02*
X89980716Y-71975000D01*
X98062653Y-81487347D02*
X103050000Y-76500000D01*
X94737347Y-81487347D02*
X98062653Y-81487347D01*
X83554180Y-78401536D02*
X81911610Y-78401536D01*
X100000000Y-68500000D02*
X100000000Y-68750000D01*
X100000000Y-68750000D02*
X96775000Y-71975000D01*
X103050000Y-76500000D02*
X106250000Y-76500000D01*
X89980716Y-71975000D02*
X83554180Y-78401536D01*
%TO.N,/Audio CODEC/WRD*%
X80914768Y-77275000D02*
X80025000Y-78164768D01*
X80237347Y-79262652D02*
X80237347Y-79828600D01*
X78975000Y-81090947D02*
X78975000Y-81300305D01*
X80025000Y-79050305D02*
X80237347Y-79262652D01*
X80025000Y-78164768D02*
X80025000Y-79050305D01*
X77250000Y-81025304D02*
X77250000Y-81000000D01*
X80237347Y-79828600D02*
X78975000Y-81090947D01*
X77949696Y-81725000D02*
X77250000Y-81025304D01*
X78975000Y-81300305D02*
X78550305Y-81725000D01*
X78550305Y-81725000D02*
X77949696Y-81725000D01*
%TO.N,/mikroBus HAT/CIPO_CNT_A{slash}INT_DO_B*%
X85025000Y-112949695D02*
X85750000Y-112224695D01*
X87500000Y-125436396D02*
X87500000Y-122162805D01*
X85449695Y-113975000D02*
X85025000Y-113550305D01*
X88500000Y-139000000D02*
X87587500Y-138087500D01*
X87612500Y-122050305D02*
X87612500Y-118637805D01*
X85025000Y-113550305D02*
X85025000Y-112949695D01*
X85750000Y-112224695D02*
X85750000Y-111250000D01*
X87587500Y-138087500D02*
X87587500Y-125523896D01*
X87500000Y-122162805D02*
X87612500Y-122050305D01*
X86500000Y-114500000D02*
X85975000Y-113975000D01*
X85975000Y-113975000D02*
X85449695Y-113975000D01*
X87587500Y-125523896D02*
X87500000Y-125436396D01*
X87612500Y-118637805D02*
X86500000Y-117525305D01*
X86500000Y-117525305D02*
X86500000Y-114500000D01*
%TO.N,/mikroBus HAT/INT_DO_A*%
X97750000Y-145500000D02*
X98475000Y-144775000D01*
X98475000Y-136475000D02*
X97875000Y-135875000D01*
X98475000Y-144775000D02*
X98475000Y-136475000D01*
%TO.N,/mikroBus HAT/PWM_BIT_A*%
X98225000Y-103225000D02*
X98225000Y-109850000D01*
X97500000Y-102500000D02*
X98225000Y-103225000D01*
X98225000Y-109850000D02*
X97600000Y-110475000D01*
%TO.N,/mikroBus HAT/SCK_MB1*%
X93000000Y-150000000D02*
X93000000Y-129250000D01*
%TO.N,/mikroBus HAT/PWM_BIT_B{slash}CIPO_CNT_C*%
X85775305Y-113250000D02*
X86750000Y-112275305D01*
X85750000Y-113250000D02*
X85775305Y-113250000D01*
X86750000Y-112275305D02*
X86750000Y-105500000D01*
%TO.N,/mikroBus HAT/CS_MB1*%
X92250000Y-148250000D02*
X90500000Y-150000000D01*
X92250000Y-132000000D02*
X92250000Y-148250000D01*
%TO.N,/mikroBus HAT/CIPO_CNT_B{slash}AN_DI_A*%
X84500000Y-116862500D02*
X85500000Y-117862500D01*
X83750000Y-124161396D02*
X85000000Y-125411396D01*
X85500000Y-119000000D02*
X85500000Y-120637500D01*
X85500000Y-117862500D02*
X85500000Y-119000000D01*
X84500000Y-114500000D02*
X84500000Y-116862500D01*
X85000000Y-125411396D02*
X85000000Y-141612194D01*
X85500000Y-120637500D02*
X83750000Y-122387500D01*
X85000000Y-141612194D02*
X85318903Y-141931097D01*
X84000000Y-114000000D02*
X84500000Y-114500000D01*
X83750000Y-122387500D02*
X83750000Y-124161396D01*
X84000000Y-112000000D02*
X84000000Y-114000000D01*
%TO.N,/mikroBus HAT/COPI_MB1*%
X97750000Y-148250000D02*
X96750000Y-147250000D01*
X96750000Y-122200000D02*
X97500000Y-121450000D01*
X96750000Y-147250000D02*
X96750000Y-122200000D01*
%TO.N,/mikroBus HAT/MCU_BOOTLOADER_SEL*%
X97500000Y-122750000D02*
X98225000Y-122025000D01*
X98225000Y-122025000D02*
X98225000Y-116975000D01*
X98225000Y-116975000D02*
X97500000Y-116250000D01*
%TO.N,/mikroBus HAT/AN_DI_B*%
X86550000Y-124725305D02*
X86550000Y-122087500D01*
X86862500Y-138000000D02*
X86137500Y-137275000D01*
X86550000Y-122087500D02*
X86887500Y-121750000D01*
X86137500Y-125137805D02*
X86550000Y-124725305D01*
X86137500Y-137275000D02*
X86137500Y-125137805D01*
%TO.N,/mikroBus HAT/TX_MB1*%
X93000000Y-124750000D02*
X93750000Y-124000000D01*
X93750000Y-124000000D02*
X93750000Y-108600000D01*
X93750000Y-108600000D02*
X93650000Y-108500000D01*
%TO.N,/mikroBus HAT/RX_MB1*%
X93250000Y-123500000D02*
X92725000Y-124025000D01*
X92699695Y-124025000D02*
X92275000Y-124449695D01*
X92275000Y-124449695D02*
X92275000Y-124475000D01*
X93250000Y-111000000D02*
X93250000Y-123500000D01*
X92275000Y-124475000D02*
X92000000Y-124750000D01*
X92725000Y-124025000D02*
X92699695Y-124025000D01*
X93000000Y-110750000D02*
X93250000Y-111000000D01*
%TO.N,/mikroBus HAT/RST_WRD_B*%
X86862500Y-144500000D02*
X81750000Y-139387500D01*
X81750000Y-139387500D02*
X81750000Y-113000000D01*
%TO.N,/mikroBus HAT/CIPO_MB1*%
X93500000Y-129775305D02*
X93500000Y-148250000D01*
X91275000Y-125050305D02*
X91699695Y-125475000D01*
X92225000Y-125475000D02*
X93725000Y-126975000D01*
X92556250Y-123168445D02*
X91275000Y-124449695D01*
X93725000Y-129550305D02*
X93500000Y-129775305D01*
X92556250Y-112306250D02*
X92556250Y-123168445D01*
X91699695Y-125475000D02*
X92225000Y-125475000D01*
X91275000Y-124449695D02*
X91275000Y-125050305D01*
X92500000Y-112250000D02*
X92556250Y-112306250D01*
X93500000Y-148250000D02*
X95250000Y-150000000D01*
X93725000Y-126975000D02*
X93725000Y-129550305D01*
%TO.N,/mikroBus HAT/PWM_MB1*%
X85750000Y-124500000D02*
X85750000Y-121023896D01*
X85000000Y-114161701D02*
X84575000Y-113736701D01*
X85750000Y-121023896D02*
X86225000Y-120548896D01*
X85000000Y-112338299D02*
X85000000Y-107000000D01*
X86225000Y-117951104D02*
X85000000Y-116726104D01*
X86225000Y-120548896D02*
X86225000Y-117951104D01*
X84575000Y-113736701D02*
X84575000Y-112763299D01*
X84575000Y-112763299D02*
X85000000Y-112338299D01*
X85000000Y-116726104D02*
X85000000Y-114161701D01*
%TO.N,/mikroBus HAT/RST_MB1*%
X87750000Y-150000000D02*
X87750000Y-148362500D01*
X87750000Y-148362500D02*
X90612500Y-145500000D01*
%TO.N,/mikroBus HAT/HAT_SCL*%
X95750000Y-124500000D02*
X96000000Y-124750000D01*
X97500000Y-103750000D02*
X95750000Y-105500000D01*
X95750000Y-105500000D02*
X95750000Y-124500000D01*
%TO.N,/mikroBus HAT/INT_MB1*%
X89750000Y-138137500D02*
X89750000Y-126000000D01*
X90612500Y-139000000D02*
X89750000Y-138137500D01*
X89750000Y-126000000D02*
X88250000Y-124500000D01*
%TO.N,/mikroBus HAT/AN_MB1*%
X90912805Y-139725000D02*
X91500000Y-139137805D01*
X90250000Y-140250000D02*
X90775000Y-139725000D01*
X91500000Y-125911701D02*
X90825000Y-125236701D01*
X90825000Y-123062500D02*
X91137500Y-122750000D01*
X90250000Y-142224695D02*
X90250000Y-140250000D01*
X90825000Y-125236701D02*
X90825000Y-123062500D01*
X91500000Y-139137805D02*
X91500000Y-125911701D01*
X85500000Y-150000000D02*
X85500000Y-146974695D01*
X90775000Y-139725000D02*
X90912805Y-139725000D01*
X85500000Y-146974695D02*
X90250000Y-142224695D01*
%TO.N,/mikroBus HAT/INT_DO_SEL*%
X90500000Y-126000000D02*
X89250000Y-124750000D01*
X89250000Y-123750000D02*
X89250000Y-119250000D01*
X90500000Y-133000000D02*
X90500000Y-126000000D01*
X89250000Y-124750000D02*
X89250000Y-123750000D01*
X89250000Y-119250000D02*
X88000000Y-118000000D01*
%TO.N,/mikroBus HAT/HAT_SDA*%
X97500000Y-101250000D02*
X98675000Y-102425000D01*
X98675000Y-102425000D02*
X98675000Y-122825000D01*
X98675000Y-122825000D02*
X97500000Y-124000000D01*
%TO.N,/mikroBus HAT/PWM_BIT_SEL*%
X76455766Y-119835621D02*
X77167947Y-120547802D01*
X82000000Y-107250000D02*
X76455766Y-112794234D01*
X76455766Y-112794234D02*
X76455766Y-119835621D01*
%TO.N,/mikroBus HAT/CIPO_CNT_SEL_0*%
X78000000Y-114000000D02*
X78000000Y-118518100D01*
X78750000Y-113250000D02*
X78000000Y-114000000D01*
%TO.N,/mikroBus HAT/RST_WRD_SEL*%
X85750000Y-140750000D02*
X85450000Y-140450000D01*
X85450000Y-125225000D02*
X85000000Y-124775000D01*
X85450000Y-140450000D02*
X85450000Y-125225000D01*
X85000000Y-124775000D02*
X85000000Y-122250000D01*
%TO.N,/mikroBus HAT/CIPO_CNT_SEL_1*%
X77180766Y-117944636D02*
X77250000Y-117875402D01*
X77250000Y-117875402D02*
X77250000Y-114000000D01*
%TO.N,Net-(U4-IN1M)*%
X78012653Y-72123743D02*
X77500000Y-72636396D01*
X78012653Y-72012653D02*
X78012653Y-72123743D01*
X77500000Y-72636396D02*
X77500000Y-74000000D01*
%TO.N,Net-(U4-IN2M)*%
X76250000Y-72000000D02*
X75500000Y-72750000D01*
X75500000Y-72750000D02*
X75500000Y-74000000D01*
%TO.N,Net-(U4-OUT1M)*%
X74975000Y-75967510D02*
X74250000Y-75242510D01*
X73500000Y-78974695D02*
X74975000Y-77499695D01*
X74975000Y-77499695D02*
X74975000Y-75967510D01*
X73500000Y-81000000D02*
X73500000Y-78974695D01*
%TO.N,Net-(U4-OUT2M)*%
X72000000Y-80750000D02*
X71750000Y-81000000D01*
X72000000Y-79449390D02*
X72000000Y-80750000D01*
X73612347Y-77837043D02*
X72000000Y-79449390D01*
D18*
%TO.N,+3V3_HAT*%
X94750000Y-107750000D02*
X94750000Y-119000000D01*
X94750000Y-101340000D02*
X94750000Y-107750000D01*
X94750000Y-136225000D02*
X94750000Y-142725000D01*
D16*
X94750000Y-109750000D02*
X94750000Y-107750000D01*
D18*
X94750000Y-142725000D02*
X94750000Y-147476041D01*
X97273959Y-150000000D02*
X100500000Y-150000000D01*
X94750000Y-119000000D02*
X94750000Y-136225000D01*
X94750000Y-147476041D02*
X97273959Y-150000000D01*
X97500000Y-98590000D02*
X94750000Y-101340000D01*
%TO.N,+5V_HAT*%
X103000000Y-102250000D02*
X103000000Y-122750000D01*
%TD*%
%TA.AperFunction,Conductor*%
%TO.N,GND_HAT*%
G36*
X93288712Y-89817403D02*
G01*
X93320783Y-89837541D01*
X93386126Y-89894161D01*
X93386129Y-89894162D01*
X93458456Y-89904561D01*
X93524923Y-89874206D01*
X93526346Y-89871990D01*
X93579146Y-89826234D01*
X93648304Y-89816287D01*
X93671765Y-89827000D01*
X93741984Y-89827000D01*
X93809023Y-89846685D01*
X93846298Y-89883959D01*
X93865564Y-89913937D01*
X93894229Y-89958541D01*
X93894235Y-89958548D01*
X93939979Y-90011340D01*
X93939982Y-90011343D01*
X93939986Y-90011347D01*
X94048720Y-90105567D01*
X94048723Y-90105568D01*
X94048724Y-90105569D01*
X94162272Y-90157426D01*
X94179597Y-90165338D01*
X94246636Y-90185023D01*
X94246640Y-90185024D01*
X94389056Y-90205500D01*
X94389059Y-90205500D01*
X95060934Y-90205500D01*
X95060944Y-90205500D01*
X95122948Y-90201683D01*
X95153136Y-90197952D01*
X95214196Y-90186560D01*
X95322357Y-90142262D01*
X95347333Y-90132033D01*
X95347334Y-90132031D01*
X95347342Y-90132029D01*
X95407572Y-90096616D01*
X95407581Y-90096608D01*
X95407584Y-90096607D01*
X95499573Y-90023079D01*
X95519959Y-90006784D01*
X95519960Y-90006784D01*
X95519960Y-90006783D01*
X95519962Y-90006782D01*
X95593352Y-89901972D01*
X95602488Y-89888925D01*
X95603450Y-89887318D01*
X95603912Y-89886890D01*
X95605030Y-89885295D01*
X95605376Y-89885537D01*
X95654769Y-89839904D01*
X95709848Y-89827000D01*
X96281984Y-89827000D01*
X96349023Y-89846685D01*
X96386298Y-89883959D01*
X96405564Y-89913937D01*
X96434229Y-89958541D01*
X96434235Y-89958548D01*
X96479979Y-90011340D01*
X96479982Y-90011343D01*
X96479986Y-90011347D01*
X96588720Y-90105567D01*
X96588723Y-90105568D01*
X96588724Y-90105569D01*
X96702272Y-90157426D01*
X96719597Y-90165338D01*
X96786636Y-90185023D01*
X96786640Y-90185024D01*
X96929056Y-90205500D01*
X96929059Y-90205500D01*
X97600934Y-90205500D01*
X97600944Y-90205500D01*
X97662948Y-90201683D01*
X97693136Y-90197952D01*
X97754196Y-90186560D01*
X97862357Y-90142262D01*
X97887333Y-90132033D01*
X97887334Y-90132031D01*
X97887342Y-90132029D01*
X97947572Y-90096616D01*
X97947581Y-90096608D01*
X97947584Y-90096607D01*
X98039573Y-90023079D01*
X98059959Y-90006784D01*
X98059960Y-90006784D01*
X98059960Y-90006783D01*
X98059962Y-90006782D01*
X98133352Y-89901972D01*
X98142488Y-89888925D01*
X98143450Y-89887318D01*
X98143912Y-89886890D01*
X98145030Y-89885295D01*
X98145376Y-89885537D01*
X98194769Y-89839904D01*
X98249848Y-89827000D01*
X98821984Y-89827000D01*
X98889023Y-89846685D01*
X98926298Y-89883959D01*
X98945564Y-89913937D01*
X98974229Y-89958541D01*
X98974235Y-89958548D01*
X99019979Y-90011340D01*
X99019982Y-90011343D01*
X99019986Y-90011347D01*
X99128720Y-90105567D01*
X99128723Y-90105568D01*
X99128724Y-90105569D01*
X99242272Y-90157426D01*
X99259597Y-90165338D01*
X99326636Y-90185023D01*
X99326640Y-90185024D01*
X99469056Y-90205500D01*
X99469059Y-90205500D01*
X100140934Y-90205500D01*
X100140944Y-90205500D01*
X100202948Y-90201683D01*
X100233136Y-90197952D01*
X100294196Y-90186560D01*
X100402357Y-90142262D01*
X100427333Y-90132033D01*
X100427334Y-90132031D01*
X100427342Y-90132029D01*
X100487572Y-90096616D01*
X100487581Y-90096608D01*
X100487584Y-90096607D01*
X100579573Y-90023079D01*
X100599959Y-90006784D01*
X100599960Y-90006784D01*
X100599960Y-90006783D01*
X100599962Y-90006782D01*
X100673352Y-89901972D01*
X100682488Y-89888925D01*
X100683450Y-89887318D01*
X100683912Y-89886890D01*
X100685030Y-89885295D01*
X100685376Y-89885537D01*
X100734769Y-89839904D01*
X100789848Y-89827000D01*
X101361984Y-89827000D01*
X101429023Y-89846685D01*
X101466298Y-89883959D01*
X101485564Y-89913937D01*
X101514229Y-89958541D01*
X101514235Y-89958548D01*
X101559979Y-90011340D01*
X101559982Y-90011343D01*
X101559986Y-90011347D01*
X101668720Y-90105567D01*
X101668723Y-90105568D01*
X101668724Y-90105569D01*
X101782272Y-90157426D01*
X101799597Y-90165338D01*
X101866636Y-90185023D01*
X101866640Y-90185024D01*
X102009056Y-90205500D01*
X102009059Y-90205500D01*
X102680934Y-90205500D01*
X102680944Y-90205500D01*
X102742948Y-90201683D01*
X102773136Y-90197952D01*
X102834196Y-90186560D01*
X102942357Y-90142262D01*
X102967333Y-90132033D01*
X102967334Y-90132031D01*
X102967342Y-90132029D01*
X103027572Y-90096616D01*
X103027581Y-90096608D01*
X103027584Y-90096607D01*
X103119573Y-90023079D01*
X103139959Y-90006784D01*
X103139960Y-90006784D01*
X103139960Y-90006783D01*
X103139962Y-90006782D01*
X103213352Y-89901972D01*
X103222488Y-89888925D01*
X103223450Y-89887318D01*
X103223912Y-89886890D01*
X103225030Y-89885295D01*
X103225376Y-89885537D01*
X103274769Y-89839904D01*
X103329848Y-89827000D01*
X103896071Y-89827000D01*
X103963110Y-89846685D01*
X104000386Y-89883959D01*
X104001888Y-89886296D01*
X104001889Y-89886298D01*
X104039664Y-89945075D01*
X104046790Y-89953299D01*
X104047075Y-89953628D01*
X104056459Y-89965934D01*
X104063701Y-89976771D01*
X104068722Y-89984002D01*
X104079279Y-89998644D01*
X104127090Y-90046457D01*
X104133111Y-90052925D01*
X104133852Y-90053780D01*
X104133855Y-90053783D01*
X104134726Y-90054538D01*
X104141195Y-90060562D01*
X104181009Y-90100378D01*
X104181015Y-90100383D01*
X104181020Y-90100388D01*
X104181026Y-90100392D01*
X104181029Y-90100395D01*
X104236947Y-90142256D01*
X104236950Y-90142257D01*
X104236953Y-90142260D01*
X104279216Y-90165338D01*
X104362289Y-90210701D01*
X104363229Y-90211214D01*
X104503820Y-90241801D01*
X104572931Y-90246745D01*
X104573476Y-90246787D01*
X104573524Y-90246788D01*
X104717037Y-90236524D01*
X104779251Y-90213318D01*
X104822585Y-90205500D01*
X105221805Y-90205500D01*
X105221818Y-90205500D01*
X105283808Y-90201685D01*
X105313995Y-90197955D01*
X105375069Y-90186561D01*
X105483247Y-90142256D01*
X105508206Y-90132034D01*
X105508207Y-90132032D01*
X105508215Y-90132030D01*
X105568445Y-90096617D01*
X105680830Y-90006787D01*
X105745848Y-89913937D01*
X105800426Y-89870313D01*
X105848938Y-89861072D01*
X105871074Y-89861343D01*
X105881681Y-89861930D01*
X106261224Y-89899312D01*
X106273249Y-89901096D01*
X106558188Y-89957774D01*
X106620098Y-89990158D01*
X106627707Y-89998185D01*
X106639112Y-90011347D01*
X106747846Y-90105567D01*
X106747849Y-90105568D01*
X106747850Y-90105569D01*
X106861398Y-90157426D01*
X106878723Y-90165338D01*
X106945762Y-90185023D01*
X106945766Y-90185024D01*
X107088182Y-90205500D01*
X107088185Y-90205500D01*
X107281216Y-90205500D01*
X107328668Y-90214939D01*
X107385629Y-90238533D01*
X107396617Y-90243729D01*
X107732282Y-90423147D01*
X107742713Y-90429399D01*
X108059169Y-90640849D01*
X108068942Y-90648097D01*
X108363148Y-90889544D01*
X108372165Y-90897717D01*
X108641282Y-91166834D01*
X108649455Y-91175851D01*
X108890902Y-91470057D01*
X108898150Y-91479830D01*
X109109600Y-91796286D01*
X109115856Y-91806724D01*
X109295264Y-92142372D01*
X109300467Y-92153372D01*
X109446114Y-92504997D01*
X109450214Y-92516455D01*
X109560698Y-92880670D01*
X109563654Y-92892474D01*
X109637902Y-93265744D01*
X109639688Y-93277781D01*
X109677068Y-93657304D01*
X109677656Y-93667937D01*
X109679991Y-93858266D01*
X109680000Y-93859787D01*
X109680000Y-150628212D01*
X109679991Y-150629733D01*
X109677656Y-150820062D01*
X109677068Y-150830695D01*
X109639688Y-151210218D01*
X109637902Y-151222255D01*
X109563654Y-151595525D01*
X109560698Y-151607329D01*
X109450214Y-151971544D01*
X109446114Y-151983002D01*
X109300467Y-152334627D01*
X109295264Y-152345627D01*
X109115856Y-152681275D01*
X109109600Y-152691713D01*
X108898150Y-153008169D01*
X108890902Y-153017942D01*
X108649455Y-153312148D01*
X108641282Y-153321165D01*
X108372165Y-153590282D01*
X108363148Y-153598455D01*
X108068942Y-153839902D01*
X108059169Y-153847150D01*
X107742713Y-154058600D01*
X107732275Y-154064856D01*
X107396627Y-154244264D01*
X107385627Y-154249467D01*
X107034002Y-154395114D01*
X107022544Y-154399214D01*
X106658329Y-154509698D01*
X106646525Y-154512654D01*
X106273255Y-154586902D01*
X106261218Y-154588688D01*
X105881695Y-154626068D01*
X105871062Y-154626656D01*
X105680734Y-154628991D01*
X105679213Y-154629000D01*
X56800787Y-154629000D01*
X56799266Y-154628991D01*
X56608937Y-154626656D01*
X56598304Y-154626068D01*
X56218781Y-154588688D01*
X56206744Y-154586902D01*
X55833474Y-154512654D01*
X55821670Y-154509698D01*
X55457455Y-154399214D01*
X55445997Y-154395114D01*
X55094372Y-154249467D01*
X55083372Y-154244264D01*
X54747724Y-154064856D01*
X54737286Y-154058600D01*
X54420830Y-153847150D01*
X54411057Y-153839902D01*
X54116851Y-153598455D01*
X54107834Y-153590282D01*
X53838717Y-153321165D01*
X53830544Y-153312148D01*
X53589097Y-153017942D01*
X53581849Y-153008169D01*
X53370399Y-152691713D01*
X53364143Y-152681275D01*
X53184735Y-152345627D01*
X53179532Y-152334627D01*
X53033885Y-151983002D01*
X53029785Y-151971544D01*
X52919301Y-151607329D01*
X52916345Y-151595525D01*
X52842097Y-151222255D01*
X52840311Y-151210218D01*
X52802930Y-150830681D01*
X52802343Y-150820075D01*
X52800009Y-150629732D01*
X52800000Y-150628212D01*
X52800000Y-149010089D01*
X52800020Y-149007878D01*
X52800169Y-148999500D01*
X52802409Y-148873889D01*
X52803650Y-148858472D01*
X52841948Y-148592099D01*
X52845709Y-148574814D01*
X52921210Y-148317681D01*
X52927391Y-148301112D01*
X52950733Y-148250000D01*
X53038720Y-148057334D01*
X53047185Y-148041832D01*
X53192084Y-147816364D01*
X53202670Y-147802222D01*
X53378177Y-147599676D01*
X53390676Y-147587177D01*
X53593222Y-147411670D01*
X53607364Y-147401084D01*
X53832832Y-147256185D01*
X53848334Y-147247720D01*
X54092112Y-147136390D01*
X54108681Y-147130210D01*
X54365818Y-147054707D01*
X54383099Y-147050948D01*
X54649472Y-147012650D01*
X54664889Y-147011409D01*
X54798879Y-147009020D01*
X54801090Y-147009000D01*
X71120016Y-147009000D01*
X71219381Y-147007227D01*
X71262861Y-147006452D01*
X71545674Y-146965790D01*
X71819821Y-146885293D01*
X71819824Y-146885291D01*
X71819826Y-146885291D01*
X72079710Y-146766606D01*
X72079714Y-146766603D01*
X72079722Y-146766600D01*
X72320086Y-146612127D01*
X72536020Y-146425020D01*
X72723127Y-146209086D01*
X72877600Y-145968722D01*
X72877603Y-145968714D01*
X72877606Y-145968710D01*
X72996291Y-145708826D01*
X72996291Y-145708824D01*
X72996293Y-145708821D01*
X73076790Y-145434674D01*
X73117452Y-145151861D01*
X73120000Y-145009000D01*
X73120000Y-133769000D01*
X73117452Y-133626139D01*
X73076790Y-133343326D01*
X72996293Y-133069179D01*
X72996292Y-133069177D01*
X72996291Y-133069173D01*
X72877606Y-132809289D01*
X72877597Y-132809273D01*
X72723127Y-132568914D01*
X72723121Y-132568907D01*
X72536021Y-132352980D01*
X72536019Y-132352978D01*
X72320092Y-132165878D01*
X72320085Y-132165872D01*
X72079726Y-132011402D01*
X72079710Y-132011393D01*
X71819826Y-131892708D01*
X71545679Y-131812211D01*
X71545669Y-131812209D01*
X71262855Y-131771547D01*
X71120016Y-131769000D01*
X71120000Y-131769000D01*
X54801090Y-131769000D01*
X54798879Y-131768980D01*
X54795015Y-131768911D01*
X54664898Y-131766590D01*
X54649463Y-131765348D01*
X54383102Y-131727051D01*
X54365814Y-131723290D01*
X54108688Y-131647791D01*
X54092112Y-131641608D01*
X53848345Y-131530284D01*
X53832821Y-131521808D01*
X53607374Y-131376921D01*
X53593212Y-131366320D01*
X53390682Y-131190827D01*
X53378172Y-131178317D01*
X53202679Y-130975787D01*
X53192077Y-130961624D01*
X53047188Y-130736173D01*
X53038715Y-130720654D01*
X52927391Y-130476887D01*
X52921208Y-130460311D01*
X52845709Y-130203185D01*
X52841948Y-130185897D01*
X52803650Y-129919528D01*
X52802409Y-129904109D01*
X52800020Y-129770121D01*
X52800000Y-129767910D01*
X52800000Y-123000000D01*
X68594540Y-123000000D01*
X68614326Y-123188256D01*
X68614327Y-123188259D01*
X68672818Y-123368277D01*
X68672821Y-123368284D01*
X68767467Y-123532216D01*
X68873971Y-123650500D01*
X68894129Y-123672888D01*
X69047265Y-123784148D01*
X69047270Y-123784151D01*
X69220192Y-123861142D01*
X69220197Y-123861144D01*
X69405354Y-123900500D01*
X69405355Y-123900500D01*
X69594644Y-123900500D01*
X69594646Y-123900500D01*
X69779803Y-123861144D01*
X69952730Y-123784151D01*
X70105871Y-123672888D01*
X70189532Y-123579972D01*
X70249019Y-123543324D01*
X70318876Y-123544655D01*
X70332104Y-123549660D01*
X70470197Y-123611144D01*
X70655354Y-123650500D01*
X70655355Y-123650500D01*
X70844644Y-123650500D01*
X70844646Y-123650500D01*
X71029803Y-123611144D01*
X71202730Y-123534151D01*
X71355871Y-123422888D01*
X71379895Y-123396205D01*
X71439381Y-123359558D01*
X71509238Y-123360887D01*
X71567286Y-123399773D01*
X71595096Y-123463870D01*
X71595366Y-123492135D01*
X71594540Y-123499996D01*
X71594540Y-123500000D01*
X71614326Y-123688256D01*
X71614327Y-123688259D01*
X71672818Y-123868277D01*
X71672821Y-123868284D01*
X71767467Y-124032216D01*
X71894129Y-124172888D01*
X72047265Y-124284148D01*
X72047270Y-124284151D01*
X72220192Y-124361142D01*
X72220197Y-124361144D01*
X72405354Y-124400500D01*
X72405355Y-124400500D01*
X72594644Y-124400500D01*
X72594646Y-124400500D01*
X72779803Y-124361144D01*
X72952730Y-124284151D01*
X73105871Y-124172888D01*
X73232533Y-124032216D01*
X73327179Y-123868284D01*
X73385674Y-123688256D01*
X73405460Y-123500000D01*
X73385674Y-123311744D01*
X73327179Y-123131716D01*
X73232533Y-122967784D01*
X73105871Y-122827112D01*
X73084719Y-122811744D01*
X72952734Y-122715851D01*
X72952729Y-122715848D01*
X72779807Y-122638857D01*
X72779802Y-122638855D01*
X72634001Y-122607865D01*
X72594646Y-122599500D01*
X72405354Y-122599500D01*
X72372897Y-122606398D01*
X72220197Y-122638855D01*
X72220192Y-122638857D01*
X72047270Y-122715848D01*
X72047265Y-122715851D01*
X71894129Y-122827111D01*
X71894127Y-122827113D01*
X71870102Y-122853795D01*
X71810614Y-122890442D01*
X71740757Y-122889111D01*
X71682710Y-122850223D01*
X71654902Y-122786125D01*
X71654634Y-122757858D01*
X71655460Y-122750000D01*
X71635674Y-122561744D01*
X71577179Y-122381716D01*
X71482533Y-122217784D01*
X71355871Y-122077112D01*
X71355870Y-122077111D01*
X71202734Y-121965851D01*
X71202729Y-121965848D01*
X71029807Y-121888857D01*
X71029802Y-121888855D01*
X70968723Y-121875873D01*
X70907241Y-121842681D01*
X70873465Y-121781518D01*
X70876572Y-121716265D01*
X70885674Y-121688256D01*
X70905460Y-121500000D01*
X70885674Y-121311744D01*
X70865612Y-121250000D01*
X75094540Y-121250000D01*
X75114326Y-121438256D01*
X75114327Y-121438259D01*
X75172818Y-121618277D01*
X75172821Y-121618284D01*
X75267467Y-121782216D01*
X75363487Y-121888857D01*
X75394129Y-121922888D01*
X75547265Y-122034148D01*
X75547270Y-122034151D01*
X75720192Y-122111142D01*
X75720197Y-122111144D01*
X75905354Y-122150500D01*
X75905355Y-122150500D01*
X76094644Y-122150500D01*
X76094646Y-122150500D01*
X76279803Y-122111144D01*
X76452730Y-122034151D01*
X76605871Y-121922888D01*
X76732533Y-121782216D01*
X76827179Y-121618284D01*
X76860240Y-121516532D01*
X76899677Y-121458858D01*
X76964036Y-121431659D01*
X77003950Y-121433560D01*
X77073301Y-121448302D01*
X77073302Y-121448302D01*
X77262591Y-121448302D01*
X77262593Y-121448302D01*
X77447750Y-121408946D01*
X77620677Y-121331953D01*
X77773818Y-121220690D01*
X77900480Y-121080018D01*
X77965278Y-120967785D01*
X77972313Y-120955600D01*
X78022880Y-120907384D01*
X78079700Y-120893600D01*
X78094644Y-120893600D01*
X78094646Y-120893600D01*
X78279803Y-120854244D01*
X78452730Y-120777251D01*
X78605871Y-120665988D01*
X78732533Y-120525316D01*
X78827179Y-120361384D01*
X78879773Y-120199515D01*
X78919209Y-120141843D01*
X78971919Y-120116547D01*
X79029803Y-120104244D01*
X79029807Y-120104242D01*
X79029808Y-120104242D01*
X79088058Y-120078306D01*
X79202730Y-120027251D01*
X79355871Y-119915988D01*
X79482533Y-119775316D01*
X79577179Y-119611384D01*
X79635674Y-119431356D01*
X79655460Y-119243100D01*
X79635674Y-119054844D01*
X79577179Y-118874816D01*
X79482533Y-118710884D01*
X79355871Y-118570212D01*
X79355870Y-118570211D01*
X79202734Y-118458951D01*
X79202729Y-118458948D01*
X79029807Y-118381957D01*
X79029802Y-118381955D01*
X78963196Y-118367798D01*
X78901714Y-118334606D01*
X78871047Y-118284828D01*
X78839669Y-118188256D01*
X78827181Y-118149821D01*
X78827178Y-118149815D01*
X78825318Y-118146594D01*
X78732533Y-117985884D01*
X78698253Y-117947812D01*
X78657350Y-117902384D01*
X78627120Y-117839392D01*
X78625500Y-117819412D01*
X78625500Y-114310452D01*
X78645185Y-114243413D01*
X78661819Y-114222771D01*
X78697771Y-114186819D01*
X78759094Y-114153334D01*
X78785452Y-114150500D01*
X78844644Y-114150500D01*
X78844646Y-114150500D01*
X79029803Y-114111144D01*
X79202730Y-114034151D01*
X79355871Y-113922888D01*
X79482533Y-113782216D01*
X79577179Y-113618284D01*
X79635674Y-113438256D01*
X79655460Y-113250000D01*
X79635674Y-113061744D01*
X79577179Y-112881716D01*
X79482533Y-112717784D01*
X79355871Y-112577112D01*
X79355870Y-112577111D01*
X79287084Y-112527135D01*
X80824500Y-112527135D01*
X80824500Y-113472870D01*
X80824501Y-113472876D01*
X80830908Y-113532483D01*
X80881202Y-113667328D01*
X80881206Y-113667335D01*
X80926694Y-113728098D01*
X80967454Y-113782546D01*
X81074811Y-113862914D01*
X81116682Y-113918847D01*
X81124500Y-113962180D01*
X81124500Y-139449111D01*
X81148535Y-139569944D01*
X81148540Y-139569961D01*
X81195685Y-139683780D01*
X81195687Y-139683783D01*
X81195688Y-139683786D01*
X81221462Y-139722359D01*
X81229914Y-139735007D01*
X81229915Y-139735009D01*
X81264141Y-139786233D01*
X81355586Y-139877678D01*
X81355608Y-139877698D01*
X85923538Y-144445628D01*
X85957023Y-144506951D01*
X85959178Y-144520347D01*
X85962529Y-144552229D01*
X85976826Y-144688256D01*
X85976827Y-144688259D01*
X86035318Y-144868277D01*
X86035321Y-144868284D01*
X86129964Y-145032212D01*
X86129965Y-145032214D01*
X86129967Y-145032216D01*
X86253978Y-145169944D01*
X86284207Y-145232933D01*
X86275582Y-145302268D01*
X86249508Y-145340595D01*
X85641165Y-145948939D01*
X85101269Y-146488835D01*
X85101267Y-146488837D01*
X85057704Y-146532399D01*
X85014142Y-146575961D01*
X84997871Y-146600312D01*
X84981710Y-146624500D01*
X84945686Y-146678411D01*
X84937202Y-146698897D01*
X84937200Y-146698901D01*
X84898538Y-146792239D01*
X84898535Y-146792251D01*
X84874500Y-146913084D01*
X84874500Y-149301312D01*
X84854815Y-149368351D01*
X84842650Y-149384284D01*
X84767466Y-149467784D01*
X84672821Y-149631715D01*
X84672818Y-149631722D01*
X84614327Y-149811740D01*
X84614326Y-149811744D01*
X84594540Y-150000000D01*
X84614326Y-150188256D01*
X84614327Y-150188259D01*
X84672818Y-150368277D01*
X84672821Y-150368284D01*
X84767467Y-150532216D01*
X84862522Y-150637785D01*
X84894129Y-150672888D01*
X85047265Y-150784148D01*
X85047270Y-150784151D01*
X85220192Y-150861142D01*
X85220197Y-150861144D01*
X85405354Y-150900500D01*
X85405355Y-150900500D01*
X85594644Y-150900500D01*
X85594646Y-150900500D01*
X85779803Y-150861144D01*
X85952730Y-150784151D01*
X86105871Y-150672888D01*
X86232533Y-150532216D01*
X86327179Y-150368284D01*
X86385674Y-150188256D01*
X86405460Y-150000000D01*
X86385674Y-149811744D01*
X86327179Y-149631716D01*
X86232533Y-149467784D01*
X86230925Y-149465998D01*
X86157350Y-149384284D01*
X86127120Y-149321292D01*
X86125500Y-149301312D01*
X86125500Y-147285147D01*
X86145185Y-147218108D01*
X86161819Y-147197466D01*
X90735854Y-142623432D01*
X90735857Y-142623429D01*
X90748849Y-142603985D01*
X90804311Y-142520981D01*
X90851463Y-142407147D01*
X90875500Y-142286302D01*
X90875500Y-142163089D01*
X90875500Y-141773253D01*
X90895185Y-141706214D01*
X90947989Y-141660459D01*
X91012472Y-141649933D01*
X91017846Y-141650498D01*
X91017854Y-141650500D01*
X91017862Y-141650500D01*
X91207144Y-141650500D01*
X91207146Y-141650500D01*
X91392303Y-141611144D01*
X91450063Y-141585426D01*
X91519313Y-141576141D01*
X91582590Y-141605769D01*
X91619804Y-141664904D01*
X91624500Y-141698706D01*
X91624500Y-144989061D01*
X91604815Y-145056100D01*
X91552011Y-145101855D01*
X91482853Y-145111799D01*
X91419297Y-145082774D01*
X91393113Y-145051061D01*
X91357317Y-144989061D01*
X91345033Y-144967784D01*
X91218371Y-144827112D01*
X91218370Y-144827111D01*
X91065234Y-144715851D01*
X91065229Y-144715848D01*
X90892307Y-144638857D01*
X90892302Y-144638855D01*
X90746501Y-144607865D01*
X90707146Y-144599500D01*
X90517854Y-144599500D01*
X90485397Y-144606398D01*
X90332697Y-144638855D01*
X90332692Y-144638857D01*
X90159770Y-144715848D01*
X90159765Y-144715851D01*
X90006629Y-144827111D01*
X89879966Y-144967785D01*
X89785321Y-145131715D01*
X89785318Y-145131722D01*
X89729905Y-145302268D01*
X89726826Y-145311744D01*
X89723794Y-145340595D01*
X89709178Y-145479651D01*
X89682593Y-145544266D01*
X89673538Y-145554370D01*
X87351270Y-147876639D01*
X87264144Y-147963764D01*
X87264138Y-147963772D01*
X87195692Y-148066205D01*
X87195684Y-148066219D01*
X87162347Y-148146707D01*
X87156823Y-148160043D01*
X87148537Y-148180045D01*
X87148535Y-148180053D01*
X87124500Y-148300889D01*
X87124500Y-149301312D01*
X87104815Y-149368351D01*
X87092650Y-149384284D01*
X87017466Y-149467784D01*
X86922821Y-149631715D01*
X86922818Y-149631722D01*
X86864327Y-149811740D01*
X86864326Y-149811744D01*
X86844540Y-150000000D01*
X86864326Y-150188256D01*
X86864327Y-150188259D01*
X86922818Y-150368277D01*
X86922821Y-150368284D01*
X87017467Y-150532216D01*
X87112522Y-150637785D01*
X87144129Y-150672888D01*
X87297265Y-150784148D01*
X87297270Y-150784151D01*
X87470192Y-150861142D01*
X87470197Y-150861144D01*
X87655354Y-150900500D01*
X87655355Y-150900500D01*
X87844644Y-150900500D01*
X87844646Y-150900500D01*
X88029803Y-150861144D01*
X88202730Y-150784151D01*
X88355871Y-150672888D01*
X88482533Y-150532216D01*
X88577179Y-150368284D01*
X88635674Y-150188256D01*
X88655460Y-150000000D01*
X88635674Y-149811744D01*
X88577179Y-149631716D01*
X88482533Y-149467784D01*
X88480925Y-149465998D01*
X88407350Y-149384284D01*
X88377120Y-149321292D01*
X88375500Y-149301312D01*
X88375500Y-148672952D01*
X88395185Y-148605913D01*
X88411819Y-148585271D01*
X90560271Y-146436819D01*
X90621594Y-146403334D01*
X90647952Y-146400500D01*
X90707144Y-146400500D01*
X90707146Y-146400500D01*
X90892303Y-146361144D01*
X91065230Y-146284151D01*
X91218371Y-146172888D01*
X91345033Y-146032216D01*
X91393114Y-145948937D01*
X91443679Y-145900723D01*
X91512286Y-145887499D01*
X91577151Y-145913467D01*
X91617680Y-145970381D01*
X91624500Y-146010938D01*
X91624500Y-147939548D01*
X91604815Y-148006587D01*
X91588181Y-148027229D01*
X90552229Y-149063181D01*
X90490906Y-149096666D01*
X90464548Y-149099500D01*
X90405354Y-149099500D01*
X90372897Y-149106398D01*
X90220197Y-149138855D01*
X90220192Y-149138857D01*
X90047270Y-149215848D01*
X90047265Y-149215851D01*
X89894129Y-149327111D01*
X89767466Y-149467785D01*
X89672821Y-149631715D01*
X89672818Y-149631722D01*
X89614327Y-149811740D01*
X89614326Y-149811744D01*
X89594540Y-150000000D01*
X89614326Y-150188256D01*
X89614327Y-150188259D01*
X89672818Y-150368277D01*
X89672821Y-150368284D01*
X89767467Y-150532216D01*
X89862522Y-150637785D01*
X89894129Y-150672888D01*
X90047265Y-150784148D01*
X90047270Y-150784151D01*
X90220192Y-150861142D01*
X90220197Y-150861144D01*
X90405354Y-150900500D01*
X90405355Y-150900500D01*
X90594644Y-150900500D01*
X90594646Y-150900500D01*
X90779803Y-150861144D01*
X90952730Y-150784151D01*
X91105871Y-150672888D01*
X91232533Y-150532216D01*
X91327179Y-150368284D01*
X91385674Y-150188256D01*
X91403321Y-150020345D01*
X91429905Y-149955732D01*
X91438952Y-149945636D01*
X92089240Y-149295349D01*
X92150562Y-149261865D01*
X92220254Y-149266849D01*
X92276187Y-149308721D01*
X92300604Y-149374185D01*
X92285752Y-149442458D01*
X92269075Y-149465998D01*
X92267466Y-149467785D01*
X92172821Y-149631715D01*
X92172818Y-149631722D01*
X92114327Y-149811740D01*
X92114326Y-149811744D01*
X92094540Y-150000000D01*
X92114326Y-150188256D01*
X92114327Y-150188259D01*
X92172818Y-150368277D01*
X92172821Y-150368284D01*
X92267467Y-150532216D01*
X92362522Y-150637785D01*
X92394129Y-150672888D01*
X92547265Y-150784148D01*
X92547270Y-150784151D01*
X92720192Y-150861142D01*
X92720197Y-150861144D01*
X92905354Y-150900500D01*
X92905355Y-150900500D01*
X93094644Y-150900500D01*
X93094646Y-150900500D01*
X93279803Y-150861144D01*
X93452730Y-150784151D01*
X93605871Y-150672888D01*
X93732533Y-150532216D01*
X93827179Y-150368284D01*
X93885674Y-150188256D01*
X93905460Y-150000000D01*
X93888041Y-149834272D01*
X93900610Y-149765546D01*
X93948342Y-149714522D01*
X94016083Y-149697404D01*
X94082324Y-149719626D01*
X94099043Y-149733633D01*
X94311038Y-149945628D01*
X94344523Y-150006951D01*
X94346678Y-150020347D01*
X94354139Y-150091338D01*
X94364326Y-150188256D01*
X94364327Y-150188259D01*
X94422818Y-150368277D01*
X94422821Y-150368284D01*
X94517467Y-150532216D01*
X94612522Y-150637785D01*
X94644129Y-150672888D01*
X94797265Y-150784148D01*
X94797270Y-150784151D01*
X94970192Y-150861142D01*
X94970197Y-150861144D01*
X95155354Y-150900500D01*
X95155355Y-150900500D01*
X95344644Y-150900500D01*
X95344646Y-150900500D01*
X95529803Y-150861144D01*
X95702730Y-150784151D01*
X95855871Y-150672888D01*
X95982533Y-150532216D01*
X96051337Y-150413042D01*
X96101901Y-150364830D01*
X96170508Y-150351606D01*
X96235373Y-150377574D01*
X96246403Y-150387364D01*
X96493694Y-150634655D01*
X96493723Y-150634686D01*
X96636173Y-150777136D01*
X96636177Y-150777139D01*
X96800038Y-150886628D01*
X96800051Y-150886635D01*
X96928792Y-150939961D01*
X96971703Y-150957735D01*
X96982123Y-150962051D01*
X97078771Y-150981275D01*
X97127094Y-150990887D01*
X97175417Y-151000500D01*
X97175418Y-151000500D01*
X100598543Y-151000500D01*
X100728582Y-150974632D01*
X100791835Y-150962051D01*
X100973914Y-150886632D01*
X101137782Y-150777139D01*
X101277139Y-150637782D01*
X101386632Y-150473914D01*
X101462051Y-150291835D01*
X101500500Y-150098541D01*
X101500500Y-149901459D01*
X101500500Y-149901456D01*
X101462052Y-149708170D01*
X101462051Y-149708169D01*
X101462051Y-149708165D01*
X101430385Y-149631715D01*
X101386635Y-149526092D01*
X101386628Y-149526079D01*
X101277139Y-149362218D01*
X101277136Y-149362214D01*
X101137785Y-149222863D01*
X101137781Y-149222860D01*
X100973920Y-149113371D01*
X100973907Y-149113364D01*
X100791839Y-149037950D01*
X100791829Y-149037947D01*
X100598543Y-148999500D01*
X100598541Y-148999500D01*
X98565398Y-148999500D01*
X98498359Y-148979815D01*
X98452604Y-148927011D01*
X98442660Y-148857853D01*
X98471685Y-148794297D01*
X98473248Y-148792528D01*
X98482533Y-148782216D01*
X98577179Y-148618284D01*
X98635674Y-148438256D01*
X98655460Y-148250000D01*
X98635674Y-148061744D01*
X98577179Y-147881716D01*
X98482533Y-147717784D01*
X98355871Y-147577112D01*
X98355870Y-147577111D01*
X98202734Y-147465851D01*
X98202729Y-147465848D01*
X98029807Y-147388857D01*
X98029802Y-147388855D01*
X97884001Y-147357865D01*
X97844646Y-147349500D01*
X97844645Y-147349500D01*
X97785453Y-147349500D01*
X97718414Y-147329815D01*
X97697772Y-147313181D01*
X97411819Y-147027228D01*
X97378334Y-146965905D01*
X97375500Y-146939547D01*
X97375500Y-146494142D01*
X97395185Y-146427103D01*
X97447989Y-146381348D01*
X97517147Y-146371404D01*
X97525270Y-146372850D01*
X97655354Y-146400500D01*
X97655355Y-146400500D01*
X97844644Y-146400500D01*
X97844646Y-146400500D01*
X98029803Y-146361144D01*
X98202730Y-146284151D01*
X98355871Y-146172888D01*
X98482533Y-146032216D01*
X98577179Y-145868284D01*
X98635674Y-145688256D01*
X98653321Y-145520345D01*
X98679905Y-145455732D01*
X98688952Y-145445636D01*
X98873729Y-145260860D01*
X98873733Y-145260858D01*
X98960858Y-145173733D01*
X99029311Y-145071286D01*
X99029312Y-145071285D01*
X99029313Y-145071282D01*
X99029315Y-145071279D01*
X99039672Y-145046272D01*
X99076463Y-144957451D01*
X99100500Y-144836607D01*
X99100500Y-144713393D01*
X99100500Y-136413394D01*
X99076463Y-136292548D01*
X99056057Y-136243284D01*
X99029312Y-136178714D01*
X99029310Y-136178711D01*
X99029309Y-136178708D01*
X98994395Y-136126458D01*
X98994395Y-136126457D01*
X98994392Y-136126455D01*
X98960859Y-136076268D01*
X98960855Y-136076263D01*
X98870637Y-135986045D01*
X98870606Y-135986016D01*
X98813960Y-135929370D01*
X98780475Y-135868047D01*
X98778323Y-135854671D01*
X98760674Y-135686744D01*
X98702179Y-135506716D01*
X98607533Y-135342784D01*
X98480871Y-135202112D01*
X98480870Y-135202111D01*
X98327734Y-135090851D01*
X98327729Y-135090848D01*
X98154807Y-135013857D01*
X98154802Y-135013855D01*
X98009001Y-134982865D01*
X97969646Y-134974500D01*
X97780354Y-134974500D01*
X97747897Y-134981398D01*
X97595197Y-135013855D01*
X97595192Y-135013857D01*
X97549936Y-135034007D01*
X97480686Y-135043292D01*
X97417409Y-135013664D01*
X97380196Y-134954529D01*
X97375500Y-134920728D01*
X97375500Y-125024500D01*
X97395185Y-124957461D01*
X97447989Y-124911706D01*
X97499500Y-124900500D01*
X97594644Y-124900500D01*
X97594646Y-124900500D01*
X97779803Y-124861144D01*
X97952730Y-124784151D01*
X98105871Y-124672888D01*
X98232533Y-124532216D01*
X98327179Y-124368284D01*
X98385674Y-124188256D01*
X98403321Y-124020345D01*
X98429905Y-123955732D01*
X98438952Y-123945636D01*
X99073729Y-123310860D01*
X99073733Y-123310858D01*
X99160858Y-123223733D01*
X99222342Y-123131716D01*
X99229312Y-123121285D01*
X99276463Y-123007451D01*
X99277768Y-123000893D01*
X99300500Y-122886606D01*
X99300500Y-122848543D01*
X101999499Y-122848543D01*
X102037947Y-123041829D01*
X102037950Y-123041839D01*
X102113364Y-123223907D01*
X102113371Y-123223920D01*
X102222860Y-123387781D01*
X102222863Y-123387785D01*
X102362214Y-123527136D01*
X102362218Y-123527139D01*
X102526079Y-123636628D01*
X102526092Y-123636635D01*
X102708160Y-123712049D01*
X102708165Y-123712051D01*
X102708169Y-123712051D01*
X102708170Y-123712052D01*
X102901456Y-123750500D01*
X102901459Y-123750500D01*
X103098543Y-123750500D01*
X103228582Y-123724632D01*
X103291835Y-123712051D01*
X103473914Y-123636632D01*
X103637782Y-123527139D01*
X103777139Y-123387782D01*
X103886632Y-123223914D01*
X103962051Y-123041835D01*
X103982654Y-122938256D01*
X104000500Y-122848543D01*
X104000500Y-102151456D01*
X103962052Y-101958170D01*
X103962051Y-101958169D01*
X103962051Y-101958165D01*
X103961970Y-101957969D01*
X103886635Y-101776092D01*
X103886628Y-101776079D01*
X103777139Y-101612218D01*
X103777136Y-101612214D01*
X103637785Y-101472863D01*
X103637781Y-101472860D01*
X103473920Y-101363371D01*
X103473907Y-101363364D01*
X103291839Y-101287950D01*
X103291829Y-101287947D01*
X103098543Y-101249500D01*
X103098541Y-101249500D01*
X102901459Y-101249500D01*
X102901457Y-101249500D01*
X102708170Y-101287947D01*
X102708160Y-101287950D01*
X102526092Y-101363364D01*
X102526079Y-101363371D01*
X102362218Y-101472860D01*
X102362214Y-101472863D01*
X102222863Y-101612214D01*
X102222860Y-101612218D01*
X102113371Y-101776079D01*
X102113364Y-101776092D01*
X102037950Y-101958160D01*
X102037947Y-101958170D01*
X101999500Y-102151456D01*
X101999500Y-102151459D01*
X101999500Y-122848541D01*
X101999500Y-122848543D01*
X101999499Y-122848543D01*
X99300500Y-122848543D01*
X99300500Y-102363394D01*
X99276463Y-102242548D01*
X99245945Y-102168872D01*
X99229312Y-102128715D01*
X99197516Y-102081129D01*
X99197515Y-102081127D01*
X99160861Y-102026271D01*
X99160855Y-102026263D01*
X99070637Y-101936045D01*
X99070606Y-101936016D01*
X98438960Y-101304370D01*
X98405475Y-101243047D01*
X98403323Y-101229671D01*
X98385674Y-101061744D01*
X98327179Y-100881716D01*
X98232533Y-100717784D01*
X98105871Y-100577112D01*
X98105870Y-100577111D01*
X97952734Y-100465851D01*
X97952729Y-100465848D01*
X97779807Y-100388857D01*
X97779802Y-100388855D01*
X97634001Y-100357865D01*
X97594646Y-100349500D01*
X97454782Y-100349500D01*
X97387743Y-100329815D01*
X97341988Y-100277011D01*
X97332044Y-100207853D01*
X97361069Y-100144297D01*
X97367101Y-100137819D01*
X98277134Y-99227787D01*
X98277134Y-99227786D01*
X98277139Y-99227782D01*
X98386631Y-99063914D01*
X98462051Y-98881836D01*
X98500500Y-98688540D01*
X98500500Y-98491460D01*
X98500500Y-98491457D01*
X98500499Y-98491455D01*
X98462052Y-98298172D01*
X98462051Y-98298165D01*
X98386631Y-98116086D01*
X98386630Y-98116085D01*
X98386627Y-98116079D01*
X98277139Y-97952219D01*
X98277136Y-97952215D01*
X98137784Y-97812863D01*
X98137780Y-97812860D01*
X97973920Y-97703372D01*
X97973911Y-97703367D01*
X97791835Y-97627949D01*
X97791827Y-97627947D01*
X97598543Y-97589500D01*
X97598540Y-97589500D01*
X97401460Y-97589500D01*
X97401457Y-97589500D01*
X97208171Y-97627947D01*
X97208163Y-97627949D01*
X97026084Y-97703369D01*
X96862219Y-97812859D01*
X96862212Y-97812865D01*
X94537260Y-100137819D01*
X94112220Y-100562859D01*
X94112218Y-100562861D01*
X94042538Y-100632540D01*
X93972859Y-100702219D01*
X93863371Y-100866079D01*
X93863364Y-100866092D01*
X93787950Y-101048160D01*
X93787947Y-101048170D01*
X93749500Y-101241456D01*
X93749500Y-107475500D01*
X93729815Y-107542539D01*
X93677011Y-107588294D01*
X93625500Y-107599500D01*
X93555354Y-107599500D01*
X93522897Y-107606398D01*
X93370197Y-107638855D01*
X93370192Y-107638857D01*
X93197270Y-107715848D01*
X93197265Y-107715851D01*
X93096583Y-107789001D01*
X93030776Y-107812481D01*
X92962723Y-107796655D01*
X92914028Y-107746549D01*
X92900378Y-107701647D01*
X92885674Y-107561744D01*
X92827179Y-107381716D01*
X92732533Y-107217784D01*
X92605871Y-107077112D01*
X92584719Y-107061744D01*
X92452734Y-106965851D01*
X92452729Y-106965848D01*
X92279807Y-106888857D01*
X92279802Y-106888855D01*
X92132669Y-106857582D01*
X92094646Y-106849500D01*
X91905354Y-106849500D01*
X91872897Y-106856398D01*
X91720197Y-106888855D01*
X91720192Y-106888857D01*
X91547270Y-106965848D01*
X91547265Y-106965851D01*
X91394129Y-107077111D01*
X91267466Y-107217785D01*
X91172821Y-107381715D01*
X91172818Y-107381722D01*
X91123921Y-107532214D01*
X91114326Y-107561744D01*
X91094540Y-107750000D01*
X91114326Y-107938256D01*
X91114327Y-107938259D01*
X91172818Y-108118277D01*
X91172821Y-108118284D01*
X91267467Y-108282216D01*
X91363487Y-108388857D01*
X91394129Y-108422888D01*
X91547265Y-108534148D01*
X91547270Y-108534151D01*
X91720192Y-108611142D01*
X91720197Y-108611144D01*
X91905354Y-108650500D01*
X91905355Y-108650500D01*
X92094644Y-108650500D01*
X92094646Y-108650500D01*
X92279803Y-108611144D01*
X92452730Y-108534151D01*
X92553418Y-108460996D01*
X92619221Y-108437518D01*
X92687275Y-108453343D01*
X92735970Y-108503449D01*
X92749622Y-108548354D01*
X92764326Y-108688256D01*
X92764327Y-108688259D01*
X92822818Y-108868277D01*
X92822821Y-108868284D01*
X92917467Y-109032216D01*
X93044129Y-109172888D01*
X93056512Y-109181884D01*
X93073385Y-109194144D01*
X93116051Y-109249473D01*
X93124500Y-109294462D01*
X93124500Y-109725500D01*
X93104815Y-109792539D01*
X93052011Y-109838294D01*
X93000500Y-109849500D01*
X92905354Y-109849500D01*
X92875503Y-109855845D01*
X92720197Y-109888855D01*
X92720192Y-109888857D01*
X92547270Y-109965848D01*
X92547265Y-109965851D01*
X92394129Y-110077111D01*
X92267466Y-110217785D01*
X92172821Y-110381715D01*
X92172818Y-110381722D01*
X92114327Y-110561740D01*
X92114326Y-110561744D01*
X92094540Y-110750000D01*
X92114326Y-110938256D01*
X92114327Y-110938259D01*
X92172818Y-111118277D01*
X92172821Y-111118284D01*
X92237921Y-111231041D01*
X92254394Y-111298942D01*
X92231541Y-111364968D01*
X92180971Y-111406320D01*
X92047267Y-111465850D01*
X92047265Y-111465851D01*
X91894129Y-111577111D01*
X91767466Y-111717785D01*
X91672821Y-111881715D01*
X91672819Y-111881719D01*
X91620227Y-112043581D01*
X91580789Y-112101256D01*
X91528079Y-112126552D01*
X91470194Y-112138856D01*
X91470192Y-112138857D01*
X91297270Y-112215848D01*
X91297265Y-112215851D01*
X91144129Y-112327111D01*
X91017466Y-112467785D01*
X90922821Y-112631715D01*
X90922818Y-112631722D01*
X90864327Y-112811740D01*
X90864326Y-112811744D01*
X90844540Y-113000000D01*
X90864326Y-113188256D01*
X90864327Y-113188259D01*
X90922818Y-113368277D01*
X90922821Y-113368284D01*
X91017467Y-113532216D01*
X91023096Y-113538467D01*
X91026304Y-113542031D01*
X91056531Y-113605023D01*
X91047904Y-113674358D01*
X91026304Y-113707969D01*
X91017466Y-113717785D01*
X90922821Y-113881715D01*
X90922818Y-113881722D01*
X90864369Y-114061611D01*
X90864326Y-114061744D01*
X90844540Y-114250000D01*
X90864326Y-114438256D01*
X90866292Y-114444309D01*
X90922818Y-114618277D01*
X90922821Y-114618284D01*
X91017467Y-114782216D01*
X91113487Y-114888857D01*
X91144129Y-114922888D01*
X91297265Y-115034148D01*
X91297270Y-115034151D01*
X91470192Y-115111142D01*
X91470197Y-115111144D01*
X91655354Y-115150500D01*
X91655355Y-115150500D01*
X91806750Y-115150500D01*
X91873789Y-115170185D01*
X91919544Y-115222989D01*
X91930750Y-115274500D01*
X91930750Y-117219887D01*
X91911065Y-117286926D01*
X91858261Y-117332681D01*
X91789103Y-117342625D01*
X91733865Y-117320205D01*
X91590234Y-117215851D01*
X91590229Y-117215848D01*
X91417307Y-117138857D01*
X91417302Y-117138855D01*
X91271501Y-117107865D01*
X91232146Y-117099500D01*
X91042854Y-117099500D01*
X91010397Y-117106398D01*
X90857697Y-117138855D01*
X90857692Y-117138857D01*
X90684770Y-117215848D01*
X90684765Y-117215851D01*
X90531629Y-117327111D01*
X90404966Y-117467785D01*
X90310321Y-117631715D01*
X90310318Y-117631722D01*
X90251827Y-117811740D01*
X90251826Y-117811744D01*
X90232040Y-118000000D01*
X90251826Y-118188256D01*
X90251827Y-118188259D01*
X90310318Y-118368277D01*
X90310321Y-118368284D01*
X90404967Y-118532216D01*
X90511471Y-118650500D01*
X90531629Y-118672888D01*
X90684765Y-118784148D01*
X90684770Y-118784151D01*
X90857692Y-118861142D01*
X90857697Y-118861144D01*
X91042854Y-118900500D01*
X91042855Y-118900500D01*
X91232144Y-118900500D01*
X91232146Y-118900500D01*
X91417303Y-118861144D01*
X91590230Y-118784151D01*
X91733867Y-118679792D01*
X91799671Y-118656314D01*
X91867725Y-118672139D01*
X91916420Y-118722245D01*
X91930750Y-118780112D01*
X91930750Y-121969887D01*
X91911065Y-122036926D01*
X91858261Y-122082681D01*
X91789103Y-122092625D01*
X91733865Y-122070205D01*
X91590234Y-121965851D01*
X91590229Y-121965848D01*
X91417307Y-121888857D01*
X91417302Y-121888855D01*
X91271501Y-121857865D01*
X91232146Y-121849500D01*
X91042854Y-121849500D01*
X91010397Y-121856398D01*
X90857697Y-121888855D01*
X90857692Y-121888857D01*
X90684770Y-121965848D01*
X90684765Y-121965851D01*
X90531629Y-122077111D01*
X90404966Y-122217785D01*
X90310321Y-122381715D01*
X90310318Y-122381722D01*
X90282355Y-122467785D01*
X90251826Y-122561744D01*
X90235629Y-122715849D01*
X90232040Y-122750000D01*
X90237929Y-122806037D01*
X90229170Y-122866448D01*
X90223538Y-122880044D01*
X90223537Y-122880047D01*
X90223537Y-122880048D01*
X90199501Y-123000893D01*
X90199500Y-123000896D01*
X90199500Y-124515548D01*
X90179815Y-124582587D01*
X90127011Y-124628342D01*
X90057853Y-124638286D01*
X89994297Y-124609261D01*
X89987819Y-124603229D01*
X89911819Y-124527229D01*
X89878334Y-124465906D01*
X89875500Y-124439548D01*
X89875500Y-119188393D01*
X89875499Y-119188389D01*
X89851464Y-119067555D01*
X89851463Y-119067548D01*
X89825123Y-119003958D01*
X89804312Y-118953715D01*
X89789247Y-118931170D01*
X89759322Y-118886383D01*
X89759322Y-118886384D01*
X89735858Y-118851267D01*
X89735855Y-118851264D01*
X89735853Y-118851261D01*
X89645637Y-118761045D01*
X89645606Y-118761016D01*
X88938960Y-118054370D01*
X88905475Y-117993047D01*
X88903323Y-117979671D01*
X88885674Y-117811744D01*
X88827179Y-117631716D01*
X88732533Y-117467784D01*
X88605871Y-117327112D01*
X88605863Y-117327106D01*
X88452734Y-117215851D01*
X88452729Y-117215848D01*
X88279807Y-117138857D01*
X88279802Y-117138855D01*
X88134001Y-117107865D01*
X88094646Y-117099500D01*
X87905354Y-117099500D01*
X87872897Y-117106398D01*
X87720197Y-117138855D01*
X87720192Y-117138857D01*
X87547270Y-117215848D01*
X87547265Y-117215851D01*
X87394135Y-117327106D01*
X87394125Y-117327115D01*
X87383136Y-117339319D01*
X87323648Y-117375965D01*
X87253791Y-117374632D01*
X87203309Y-117344023D01*
X87161818Y-117302532D01*
X87128333Y-117241209D01*
X87125500Y-117214852D01*
X87125500Y-114438396D01*
X87125473Y-114438259D01*
X87101463Y-114317548D01*
X87087652Y-114284207D01*
X87054312Y-114203714D01*
X87018754Y-114150500D01*
X86985858Y-114101267D01*
X86985856Y-114101264D01*
X86895637Y-114011045D01*
X86895606Y-114011016D01*
X86612688Y-113728098D01*
X86579203Y-113666775D01*
X86582438Y-113602099D01*
X86593605Y-113567729D01*
X86635674Y-113438256D01*
X86650349Y-113298622D01*
X86676933Y-113234009D01*
X86685980Y-113223913D01*
X87148729Y-112761165D01*
X87148733Y-112761163D01*
X87235858Y-112674038D01*
X87298126Y-112580848D01*
X87304312Y-112571590D01*
X87338645Y-112488702D01*
X87351463Y-112457757D01*
X87375500Y-112336911D01*
X87375500Y-107000000D01*
X89094540Y-107000000D01*
X89114326Y-107188256D01*
X89114327Y-107188259D01*
X89172818Y-107368277D01*
X89172821Y-107368284D01*
X89267467Y-107532216D01*
X89363487Y-107638857D01*
X89394129Y-107672888D01*
X89547265Y-107784148D01*
X89547270Y-107784151D01*
X89720192Y-107861142D01*
X89720197Y-107861144D01*
X89905354Y-107900500D01*
X89905355Y-107900500D01*
X90094644Y-107900500D01*
X90094646Y-107900500D01*
X90279803Y-107861144D01*
X90452730Y-107784151D01*
X90605871Y-107672888D01*
X90732533Y-107532216D01*
X90827179Y-107368284D01*
X90885674Y-107188256D01*
X90905460Y-107000000D01*
X90885674Y-106811744D01*
X90827179Y-106631716D01*
X90732533Y-106467784D01*
X90605871Y-106327112D01*
X90605870Y-106327111D01*
X90452734Y-106215851D01*
X90452729Y-106215848D01*
X90279807Y-106138857D01*
X90279802Y-106138855D01*
X90134001Y-106107865D01*
X90094646Y-106099500D01*
X89905354Y-106099500D01*
X89872897Y-106106398D01*
X89720197Y-106138855D01*
X89720192Y-106138857D01*
X89547270Y-106215848D01*
X89547265Y-106215851D01*
X89394129Y-106327111D01*
X89267466Y-106467785D01*
X89172821Y-106631715D01*
X89172818Y-106631722D01*
X89117431Y-106802187D01*
X89114326Y-106811744D01*
X89094540Y-107000000D01*
X87375500Y-107000000D01*
X87375500Y-106198687D01*
X87395185Y-106131648D01*
X87407350Y-106115715D01*
X87425891Y-106095122D01*
X87482533Y-106032216D01*
X87577179Y-105868284D01*
X87635674Y-105688256D01*
X87655460Y-105500000D01*
X87635674Y-105311744D01*
X87577179Y-105131716D01*
X87482533Y-104967784D01*
X87355871Y-104827112D01*
X87355870Y-104827111D01*
X87202734Y-104715851D01*
X87202729Y-104715848D01*
X87029807Y-104638857D01*
X87029800Y-104638855D01*
X86947161Y-104621290D01*
X86885679Y-104588098D01*
X86851902Y-104526935D01*
X86856554Y-104457221D01*
X86898158Y-104401088D01*
X86947161Y-104378710D01*
X86953201Y-104377426D01*
X87029803Y-104361144D01*
X87202730Y-104284151D01*
X87355871Y-104172888D01*
X87482533Y-104032216D01*
X87577179Y-103868284D01*
X87635674Y-103688256D01*
X87655460Y-103500000D01*
X87635674Y-103311744D01*
X87577179Y-103131716D01*
X87482533Y-102967784D01*
X87355871Y-102827112D01*
X87355870Y-102827111D01*
X87202734Y-102715851D01*
X87202729Y-102715848D01*
X87029807Y-102638857D01*
X87029802Y-102638855D01*
X86884001Y-102607865D01*
X86844646Y-102599500D01*
X86655354Y-102599500D01*
X86622897Y-102606398D01*
X86470197Y-102638855D01*
X86470192Y-102638857D01*
X86297270Y-102715848D01*
X86297265Y-102715851D01*
X86144129Y-102827111D01*
X86017466Y-102967785D01*
X85922821Y-103131715D01*
X85922818Y-103131722D01*
X85894855Y-103217785D01*
X85864326Y-103311744D01*
X85844540Y-103500000D01*
X85864326Y-103688256D01*
X85864327Y-103688259D01*
X85922818Y-103868277D01*
X85922821Y-103868284D01*
X86017467Y-104032216D01*
X86144129Y-104172888D01*
X86297265Y-104284148D01*
X86297270Y-104284151D01*
X86470192Y-104361142D01*
X86470197Y-104361144D01*
X86552839Y-104378710D01*
X86614321Y-104411902D01*
X86648097Y-104473065D01*
X86643445Y-104542780D01*
X86601840Y-104598912D01*
X86552839Y-104621290D01*
X86470197Y-104638855D01*
X86470192Y-104638857D01*
X86297270Y-104715848D01*
X86297265Y-104715851D01*
X86144129Y-104827111D01*
X86017466Y-104967785D01*
X85922821Y-105131715D01*
X85922818Y-105131722D01*
X85864327Y-105311740D01*
X85864326Y-105311744D01*
X85844540Y-105500000D01*
X85864326Y-105688256D01*
X85864327Y-105688259D01*
X85922818Y-105868277D01*
X85922821Y-105868284D01*
X86017467Y-106032216D01*
X86060772Y-106080310D01*
X86092650Y-106115715D01*
X86122880Y-106178706D01*
X86124500Y-106198687D01*
X86124500Y-106763869D01*
X86104815Y-106830908D01*
X86052011Y-106876663D01*
X85982853Y-106886607D01*
X85919297Y-106857582D01*
X85882569Y-106802187D01*
X85827181Y-106631722D01*
X85827180Y-106631721D01*
X85827179Y-106631716D01*
X85732533Y-106467784D01*
X85605871Y-106327112D01*
X85605870Y-106327111D01*
X85452734Y-106215851D01*
X85452729Y-106215848D01*
X85279807Y-106138857D01*
X85279802Y-106138855D01*
X85134001Y-106107865D01*
X85094646Y-106099500D01*
X84905354Y-106099500D01*
X84872897Y-106106398D01*
X84720197Y-106138855D01*
X84720192Y-106138857D01*
X84547270Y-106215848D01*
X84547265Y-106215851D01*
X84394129Y-106327111D01*
X84267466Y-106467785D01*
X84172821Y-106631715D01*
X84172818Y-106631722D01*
X84117431Y-106802187D01*
X84114326Y-106811744D01*
X84094540Y-107000000D01*
X84114326Y-107188256D01*
X84114327Y-107188259D01*
X84172818Y-107368277D01*
X84172821Y-107368284D01*
X84267467Y-107532216D01*
X84310772Y-107580310D01*
X84342650Y-107615715D01*
X84372880Y-107678706D01*
X84374500Y-107698687D01*
X84374500Y-108052423D01*
X84354815Y-108119462D01*
X84302011Y-108165217D01*
X84232853Y-108175161D01*
X84169297Y-108146136D01*
X84158351Y-108135396D01*
X84105871Y-108077112D01*
X84105870Y-108077111D01*
X83952734Y-107965851D01*
X83952729Y-107965848D01*
X83779807Y-107888857D01*
X83779802Y-107888855D01*
X83634001Y-107857865D01*
X83594646Y-107849500D01*
X83405354Y-107849500D01*
X83372897Y-107856398D01*
X83220197Y-107888855D01*
X83220192Y-107888857D01*
X83047270Y-107965848D01*
X83047265Y-107965851D01*
X82894129Y-108077111D01*
X82767466Y-108217785D01*
X82672821Y-108381715D01*
X82672818Y-108381722D01*
X82614327Y-108561740D01*
X82614326Y-108561744D01*
X82594540Y-108750000D01*
X82614326Y-108938256D01*
X82614327Y-108938259D01*
X82672818Y-109118277D01*
X82672821Y-109118284D01*
X82767467Y-109282216D01*
X82849512Y-109373336D01*
X82894129Y-109422888D01*
X83047265Y-109534148D01*
X83047270Y-109534151D01*
X83220192Y-109611142D01*
X83220197Y-109611144D01*
X83405354Y-109650500D01*
X83405355Y-109650500D01*
X83594644Y-109650500D01*
X83594646Y-109650500D01*
X83779803Y-109611144D01*
X83952730Y-109534151D01*
X84105871Y-109422888D01*
X84158350Y-109364603D01*
X84217837Y-109327955D01*
X84287694Y-109329286D01*
X84345742Y-109368172D01*
X84373552Y-109432269D01*
X84374500Y-109447576D01*
X84374500Y-111005857D01*
X84354815Y-111072896D01*
X84302011Y-111118651D01*
X84232853Y-111128595D01*
X84224720Y-111127147D01*
X84094647Y-111099500D01*
X84094646Y-111099500D01*
X83905354Y-111099500D01*
X83872897Y-111106398D01*
X83720197Y-111138855D01*
X83720192Y-111138857D01*
X83547270Y-111215848D01*
X83547265Y-111215851D01*
X83394129Y-111327111D01*
X83267466Y-111467785D01*
X83172821Y-111631715D01*
X83172818Y-111631722D01*
X83114327Y-111811740D01*
X83114326Y-111811744D01*
X83094540Y-112000000D01*
X83114326Y-112188256D01*
X83114327Y-112188259D01*
X83172818Y-112368277D01*
X83172821Y-112368284D01*
X83267467Y-112532216D01*
X83302918Y-112571588D01*
X83342650Y-112615715D01*
X83372880Y-112678706D01*
X83374500Y-112698687D01*
X83374500Y-114061611D01*
X83398535Y-114182444D01*
X83398540Y-114182461D01*
X83445685Y-114296281D01*
X83445688Y-114296286D01*
X83473670Y-114338162D01*
X83473671Y-114338165D01*
X83514138Y-114398728D01*
X83514144Y-114398736D01*
X83605586Y-114490178D01*
X83605608Y-114490198D01*
X83838181Y-114722771D01*
X83871666Y-114784094D01*
X83874500Y-114810452D01*
X83874500Y-116924111D01*
X83898535Y-117044944D01*
X83898540Y-117044961D01*
X83945685Y-117158780D01*
X83945690Y-117158789D01*
X83979914Y-117210007D01*
X83979915Y-117210009D01*
X84014140Y-117261231D01*
X84014141Y-117261232D01*
X84014142Y-117261233D01*
X84101267Y-117348358D01*
X84101268Y-117348358D01*
X84108335Y-117355425D01*
X84108334Y-117355425D01*
X84108338Y-117355428D01*
X84838181Y-118085271D01*
X84871666Y-118146594D01*
X84874500Y-118172952D01*
X84874500Y-118301312D01*
X84854815Y-118368351D01*
X84842650Y-118384284D01*
X84767466Y-118467784D01*
X84672821Y-118631715D01*
X84672818Y-118631722D01*
X84614327Y-118811740D01*
X84614326Y-118811744D01*
X84594540Y-119000000D01*
X84614326Y-119188256D01*
X84614327Y-119188259D01*
X84672818Y-119368277D01*
X84672821Y-119368284D01*
X84767467Y-119532216D01*
X84792891Y-119560452D01*
X84842650Y-119615715D01*
X84872880Y-119678706D01*
X84874500Y-119698687D01*
X84874500Y-120327047D01*
X84854815Y-120394086D01*
X84838181Y-120414728D01*
X84039040Y-121213869D01*
X83351270Y-121901639D01*
X83351267Y-121901642D01*
X83307704Y-121945204D01*
X83264142Y-121988766D01*
X83236102Y-122030732D01*
X83236101Y-122030733D01*
X83195690Y-122091209D01*
X83195685Y-122091218D01*
X83171131Y-122150500D01*
X83162347Y-122171707D01*
X83148537Y-122205048D01*
X83143025Y-122232755D01*
X83143026Y-122232756D01*
X83125417Y-122321286D01*
X83125415Y-122321295D01*
X83124500Y-122325889D01*
X83124500Y-124223006D01*
X83148535Y-124343842D01*
X83148539Y-124343854D01*
X83155700Y-124361141D01*
X83155701Y-124361144D01*
X83195685Y-124457677D01*
X83195688Y-124457682D01*
X83223964Y-124499998D01*
X83223965Y-124500001D01*
X83264138Y-124560124D01*
X83264144Y-124560132D01*
X83355586Y-124651574D01*
X83355608Y-124651594D01*
X84338181Y-125634167D01*
X84371666Y-125695490D01*
X84374500Y-125721848D01*
X84374500Y-140828048D01*
X84354815Y-140895087D01*
X84302011Y-140940842D01*
X84232853Y-140950786D01*
X84169297Y-140921761D01*
X84162819Y-140915729D01*
X82411819Y-139164729D01*
X82378334Y-139103406D01*
X82375500Y-139077048D01*
X82375500Y-113962180D01*
X82395185Y-113895141D01*
X82425187Y-113862914D01*
X82532546Y-113782546D01*
X82618796Y-113667331D01*
X82669091Y-113532483D01*
X82675500Y-113472873D01*
X82675499Y-112527128D01*
X82669091Y-112467517D01*
X82652445Y-112422888D01*
X82618797Y-112332671D01*
X82618793Y-112332664D01*
X82532547Y-112217455D01*
X82532544Y-112217452D01*
X82417335Y-112131206D01*
X82417328Y-112131202D01*
X82282482Y-112080908D01*
X82282483Y-112080908D01*
X82222883Y-112074501D01*
X82222881Y-112074500D01*
X82222873Y-112074500D01*
X82222864Y-112074500D01*
X81277129Y-112074500D01*
X81277123Y-112074501D01*
X81217516Y-112080908D01*
X81082671Y-112131202D01*
X81082664Y-112131206D01*
X80967455Y-112217452D01*
X80967452Y-112217455D01*
X80881206Y-112332664D01*
X80881202Y-112332671D01*
X80830908Y-112467517D01*
X80824501Y-112527116D01*
X80824501Y-112527123D01*
X80824500Y-112527135D01*
X79287084Y-112527135D01*
X79202734Y-112465851D01*
X79202729Y-112465848D01*
X79029807Y-112388857D01*
X79029802Y-112388855D01*
X78884001Y-112357865D01*
X78844646Y-112349500D01*
X78655354Y-112349500D01*
X78622897Y-112356398D01*
X78470197Y-112388855D01*
X78470192Y-112388857D01*
X78297270Y-112465848D01*
X78297265Y-112465851D01*
X78144129Y-112577111D01*
X78017466Y-112717785D01*
X77922821Y-112881715D01*
X77922818Y-112881722D01*
X77867062Y-113053324D01*
X77864326Y-113061744D01*
X77862427Y-113079815D01*
X77859469Y-113107956D01*
X77832883Y-113172571D01*
X77775585Y-113212555D01*
X77705766Y-113215213D01*
X77685712Y-113208272D01*
X77529807Y-113138857D01*
X77529802Y-113138855D01*
X77384001Y-113107865D01*
X77344646Y-113099500D01*
X77334452Y-113099500D01*
X77267413Y-113079815D01*
X77221658Y-113027011D01*
X77211714Y-112957853D01*
X77240739Y-112894297D01*
X77246771Y-112887819D01*
X81947771Y-108186819D01*
X82009094Y-108153334D01*
X82035452Y-108150500D01*
X82094644Y-108150500D01*
X82094646Y-108150500D01*
X82279803Y-108111144D01*
X82452730Y-108034151D01*
X82605871Y-107922888D01*
X82732533Y-107782216D01*
X82827179Y-107618284D01*
X82885674Y-107438256D01*
X82905460Y-107250000D01*
X82885674Y-107061744D01*
X82827179Y-106881716D01*
X82732533Y-106717784D01*
X82605871Y-106577112D01*
X82605870Y-106577111D01*
X82452734Y-106465851D01*
X82452729Y-106465848D01*
X82279807Y-106388857D01*
X82279802Y-106388855D01*
X82134001Y-106357865D01*
X82094646Y-106349500D01*
X81905354Y-106349500D01*
X81872897Y-106356398D01*
X81720197Y-106388855D01*
X81720192Y-106388857D01*
X81547270Y-106465848D01*
X81547265Y-106465851D01*
X81394129Y-106577111D01*
X81267466Y-106717785D01*
X81172821Y-106881715D01*
X81172818Y-106881722D01*
X81114327Y-107061740D01*
X81114326Y-107061744D01*
X81107693Y-107124853D01*
X81096678Y-107229651D01*
X81070093Y-107294266D01*
X81061038Y-107304370D01*
X78527115Y-109838294D01*
X76057036Y-112308373D01*
X76057033Y-112308376D01*
X76032745Y-112332664D01*
X75969910Y-112395498D01*
X75969908Y-112395501D01*
X75954029Y-112419266D01*
X75954028Y-112419268D01*
X75954027Y-112419267D01*
X75901452Y-112497951D01*
X75901451Y-112497952D01*
X75870950Y-112571588D01*
X75870951Y-112571589D01*
X75854589Y-112611093D01*
X75854565Y-112611151D01*
X75854343Y-112611687D01*
X75854303Y-112611783D01*
X75837018Y-112698687D01*
X75833220Y-112717780D01*
X75833218Y-112717786D01*
X75830266Y-112732623D01*
X75830266Y-119897225D01*
X75853805Y-120015570D01*
X75854303Y-120018072D01*
X75854304Y-120018077D01*
X75901451Y-120131902D01*
X75901456Y-120131911D01*
X75927592Y-120171025D01*
X75948471Y-120237702D01*
X75929987Y-120305082D01*
X75878009Y-120351773D01*
X75850272Y-120361207D01*
X75720197Y-120388855D01*
X75720192Y-120388857D01*
X75547270Y-120465848D01*
X75547265Y-120465851D01*
X75394129Y-120577111D01*
X75267466Y-120717785D01*
X75172821Y-120881715D01*
X75172818Y-120881722D01*
X75144855Y-120967785D01*
X75114326Y-121061744D01*
X75094540Y-121250000D01*
X70865612Y-121250000D01*
X70827179Y-121131716D01*
X70732533Y-120967784D01*
X70605871Y-120827112D01*
X70605870Y-120827111D01*
X70452734Y-120715851D01*
X70452729Y-120715848D01*
X70279807Y-120638857D01*
X70279802Y-120638855D01*
X70134001Y-120607865D01*
X70094646Y-120599500D01*
X69905354Y-120599500D01*
X69872897Y-120606398D01*
X69720197Y-120638855D01*
X69720192Y-120638857D01*
X69547270Y-120715848D01*
X69547265Y-120715851D01*
X69394129Y-120827111D01*
X69267466Y-120967785D01*
X69172821Y-121131715D01*
X69172818Y-121131722D01*
X69133677Y-121252187D01*
X69114326Y-121311744D01*
X69094540Y-121500000D01*
X69114326Y-121688256D01*
X69114327Y-121688259D01*
X69172818Y-121868277D01*
X69172821Y-121868284D01*
X69237921Y-121981041D01*
X69254394Y-122048942D01*
X69231541Y-122114968D01*
X69180971Y-122156320D01*
X69047267Y-122215850D01*
X69047265Y-122215851D01*
X68894129Y-122327111D01*
X68767466Y-122467785D01*
X68672821Y-122631715D01*
X68672818Y-122631722D01*
X68631836Y-122757854D01*
X68614326Y-122811744D01*
X68594540Y-123000000D01*
X52800000Y-123000000D01*
X52800000Y-115750000D01*
X72844540Y-115750000D01*
X72864326Y-115938256D01*
X72864327Y-115938259D01*
X72922818Y-116118277D01*
X72922821Y-116118284D01*
X73017467Y-116282216D01*
X73099512Y-116373336D01*
X73144129Y-116422888D01*
X73297265Y-116534148D01*
X73297270Y-116534151D01*
X73470192Y-116611142D01*
X73470197Y-116611144D01*
X73655354Y-116650500D01*
X73655355Y-116650500D01*
X73844644Y-116650500D01*
X73844646Y-116650500D01*
X74029803Y-116611144D01*
X74202730Y-116534151D01*
X74355871Y-116422888D01*
X74482533Y-116282216D01*
X74577179Y-116118284D01*
X74635674Y-115938256D01*
X74655460Y-115750000D01*
X74635674Y-115561744D01*
X74579149Y-115387779D01*
X74577181Y-115381722D01*
X74577180Y-115381721D01*
X74577179Y-115381716D01*
X74482533Y-115217784D01*
X74355871Y-115077112D01*
X74355870Y-115077111D01*
X74202734Y-114965851D01*
X74202729Y-114965848D01*
X74029807Y-114888857D01*
X74029802Y-114888855D01*
X73865172Y-114853863D01*
X73844646Y-114849500D01*
X73655354Y-114849500D01*
X73634828Y-114853863D01*
X73470197Y-114888855D01*
X73470192Y-114888857D01*
X73297270Y-114965848D01*
X73297265Y-114965851D01*
X73144129Y-115077111D01*
X73017466Y-115217785D01*
X72922821Y-115381715D01*
X72922818Y-115381722D01*
X72872640Y-115536156D01*
X72864326Y-115561744D01*
X72844540Y-115750000D01*
X52800000Y-115750000D01*
X52800000Y-102000000D01*
X90344540Y-102000000D01*
X90364326Y-102188256D01*
X90364327Y-102188259D01*
X90422818Y-102368277D01*
X90422821Y-102368284D01*
X90517467Y-102532216D01*
X90613487Y-102638857D01*
X90644129Y-102672888D01*
X90797265Y-102784148D01*
X90797270Y-102784151D01*
X90970192Y-102861142D01*
X90970197Y-102861144D01*
X91155354Y-102900500D01*
X91155355Y-102900500D01*
X91344644Y-102900500D01*
X91344646Y-102900500D01*
X91529803Y-102861144D01*
X91702730Y-102784151D01*
X91855871Y-102672888D01*
X91982533Y-102532216D01*
X92077179Y-102368284D01*
X92135674Y-102188256D01*
X92155460Y-102000000D01*
X92135674Y-101811744D01*
X92077179Y-101631716D01*
X91982533Y-101467784D01*
X91855871Y-101327112D01*
X91855870Y-101327111D01*
X91702734Y-101215851D01*
X91702729Y-101215848D01*
X91529807Y-101138857D01*
X91529802Y-101138855D01*
X91384001Y-101107865D01*
X91344646Y-101099500D01*
X91155354Y-101099500D01*
X91122897Y-101106398D01*
X90970197Y-101138855D01*
X90970192Y-101138857D01*
X90797270Y-101215848D01*
X90797265Y-101215851D01*
X90644129Y-101327111D01*
X90517466Y-101467785D01*
X90422821Y-101631715D01*
X90422818Y-101631722D01*
X90375914Y-101776079D01*
X90364326Y-101811744D01*
X90344540Y-102000000D01*
X52800000Y-102000000D01*
X52800000Y-93859787D01*
X52800009Y-93858267D01*
X52800039Y-93855784D01*
X52802343Y-93667922D01*
X52802930Y-93657320D01*
X52840312Y-93277772D01*
X52842097Y-93265744D01*
X52878675Y-93081857D01*
X52916346Y-92892468D01*
X52919301Y-92880670D01*
X53029785Y-92516455D01*
X53033885Y-92504997D01*
X53179532Y-92153372D01*
X53184730Y-92142380D01*
X53364152Y-91806708D01*
X53370390Y-91796300D01*
X53581852Y-91479825D01*
X53589091Y-91470064D01*
X53830555Y-91175838D01*
X53838707Y-91166844D01*
X54107844Y-90897707D01*
X54116838Y-90889555D01*
X54411064Y-90648091D01*
X54420825Y-90640852D01*
X54737300Y-90429390D01*
X54747708Y-90423152D01*
X55083390Y-90243725D01*
X55094353Y-90238540D01*
X55151335Y-90214937D01*
X55198784Y-90205500D01*
X56966084Y-90205500D01*
X56972332Y-90204826D01*
X57023330Y-90204827D01*
X57073684Y-90190041D01*
X57134980Y-90187854D01*
X57229243Y-90208363D01*
X57229244Y-90208364D01*
X57298936Y-90213351D01*
X57298939Y-90213351D01*
X57380071Y-90207551D01*
X57404357Y-90205815D01*
X57413197Y-90205500D01*
X67749631Y-90205500D01*
X67767278Y-90206762D01*
X67770656Y-90207247D01*
X67794674Y-90210701D01*
X67938550Y-90210703D01*
X67999330Y-90192856D01*
X68052982Y-90189256D01*
X68188888Y-90210019D01*
X68247401Y-90210534D01*
X68258733Y-90210634D01*
X68258755Y-90210634D01*
X68258763Y-90210634D01*
X68287480Y-90206762D01*
X68288593Y-90206611D01*
X68305161Y-90205500D01*
X69028242Y-90205500D01*
X69095281Y-90225185D01*
X69131344Y-90260609D01*
X69187269Y-90344307D01*
X69198728Y-90365745D01*
X69264583Y-90524731D01*
X69271639Y-90547993D01*
X69305508Y-90718266D01*
X69307854Y-90739419D01*
X69309963Y-90825488D01*
X69310000Y-90828526D01*
X69310000Y-92939016D01*
X69312547Y-93081854D01*
X69312547Y-93081857D01*
X69353209Y-93364669D01*
X69353211Y-93364679D01*
X69433708Y-93638826D01*
X69552393Y-93898710D01*
X69552402Y-93898726D01*
X69706872Y-94139085D01*
X69706878Y-94139092D01*
X69893978Y-94355019D01*
X69893980Y-94355021D01*
X70109907Y-94542121D01*
X70109914Y-94542127D01*
X70350273Y-94696597D01*
X70350289Y-94696606D01*
X70610173Y-94815291D01*
X70610177Y-94815292D01*
X70610179Y-94815293D01*
X70884326Y-94895790D01*
X71167139Y-94936452D01*
X71201153Y-94937058D01*
X71309984Y-94939000D01*
X90170000Y-94939000D01*
X90170016Y-94939000D01*
X90269381Y-94937227D01*
X90312861Y-94936452D01*
X90595674Y-94895790D01*
X90869821Y-94815293D01*
X90869824Y-94815291D01*
X90869826Y-94815291D01*
X91129710Y-94696606D01*
X91129714Y-94696603D01*
X91129722Y-94696600D01*
X91370086Y-94542127D01*
X91586020Y-94355020D01*
X91773127Y-94139086D01*
X91927600Y-93898722D01*
X91927603Y-93898714D01*
X91927606Y-93898710D01*
X92046291Y-93638826D01*
X92046291Y-93638824D01*
X92046293Y-93638821D01*
X92126790Y-93364674D01*
X92167452Y-93081861D01*
X92170000Y-92939000D01*
X92170000Y-90828526D01*
X92170037Y-90825490D01*
X92172145Y-90739421D01*
X92172146Y-90739419D01*
X92172145Y-90739415D01*
X92174490Y-90718272D01*
X92208362Y-90547983D01*
X92215412Y-90524741D01*
X92281274Y-90365738D01*
X92292726Y-90344314D01*
X92348656Y-90260608D01*
X92402269Y-90215804D01*
X92451758Y-90205500D01*
X92520934Y-90205500D01*
X92520944Y-90205500D01*
X92582948Y-90201683D01*
X92613136Y-90197952D01*
X92674196Y-90186560D01*
X92782357Y-90142262D01*
X92807333Y-90132033D01*
X92807334Y-90132031D01*
X92807342Y-90132029D01*
X92867572Y-90096616D01*
X92867581Y-90096608D01*
X92867584Y-90096607D01*
X92959573Y-90023079D01*
X92979962Y-90006782D01*
X93053965Y-89901096D01*
X93062483Y-89888932D01*
X93062484Y-89888929D01*
X93062489Y-89888923D01*
X93062492Y-89888916D01*
X93063426Y-89887357D01*
X93063879Y-89886937D01*
X93065030Y-89885295D01*
X93065387Y-89885545D01*
X93114746Y-89839944D01*
X93166783Y-89827078D01*
X93170000Y-89827000D01*
X93170000Y-89826999D01*
X93182497Y-89826693D01*
X93219360Y-89808914D01*
X93288712Y-89817403D01*
G37*
%TD.AperFunction*%
%TD*%
%TA.AperFunction,Conductor*%
%TO.N,GND*%
G36*
X107425677Y-64319685D02*
G01*
X107446319Y-64336319D01*
X109913681Y-66803681D01*
X109947166Y-66865004D01*
X109950000Y-66891362D01*
X109950000Y-73376000D01*
X109930315Y-73443039D01*
X109877511Y-73488794D01*
X109826000Y-73500000D01*
X103124000Y-73500000D01*
X103056961Y-73480315D01*
X103011206Y-73427511D01*
X103000000Y-73376000D01*
X103000000Y-71500000D01*
X105094540Y-71500000D01*
X105114326Y-71688256D01*
X105114327Y-71688259D01*
X105172818Y-71868277D01*
X105172821Y-71868284D01*
X105267467Y-72032216D01*
X105394129Y-72172888D01*
X105547265Y-72284148D01*
X105547270Y-72284151D01*
X105720192Y-72361142D01*
X105720197Y-72361144D01*
X105905354Y-72400500D01*
X105905355Y-72400500D01*
X106094644Y-72400500D01*
X106094646Y-72400500D01*
X106279803Y-72361144D01*
X106452730Y-72284151D01*
X106605871Y-72172888D01*
X106732533Y-72032216D01*
X106827179Y-71868284D01*
X106885674Y-71688256D01*
X106905460Y-71500000D01*
X106885674Y-71311744D01*
X106827179Y-71131716D01*
X106732533Y-70967784D01*
X106605871Y-70827112D01*
X106605870Y-70827111D01*
X106452734Y-70715851D01*
X106452729Y-70715848D01*
X106279807Y-70638857D01*
X106279802Y-70638855D01*
X106134001Y-70607865D01*
X106094646Y-70599500D01*
X105905354Y-70599500D01*
X105872897Y-70606398D01*
X105720197Y-70638855D01*
X105720192Y-70638857D01*
X105547270Y-70715848D01*
X105547265Y-70715851D01*
X105394129Y-70827111D01*
X105267466Y-70967785D01*
X105172821Y-71131715D01*
X105172818Y-71131722D01*
X105114327Y-71311740D01*
X105114326Y-71311744D01*
X105094540Y-71500000D01*
X103000000Y-71500000D01*
X103000000Y-70520605D01*
X103019685Y-70453566D01*
X103072489Y-70407811D01*
X103141647Y-70397867D01*
X103149776Y-70399314D01*
X103155354Y-70400500D01*
X103344644Y-70400500D01*
X103344646Y-70400500D01*
X103529803Y-70361144D01*
X103702730Y-70284151D01*
X103855871Y-70172888D01*
X103982533Y-70032216D01*
X104077179Y-69868284D01*
X104135674Y-69688256D01*
X104155460Y-69500000D01*
X104135674Y-69311744D01*
X104077179Y-69131716D01*
X103982533Y-68967784D01*
X103855871Y-68827112D01*
X103855870Y-68827111D01*
X103702734Y-68715851D01*
X103702729Y-68715848D01*
X103529807Y-68638857D01*
X103529802Y-68638855D01*
X103384001Y-68607865D01*
X103344646Y-68599500D01*
X103155354Y-68599500D01*
X103149773Y-68600686D01*
X103080106Y-68595365D01*
X103024376Y-68553225D01*
X103000275Y-68487643D01*
X103000000Y-68479394D01*
X103000000Y-66964952D01*
X103019685Y-66897913D01*
X103072489Y-66852158D01*
X103141647Y-66842214D01*
X103156087Y-66845175D01*
X103379592Y-66905063D01*
X103567918Y-66921539D01*
X103614999Y-66925659D01*
X103615000Y-66925659D01*
X103615001Y-66925659D01*
X103654234Y-66922226D01*
X103850408Y-66905063D01*
X104078663Y-66843903D01*
X104292830Y-66744035D01*
X104486401Y-66608495D01*
X104653495Y-66441401D01*
X104783730Y-66255405D01*
X104838307Y-66211781D01*
X104907805Y-66204587D01*
X104970160Y-66236110D01*
X104986879Y-66255405D01*
X105116890Y-66441078D01*
X105283917Y-66608105D01*
X105477421Y-66743600D01*
X105691507Y-66843429D01*
X105691516Y-66843433D01*
X105905000Y-66900634D01*
X105905000Y-66003012D01*
X105962007Y-66035925D01*
X106089174Y-66070000D01*
X106220826Y-66070000D01*
X106347993Y-66035925D01*
X106405000Y-66003012D01*
X106405000Y-66900633D01*
X106618483Y-66843433D01*
X106618492Y-66843429D01*
X106832578Y-66743600D01*
X107026082Y-66608105D01*
X107193105Y-66441082D01*
X107328600Y-66247578D01*
X107428429Y-66033492D01*
X107428432Y-66033486D01*
X107485636Y-65820000D01*
X106588012Y-65820000D01*
X106620925Y-65762993D01*
X106655000Y-65635826D01*
X106655000Y-65504174D01*
X106620925Y-65377007D01*
X106588012Y-65320000D01*
X107485636Y-65320000D01*
X107485635Y-65319999D01*
X107428432Y-65106513D01*
X107428429Y-65106507D01*
X107328600Y-64892422D01*
X107328599Y-64892420D01*
X107193113Y-64698926D01*
X107193108Y-64698920D01*
X107026079Y-64531891D01*
X107017056Y-64525573D01*
X106973433Y-64470996D01*
X106966241Y-64401497D01*
X106997765Y-64339143D01*
X107057995Y-64303730D01*
X107088182Y-64300000D01*
X107358638Y-64300000D01*
X107425677Y-64319685D01*
G37*
%TD.AperFunction*%
%TD*%
%TA.AperFunction,Conductor*%
%TO.N,GND*%
G36*
X87507983Y-64319685D02*
G01*
X87553738Y-64372489D01*
X87563682Y-64441647D01*
X87534657Y-64505203D01*
X87512069Y-64525574D01*
X87503595Y-64531507D01*
X87336505Y-64698597D01*
X87200965Y-64892169D01*
X87200964Y-64892171D01*
X87101098Y-65106335D01*
X87101094Y-65106344D01*
X87039938Y-65334586D01*
X87039936Y-65334596D01*
X87019341Y-65569999D01*
X87019341Y-65570000D01*
X87039936Y-65805403D01*
X87039938Y-65805413D01*
X87101094Y-66033655D01*
X87101096Y-66033659D01*
X87101097Y-66033663D01*
X87105000Y-66042032D01*
X87200965Y-66247830D01*
X87200967Y-66247834D01*
X87285303Y-66368277D01*
X87336505Y-66441401D01*
X87503599Y-66608495D01*
X87548450Y-66639900D01*
X87697165Y-66744032D01*
X87697167Y-66744033D01*
X87697170Y-66744035D01*
X87911337Y-66843903D01*
X87911343Y-66843904D01*
X87911344Y-66843905D01*
X87957290Y-66856216D01*
X88139592Y-66905063D01*
X88327918Y-66921539D01*
X88374999Y-66925659D01*
X88375000Y-66925659D01*
X88375001Y-66925659D01*
X88414234Y-66922226D01*
X88610408Y-66905063D01*
X88838663Y-66843903D01*
X89052830Y-66744035D01*
X89246401Y-66608495D01*
X89413495Y-66441401D01*
X89543425Y-66255842D01*
X89598002Y-66212217D01*
X89667500Y-66205023D01*
X89729855Y-66236546D01*
X89746575Y-66255842D01*
X89876500Y-66441395D01*
X89876505Y-66441401D01*
X90043599Y-66608495D01*
X90088450Y-66639900D01*
X90237165Y-66744032D01*
X90237167Y-66744033D01*
X90237170Y-66744035D01*
X90451337Y-66843903D01*
X90451343Y-66843904D01*
X90451344Y-66843905D01*
X90497290Y-66856216D01*
X90679592Y-66905063D01*
X90867918Y-66921539D01*
X90914999Y-66925659D01*
X90915000Y-66925659D01*
X90915001Y-66925659D01*
X90954234Y-66922226D01*
X91150408Y-66905063D01*
X91378663Y-66843903D01*
X91592830Y-66744035D01*
X91786401Y-66608495D01*
X91953495Y-66441401D01*
X92083425Y-66255842D01*
X92138002Y-66212217D01*
X92207500Y-66205023D01*
X92269855Y-66236546D01*
X92286575Y-66255842D01*
X92416500Y-66441395D01*
X92416505Y-66441401D01*
X92583599Y-66608495D01*
X92583601Y-66608496D01*
X92583603Y-66608498D01*
X92655466Y-66658817D01*
X92699091Y-66713394D01*
X92706285Y-66782892D01*
X92674762Y-66845247D01*
X92614532Y-66880661D01*
X92610125Y-66881682D01*
X92576374Y-66888856D01*
X92576370Y-66888857D01*
X92403448Y-66965848D01*
X92403443Y-66965851D01*
X92250307Y-67077111D01*
X92123644Y-67217785D01*
X92028999Y-67381715D01*
X92028996Y-67381722D01*
X91974615Y-67549091D01*
X91970504Y-67561744D01*
X91954307Y-67715849D01*
X91952857Y-67729649D01*
X91926272Y-67794263D01*
X91917217Y-67804368D01*
X87365935Y-72355652D01*
X87304612Y-72389137D01*
X87234920Y-72384153D01*
X87178987Y-72342281D01*
X87154570Y-72276817D01*
X87154932Y-72255015D01*
X87155460Y-72250000D01*
X87135674Y-72061744D01*
X87077179Y-71881716D01*
X86982533Y-71717784D01*
X86855871Y-71577112D01*
X86855387Y-71576760D01*
X86702734Y-71465851D01*
X86702729Y-71465848D01*
X86529807Y-71388857D01*
X86529802Y-71388855D01*
X86384001Y-71357865D01*
X86344646Y-71349500D01*
X86172751Y-71349500D01*
X86105712Y-71329815D01*
X86059957Y-71277011D01*
X86050013Y-71207853D01*
X86079038Y-71144297D01*
X86085070Y-71137819D01*
X86395777Y-70827112D01*
X87411382Y-69811506D01*
X87411386Y-69811504D01*
X87498511Y-69724379D01*
X87566964Y-69621932D01*
X87566965Y-69621931D01*
X87594585Y-69555249D01*
X87602153Y-69536980D01*
X87614114Y-69508102D01*
X87614116Y-69508098D01*
X87638153Y-69387252D01*
X87638153Y-68436034D01*
X87657838Y-68368995D01*
X87670003Y-68353062D01*
X87688544Y-68332469D01*
X87745186Y-68269563D01*
X87839832Y-68105631D01*
X87898327Y-67925603D01*
X87918113Y-67737347D01*
X87898327Y-67549091D01*
X87839832Y-67369063D01*
X87745186Y-67205131D01*
X87618524Y-67064459D01*
X87607381Y-67056363D01*
X87465387Y-66953198D01*
X87465382Y-66953195D01*
X87292460Y-66876204D01*
X87292455Y-66876202D01*
X87146654Y-66845212D01*
X87107299Y-66836847D01*
X86918007Y-66836847D01*
X86885550Y-66843745D01*
X86732850Y-66876202D01*
X86732845Y-66876204D01*
X86559923Y-66953195D01*
X86559918Y-66953198D01*
X86406782Y-67064458D01*
X86280119Y-67205132D01*
X86185474Y-67369062D01*
X86185471Y-67369069D01*
X86126980Y-67549087D01*
X86126979Y-67549091D01*
X86107193Y-67737347D01*
X86126979Y-67925603D01*
X86126980Y-67925606D01*
X86185471Y-68105624D01*
X86185474Y-68105631D01*
X86280120Y-68269563D01*
X86318097Y-68311740D01*
X86355303Y-68353062D01*
X86385533Y-68416053D01*
X86387153Y-68436034D01*
X86387153Y-69015194D01*
X86367468Y-69082233D01*
X86350834Y-69102875D01*
X85462181Y-69991528D01*
X85400858Y-70025013D01*
X85331166Y-70020029D01*
X85275233Y-69978157D01*
X85250816Y-69912693D01*
X85250500Y-69903847D01*
X85250500Y-68034321D01*
X85267113Y-67972321D01*
X85269732Y-67967785D01*
X85327179Y-67868284D01*
X85385674Y-67688256D01*
X85405460Y-67500000D01*
X85385674Y-67311744D01*
X85327179Y-67131716D01*
X85232533Y-66967784D01*
X85105871Y-66827112D01*
X85105870Y-66827111D01*
X84952734Y-66715851D01*
X84952729Y-66715848D01*
X84779807Y-66638857D01*
X84779802Y-66638855D01*
X84634001Y-66607865D01*
X84594646Y-66599500D01*
X84405354Y-66599500D01*
X84372897Y-66606398D01*
X84220197Y-66638855D01*
X84220192Y-66638857D01*
X84047270Y-66715848D01*
X84047265Y-66715851D01*
X83894129Y-66827111D01*
X83767466Y-66967785D01*
X83672821Y-67131715D01*
X83672818Y-67131722D01*
X83644855Y-67217785D01*
X83614326Y-67311744D01*
X83594540Y-67500000D01*
X83614326Y-67688256D01*
X83614327Y-67688259D01*
X83672818Y-67868277D01*
X83672821Y-67868284D01*
X83730267Y-67967784D01*
X83732887Y-67972321D01*
X83749500Y-68034321D01*
X83749500Y-71887770D01*
X83729815Y-71954809D01*
X83713185Y-71975446D01*
X83656416Y-72032216D01*
X83616219Y-72072413D01*
X83554895Y-72105897D01*
X83485204Y-72100913D01*
X83429271Y-72059041D01*
X83405217Y-71997692D01*
X83385674Y-71811744D01*
X83327179Y-71631716D01*
X83232533Y-71467784D01*
X83105871Y-71327112D01*
X83084719Y-71311744D01*
X82952734Y-71215851D01*
X82952729Y-71215848D01*
X82779807Y-71138857D01*
X82779802Y-71138855D01*
X82634001Y-71107865D01*
X82594646Y-71099500D01*
X82405354Y-71099500D01*
X82372897Y-71106398D01*
X82220197Y-71138855D01*
X82220192Y-71138857D01*
X82050436Y-71214439D01*
X81981186Y-71223724D01*
X81949564Y-71214439D01*
X81779807Y-71138857D01*
X81779802Y-71138855D01*
X81634001Y-71107865D01*
X81594646Y-71099500D01*
X81405354Y-71099500D01*
X81372897Y-71106398D01*
X81220197Y-71138855D01*
X81220192Y-71138857D01*
X81047270Y-71215848D01*
X81047265Y-71215851D01*
X80894129Y-71327111D01*
X80767466Y-71467785D01*
X80732387Y-71528544D01*
X80681820Y-71576760D01*
X80613213Y-71589983D01*
X80548348Y-71564015D01*
X80517613Y-71528544D01*
X80501133Y-71500000D01*
X80482533Y-71467784D01*
X80355871Y-71327112D01*
X80334719Y-71311744D01*
X80202734Y-71215851D01*
X80202729Y-71215848D01*
X80029807Y-71138857D01*
X80029802Y-71138855D01*
X79884001Y-71107865D01*
X79844646Y-71099500D01*
X79844645Y-71099500D01*
X79785452Y-71099500D01*
X79718413Y-71079815D01*
X79697771Y-71063181D01*
X79490198Y-70855608D01*
X79490178Y-70855586D01*
X79398736Y-70764144D01*
X79398732Y-70764141D01*
X79326458Y-70715849D01*
X79306443Y-70702475D01*
X79296285Y-70695687D01*
X79256039Y-70679017D01*
X79215792Y-70662347D01*
X79182453Y-70648537D01*
X79172427Y-70646543D01*
X79122029Y-70636518D01*
X79061610Y-70624500D01*
X79061607Y-70624500D01*
X79061606Y-70624500D01*
X77811607Y-70624500D01*
X77688393Y-70624500D01*
X77688389Y-70624500D01*
X77627971Y-70636518D01*
X77567548Y-70648537D01*
X77567543Y-70648538D01*
X77534207Y-70662347D01*
X77520397Y-70668067D01*
X77498169Y-70677274D01*
X77453713Y-70695688D01*
X77443557Y-70702475D01*
X77443449Y-70702547D01*
X77351268Y-70764140D01*
X77307705Y-70807703D01*
X77264142Y-70851267D01*
X77264139Y-70851270D01*
X76891619Y-71223789D01*
X76830296Y-71257274D01*
X76760604Y-71252290D01*
X76731053Y-71236427D01*
X76702730Y-71215849D01*
X76702728Y-71215848D01*
X76702729Y-71215848D01*
X76529807Y-71138857D01*
X76529802Y-71138855D01*
X76384001Y-71107865D01*
X76344646Y-71099500D01*
X76155354Y-71099500D01*
X76122897Y-71106398D01*
X75970197Y-71138855D01*
X75970192Y-71138857D01*
X75797271Y-71215848D01*
X75697885Y-71288056D01*
X75632078Y-71311535D01*
X75564025Y-71295709D01*
X75552115Y-71288056D01*
X75481053Y-71236427D01*
X75452730Y-71215849D01*
X75452728Y-71215848D01*
X75452729Y-71215848D01*
X75279807Y-71138857D01*
X75279802Y-71138855D01*
X75134001Y-71107865D01*
X75094646Y-71099500D01*
X74905354Y-71099500D01*
X74872897Y-71106398D01*
X74720197Y-71138855D01*
X74720192Y-71138857D01*
X74547270Y-71215848D01*
X74547265Y-71215851D01*
X74394129Y-71327111D01*
X74267466Y-71467785D01*
X74172821Y-71631715D01*
X74172818Y-71631722D01*
X74144855Y-71717785D01*
X74114326Y-71811744D01*
X74094540Y-72000000D01*
X74114326Y-72188256D01*
X74114327Y-72188259D01*
X74172818Y-72368277D01*
X74172821Y-72368284D01*
X74267467Y-72532216D01*
X74346675Y-72620185D01*
X74394129Y-72672888D01*
X74547265Y-72784148D01*
X74547270Y-72784151D01*
X74720191Y-72861142D01*
X74720193Y-72861142D01*
X74720197Y-72861144D01*
X74776282Y-72873064D01*
X74837761Y-72906255D01*
X74871539Y-72967418D01*
X74874500Y-72994354D01*
X74874500Y-73301312D01*
X74854815Y-73368351D01*
X74842650Y-73384284D01*
X74767466Y-73467784D01*
X74672821Y-73631715D01*
X74672818Y-73631722D01*
X74614327Y-73811740D01*
X74614326Y-73811744D01*
X74594540Y-74000000D01*
X74614326Y-74188256D01*
X74614326Y-74188258D01*
X74614327Y-74188260D01*
X74621628Y-74210732D01*
X74623621Y-74280574D01*
X74587539Y-74340405D01*
X74524837Y-74371231D01*
X74477915Y-74370337D01*
X74344646Y-74342010D01*
X74155354Y-74342010D01*
X74122897Y-74348908D01*
X73970197Y-74381365D01*
X73970192Y-74381367D01*
X73797270Y-74458358D01*
X73797265Y-74458361D01*
X73644129Y-74569621D01*
X73644128Y-74569622D01*
X73591649Y-74627906D01*
X73532162Y-74664554D01*
X73462305Y-74663223D01*
X73404257Y-74624336D01*
X73376448Y-74560239D01*
X73375500Y-74544933D01*
X73375500Y-72698687D01*
X73395185Y-72631648D01*
X73407350Y-72615715D01*
X73442693Y-72576462D01*
X73482533Y-72532216D01*
X73577179Y-72368284D01*
X73635674Y-72188256D01*
X73655460Y-72000000D01*
X73635674Y-71811744D01*
X73577179Y-71631716D01*
X73482533Y-71467784D01*
X73355871Y-71327112D01*
X73334719Y-71311744D01*
X73202734Y-71215851D01*
X73202729Y-71215848D01*
X73029807Y-71138857D01*
X73029802Y-71138855D01*
X72884001Y-71107865D01*
X72844646Y-71099500D01*
X72655354Y-71099500D01*
X72622897Y-71106398D01*
X72470197Y-71138855D01*
X72470192Y-71138857D01*
X72297270Y-71215848D01*
X72297265Y-71215851D01*
X72144129Y-71327111D01*
X72017466Y-71467785D01*
X71982387Y-71528544D01*
X71931820Y-71576760D01*
X71863213Y-71589983D01*
X71798348Y-71564015D01*
X71767613Y-71528544D01*
X71751133Y-71500000D01*
X71732533Y-71467784D01*
X71605871Y-71327112D01*
X71584719Y-71311744D01*
X71452734Y-71215851D01*
X71452729Y-71215848D01*
X71279807Y-71138857D01*
X71279802Y-71138855D01*
X71134001Y-71107865D01*
X71094646Y-71099500D01*
X70905354Y-71099500D01*
X70872897Y-71106398D01*
X70720197Y-71138855D01*
X70720192Y-71138857D01*
X70547270Y-71215848D01*
X70547265Y-71215851D01*
X70394129Y-71327111D01*
X70267466Y-71467785D01*
X70172821Y-71631715D01*
X70172818Y-71631722D01*
X70144855Y-71717785D01*
X70114326Y-71811744D01*
X70094540Y-72000000D01*
X70114326Y-72188256D01*
X70114327Y-72188259D01*
X70172818Y-72368277D01*
X70172821Y-72368284D01*
X70267467Y-72532216D01*
X70293930Y-72561606D01*
X70342650Y-72615715D01*
X70372880Y-72678706D01*
X70374500Y-72698687D01*
X70374500Y-74586911D01*
X70397702Y-74703561D01*
X70397704Y-74703569D01*
X70397703Y-74703569D01*
X70398535Y-74707748D01*
X70398539Y-74707763D01*
X70445685Y-74821585D01*
X70445687Y-74821588D01*
X70445688Y-74821591D01*
X70476883Y-74868277D01*
X70476887Y-74868282D01*
X70476888Y-74868284D01*
X70514141Y-74924037D01*
X70514144Y-74924041D01*
X70605586Y-75015483D01*
X70605608Y-75015503D01*
X72460711Y-76870606D01*
X72460740Y-76870637D01*
X72550958Y-76960855D01*
X72550966Y-76960861D01*
X72588376Y-76985858D01*
X72588377Y-76985858D01*
X72653409Y-77029312D01*
X72733902Y-77062652D01*
X72767243Y-77076463D01*
X72777876Y-77078578D01*
X72818882Y-77086735D01*
X72818910Y-77086739D01*
X72818931Y-77086744D01*
X72823243Y-77087601D01*
X72885151Y-77119990D01*
X72919721Y-77180708D01*
X72915977Y-77250477D01*
X72891194Y-77292188D01*
X72879813Y-77304828D01*
X72785168Y-77468758D01*
X72785165Y-77468765D01*
X72729899Y-77638857D01*
X72726673Y-77648787D01*
X72718874Y-77722989D01*
X72709025Y-77816694D01*
X72682440Y-77881309D01*
X72673385Y-77891413D01*
X72128193Y-78436606D01*
X71601270Y-78963529D01*
X71601267Y-78963532D01*
X71561802Y-79002997D01*
X71514140Y-79050658D01*
X71493784Y-79081125D01*
X71493782Y-79081128D01*
X71445688Y-79153104D01*
X71415023Y-79227137D01*
X71415023Y-79227138D01*
X71398536Y-79266939D01*
X71397027Y-79274526D01*
X71396267Y-79278349D01*
X71379629Y-79362000D01*
X71379628Y-79362004D01*
X71373850Y-79391046D01*
X71341463Y-79452956D01*
X71280746Y-79487528D01*
X71210976Y-79483785D01*
X71160084Y-79449822D01*
X71117203Y-79402198D01*
X71105871Y-79389612D01*
X71067872Y-79362004D01*
X70952734Y-79278351D01*
X70952729Y-79278348D01*
X70779807Y-79201357D01*
X70779802Y-79201355D01*
X70634001Y-79170365D01*
X70594646Y-79162000D01*
X70405354Y-79162000D01*
X70372897Y-79168898D01*
X70220197Y-79201355D01*
X70220192Y-79201357D01*
X70047270Y-79278348D01*
X70047265Y-79278351D01*
X69894129Y-79389611D01*
X69767466Y-79530285D01*
X69672821Y-79694215D01*
X69672818Y-79694222D01*
X69629640Y-79827112D01*
X69614326Y-79874244D01*
X69594540Y-80062500D01*
X69614326Y-80250756D01*
X69614327Y-80250759D01*
X69672818Y-80430777D01*
X69672821Y-80430784D01*
X69726087Y-80523044D01*
X69732887Y-80534821D01*
X69749500Y-80596821D01*
X69749500Y-81026000D01*
X69749500Y-81026002D01*
X69749499Y-81026002D01*
X69778340Y-81170989D01*
X69778343Y-81170999D01*
X69834913Y-81307572D01*
X69834914Y-81307573D01*
X69834916Y-81307577D01*
X69850045Y-81330219D01*
X69897004Y-81400500D01*
X69917051Y-81430502D01*
X69917052Y-81430503D01*
X70919502Y-82432952D01*
X70919504Y-82432954D01*
X70952520Y-82455013D01*
X70969029Y-82466044D01*
X71042423Y-82515084D01*
X71179005Y-82571658D01*
X71179009Y-82571658D01*
X71179010Y-82571659D01*
X71323997Y-82600500D01*
X71324000Y-82600500D01*
X76073920Y-82600500D01*
X76171462Y-82581096D01*
X76218913Y-82571658D01*
X76355495Y-82515084D01*
X76358484Y-82513087D01*
X76360289Y-82512521D01*
X76360865Y-82512214D01*
X76360923Y-82512323D01*
X76425161Y-82492208D01*
X76492541Y-82510692D01*
X76515057Y-82528507D01*
X76869504Y-82882954D01*
X76888762Y-82895821D01*
X76943188Y-82932186D01*
X76992423Y-82965084D01*
X76992424Y-82965084D01*
X76992425Y-82965085D01*
X76992427Y-82965086D01*
X77129000Y-83021656D01*
X77129005Y-83021658D01*
X77129009Y-83021658D01*
X77129010Y-83021659D01*
X77273997Y-83050500D01*
X77274000Y-83050500D01*
X78865173Y-83050500D01*
X78984135Y-83026836D01*
X79010166Y-83021658D01*
X79146748Y-82965084D01*
X79195982Y-82932186D01*
X79195987Y-82932183D01*
X79250408Y-82895821D01*
X79269669Y-82882952D01*
X80048092Y-82104527D01*
X80109413Y-82071044D01*
X80109769Y-82070966D01*
X80175124Y-82057076D01*
X80348051Y-81980083D01*
X80501192Y-81868820D01*
X80627854Y-81728148D01*
X80722500Y-81564216D01*
X80780995Y-81384188D01*
X80800781Y-81195932D01*
X80780995Y-81007676D01*
X80722500Y-80827648D01*
X80627854Y-80663716D01*
X80545009Y-80571708D01*
X80514780Y-80508718D01*
X80523405Y-80439383D01*
X80549476Y-80401059D01*
X80636076Y-80314460D01*
X80636080Y-80314458D01*
X80723205Y-80227333D01*
X80791658Y-80124886D01*
X80838810Y-80011052D01*
X80847416Y-79967784D01*
X80858953Y-79909789D01*
X80860684Y-79901079D01*
X80862847Y-79890207D01*
X80862847Y-79766993D01*
X80862847Y-79747044D01*
X80882532Y-79680005D01*
X80935336Y-79634250D01*
X80961067Y-79625754D01*
X81029803Y-79611144D01*
X81029806Y-79611142D01*
X81029808Y-79611142D01*
X81150501Y-79557405D01*
X81202730Y-79534151D01*
X81355871Y-79422888D01*
X81477524Y-79287778D01*
X81537011Y-79251130D01*
X81606868Y-79252461D01*
X81620101Y-79257468D01*
X81631807Y-79262680D01*
X81816964Y-79302036D01*
X81816965Y-79302036D01*
X82006254Y-79302036D01*
X82006256Y-79302036D01*
X82191413Y-79262680D01*
X82364340Y-79185687D01*
X82517481Y-79074424D01*
X82520398Y-79071183D01*
X82523210Y-79068062D01*
X82582697Y-79031415D01*
X82615358Y-79027036D01*
X83615787Y-79027036D01*
X83676209Y-79015017D01*
X83736632Y-79002999D01*
X83786676Y-78982270D01*
X83850466Y-78955848D01*
X83914001Y-78913394D01*
X83952913Y-78887394D01*
X84040038Y-78800269D01*
X84040038Y-78800267D01*
X84050246Y-78790060D01*
X84050247Y-78790057D01*
X87453311Y-75386994D01*
X87514632Y-75353511D01*
X87584324Y-75358495D01*
X87633137Y-75391702D01*
X87644129Y-75403909D01*
X87780655Y-75503100D01*
X87823320Y-75558429D01*
X87829299Y-75628042D01*
X87796694Y-75689838D01*
X87795450Y-75691099D01*
X83592096Y-79894452D01*
X83530773Y-79927937D01*
X83461081Y-79922953D01*
X83412266Y-79889744D01*
X83355871Y-79827112D01*
X83355870Y-79827111D01*
X83202734Y-79715851D01*
X83202729Y-79715848D01*
X83029807Y-79638857D01*
X83029802Y-79638855D01*
X82883770Y-79607816D01*
X82844646Y-79599500D01*
X82655354Y-79599500D01*
X82622897Y-79606398D01*
X82470197Y-79638855D01*
X82470192Y-79638857D01*
X82297270Y-79715848D01*
X82297265Y-79715851D01*
X82144129Y-79827111D01*
X82017466Y-79967785D01*
X81922821Y-80131715D01*
X81922818Y-80131722D01*
X81864327Y-80311740D01*
X81864326Y-80311744D01*
X81844540Y-80500000D01*
X81864326Y-80688256D01*
X81864327Y-80688259D01*
X81922818Y-80868277D01*
X81922821Y-80868284D01*
X82017467Y-81032216D01*
X82142419Y-81170989D01*
X82144129Y-81172888D01*
X82297265Y-81284148D01*
X82297270Y-81284151D01*
X82470192Y-81361142D01*
X82470197Y-81361144D01*
X82655354Y-81400500D01*
X82655355Y-81400500D01*
X82761967Y-81400500D01*
X82829006Y-81420185D01*
X82874761Y-81472989D01*
X82879898Y-81486182D01*
X82922818Y-81618277D01*
X82922821Y-81618284D01*
X83017467Y-81782216D01*
X83095446Y-81868820D01*
X83144129Y-81922888D01*
X83297265Y-82034148D01*
X83297270Y-82034151D01*
X83470192Y-82111142D01*
X83470197Y-82111144D01*
X83655354Y-82150500D01*
X83655355Y-82150500D01*
X83844644Y-82150500D01*
X83844646Y-82150500D01*
X84029803Y-82111144D01*
X84202730Y-82034151D01*
X84355871Y-81922888D01*
X84482533Y-81782216D01*
X84577179Y-81618284D01*
X84635674Y-81438256D01*
X84655460Y-81250000D01*
X84635674Y-81061744D01*
X84635672Y-81061738D01*
X84634322Y-81055385D01*
X84637207Y-81054771D01*
X84635504Y-80997810D01*
X84667789Y-80941495D01*
X86388340Y-79220944D01*
X86449661Y-79187461D01*
X86519353Y-79192445D01*
X86575286Y-79234317D01*
X86599339Y-79295664D01*
X86614326Y-79438256D01*
X86614327Y-79438259D01*
X86672818Y-79618277D01*
X86672821Y-79618284D01*
X86767467Y-79782216D01*
X86894129Y-79922888D01*
X87047265Y-80034148D01*
X87047270Y-80034151D01*
X87220192Y-80111142D01*
X87220197Y-80111144D01*
X87405354Y-80150500D01*
X87405355Y-80150500D01*
X87594644Y-80150500D01*
X87594646Y-80150500D01*
X87779803Y-80111144D01*
X87952730Y-80034151D01*
X88105871Y-79922888D01*
X88232533Y-79782216D01*
X88327179Y-79618284D01*
X88385674Y-79438256D01*
X88400349Y-79298622D01*
X88426933Y-79234009D01*
X88435980Y-79223913D01*
X91733092Y-75926801D01*
X91794413Y-75893318D01*
X91846548Y-75893194D01*
X91880201Y-75900347D01*
X91880203Y-75900347D01*
X92069491Y-75900347D01*
X92069493Y-75900347D01*
X92254650Y-75860991D01*
X92427577Y-75783998D01*
X92580718Y-75672735D01*
X92707380Y-75532063D01*
X92802026Y-75368131D01*
X92860521Y-75188103D01*
X92880307Y-74999847D01*
X92860521Y-74811591D01*
X92802026Y-74631563D01*
X92788428Y-74608012D01*
X92771956Y-74540113D01*
X92794808Y-74474086D01*
X92803654Y-74463055D01*
X92876443Y-74382216D01*
X92876452Y-74382200D01*
X92877886Y-74380228D01*
X92879021Y-74379352D01*
X92880792Y-74377386D01*
X92881151Y-74377709D01*
X92933212Y-74337557D01*
X93002825Y-74331571D01*
X93047102Y-74350002D01*
X93144498Y-74415080D01*
X93144511Y-74415087D01*
X93260281Y-74463040D01*
X93281087Y-74471658D01*
X93281091Y-74471658D01*
X93281092Y-74471659D01*
X93426079Y-74500500D01*
X93426082Y-74500500D01*
X95250500Y-74500500D01*
X95317539Y-74520185D01*
X95363294Y-74572989D01*
X95374500Y-74624500D01*
X95374500Y-74811611D01*
X95380898Y-74843775D01*
X95380898Y-74843776D01*
X95398535Y-74932446D01*
X95398539Y-74932459D01*
X95404241Y-74946223D01*
X95404240Y-74946223D01*
X95404243Y-74946227D01*
X95419553Y-74983191D01*
X95445687Y-75046285D01*
X95463965Y-75073638D01*
X95463966Y-75073640D01*
X95514140Y-75148731D01*
X95514141Y-75148732D01*
X95514142Y-75148733D01*
X95601267Y-75235858D01*
X95601268Y-75235858D01*
X95608335Y-75242925D01*
X95608334Y-75242925D01*
X95608338Y-75242928D01*
X96061038Y-75695629D01*
X96094523Y-75756952D01*
X96096678Y-75770348D01*
X96102645Y-75827114D01*
X96114326Y-75938256D01*
X96114327Y-75938259D01*
X96150568Y-76049797D01*
X96152563Y-76119638D01*
X96116483Y-76179471D01*
X96053782Y-76210299D01*
X95984368Y-76202334D01*
X95940487Y-76171087D01*
X95855870Y-76077111D01*
X95702734Y-75965851D01*
X95702729Y-75965848D01*
X95529807Y-75888857D01*
X95529802Y-75888855D01*
X95369651Y-75854815D01*
X95344646Y-75849500D01*
X95155354Y-75849500D01*
X95130349Y-75854815D01*
X94970197Y-75888855D01*
X94970192Y-75888857D01*
X94797270Y-75965848D01*
X94797265Y-75965851D01*
X94644129Y-76077111D01*
X94517466Y-76217785D01*
X94422821Y-76381715D01*
X94422818Y-76381722D01*
X94364327Y-76561740D01*
X94364326Y-76561744D01*
X94344540Y-76750000D01*
X94364326Y-76938256D01*
X94364327Y-76938259D01*
X94422818Y-77118277D01*
X94422821Y-77118284D01*
X94517467Y-77282216D01*
X94619185Y-77395185D01*
X94644129Y-77422888D01*
X94797265Y-77534148D01*
X94797270Y-77534151D01*
X94970192Y-77611142D01*
X94970197Y-77611144D01*
X95155354Y-77650500D01*
X95155355Y-77650500D01*
X95165546Y-77650500D01*
X95232585Y-77670185D01*
X95278340Y-77722989D01*
X95288284Y-77792147D01*
X95259259Y-77855703D01*
X95253227Y-77862181D01*
X93929725Y-79185684D01*
X92613599Y-80501810D01*
X92613597Y-80501812D01*
X92583195Y-80532214D01*
X92526472Y-80588936D01*
X92510407Y-80612980D01*
X92510406Y-80612979D01*
X92458018Y-80691383D01*
X92449329Y-80712358D01*
X92428354Y-80763000D01*
X92410867Y-80805218D01*
X92405791Y-80830733D01*
X92405792Y-80830734D01*
X92391916Y-80900500D01*
X92390326Y-80908492D01*
X92390325Y-80908497D01*
X92386830Y-80926064D01*
X92386830Y-82823940D01*
X92410865Y-82944776D01*
X92410869Y-82944788D01*
X92419592Y-82965846D01*
X92419593Y-82965849D01*
X92458015Y-83058611D01*
X92458018Y-83058616D01*
X92479127Y-83090207D01*
X92479128Y-83090210D01*
X92479129Y-83090210D01*
X92526470Y-83161061D01*
X92526471Y-83161062D01*
X92526472Y-83161063D01*
X92613597Y-83248188D01*
X92613598Y-83248188D01*
X92620665Y-83255255D01*
X92620664Y-83255255D01*
X92620668Y-83255258D01*
X95811038Y-86445629D01*
X95844523Y-86506952D01*
X95846678Y-86520348D01*
X95854968Y-86599227D01*
X95864326Y-86688256D01*
X95864327Y-86688259D01*
X95922818Y-86868277D01*
X95922821Y-86868284D01*
X95942218Y-86901880D01*
X95958691Y-86969780D01*
X95935838Y-87035807D01*
X95880917Y-87078998D01*
X95845640Y-87087408D01*
X95759596Y-87094936D01*
X95759586Y-87094938D01*
X95531344Y-87156094D01*
X95531335Y-87156098D01*
X95317171Y-87255964D01*
X95317169Y-87255965D01*
X95123597Y-87391505D01*
X94956505Y-87558597D01*
X94826575Y-87744158D01*
X94771998Y-87787783D01*
X94702500Y-87794977D01*
X94640145Y-87763454D01*
X94623425Y-87744158D01*
X94493494Y-87558597D01*
X94418614Y-87483717D01*
X94385129Y-87422394D01*
X94390113Y-87352702D01*
X94431985Y-87296769D01*
X94447322Y-87287769D01*
X94447107Y-87287397D01*
X94452724Y-87284153D01*
X94452730Y-87284151D01*
X94605871Y-87172888D01*
X94732533Y-87032216D01*
X94827179Y-86868284D01*
X94885674Y-86688256D01*
X94905460Y-86500000D01*
X94885674Y-86311744D01*
X94827179Y-86131716D01*
X94732533Y-85967784D01*
X94605871Y-85827112D01*
X94605870Y-85827111D01*
X94452734Y-85715851D01*
X94452729Y-85715848D01*
X94279807Y-85638857D01*
X94279802Y-85638855D01*
X94134001Y-85607865D01*
X94094646Y-85599500D01*
X93905354Y-85599500D01*
X93872897Y-85606398D01*
X93720197Y-85638855D01*
X93720192Y-85638857D01*
X93547271Y-85715848D01*
X93447885Y-85788056D01*
X93382078Y-85811535D01*
X93314025Y-85795709D01*
X93302115Y-85788056D01*
X93278966Y-85771237D01*
X93202730Y-85715849D01*
X93202728Y-85715848D01*
X93202729Y-85715848D01*
X93029807Y-85638857D01*
X93029802Y-85638855D01*
X92884001Y-85607865D01*
X92844646Y-85599500D01*
X92655354Y-85599500D01*
X92622897Y-85606398D01*
X92470197Y-85638855D01*
X92470192Y-85638857D01*
X92297270Y-85715848D01*
X92297265Y-85715851D01*
X92144129Y-85827111D01*
X92017466Y-85967785D01*
X91922821Y-86131715D01*
X91922818Y-86131722D01*
X91864327Y-86311740D01*
X91864326Y-86311744D01*
X91844540Y-86500000D01*
X91864326Y-86688256D01*
X91864327Y-86688259D01*
X91922818Y-86868277D01*
X91922819Y-86868279D01*
X91922821Y-86868284D01*
X92017467Y-87032216D01*
X92129436Y-87156570D01*
X92144129Y-87172888D01*
X92297265Y-87284148D01*
X92297270Y-87284151D01*
X92404848Y-87332049D01*
X92458085Y-87377300D01*
X92478406Y-87444149D01*
X92459360Y-87511372D01*
X92442095Y-87533008D01*
X92416503Y-87558599D01*
X92286575Y-87744158D01*
X92231998Y-87787783D01*
X92162500Y-87794977D01*
X92100145Y-87763454D01*
X92083425Y-87744158D01*
X91953494Y-87558597D01*
X91786402Y-87391506D01*
X91786395Y-87391501D01*
X91771799Y-87381281D01*
X91730985Y-87352702D01*
X91592834Y-87255967D01*
X91592830Y-87255965D01*
X91584211Y-87251946D01*
X91378663Y-87156097D01*
X91378659Y-87156096D01*
X91378655Y-87156094D01*
X91150413Y-87094938D01*
X91150403Y-87094936D01*
X90915001Y-87074341D01*
X90914999Y-87074341D01*
X90679596Y-87094936D01*
X90679586Y-87094938D01*
X90451344Y-87156094D01*
X90451335Y-87156098D01*
X90237171Y-87255964D01*
X90237169Y-87255965D01*
X90043600Y-87391503D01*
X89921673Y-87513430D01*
X89860350Y-87546914D01*
X89790658Y-87541930D01*
X89734725Y-87500058D01*
X89717810Y-87469081D01*
X89668797Y-87337671D01*
X89668793Y-87337664D01*
X89582547Y-87222455D01*
X89582544Y-87222452D01*
X89467335Y-87136206D01*
X89467328Y-87136202D01*
X89332482Y-87085908D01*
X89332483Y-87085908D01*
X89272883Y-87079501D01*
X89272881Y-87079500D01*
X89272873Y-87079500D01*
X89272865Y-87079500D01*
X88170007Y-87079500D01*
X88102968Y-87059815D01*
X88057213Y-87007011D01*
X88047269Y-86937853D01*
X88062618Y-86893503D01*
X88077179Y-86868284D01*
X88135674Y-86688256D01*
X88155460Y-86500000D01*
X88135674Y-86311744D01*
X88077179Y-86131716D01*
X87982533Y-85967784D01*
X87855871Y-85827112D01*
X87855870Y-85827111D01*
X87702734Y-85715851D01*
X87702729Y-85715848D01*
X87529807Y-85638857D01*
X87529802Y-85638855D01*
X87384001Y-85607865D01*
X87344646Y-85599500D01*
X87155354Y-85599500D01*
X87122897Y-85606398D01*
X86970197Y-85638855D01*
X86970192Y-85638857D01*
X86797270Y-85715848D01*
X86797265Y-85715851D01*
X86644129Y-85827111D01*
X86517466Y-85967785D01*
X86422821Y-86131715D01*
X86422818Y-86131722D01*
X86364327Y-86311740D01*
X86364326Y-86311744D01*
X86344540Y-86500000D01*
X86364326Y-86688256D01*
X86364327Y-86688259D01*
X86422818Y-86868277D01*
X86422819Y-86868279D01*
X86422821Y-86868284D01*
X86517467Y-87032216D01*
X86629436Y-87156570D01*
X86644129Y-87172888D01*
X86797265Y-87284148D01*
X86797270Y-87284151D01*
X86957054Y-87355293D01*
X87010291Y-87400543D01*
X87030612Y-87467393D01*
X87029908Y-87481825D01*
X87026732Y-87511372D01*
X87024500Y-87532130D01*
X87024500Y-89327870D01*
X87024501Y-89327876D01*
X87030908Y-89387483D01*
X87084303Y-89530641D01*
X87081360Y-89531738D01*
X87092910Y-89584859D01*
X87068486Y-89650321D01*
X87012548Y-89692186D01*
X86969227Y-89700000D01*
X68271381Y-89700000D01*
X68263204Y-89705154D01*
X68193337Y-89704539D01*
X68134893Y-89666250D01*
X68125001Y-89652915D01*
X68124923Y-89652794D01*
X68124922Y-89652793D01*
X68081224Y-89632837D01*
X68058456Y-89622439D01*
X68058455Y-89622439D01*
X67986129Y-89632837D01*
X67930173Y-89681323D01*
X67866617Y-89710347D01*
X67797458Y-89700403D01*
X67796878Y-89700000D01*
X67786000Y-89700000D01*
X57372000Y-89700000D01*
X57351758Y-89700000D01*
X57335017Y-89709140D01*
X57265326Y-89704153D01*
X57209394Y-89662279D01*
X57204347Y-89655009D01*
X57202924Y-89652795D01*
X57202922Y-89652793D01*
X57159224Y-89632837D01*
X57136456Y-89622439D01*
X57136455Y-89622439D01*
X57064129Y-89632837D01*
X57064126Y-89632839D01*
X57014953Y-89675447D01*
X56951397Y-89704471D01*
X56920302Y-89700000D01*
X56864000Y-89700000D01*
X53801527Y-89700000D01*
X53798490Y-89699963D01*
X53712420Y-89697854D01*
X53691266Y-89695508D01*
X53520993Y-89661639D01*
X53497731Y-89654583D01*
X53493704Y-89652915D01*
X53397335Y-89612997D01*
X53338745Y-89588728D01*
X53317307Y-89577269D01*
X53174224Y-89481664D01*
X53155434Y-89466243D01*
X53033756Y-89344565D01*
X53018335Y-89325775D01*
X52922728Y-89182689D01*
X52911271Y-89161254D01*
X52845413Y-89002261D01*
X52838362Y-88979013D01*
X52804490Y-88808728D01*
X52802145Y-88787583D01*
X52800037Y-88701509D01*
X52800000Y-88698473D01*
X52800000Y-88000000D01*
X56844540Y-88000000D01*
X56864326Y-88188256D01*
X56864327Y-88188259D01*
X56922818Y-88368277D01*
X56922821Y-88368284D01*
X57017467Y-88532216D01*
X57085263Y-88607511D01*
X57144129Y-88672888D01*
X57297265Y-88784148D01*
X57297270Y-88784151D01*
X57470192Y-88861142D01*
X57470197Y-88861144D01*
X57655354Y-88900500D01*
X57655355Y-88900500D01*
X57844644Y-88900500D01*
X57844646Y-88900500D01*
X58029803Y-88861144D01*
X58202730Y-88784151D01*
X58355871Y-88672888D01*
X58482533Y-88532216D01*
X58577179Y-88368284D01*
X58635674Y-88188256D01*
X58655460Y-88000000D01*
X58635674Y-87811744D01*
X58577179Y-87631716D01*
X58482533Y-87467784D01*
X58355871Y-87327112D01*
X58346286Y-87320148D01*
X58202734Y-87215851D01*
X58202729Y-87215848D01*
X58029807Y-87138857D01*
X58029802Y-87138855D01*
X57884001Y-87107865D01*
X57844646Y-87099500D01*
X57655354Y-87099500D01*
X57622897Y-87106398D01*
X57470197Y-87138855D01*
X57470192Y-87138857D01*
X57297270Y-87215848D01*
X57297265Y-87215851D01*
X57144129Y-87327111D01*
X57017466Y-87467785D01*
X56922821Y-87631715D01*
X56922818Y-87631722D01*
X56864327Y-87811740D01*
X56864326Y-87811744D01*
X56844540Y-88000000D01*
X52800000Y-88000000D01*
X52800000Y-83903720D01*
X55522500Y-83903720D01*
X55522500Y-84096279D01*
X55560062Y-84285118D01*
X55560066Y-84285132D01*
X55633746Y-84463013D01*
X55633753Y-84463026D01*
X55740725Y-84623119D01*
X55740728Y-84623123D01*
X55876876Y-84759271D01*
X55876880Y-84759274D01*
X56036973Y-84866246D01*
X56036986Y-84866253D01*
X56173716Y-84922888D01*
X56214874Y-84939936D01*
X56403720Y-84977499D01*
X56403724Y-84977500D01*
X56403725Y-84977500D01*
X56596276Y-84977500D01*
X56596277Y-84977499D01*
X56785126Y-84939936D01*
X56963020Y-84866250D01*
X57123120Y-84759274D01*
X57259274Y-84623120D01*
X57366250Y-84463020D01*
X57439936Y-84285126D01*
X57477500Y-84096275D01*
X57477500Y-83903725D01*
X57477499Y-83903720D01*
X62522500Y-83903720D01*
X62522500Y-84096279D01*
X62560062Y-84285118D01*
X62560066Y-84285132D01*
X62633746Y-84463013D01*
X62633753Y-84463026D01*
X62740725Y-84623119D01*
X62740728Y-84623123D01*
X62876876Y-84759271D01*
X62876880Y-84759274D01*
X63036973Y-84866246D01*
X63036986Y-84866253D01*
X63173716Y-84922888D01*
X63214874Y-84939936D01*
X63403720Y-84977499D01*
X63403724Y-84977500D01*
X63403725Y-84977500D01*
X63596276Y-84977500D01*
X63596277Y-84977499D01*
X63785126Y-84939936D01*
X63963020Y-84866250D01*
X64123120Y-84759274D01*
X64132394Y-84750000D01*
X67844540Y-84750000D01*
X67864326Y-84938256D01*
X67864327Y-84938259D01*
X67922818Y-85118277D01*
X67922821Y-85118284D01*
X68017466Y-85282215D01*
X68138851Y-85417028D01*
X68169081Y-85480020D01*
X68160455Y-85549355D01*
X68138851Y-85582972D01*
X68017466Y-85717784D01*
X67922821Y-85881715D01*
X67922818Y-85881722D01*
X67864327Y-86061740D01*
X67864326Y-86061744D01*
X67844540Y-86250000D01*
X67864326Y-86438256D01*
X67864327Y-86438259D01*
X67922818Y-86618277D01*
X67922821Y-86618284D01*
X68017467Y-86782216D01*
X68117667Y-86893499D01*
X68144129Y-86922888D01*
X68297265Y-87034148D01*
X68297270Y-87034151D01*
X68470192Y-87111142D01*
X68470197Y-87111144D01*
X68655354Y-87150500D01*
X68655355Y-87150500D01*
X68844644Y-87150500D01*
X68844646Y-87150500D01*
X69029803Y-87111144D01*
X69202730Y-87034151D01*
X69355871Y-86922888D01*
X69482533Y-86782216D01*
X69577179Y-86618284D01*
X69635674Y-86438256D01*
X69655460Y-86250000D01*
X69635674Y-86061744D01*
X69577179Y-85881716D01*
X69482533Y-85717784D01*
X69361146Y-85582971D01*
X69330917Y-85519981D01*
X69339542Y-85450646D01*
X69361147Y-85417028D01*
X69482533Y-85282216D01*
X69577179Y-85118284D01*
X69635674Y-84938256D01*
X69655460Y-84750000D01*
X69635674Y-84561744D01*
X69577179Y-84381716D01*
X69482533Y-84217784D01*
X69355871Y-84077112D01*
X69334719Y-84061744D01*
X69202734Y-83965851D01*
X69202729Y-83965848D01*
X69029807Y-83888857D01*
X69029802Y-83888855D01*
X68884001Y-83857865D01*
X68844646Y-83849500D01*
X68655354Y-83849500D01*
X68622897Y-83856398D01*
X68470197Y-83888855D01*
X68470192Y-83888857D01*
X68297270Y-83965848D01*
X68297265Y-83965851D01*
X68144129Y-84077111D01*
X68017466Y-84217785D01*
X67922821Y-84381715D01*
X67922818Y-84381722D01*
X67864327Y-84561740D01*
X67864326Y-84561744D01*
X67844540Y-84750000D01*
X64132394Y-84750000D01*
X64259274Y-84623120D01*
X64366250Y-84463020D01*
X64439936Y-84285126D01*
X64477500Y-84096275D01*
X64477500Y-83903725D01*
X64439936Y-83714874D01*
X64406555Y-83634284D01*
X64366253Y-83536986D01*
X64366246Y-83536973D01*
X64259274Y-83376880D01*
X64259271Y-83376876D01*
X64123123Y-83240728D01*
X64123119Y-83240725D01*
X63963026Y-83133753D01*
X63963013Y-83133746D01*
X63785132Y-83060066D01*
X63785128Y-83060064D01*
X63785126Y-83060064D01*
X63785122Y-83060063D01*
X63785118Y-83060062D01*
X63596279Y-83022500D01*
X63596275Y-83022500D01*
X63403725Y-83022500D01*
X63403720Y-83022500D01*
X63214881Y-83060062D01*
X63214867Y-83060066D01*
X63036986Y-83133746D01*
X63036973Y-83133753D01*
X62876880Y-83240725D01*
X62876876Y-83240728D01*
X62740728Y-83376876D01*
X62740725Y-83376880D01*
X62633753Y-83536973D01*
X62633746Y-83536986D01*
X62560066Y-83714867D01*
X62560062Y-83714881D01*
X62522500Y-83903720D01*
X57477499Y-83903720D01*
X57439936Y-83714874D01*
X57406555Y-83634284D01*
X57366253Y-83536986D01*
X57366246Y-83536973D01*
X57259274Y-83376880D01*
X57259271Y-83376876D01*
X57123123Y-83240728D01*
X57123119Y-83240725D01*
X56963026Y-83133753D01*
X56963013Y-83133746D01*
X56785132Y-83060066D01*
X56785128Y-83060064D01*
X56785126Y-83060064D01*
X56785122Y-83060063D01*
X56785118Y-83060062D01*
X56596279Y-83022500D01*
X56596275Y-83022500D01*
X56403725Y-83022500D01*
X56403720Y-83022500D01*
X56214881Y-83060062D01*
X56214867Y-83060066D01*
X56036986Y-83133746D01*
X56036973Y-83133753D01*
X55876880Y-83240725D01*
X55876876Y-83240728D01*
X55740728Y-83376876D01*
X55740725Y-83376880D01*
X55633753Y-83536973D01*
X55633746Y-83536986D01*
X55560066Y-83714867D01*
X55560062Y-83714881D01*
X55522500Y-83903720D01*
X52800000Y-83903720D01*
X52800000Y-80000000D01*
X58844540Y-80000000D01*
X58864326Y-80188256D01*
X58864327Y-80188259D01*
X58922818Y-80368277D01*
X58922821Y-80368284D01*
X59017467Y-80532216D01*
X59135871Y-80663717D01*
X59144129Y-80672888D01*
X59297265Y-80784148D01*
X59297270Y-80784151D01*
X59470192Y-80861142D01*
X59470197Y-80861144D01*
X59655354Y-80900500D01*
X59655355Y-80900500D01*
X59844644Y-80900500D01*
X59844646Y-80900500D01*
X60029803Y-80861144D01*
X60202730Y-80784151D01*
X60355871Y-80672888D01*
X60482533Y-80532216D01*
X60577179Y-80368284D01*
X60635674Y-80188256D01*
X60655460Y-80000000D01*
X60635674Y-79811744D01*
X60577179Y-79631716D01*
X60482533Y-79467784D01*
X60355871Y-79327112D01*
X60321357Y-79302036D01*
X60202734Y-79215851D01*
X60202729Y-79215848D01*
X60029807Y-79138857D01*
X60029802Y-79138855D01*
X59884001Y-79107865D01*
X59844646Y-79099500D01*
X59655354Y-79099500D01*
X59622897Y-79106398D01*
X59470197Y-79138855D01*
X59470192Y-79138857D01*
X59297270Y-79215848D01*
X59297265Y-79215851D01*
X59144129Y-79327111D01*
X59017466Y-79467785D01*
X58922821Y-79631715D01*
X58922818Y-79631722D01*
X58873921Y-79782214D01*
X58864326Y-79811744D01*
X58844540Y-80000000D01*
X52800000Y-80000000D01*
X52800000Y-74000000D01*
X57094540Y-74000000D01*
X57114326Y-74188256D01*
X57114327Y-74188259D01*
X57172818Y-74368277D01*
X57172821Y-74368284D01*
X57267467Y-74532216D01*
X57350560Y-74624500D01*
X57394129Y-74672888D01*
X57547265Y-74784148D01*
X57547270Y-74784151D01*
X57720192Y-74861142D01*
X57720197Y-74861144D01*
X57905354Y-74900500D01*
X57905355Y-74900500D01*
X58094644Y-74900500D01*
X58094646Y-74900500D01*
X58279803Y-74861144D01*
X58452730Y-74784151D01*
X58605871Y-74672888D01*
X58732533Y-74532216D01*
X58827179Y-74368284D01*
X58885674Y-74188256D01*
X58905460Y-74000000D01*
X66344540Y-74000000D01*
X66364326Y-74188256D01*
X66364327Y-74188259D01*
X66422818Y-74368277D01*
X66422821Y-74368284D01*
X66517467Y-74532216D01*
X66600560Y-74624500D01*
X66644129Y-74672888D01*
X66797265Y-74784148D01*
X66797270Y-74784151D01*
X66970192Y-74861142D01*
X66970197Y-74861144D01*
X67155354Y-74900500D01*
X67155355Y-74900500D01*
X67344644Y-74900500D01*
X67344646Y-74900500D01*
X67529803Y-74861144D01*
X67702730Y-74784151D01*
X67855871Y-74672888D01*
X67982533Y-74532216D01*
X68077179Y-74368284D01*
X68135674Y-74188256D01*
X68155460Y-74000000D01*
X68135674Y-73811744D01*
X68077179Y-73631716D01*
X67982533Y-73467784D01*
X67855871Y-73327112D01*
X67855870Y-73327111D01*
X67702734Y-73215851D01*
X67702729Y-73215848D01*
X67529807Y-73138857D01*
X67529802Y-73138855D01*
X67384001Y-73107865D01*
X67344646Y-73099500D01*
X67155354Y-73099500D01*
X67122897Y-73106398D01*
X66970197Y-73138855D01*
X66970192Y-73138857D01*
X66797270Y-73215848D01*
X66797265Y-73215851D01*
X66644129Y-73327111D01*
X66517466Y-73467785D01*
X66422821Y-73631715D01*
X66422818Y-73631722D01*
X66364327Y-73811740D01*
X66364326Y-73811744D01*
X66344540Y-74000000D01*
X58905460Y-74000000D01*
X58885674Y-73811744D01*
X58827179Y-73631716D01*
X58732533Y-73467784D01*
X58605871Y-73327112D01*
X58605870Y-73327111D01*
X58452734Y-73215851D01*
X58452729Y-73215848D01*
X58279807Y-73138857D01*
X58279802Y-73138855D01*
X58134001Y-73107865D01*
X58094646Y-73099500D01*
X57905354Y-73099500D01*
X57872897Y-73106398D01*
X57720197Y-73138855D01*
X57720192Y-73138857D01*
X57547270Y-73215848D01*
X57547265Y-73215851D01*
X57394129Y-73327111D01*
X57267466Y-73467785D01*
X57172821Y-73631715D01*
X57172818Y-73631722D01*
X57114327Y-73811740D01*
X57114326Y-73811744D01*
X57094540Y-74000000D01*
X52800000Y-74000000D01*
X52800000Y-69903720D01*
X55522500Y-69903720D01*
X55522500Y-70096279D01*
X55560062Y-70285118D01*
X55560066Y-70285132D01*
X55633746Y-70463013D01*
X55633753Y-70463026D01*
X55740725Y-70623119D01*
X55740728Y-70623123D01*
X55876876Y-70759271D01*
X55876880Y-70759274D01*
X56036973Y-70866246D01*
X56036986Y-70866253D01*
X56185806Y-70927896D01*
X56214874Y-70939936D01*
X56403720Y-70977499D01*
X56403724Y-70977500D01*
X56403725Y-70977500D01*
X56596276Y-70977500D01*
X56596277Y-70977499D01*
X56785126Y-70939936D01*
X56963020Y-70866250D01*
X57123120Y-70759274D01*
X57259274Y-70623120D01*
X57366250Y-70463020D01*
X57439936Y-70285126D01*
X57477500Y-70096275D01*
X57477500Y-69903725D01*
X57477499Y-69903720D01*
X62522500Y-69903720D01*
X62522500Y-70096279D01*
X62560062Y-70285118D01*
X62560066Y-70285132D01*
X62633746Y-70463013D01*
X62633753Y-70463026D01*
X62740725Y-70623119D01*
X62740728Y-70623123D01*
X62876876Y-70759271D01*
X62876880Y-70759274D01*
X63036973Y-70866246D01*
X63036986Y-70866253D01*
X63185806Y-70927896D01*
X63214874Y-70939936D01*
X63403720Y-70977499D01*
X63403724Y-70977500D01*
X63403725Y-70977500D01*
X63596276Y-70977500D01*
X63596277Y-70977499D01*
X63785126Y-70939936D01*
X63963020Y-70866250D01*
X64123120Y-70759274D01*
X64259274Y-70623120D01*
X64366250Y-70463020D01*
X64439936Y-70285126D01*
X64477500Y-70096275D01*
X64477500Y-69903725D01*
X64439936Y-69714874D01*
X64401438Y-69621931D01*
X64366253Y-69536986D01*
X64366246Y-69536973D01*
X64259274Y-69376880D01*
X64259271Y-69376876D01*
X64123123Y-69240728D01*
X64123119Y-69240725D01*
X63963026Y-69133753D01*
X63963013Y-69133746D01*
X63785132Y-69060066D01*
X63785128Y-69060064D01*
X63785126Y-69060064D01*
X63785122Y-69060063D01*
X63785118Y-69060062D01*
X63596279Y-69022500D01*
X63596275Y-69022500D01*
X63403725Y-69022500D01*
X63403720Y-69022500D01*
X63214881Y-69060062D01*
X63214867Y-69060066D01*
X63036986Y-69133746D01*
X63036973Y-69133753D01*
X62876880Y-69240725D01*
X62876876Y-69240728D01*
X62740728Y-69376876D01*
X62740725Y-69376880D01*
X62633753Y-69536973D01*
X62633746Y-69536986D01*
X62560066Y-69714867D01*
X62560062Y-69714881D01*
X62522500Y-69903720D01*
X57477499Y-69903720D01*
X57439936Y-69714874D01*
X57401438Y-69621931D01*
X57366253Y-69536986D01*
X57366246Y-69536973D01*
X57259274Y-69376880D01*
X57259271Y-69376876D01*
X57123123Y-69240728D01*
X57123119Y-69240725D01*
X56963026Y-69133753D01*
X56963013Y-69133746D01*
X56785132Y-69060066D01*
X56785128Y-69060064D01*
X56785126Y-69060064D01*
X56785122Y-69060063D01*
X56785118Y-69060062D01*
X56596279Y-69022500D01*
X56596275Y-69022500D01*
X56403725Y-69022500D01*
X56403720Y-69022500D01*
X56214881Y-69060062D01*
X56214867Y-69060066D01*
X56036986Y-69133746D01*
X56036973Y-69133753D01*
X55876880Y-69240725D01*
X55876876Y-69240728D01*
X55740728Y-69376876D01*
X55740725Y-69376880D01*
X55633753Y-69536973D01*
X55633746Y-69536986D01*
X55560066Y-69714867D01*
X55560062Y-69714881D01*
X55522500Y-69903720D01*
X52800000Y-69903720D01*
X52800000Y-66000000D01*
X58844540Y-66000000D01*
X58864326Y-66188256D01*
X58864327Y-66188259D01*
X58922818Y-66368277D01*
X58922821Y-66368284D01*
X59017467Y-66532216D01*
X59131459Y-66658817D01*
X59144129Y-66672888D01*
X59297265Y-66784148D01*
X59297270Y-66784151D01*
X59470192Y-66861142D01*
X59470197Y-66861144D01*
X59655354Y-66900500D01*
X59655355Y-66900500D01*
X59844644Y-66900500D01*
X59844646Y-66900500D01*
X60029803Y-66861144D01*
X60202730Y-66784151D01*
X60355871Y-66672888D01*
X60482533Y-66532216D01*
X60577179Y-66368284D01*
X60635674Y-66188256D01*
X60655460Y-66000000D01*
X60635674Y-65811744D01*
X60577179Y-65631716D01*
X60482533Y-65467784D01*
X60355871Y-65327112D01*
X60320655Y-65301526D01*
X60202734Y-65215851D01*
X60202729Y-65215848D01*
X60029807Y-65138857D01*
X60029802Y-65138855D01*
X59876802Y-65106335D01*
X59844646Y-65099500D01*
X59655354Y-65099500D01*
X59623198Y-65106335D01*
X59470197Y-65138855D01*
X59470192Y-65138857D01*
X59297270Y-65215848D01*
X59297265Y-65215851D01*
X59144129Y-65327111D01*
X59017466Y-65467785D01*
X58922821Y-65631715D01*
X58922818Y-65631722D01*
X58866383Y-65805413D01*
X58864326Y-65811744D01*
X58844540Y-66000000D01*
X52800000Y-66000000D01*
X52800000Y-65301526D01*
X52800037Y-65298490D01*
X52802061Y-65215851D01*
X52802145Y-65212415D01*
X52804490Y-65191272D01*
X52838362Y-65020983D01*
X52845412Y-64997741D01*
X52911274Y-64838738D01*
X52922726Y-64817314D01*
X53018338Y-64674219D01*
X53033751Y-64655439D01*
X53155439Y-64533751D01*
X53174219Y-64518338D01*
X53317314Y-64422726D01*
X53338738Y-64411274D01*
X53497741Y-64345412D01*
X53520983Y-64338362D01*
X53691272Y-64304490D01*
X53712415Y-64302145D01*
X53793037Y-64300170D01*
X53798491Y-64300037D01*
X53801527Y-64300000D01*
X87440944Y-64300000D01*
X87507983Y-64319685D01*
G37*
%TD.AperFunction*%
%TA.AperFunction,Conductor*%
G36*
X102429855Y-66236546D02*
G01*
X102446575Y-66255842D01*
X102576501Y-66441396D01*
X102576506Y-66441402D01*
X102713681Y-66578577D01*
X102747166Y-66639900D01*
X102750000Y-66666258D01*
X102750000Y-68687010D01*
X102730315Y-68754049D01*
X102698887Y-68787327D01*
X102644128Y-68827112D01*
X102644123Y-68827116D01*
X102517466Y-68967785D01*
X102422821Y-69131715D01*
X102422818Y-69131722D01*
X102364327Y-69311740D01*
X102364326Y-69311744D01*
X102344540Y-69500000D01*
X102364326Y-69688256D01*
X102364327Y-69688259D01*
X102422818Y-69868277D01*
X102422821Y-69868284D01*
X102517467Y-70032216D01*
X102644129Y-70172888D01*
X102698885Y-70212670D01*
X102741551Y-70267999D01*
X102750000Y-70312988D01*
X102750000Y-73750000D01*
X109826000Y-73750000D01*
X109893039Y-73769685D01*
X109938794Y-73822489D01*
X109950000Y-73874000D01*
X109950000Y-88698473D01*
X109949963Y-88701511D01*
X109947854Y-88787580D01*
X109945508Y-88808733D01*
X109911639Y-88979006D01*
X109904583Y-89002268D01*
X109838728Y-89161254D01*
X109827269Y-89182692D01*
X109731664Y-89325775D01*
X109716243Y-89344565D01*
X109594565Y-89466243D01*
X109575775Y-89481664D01*
X109432692Y-89577269D01*
X109411254Y-89588728D01*
X109252268Y-89654583D01*
X109229006Y-89661639D01*
X109058733Y-89695508D01*
X109037580Y-89697854D01*
X108954250Y-89699895D01*
X108951509Y-89699963D01*
X108948473Y-89700000D01*
X107088182Y-89700000D01*
X107021143Y-89680315D01*
X106975388Y-89627511D01*
X106965444Y-89558353D01*
X106994469Y-89494797D01*
X107017056Y-89474427D01*
X107026079Y-89468108D01*
X107193105Y-89301082D01*
X107328600Y-89107578D01*
X107428429Y-88893492D01*
X107428432Y-88893486D01*
X107485636Y-88680000D01*
X106588012Y-88680000D01*
X106620925Y-88622993D01*
X106655000Y-88495826D01*
X106655000Y-88364174D01*
X106620925Y-88237007D01*
X106588012Y-88180000D01*
X107485636Y-88180000D01*
X107485635Y-88179999D01*
X107428432Y-87966513D01*
X107428429Y-87966507D01*
X107328600Y-87752422D01*
X107328599Y-87752420D01*
X107193113Y-87558926D01*
X107193108Y-87558920D01*
X107026082Y-87391894D01*
X106832578Y-87256399D01*
X106618492Y-87156570D01*
X106618486Y-87156567D01*
X106405000Y-87099364D01*
X106405000Y-87996988D01*
X106347993Y-87964075D01*
X106220826Y-87930000D01*
X106089174Y-87930000D01*
X105962007Y-87964075D01*
X105905000Y-87996988D01*
X105905000Y-87099364D01*
X105904999Y-87099364D01*
X105691513Y-87156567D01*
X105691507Y-87156570D01*
X105477422Y-87256399D01*
X105477420Y-87256400D01*
X105283926Y-87391886D01*
X105283920Y-87391891D01*
X105116891Y-87558920D01*
X105116890Y-87558922D01*
X104986880Y-87744595D01*
X104932303Y-87788219D01*
X104862804Y-87795412D01*
X104800450Y-87763890D01*
X104783730Y-87744594D01*
X104653494Y-87558597D01*
X104486402Y-87391506D01*
X104486395Y-87391501D01*
X104471799Y-87381281D01*
X104430985Y-87352702D01*
X104292834Y-87255967D01*
X104292830Y-87255965D01*
X104284211Y-87251946D01*
X104078663Y-87156097D01*
X104078659Y-87156096D01*
X104078655Y-87156094D01*
X103850413Y-87094938D01*
X103850403Y-87094936D01*
X103615001Y-87074341D01*
X103614999Y-87074341D01*
X103379596Y-87094936D01*
X103379586Y-87094938D01*
X103151344Y-87156094D01*
X103151335Y-87156098D01*
X102937171Y-87255964D01*
X102937169Y-87255965D01*
X102743597Y-87391505D01*
X102576505Y-87558597D01*
X102446575Y-87744158D01*
X102391998Y-87787783D01*
X102322500Y-87794977D01*
X102260145Y-87763454D01*
X102243425Y-87744158D01*
X102113494Y-87558597D01*
X101946402Y-87391506D01*
X101946395Y-87391501D01*
X101931799Y-87381281D01*
X101890985Y-87352702D01*
X101752834Y-87255967D01*
X101752830Y-87255965D01*
X101744211Y-87251946D01*
X101538663Y-87156097D01*
X101538659Y-87156096D01*
X101538655Y-87156094D01*
X101310413Y-87094938D01*
X101310403Y-87094936D01*
X101075001Y-87074341D01*
X101074999Y-87074341D01*
X100839596Y-87094936D01*
X100839583Y-87094939D01*
X100731731Y-87123837D01*
X100661882Y-87122174D01*
X100604019Y-87083011D01*
X100576516Y-87018782D01*
X100588103Y-86949880D01*
X100607483Y-86921097D01*
X100732533Y-86782216D01*
X100827179Y-86618284D01*
X100885674Y-86438256D01*
X100905460Y-86250000D01*
X100905459Y-86249998D01*
X100906139Y-86243537D01*
X100907466Y-86243676D01*
X100925145Y-86183471D01*
X100977949Y-86137716D01*
X101047107Y-86127772D01*
X101055226Y-86129217D01*
X101155354Y-86150500D01*
X101155355Y-86150500D01*
X101344644Y-86150500D01*
X101344646Y-86150500D01*
X101529803Y-86111144D01*
X101702730Y-86034151D01*
X101855871Y-85922888D01*
X101982533Y-85782216D01*
X102077179Y-85618284D01*
X102135674Y-85438256D01*
X102155460Y-85250000D01*
X102135674Y-85061744D01*
X102077179Y-84881716D01*
X101982533Y-84717784D01*
X101962941Y-84696025D01*
X101932711Y-84633034D01*
X101941336Y-84563698D01*
X101982205Y-84512736D01*
X102105871Y-84422888D01*
X102232533Y-84282216D01*
X102327179Y-84118284D01*
X102365612Y-84000000D01*
X106344540Y-84000000D01*
X106364326Y-84188256D01*
X106364327Y-84188259D01*
X106422818Y-84368277D01*
X106422821Y-84368284D01*
X106517467Y-84532216D01*
X106608244Y-84633034D01*
X106644129Y-84672888D01*
X106797265Y-84784148D01*
X106797270Y-84784151D01*
X106970192Y-84861142D01*
X106970197Y-84861144D01*
X107155354Y-84900500D01*
X107155355Y-84900500D01*
X107344644Y-84900500D01*
X107344646Y-84900500D01*
X107529803Y-84861144D01*
X107702730Y-84784151D01*
X107855871Y-84672888D01*
X107982533Y-84532216D01*
X108077179Y-84368284D01*
X108135674Y-84188256D01*
X108155460Y-84000000D01*
X108135674Y-83811744D01*
X108077179Y-83631716D01*
X107982533Y-83467784D01*
X107855871Y-83327112D01*
X107855870Y-83327111D01*
X107702734Y-83215851D01*
X107702729Y-83215848D01*
X107529807Y-83138857D01*
X107529802Y-83138855D01*
X107384001Y-83107865D01*
X107344646Y-83099500D01*
X107155354Y-83099500D01*
X107122897Y-83106398D01*
X106970197Y-83138855D01*
X106970192Y-83138857D01*
X106797270Y-83215848D01*
X106797265Y-83215851D01*
X106644129Y-83327111D01*
X106517466Y-83467785D01*
X106422821Y-83631715D01*
X106422818Y-83631722D01*
X106364327Y-83811740D01*
X106364326Y-83811744D01*
X106344540Y-84000000D01*
X102365612Y-84000000D01*
X102385674Y-83938256D01*
X102405460Y-83750000D01*
X102385674Y-83561744D01*
X102327179Y-83381716D01*
X102232533Y-83217784D01*
X102105871Y-83077112D01*
X102105870Y-83077111D01*
X101952734Y-82965851D01*
X101952729Y-82965848D01*
X101779807Y-82888857D01*
X101779803Y-82888856D01*
X101768917Y-82886542D01*
X101707436Y-82853349D01*
X101673659Y-82792186D01*
X101678313Y-82722471D01*
X101707016Y-82677574D01*
X103197772Y-81186819D01*
X103259095Y-81153334D01*
X103285453Y-81150500D01*
X103344644Y-81150500D01*
X103344646Y-81150500D01*
X103529803Y-81111144D01*
X103702730Y-81034151D01*
X103855871Y-80922888D01*
X103982533Y-80782216D01*
X104077179Y-80618284D01*
X104132069Y-80449351D01*
X104171506Y-80391675D01*
X104235865Y-80364477D01*
X104304711Y-80376392D01*
X104356187Y-80423636D01*
X104367931Y-80449351D01*
X104422818Y-80618277D01*
X104422821Y-80618284D01*
X104517467Y-80782216D01*
X104631171Y-80908497D01*
X104644129Y-80922888D01*
X104797265Y-81034148D01*
X104797270Y-81034151D01*
X104970192Y-81111142D01*
X104970197Y-81111144D01*
X105155354Y-81150500D01*
X105155355Y-81150500D01*
X105344644Y-81150500D01*
X105344646Y-81150500D01*
X105529803Y-81111144D01*
X105702730Y-81034151D01*
X105855871Y-80922888D01*
X105982533Y-80782216D01*
X106077179Y-80618284D01*
X106135674Y-80438256D01*
X106155460Y-80250000D01*
X106135674Y-80061744D01*
X106077179Y-79881716D01*
X106006048Y-79758514D01*
X105989576Y-79690615D01*
X106012429Y-79624588D01*
X106025755Y-79608834D01*
X106197771Y-79436819D01*
X106259094Y-79403334D01*
X106285452Y-79400500D01*
X106344644Y-79400500D01*
X106344646Y-79400500D01*
X106529803Y-79361144D01*
X106702730Y-79284151D01*
X106855871Y-79172888D01*
X106982533Y-79032216D01*
X107077179Y-78868284D01*
X107135674Y-78688256D01*
X107155460Y-78500000D01*
X107135674Y-78311744D01*
X107077179Y-78131716D01*
X106982533Y-77967784D01*
X106855871Y-77827112D01*
X106807746Y-77792147D01*
X106702734Y-77715851D01*
X106702729Y-77715848D01*
X106529807Y-77638857D01*
X106529800Y-77638855D01*
X106447161Y-77621290D01*
X106385679Y-77588098D01*
X106351902Y-77526935D01*
X106356554Y-77457221D01*
X106398158Y-77401088D01*
X106447161Y-77378710D01*
X106453201Y-77377426D01*
X106529803Y-77361144D01*
X106702730Y-77284151D01*
X106855871Y-77172888D01*
X106982533Y-77032216D01*
X107077179Y-76868284D01*
X107135674Y-76688256D01*
X107155460Y-76500000D01*
X107135674Y-76311744D01*
X107077179Y-76131716D01*
X106982533Y-75967784D01*
X106855871Y-75827112D01*
X106855870Y-75827111D01*
X106702734Y-75715851D01*
X106702729Y-75715848D01*
X106529807Y-75638857D01*
X106529802Y-75638855D01*
X106384001Y-75607865D01*
X106344646Y-75599500D01*
X106155354Y-75599500D01*
X106122897Y-75606398D01*
X105970197Y-75638855D01*
X105970192Y-75638857D01*
X105797270Y-75715848D01*
X105797265Y-75715851D01*
X105644130Y-75827110D01*
X105644126Y-75827114D01*
X105638400Y-75833474D01*
X105578913Y-75870121D01*
X105546252Y-75874500D01*
X102996156Y-75874500D01*
X102929117Y-75854815D01*
X102883362Y-75802011D01*
X102878225Y-75788818D01*
X102827181Y-75631722D01*
X102827180Y-75631721D01*
X102827179Y-75631716D01*
X102732533Y-75467784D01*
X102605871Y-75327112D01*
X102605870Y-75327111D01*
X102452734Y-75215851D01*
X102452729Y-75215848D01*
X102279807Y-75138857D01*
X102279802Y-75138855D01*
X102134001Y-75107865D01*
X102094646Y-75099500D01*
X101905354Y-75099500D01*
X101872897Y-75106398D01*
X101720197Y-75138855D01*
X101720192Y-75138857D01*
X101547270Y-75215848D01*
X101547265Y-75215851D01*
X101394129Y-75327111D01*
X101267466Y-75467785D01*
X101172821Y-75631715D01*
X101172818Y-75631722D01*
X101114327Y-75811740D01*
X101114326Y-75811744D01*
X101098129Y-75965851D01*
X101096679Y-75979650D01*
X101070094Y-76044264D01*
X101061041Y-76054368D01*
X101027230Y-76088180D01*
X100965907Y-76121666D01*
X100939547Y-76124500D01*
X98953748Y-76124500D01*
X98886709Y-76104815D01*
X98861600Y-76083474D01*
X98855873Y-76077114D01*
X98855869Y-76077110D01*
X98702734Y-75965851D01*
X98702729Y-75965848D01*
X98529807Y-75888857D01*
X98529802Y-75888855D01*
X98369651Y-75854815D01*
X98344646Y-75849500D01*
X98155354Y-75849500D01*
X98055238Y-75870779D01*
X97985573Y-75865463D01*
X97929840Y-75823325D01*
X97905735Y-75757745D01*
X97905485Y-75750241D01*
X97905460Y-75750000D01*
X97885674Y-75561744D01*
X97827179Y-75381716D01*
X97732533Y-75217784D01*
X97605871Y-75077112D01*
X97605870Y-75077111D01*
X97452734Y-74965851D01*
X97452729Y-74965848D01*
X97279807Y-74888857D01*
X97279800Y-74888855D01*
X97197161Y-74871290D01*
X97135679Y-74838098D01*
X97101902Y-74776935D01*
X97106554Y-74707221D01*
X97148158Y-74651088D01*
X97197161Y-74628710D01*
X97216967Y-74624500D01*
X97279803Y-74611144D01*
X97452730Y-74534151D01*
X97605871Y-74422888D01*
X97732533Y-74282216D01*
X97827179Y-74118284D01*
X97885674Y-73938256D01*
X97905460Y-73750000D01*
X97885674Y-73561744D01*
X97827179Y-73381716D01*
X97732533Y-73217784D01*
X97605871Y-73077112D01*
X97605870Y-73077111D01*
X97452734Y-72965851D01*
X97452729Y-72965848D01*
X97279807Y-72888857D01*
X97279802Y-72888855D01*
X97134001Y-72857865D01*
X97094646Y-72849500D01*
X96905354Y-72849500D01*
X96872897Y-72856398D01*
X96720197Y-72888855D01*
X96720192Y-72888857D01*
X96547270Y-72965848D01*
X96547265Y-72965851D01*
X96533548Y-72975818D01*
X96467742Y-72999298D01*
X96460663Y-72999500D01*
X93862229Y-72999500D01*
X93795190Y-72979815D01*
X93774548Y-72963181D01*
X93623548Y-72812181D01*
X93590063Y-72750858D01*
X93595047Y-72681166D01*
X93636919Y-72625233D01*
X93702383Y-72600816D01*
X93711229Y-72600500D01*
X96836607Y-72600500D01*
X96897029Y-72588481D01*
X96957452Y-72576463D01*
X96993320Y-72561606D01*
X97071286Y-72529312D01*
X97136319Y-72485857D01*
X97173733Y-72460858D01*
X97260858Y-72373733D01*
X97260859Y-72373731D01*
X97267925Y-72366665D01*
X97267928Y-72366661D01*
X100252094Y-69382494D01*
X100289329Y-69356902D01*
X100452730Y-69284151D01*
X100605871Y-69172888D01*
X100732533Y-69032216D01*
X100827179Y-68868284D01*
X100885674Y-68688256D01*
X100905460Y-68500000D01*
X100885674Y-68311744D01*
X100827179Y-68131716D01*
X100732533Y-67967784D01*
X100605871Y-67827112D01*
X100605870Y-67827111D01*
X100452734Y-67715851D01*
X100452729Y-67715848D01*
X100279807Y-67638857D01*
X100279802Y-67638855D01*
X100134001Y-67607865D01*
X100094646Y-67599500D01*
X99905354Y-67599500D01*
X99872897Y-67606398D01*
X99720197Y-67638855D01*
X99720192Y-67638857D01*
X99547270Y-67715848D01*
X99547265Y-67715851D01*
X99394129Y-67827111D01*
X99267466Y-67967785D01*
X99172821Y-68131715D01*
X99172818Y-68131722D01*
X99123921Y-68282214D01*
X99114326Y-68311744D01*
X99108309Y-68368995D01*
X99094540Y-68500000D01*
X99114118Y-68686289D01*
X99101548Y-68755018D01*
X99078478Y-68786930D01*
X96552229Y-71313181D01*
X96490906Y-71346666D01*
X96464548Y-71349500D01*
X94334452Y-71349500D01*
X94267413Y-71329815D01*
X94221658Y-71277011D01*
X94211714Y-71207853D01*
X94240739Y-71144297D01*
X94246771Y-71137819D01*
X95393063Y-69991528D01*
X96697772Y-68686819D01*
X96759095Y-68653334D01*
X96785453Y-68650500D01*
X96844644Y-68650500D01*
X96844646Y-68650500D01*
X97029803Y-68611144D01*
X97202730Y-68534151D01*
X97355871Y-68422888D01*
X97482533Y-68282216D01*
X97577179Y-68118284D01*
X97635674Y-67938256D01*
X97655460Y-67750000D01*
X97635674Y-67561744D01*
X97577179Y-67381716D01*
X97482533Y-67217784D01*
X97355871Y-67077112D01*
X97338456Y-67064459D01*
X97202734Y-66965851D01*
X97202729Y-66965848D01*
X97029807Y-66888857D01*
X97029802Y-66888855D01*
X96876244Y-66856216D01*
X96814762Y-66823024D01*
X96780986Y-66761861D01*
X96785638Y-66692146D01*
X96827243Y-66636014D01*
X96830867Y-66633376D01*
X96866401Y-66608495D01*
X97033495Y-66441401D01*
X97163425Y-66255842D01*
X97218002Y-66212217D01*
X97287500Y-66205023D01*
X97349855Y-66236546D01*
X97366575Y-66255842D01*
X97496500Y-66441395D01*
X97496505Y-66441401D01*
X97663599Y-66608495D01*
X97708450Y-66639900D01*
X97857165Y-66744032D01*
X97857167Y-66744033D01*
X97857170Y-66744035D01*
X98071337Y-66843903D01*
X98071343Y-66843904D01*
X98071344Y-66843905D01*
X98117290Y-66856216D01*
X98299592Y-66905063D01*
X98487918Y-66921539D01*
X98534999Y-66925659D01*
X98535000Y-66925659D01*
X98535001Y-66925659D01*
X98574234Y-66922226D01*
X98770408Y-66905063D01*
X98998663Y-66843903D01*
X99212830Y-66744035D01*
X99406401Y-66608495D01*
X99573495Y-66441401D01*
X99703425Y-66255842D01*
X99758002Y-66212217D01*
X99827500Y-66205023D01*
X99889855Y-66236546D01*
X99906575Y-66255842D01*
X100036500Y-66441395D01*
X100036505Y-66441401D01*
X100203599Y-66608495D01*
X100248450Y-66639900D01*
X100397165Y-66744032D01*
X100397167Y-66744033D01*
X100397170Y-66744035D01*
X100611337Y-66843903D01*
X100611343Y-66843904D01*
X100611344Y-66843905D01*
X100657290Y-66856216D01*
X100839592Y-66905063D01*
X101027918Y-66921539D01*
X101074999Y-66925659D01*
X101075000Y-66925659D01*
X101075001Y-66925659D01*
X101114234Y-66922226D01*
X101310408Y-66905063D01*
X101538663Y-66843903D01*
X101752830Y-66744035D01*
X101946401Y-66608495D01*
X102113495Y-66441401D01*
X102243425Y-66255842D01*
X102298002Y-66212217D01*
X102367500Y-66205023D01*
X102429855Y-66236546D01*
G37*
%TD.AperFunction*%
%TA.AperFunction,Conductor*%
G36*
X105613291Y-77145185D02*
G01*
X105638400Y-77166526D01*
X105644126Y-77172885D01*
X105644129Y-77172888D01*
X105797265Y-77284148D01*
X105797270Y-77284151D01*
X105970192Y-77361142D01*
X105970197Y-77361144D01*
X106052839Y-77378710D01*
X106114321Y-77411902D01*
X106148097Y-77473065D01*
X106143445Y-77542780D01*
X106101840Y-77598912D01*
X106052839Y-77621290D01*
X105970197Y-77638855D01*
X105970192Y-77638857D01*
X105797270Y-77715848D01*
X105797265Y-77715851D01*
X105644129Y-77827111D01*
X105517466Y-77967785D01*
X105422821Y-78131715D01*
X105422818Y-78131722D01*
X105364327Y-78311740D01*
X105364326Y-78311744D01*
X105347332Y-78473433D01*
X105346679Y-78479650D01*
X105320094Y-78544264D01*
X105311041Y-78554368D01*
X105277230Y-78588180D01*
X105215907Y-78621666D01*
X105189547Y-78624500D01*
X103286301Y-78624500D01*
X103163088Y-78624500D01*
X103104872Y-78636079D01*
X103042250Y-78648535D01*
X103042240Y-78648538D01*
X102928411Y-78695687D01*
X102928402Y-78695692D01*
X102825963Y-78764140D01*
X102800050Y-78790054D01*
X102738837Y-78851267D01*
X102738834Y-78851270D01*
X101374256Y-80215849D01*
X100039577Y-81550528D01*
X99978254Y-81584013D01*
X99951896Y-81586847D01*
X99147105Y-81586847D01*
X99080066Y-81567162D01*
X99034311Y-81514358D01*
X99024367Y-81445200D01*
X99053392Y-81381644D01*
X99059424Y-81375166D01*
X103272771Y-77161819D01*
X103334094Y-77128334D01*
X103360452Y-77125500D01*
X105546252Y-77125500D01*
X105613291Y-77145185D01*
G37*
%TD.AperFunction*%
%TA.AperFunction,Conductor*%
G36*
X101057587Y-77395185D02*
G01*
X101103342Y-77447989D01*
X101113286Y-77517147D01*
X101084261Y-77580703D01*
X101078229Y-77587181D01*
X97839882Y-80825528D01*
X97778559Y-80859013D01*
X97752201Y-80861847D01*
X95441095Y-80861847D01*
X95374056Y-80842162D01*
X95348947Y-80820821D01*
X95343220Y-80814461D01*
X95343216Y-80814457D01*
X95190081Y-80703198D01*
X95190076Y-80703195D01*
X95017154Y-80626204D01*
X95017149Y-80626202D01*
X94860602Y-80592928D01*
X94831993Y-80586847D01*
X94642701Y-80586847D01*
X94614092Y-80592927D01*
X94544426Y-80587610D01*
X94488693Y-80545472D01*
X94464589Y-80479892D01*
X94479767Y-80411691D01*
X94500629Y-80383960D01*
X97197772Y-77686819D01*
X97259095Y-77653334D01*
X97285453Y-77650500D01*
X97344644Y-77650500D01*
X97344646Y-77650500D01*
X97529803Y-77611144D01*
X97699566Y-77535559D01*
X97768813Y-77526275D01*
X97800430Y-77535557D01*
X97970197Y-77611144D01*
X98155354Y-77650500D01*
X98155355Y-77650500D01*
X98344644Y-77650500D01*
X98344646Y-77650500D01*
X98529803Y-77611144D01*
X98702730Y-77534151D01*
X98855871Y-77422888D01*
X98858788Y-77419647D01*
X98861600Y-77416526D01*
X98921087Y-77379879D01*
X98953748Y-77375500D01*
X100990548Y-77375500D01*
X101057587Y-77395185D01*
G37*
%TD.AperFunction*%
%TA.AperFunction,Conductor*%
G36*
X79135654Y-76295185D02*
G01*
X79181409Y-76347989D01*
X79191353Y-76417147D01*
X79162328Y-76480703D01*
X79156300Y-76487176D01*
X78726270Y-76917206D01*
X78726267Y-76917209D01*
X78694747Y-76948729D01*
X78639142Y-77004333D01*
X78611112Y-77046284D01*
X78611111Y-77046285D01*
X78570690Y-77106776D01*
X78570688Y-77106780D01*
X78570688Y-77106781D01*
X78543306Y-77172888D01*
X78523538Y-77220611D01*
X78523535Y-77220623D01*
X78499500Y-77341456D01*
X78499500Y-78064546D01*
X78479815Y-78131585D01*
X78463181Y-78152227D01*
X78226705Y-78388702D01*
X78180721Y-78416266D01*
X78181113Y-78417210D01*
X78175486Y-78419540D01*
X78175485Y-78419541D01*
X78134287Y-78436606D01*
X78100043Y-78450790D01*
X78061648Y-78466693D01*
X78051564Y-78473432D01*
X78051563Y-78473433D01*
X77959205Y-78535144D01*
X77915642Y-78578707D01*
X77872079Y-78622271D01*
X77270904Y-79223446D01*
X77182359Y-79311989D01*
X77121036Y-79345474D01*
X77051344Y-79340488D01*
X77044244Y-79337587D01*
X76975100Y-79306802D01*
X76829299Y-79275812D01*
X76789944Y-79267447D01*
X76624500Y-79267447D01*
X76557461Y-79247762D01*
X76511706Y-79194958D01*
X76500500Y-79143447D01*
X76500500Y-77112229D01*
X76520185Y-77045190D01*
X76536819Y-77024548D01*
X77249548Y-76311819D01*
X77310871Y-76278334D01*
X77337229Y-76275500D01*
X79068615Y-76275500D01*
X79135654Y-76295185D01*
G37*
%TD.AperFunction*%
%TA.AperFunction,Conductor*%
G36*
X81050289Y-74392979D02*
G01*
X81105470Y-74435838D01*
X81128719Y-74501726D01*
X81112655Y-74569724D01*
X81092579Y-74596053D01*
X80950449Y-74738182D01*
X80889129Y-74771666D01*
X80862770Y-74774500D01*
X80292888Y-74774500D01*
X80225849Y-74754815D01*
X80180094Y-74702011D01*
X80170150Y-74632853D01*
X80199175Y-74569297D01*
X80200738Y-74567528D01*
X80213338Y-74553534D01*
X80232533Y-74532216D01*
X80240889Y-74517742D01*
X80272784Y-74462500D01*
X80323351Y-74414284D01*
X80380171Y-74400500D01*
X80911607Y-74400500D01*
X80972029Y-74388481D01*
X80980700Y-74386756D01*
X81050289Y-74392979D01*
G37*
%TD.AperFunction*%
%TD*%
M02*
