%TF.GenerationSoftware,KiCad,Pcbnew,9.0.0*%
%TF.CreationDate,2025-04-10T14:52:18+00:00*%
%TF.ProjectId,jkembedded-audio-board,6a6b656d-6265-4646-9465-642d61756469,rev?*%
%TF.SameCoordinates,Original*%
%TF.FileFunction,AssemblyDrawing,Bot*%
%FSLAX46Y46*%
G04 Gerber Fmt 4.6, Leading zero omitted, Abs format (unit mm)*
G04 Created by KiCad (PCBNEW 9.0.0) date 2025-04-10 14:52:18*
%MOMM*%
%LPD*%
G01*
G04 APERTURE LIST*
%ADD10C,0.150000*%
%ADD11C,0.100000*%
G04 APERTURE END LIST*
D10*
X108223095Y-150074819D02*
X108223095Y-149074819D01*
X108223095Y-149551009D02*
X107651667Y-149551009D01*
X107651667Y-150074819D02*
X107651667Y-149074819D01*
X107223095Y-149789104D02*
X106746905Y-149789104D01*
X107318333Y-150074819D02*
X106985000Y-149074819D01*
X106985000Y-149074819D02*
X106651667Y-150074819D01*
X106461190Y-149074819D02*
X105889762Y-149074819D01*
X106175476Y-150074819D02*
X106175476Y-149074819D01*
X104223095Y-149979580D02*
X104270714Y-150027200D01*
X104270714Y-150027200D02*
X104413571Y-150074819D01*
X104413571Y-150074819D02*
X104508809Y-150074819D01*
X104508809Y-150074819D02*
X104651666Y-150027200D01*
X104651666Y-150027200D02*
X104746904Y-149931961D01*
X104746904Y-149931961D02*
X104794523Y-149836723D01*
X104794523Y-149836723D02*
X104842142Y-149646247D01*
X104842142Y-149646247D02*
X104842142Y-149503390D01*
X104842142Y-149503390D02*
X104794523Y-149312914D01*
X104794523Y-149312914D02*
X104746904Y-149217676D01*
X104746904Y-149217676D02*
X104651666Y-149122438D01*
X104651666Y-149122438D02*
X104508809Y-149074819D01*
X104508809Y-149074819D02*
X104413571Y-149074819D01*
X104413571Y-149074819D02*
X104270714Y-149122438D01*
X104270714Y-149122438D02*
X104223095Y-149170057D01*
X103651666Y-150074819D02*
X103746904Y-150027200D01*
X103746904Y-150027200D02*
X103794523Y-149979580D01*
X103794523Y-149979580D02*
X103842142Y-149884342D01*
X103842142Y-149884342D02*
X103842142Y-149598628D01*
X103842142Y-149598628D02*
X103794523Y-149503390D01*
X103794523Y-149503390D02*
X103746904Y-149455771D01*
X103746904Y-149455771D02*
X103651666Y-149408152D01*
X103651666Y-149408152D02*
X103508809Y-149408152D01*
X103508809Y-149408152D02*
X103413571Y-149455771D01*
X103413571Y-149455771D02*
X103365952Y-149503390D01*
X103365952Y-149503390D02*
X103318333Y-149598628D01*
X103318333Y-149598628D02*
X103318333Y-149884342D01*
X103318333Y-149884342D02*
X103365952Y-149979580D01*
X103365952Y-149979580D02*
X103413571Y-150027200D01*
X103413571Y-150027200D02*
X103508809Y-150074819D01*
X103508809Y-150074819D02*
X103651666Y-150074819D01*
X102889761Y-149408152D02*
X102889761Y-150074819D01*
X102889761Y-149503390D02*
X102842142Y-149455771D01*
X102842142Y-149455771D02*
X102746904Y-149408152D01*
X102746904Y-149408152D02*
X102604047Y-149408152D01*
X102604047Y-149408152D02*
X102508809Y-149455771D01*
X102508809Y-149455771D02*
X102461190Y-149551009D01*
X102461190Y-149551009D02*
X102461190Y-150074819D01*
X101984999Y-149408152D02*
X101984999Y-150074819D01*
X101984999Y-149503390D02*
X101937380Y-149455771D01*
X101937380Y-149455771D02*
X101842142Y-149408152D01*
X101842142Y-149408152D02*
X101699285Y-149408152D01*
X101699285Y-149408152D02*
X101604047Y-149455771D01*
X101604047Y-149455771D02*
X101556428Y-149551009D01*
X101556428Y-149551009D02*
X101556428Y-150074819D01*
X100699285Y-150027200D02*
X100794523Y-150074819D01*
X100794523Y-150074819D02*
X100984999Y-150074819D01*
X100984999Y-150074819D02*
X101080237Y-150027200D01*
X101080237Y-150027200D02*
X101127856Y-149931961D01*
X101127856Y-149931961D02*
X101127856Y-149551009D01*
X101127856Y-149551009D02*
X101080237Y-149455771D01*
X101080237Y-149455771D02*
X100984999Y-149408152D01*
X100984999Y-149408152D02*
X100794523Y-149408152D01*
X100794523Y-149408152D02*
X100699285Y-149455771D01*
X100699285Y-149455771D02*
X100651666Y-149551009D01*
X100651666Y-149551009D02*
X100651666Y-149646247D01*
X100651666Y-149646247D02*
X101127856Y-149741485D01*
X99794523Y-150027200D02*
X99889761Y-150074819D01*
X99889761Y-150074819D02*
X100080237Y-150074819D01*
X100080237Y-150074819D02*
X100175475Y-150027200D01*
X100175475Y-150027200D02*
X100223094Y-149979580D01*
X100223094Y-149979580D02*
X100270713Y-149884342D01*
X100270713Y-149884342D02*
X100270713Y-149598628D01*
X100270713Y-149598628D02*
X100223094Y-149503390D01*
X100223094Y-149503390D02*
X100175475Y-149455771D01*
X100175475Y-149455771D02*
X100080237Y-149408152D01*
X100080237Y-149408152D02*
X99889761Y-149408152D01*
X99889761Y-149408152D02*
X99794523Y-149455771D01*
X99508808Y-149408152D02*
X99127856Y-149408152D01*
X99365951Y-149074819D02*
X99365951Y-149931961D01*
X99365951Y-149931961D02*
X99318332Y-150027200D01*
X99318332Y-150027200D02*
X99223094Y-150074819D01*
X99223094Y-150074819D02*
X99127856Y-150074819D01*
X98651665Y-150074819D02*
X98746903Y-150027200D01*
X98746903Y-150027200D02*
X98794522Y-149979580D01*
X98794522Y-149979580D02*
X98842141Y-149884342D01*
X98842141Y-149884342D02*
X98842141Y-149598628D01*
X98842141Y-149598628D02*
X98794522Y-149503390D01*
X98794522Y-149503390D02*
X98746903Y-149455771D01*
X98746903Y-149455771D02*
X98651665Y-149408152D01*
X98651665Y-149408152D02*
X98508808Y-149408152D01*
X98508808Y-149408152D02*
X98413570Y-149455771D01*
X98413570Y-149455771D02*
X98365951Y-149503390D01*
X98365951Y-149503390D02*
X98318332Y-149598628D01*
X98318332Y-149598628D02*
X98318332Y-149884342D01*
X98318332Y-149884342D02*
X98365951Y-149979580D01*
X98365951Y-149979580D02*
X98413570Y-150027200D01*
X98413570Y-150027200D02*
X98508808Y-150074819D01*
X98508808Y-150074819D02*
X98651665Y-150074819D01*
X97889760Y-150074819D02*
X97889760Y-149408152D01*
X97889760Y-149598628D02*
X97842141Y-149503390D01*
X97842141Y-149503390D02*
X97794522Y-149455771D01*
X97794522Y-149455771D02*
X97699284Y-149408152D01*
X97699284Y-149408152D02*
X97604046Y-149408152D01*
X102439819Y-122386666D02*
X103154104Y-122386666D01*
X103154104Y-122386666D02*
X103296961Y-122339047D01*
X103296961Y-122339047D02*
X103392200Y-122243809D01*
X103392200Y-122243809D02*
X103439819Y-122100952D01*
X103439819Y-122100952D02*
X103439819Y-122005714D01*
X102439819Y-123339047D02*
X102439819Y-122862857D01*
X102439819Y-122862857D02*
X102916009Y-122815238D01*
X102916009Y-122815238D02*
X102868390Y-122862857D01*
X102868390Y-122862857D02*
X102820771Y-122958095D01*
X102820771Y-122958095D02*
X102820771Y-123196190D01*
X102820771Y-123196190D02*
X102868390Y-123291428D01*
X102868390Y-123291428D02*
X102916009Y-123339047D01*
X102916009Y-123339047D02*
X103011247Y-123386666D01*
X103011247Y-123386666D02*
X103249342Y-123386666D01*
X103249342Y-123386666D02*
X103344580Y-123339047D01*
X103344580Y-123339047D02*
X103392200Y-123291428D01*
X103392200Y-123291428D02*
X103439819Y-123196190D01*
X103439819Y-123196190D02*
X103439819Y-122958095D01*
X103439819Y-122958095D02*
X103392200Y-122862857D01*
X103392200Y-122862857D02*
X103344580Y-122815238D01*
D11*
%TO.C,J5*%
X99065000Y-98270000D02*
X100445000Y-98270000D01*
X99065000Y-98910000D02*
X99065000Y-98270000D01*
X99065000Y-100810000D02*
X100445000Y-100810000D01*
X99065000Y-101450000D02*
X99065000Y-100810000D01*
X99065000Y-103350000D02*
X100445000Y-103350000D01*
X99065000Y-103990000D02*
X99065000Y-103350000D01*
X99065000Y-105890000D02*
X100445000Y-105890000D01*
X99065000Y-106530000D02*
X99065000Y-105890000D01*
X99065000Y-108430000D02*
X100445000Y-108430000D01*
X99065000Y-109070000D02*
X99065000Y-108430000D01*
X99065000Y-110970000D02*
X100445000Y-110970000D01*
X99065000Y-111610000D02*
X99065000Y-110970000D01*
X99065000Y-113510000D02*
X100445000Y-113510000D01*
X99065000Y-114150000D02*
X99065000Y-113510000D01*
X99065000Y-116050000D02*
X100445000Y-116050000D01*
X99065000Y-116690000D02*
X99065000Y-116050000D01*
X99065000Y-118590000D02*
X100445000Y-118590000D01*
X99065000Y-119230000D02*
X99065000Y-118590000D01*
X99065000Y-121130000D02*
X100445000Y-121130000D01*
X99065000Y-121770000D02*
X99065000Y-121130000D01*
X99065000Y-123670000D02*
X100445000Y-123670000D01*
X99065000Y-124310000D02*
X99065000Y-123670000D01*
X99065000Y-126210000D02*
X100445000Y-126210000D01*
X99065000Y-126850000D02*
X99065000Y-126210000D01*
X99065000Y-128750000D02*
X100445000Y-128750000D01*
X99065000Y-129390000D02*
X99065000Y-128750000D01*
X99065000Y-131290000D02*
X100445000Y-131290000D01*
X99065000Y-131930000D02*
X99065000Y-131290000D01*
X99065000Y-133830000D02*
X100445000Y-133830000D01*
X99065000Y-134470000D02*
X99065000Y-133830000D01*
X99065000Y-136370000D02*
X100445000Y-136370000D01*
X99065000Y-137010000D02*
X99065000Y-136370000D01*
X99065000Y-138910000D02*
X100445000Y-138910000D01*
X99065000Y-139550000D02*
X99065000Y-138910000D01*
X99065000Y-141450000D02*
X100445000Y-141450000D01*
X99065000Y-142090000D02*
X99065000Y-141450000D01*
X99065000Y-143990000D02*
X100445000Y-143990000D01*
X99065000Y-144630000D02*
X99065000Y-143990000D01*
X99065000Y-146530000D02*
X100445000Y-146530000D01*
X99065000Y-147170000D02*
X99065000Y-146530000D01*
X100445000Y-98320000D02*
X101445000Y-97320000D01*
X100445000Y-98910000D02*
X99065000Y-98910000D01*
X100445000Y-101450000D02*
X99065000Y-101450000D01*
X100445000Y-103990000D02*
X99065000Y-103990000D01*
X100445000Y-106530000D02*
X99065000Y-106530000D01*
X100445000Y-109070000D02*
X99065000Y-109070000D01*
X100445000Y-111610000D02*
X99065000Y-111610000D01*
X100445000Y-114150000D02*
X99065000Y-114150000D01*
X100445000Y-116690000D02*
X99065000Y-116690000D01*
X100445000Y-119230000D02*
X99065000Y-119230000D01*
X100445000Y-121770000D02*
X99065000Y-121770000D01*
X100445000Y-124310000D02*
X99065000Y-124310000D01*
X100445000Y-126850000D02*
X99065000Y-126850000D01*
X100445000Y-129390000D02*
X99065000Y-129390000D01*
X100445000Y-131930000D02*
X99065000Y-131930000D01*
X100445000Y-134470000D02*
X99065000Y-134470000D01*
X100445000Y-137010000D02*
X99065000Y-137010000D01*
X100445000Y-139550000D02*
X99065000Y-139550000D01*
X100445000Y-142090000D02*
X99065000Y-142090000D01*
X100445000Y-144630000D02*
X99065000Y-144630000D01*
X100445000Y-147170000D02*
X99065000Y-147170000D01*
X100445000Y-148120000D02*
X100445000Y-98320000D01*
X101445000Y-97320000D02*
X105525000Y-97320000D01*
X105525000Y-97320000D02*
X105525000Y-148120000D01*
X105525000Y-98270000D02*
X106905000Y-98270000D01*
X105525000Y-100810000D02*
X106905000Y-100810000D01*
X105525000Y-103350000D02*
X106905000Y-103350000D01*
X105525000Y-105890000D02*
X106905000Y-105890000D01*
X105525000Y-108430000D02*
X106905000Y-108430000D01*
X105525000Y-110970000D02*
X106905000Y-110970000D01*
X105525000Y-113510000D02*
X106905000Y-113510000D01*
X105525000Y-116050000D02*
X106905000Y-116050000D01*
X105525000Y-118590000D02*
X106905000Y-118590000D01*
X105525000Y-121130000D02*
X106905000Y-121130000D01*
X105525000Y-123670000D02*
X106905000Y-123670000D01*
X105525000Y-126210000D02*
X106905000Y-126210000D01*
X105525000Y-128750000D02*
X106905000Y-128750000D01*
X105525000Y-131290000D02*
X106905000Y-131290000D01*
X105525000Y-133830000D02*
X106905000Y-133830000D01*
X105525000Y-136370000D02*
X106905000Y-136370000D01*
X105525000Y-138910000D02*
X106905000Y-138910000D01*
X105525000Y-141450000D02*
X106905000Y-141450000D01*
X105525000Y-143990000D02*
X106905000Y-143990000D01*
X105525000Y-146530000D02*
X106905000Y-146530000D01*
X105525000Y-148120000D02*
X100445000Y-148120000D01*
X106905000Y-98270000D02*
X106905000Y-98910000D01*
X106905000Y-98910000D02*
X105525000Y-98910000D01*
X106905000Y-100810000D02*
X106905000Y-101450000D01*
X106905000Y-101450000D02*
X105525000Y-101450000D01*
X106905000Y-103350000D02*
X106905000Y-103990000D01*
X106905000Y-103990000D02*
X105525000Y-103990000D01*
X106905000Y-105890000D02*
X106905000Y-106530000D01*
X106905000Y-106530000D02*
X105525000Y-106530000D01*
X106905000Y-108430000D02*
X106905000Y-109070000D01*
X106905000Y-109070000D02*
X105525000Y-109070000D01*
X106905000Y-110970000D02*
X106905000Y-111610000D01*
X106905000Y-111610000D02*
X105525000Y-111610000D01*
X106905000Y-113510000D02*
X106905000Y-114150000D01*
X106905000Y-114150000D02*
X105525000Y-114150000D01*
X106905000Y-116050000D02*
X106905000Y-116690000D01*
X106905000Y-116690000D02*
X105525000Y-116690000D01*
X106905000Y-118590000D02*
X106905000Y-119230000D01*
X106905000Y-119230000D02*
X105525000Y-119230000D01*
X106905000Y-121130000D02*
X106905000Y-121770000D01*
X106905000Y-121770000D02*
X105525000Y-121770000D01*
X106905000Y-123670000D02*
X106905000Y-124310000D01*
X106905000Y-124310000D02*
X105525000Y-124310000D01*
X106905000Y-126210000D02*
X106905000Y-126850000D01*
X106905000Y-126850000D02*
X105525000Y-126850000D01*
X106905000Y-128750000D02*
X106905000Y-129390000D01*
X106905000Y-129390000D02*
X105525000Y-129390000D01*
X106905000Y-131290000D02*
X106905000Y-131930000D01*
X106905000Y-131930000D02*
X105525000Y-131930000D01*
X106905000Y-133830000D02*
X106905000Y-134470000D01*
X106905000Y-134470000D02*
X105525000Y-134470000D01*
X106905000Y-136370000D02*
X106905000Y-137010000D01*
X106905000Y-137010000D02*
X105525000Y-137010000D01*
X106905000Y-138910000D02*
X106905000Y-139550000D01*
X106905000Y-139550000D02*
X105525000Y-139550000D01*
X106905000Y-141450000D02*
X106905000Y-142090000D01*
X106905000Y-142090000D02*
X105525000Y-142090000D01*
X106905000Y-143990000D02*
X106905000Y-144630000D01*
X106905000Y-144630000D02*
X105525000Y-144630000D01*
X106905000Y-146530000D02*
X106905000Y-147170000D01*
X106905000Y-147170000D02*
X105525000Y-147170000D01*
%TD*%
X92643095Y-82225000D02*
X95261666Y-85249819D01*
X92643095Y-85249819D02*
X95261666Y-82225000D01*
M02*
