%TF.GenerationSoftware,KiCad,Pcbnew,9.0.0*%
%TF.CreationDate,2025-04-10T14:52:18+00:00*%
%TF.ProjectId,jkembedded-audio-board,6a6b656d-6265-4646-9465-642d61756469,rev?*%
%TF.SameCoordinates,Original*%
%TF.FileFunction,Plated,1,4,PTH,Drill*%
%TF.FilePolarity,Positive*%
%FSLAX46Y46*%
G04 Gerber Fmt 4.6, Leading zero omitted, Abs format (unit mm)*
G04 Created by KiCad (PCBNEW 9.0.0) date 2025-04-10 14:52:18*
%MOMM*%
%LPD*%
G01*
G04 APERTURE LIST*
%TA.AperFunction,ViaDrill*%
%ADD10C,0.250000*%
%TD*%
%TA.AperFunction,ViaDrill*%
%ADD11C,0.400000*%
%TD*%
%TA.AperFunction,ComponentDrill*%
%ADD12C,0.500000*%
%TD*%
%TA.AperFunction,ComponentDrill*%
%ADD13C,1.000000*%
%TD*%
G04 APERTURE END LIST*
D10*
X72250000Y-118300000D03*
X72250000Y-119800000D03*
X72999999Y-119056900D03*
X73750000Y-118300000D03*
X73750000Y-119800000D03*
X77000000Y-76500000D03*
X77000000Y-77250000D03*
X77000000Y-78000000D03*
X77750000Y-76500000D03*
X77750000Y-77250000D03*
X77750000Y-78000000D03*
X78500000Y-76500000D03*
X78500000Y-77250000D03*
X78500000Y-78000000D03*
X91300000Y-77500000D03*
X91300000Y-78500000D03*
X91300000Y-79500000D03*
X92300000Y-77500000D03*
X92300000Y-78500000D03*
X92300000Y-79500000D03*
X93300000Y-77500000D03*
X93300000Y-78500000D03*
X93300000Y-79500000D03*
X103400000Y-77250000D03*
X103400000Y-78250000D03*
X103900000Y-77750000D03*
X104400000Y-77250000D03*
X104400000Y-78250000D03*
D11*
X57750000Y-88000000D03*
X58000000Y-74000000D03*
X59750000Y-66000000D03*
X59750000Y-80000000D03*
X65000000Y-115000000D03*
X65000000Y-117500000D03*
X65000000Y-120000000D03*
X65000000Y-122500000D03*
X65000000Y-125000000D03*
X65000000Y-127500000D03*
X65000000Y-130000000D03*
X67250000Y-74000000D03*
X67500000Y-112500000D03*
X67500000Y-130500000D03*
X68750000Y-84750000D03*
X68750000Y-86250000D03*
X69000000Y-67500000D03*
X69000000Y-70000000D03*
X69000000Y-72500000D03*
X69000000Y-75000000D03*
X69000000Y-77500000D03*
X69000000Y-80000000D03*
X69500000Y-88500000D03*
X69500000Y-123000000D03*
X70000000Y-112500000D03*
X70000000Y-121500000D03*
X70000000Y-130500000D03*
X70500000Y-65000000D03*
X70500000Y-80062500D03*
X70750000Y-122750000D03*
X71000000Y-72000000D03*
X71750000Y-81000000D03*
X72000000Y-88500000D03*
X72500000Y-112500000D03*
X72500000Y-123500000D03*
X72500000Y-130500000D03*
X72750000Y-72000000D03*
X73000000Y-65000000D03*
X73250000Y-75750000D03*
X73500000Y-81000000D03*
X73612347Y-77837043D03*
X73750000Y-115750000D03*
X74000000Y-74000000D03*
X74000000Y-122700000D03*
X74250000Y-75242510D03*
X74250000Y-76737500D03*
X74250000Y-79750000D03*
X74500000Y-88500000D03*
X74750000Y-78750000D03*
X74750000Y-81000000D03*
X75000000Y-72000000D03*
X75000000Y-112500000D03*
X75000000Y-130500000D03*
X75500000Y-65000000D03*
X75500000Y-74000000D03*
X76000000Y-121250000D03*
X76250000Y-72000000D03*
X76500000Y-74000000D03*
X76695298Y-80167947D03*
X77000000Y-88500000D03*
X77167947Y-120547802D03*
X77180766Y-117944636D03*
X77250000Y-81000000D03*
X77250000Y-114000000D03*
X77500000Y-74000000D03*
X77500000Y-110000000D03*
X77500000Y-132500000D03*
X77500000Y-135000000D03*
X77500000Y-137500000D03*
X77500000Y-140000000D03*
X77500000Y-142500000D03*
X77500000Y-145000000D03*
X77500000Y-147500000D03*
X77500000Y-150000000D03*
X77500000Y-152500000D03*
X78000000Y-65000000D03*
X78000000Y-118518100D03*
X78000000Y-119993100D03*
X78012653Y-72012653D03*
X78250000Y-81000000D03*
X78500000Y-74000000D03*
X78750000Y-113250000D03*
X78750000Y-119243100D03*
X78844638Y-80196004D03*
X79500000Y-74000000D03*
X79500000Y-88500000D03*
X79750000Y-72000000D03*
X79895321Y-81195932D03*
X80000000Y-107500000D03*
X80500000Y-65000000D03*
X80750000Y-74500000D03*
X80750000Y-78750000D03*
X80914768Y-77275000D03*
X81000000Y-80250000D03*
X81500000Y-72000000D03*
X81911610Y-78401536D03*
X82000000Y-88500000D03*
X82000000Y-107250000D03*
X82500000Y-72000000D03*
X82500000Y-105000000D03*
X82750000Y-80500000D03*
X83000000Y-65000000D03*
X83500000Y-108750000D03*
X83750000Y-81250000D03*
X84000000Y-112000000D03*
X84500000Y-67500000D03*
X84500000Y-88500000D03*
X85000000Y-102500000D03*
X85000000Y-107000000D03*
X85000000Y-122250000D03*
X85318903Y-141931097D03*
X85500000Y-65000000D03*
X85500000Y-119000000D03*
X85500000Y-150000000D03*
X85750000Y-74500000D03*
X85750000Y-111250000D03*
X85750000Y-113250000D03*
X85750000Y-124500000D03*
X85750000Y-140750000D03*
X86250000Y-72250000D03*
X86750000Y-103500000D03*
X86750000Y-105500000D03*
X86862500Y-135500000D03*
X86862500Y-138000000D03*
X86862500Y-142000000D03*
X86862500Y-144500000D03*
X86887500Y-121750000D03*
X87012653Y-67737347D03*
X87250000Y-86500000D03*
X87500000Y-79250000D03*
X87500000Y-100000000D03*
X87512653Y-78237347D03*
X87750000Y-150000000D03*
X88000000Y-118000000D03*
X88250000Y-74731021D03*
X88250000Y-124500000D03*
X88500000Y-139000000D03*
X90000000Y-100000000D03*
X90000000Y-107000000D03*
X90500000Y-133000000D03*
X90500000Y-150000000D03*
X90612500Y-139000000D03*
X90612500Y-145500000D03*
X91112500Y-140750000D03*
X91137500Y-118000000D03*
X91137500Y-122750000D03*
X91250000Y-102000000D03*
X91750000Y-113000000D03*
X91750000Y-114250000D03*
X91974847Y-74999847D03*
X92000000Y-107750000D03*
X92000000Y-124750000D03*
X92143910Y-73850000D03*
X92250000Y-132000000D03*
X92500000Y-100000000D03*
X92500000Y-112250000D03*
X92750000Y-86500000D03*
X92856178Y-67750000D03*
X93000000Y-110750000D03*
X93000000Y-124750000D03*
X93000000Y-129250000D03*
X93000000Y-150000000D03*
X93650000Y-108500000D03*
X93737330Y-81512670D03*
X94000000Y-86500000D03*
X94737347Y-81487347D03*
X94750000Y-104750000D03*
X94750000Y-109750000D03*
X94750000Y-119000000D03*
X94750000Y-120250000D03*
X94750000Y-123500000D03*
X94750000Y-136225000D03*
X94750000Y-142725000D03*
X95000000Y-80500000D03*
X95000000Y-97500000D03*
X95250000Y-76750000D03*
X95250000Y-150000000D03*
X96000000Y-124750000D03*
X96750000Y-67750000D03*
X96750000Y-86500000D03*
X97000000Y-73750000D03*
X97000000Y-75750000D03*
X97250000Y-76750000D03*
X97250000Y-114250000D03*
X97500000Y-95000000D03*
X97500000Y-98590000D03*
X97500000Y-101250000D03*
X97500000Y-102500000D03*
X97500000Y-103750000D03*
X97500000Y-109250000D03*
X97500000Y-116250000D03*
X97500000Y-117750000D03*
X97500000Y-121450000D03*
X97500000Y-122750000D03*
X97500000Y-124000000D03*
X97600000Y-110475000D03*
X97600000Y-111750000D03*
X97750000Y-139250000D03*
X97750000Y-140500000D03*
X97750000Y-141750000D03*
X97750000Y-143000000D03*
X97750000Y-145500000D03*
X97750000Y-148250000D03*
X97875000Y-135875000D03*
X98250000Y-76750000D03*
X100000000Y-68500000D03*
X100000000Y-86250000D03*
X100000000Y-95000000D03*
X100250000Y-84250000D03*
X100500000Y-150000000D03*
X101250000Y-85250000D03*
X101500000Y-83750000D03*
X102000000Y-76000000D03*
X102500000Y-95000000D03*
X103000000Y-102250000D03*
X103000000Y-122750000D03*
X103250000Y-69500000D03*
X103250000Y-80250000D03*
X105000000Y-95000000D03*
X105250000Y-80250000D03*
X106000000Y-71500000D03*
X106250000Y-76500000D03*
X106250000Y-78500000D03*
X107250000Y-84000000D03*
X107500000Y-69500000D03*
X107500000Y-72000000D03*
X107500000Y-75500000D03*
X107500000Y-78000000D03*
X107500000Y-80500000D03*
X107500000Y-95000000D03*
X108000000Y-152500000D03*
X108500000Y-84500000D03*
X108500000Y-86500000D03*
X108500000Y-97500000D03*
X108500000Y-100000000D03*
X108500000Y-102500000D03*
X108500000Y-105000000D03*
X108500000Y-107500000D03*
X108500000Y-110000000D03*
X108500000Y-112500000D03*
X108500000Y-115000000D03*
X108500000Y-117500000D03*
X108500000Y-120000000D03*
X108500000Y-122500000D03*
X108500000Y-125000000D03*
X108500000Y-128000000D03*
X108500000Y-130500000D03*
X108500000Y-133000000D03*
X108500000Y-135500000D03*
X108500000Y-138000000D03*
X108500000Y-140500000D03*
X108500000Y-143000000D03*
X108500000Y-145500000D03*
X108500000Y-148000000D03*
X108500000Y-150500000D03*
X109000000Y-67000000D03*
D12*
%TO.C,J7*%
X81750000Y-113000000D03*
D13*
%TO.C,J4*%
X88375000Y-65570000D03*
%TO.C,J3*%
X88375000Y-88430000D03*
%TO.C,J4*%
X90915000Y-65570000D03*
%TO.C,J3*%
X90915000Y-88430000D03*
%TO.C,J4*%
X93455000Y-65570000D03*
%TO.C,J3*%
X93455000Y-88430000D03*
%TO.C,J4*%
X95995000Y-65570000D03*
%TO.C,J3*%
X95995000Y-88430000D03*
%TO.C,J4*%
X98535000Y-65570000D03*
%TO.C,J3*%
X98535000Y-88430000D03*
%TO.C,J4*%
X101075000Y-65570000D03*
%TO.C,J3*%
X101075000Y-88430000D03*
%TO.C,J4*%
X103615000Y-65570000D03*
%TO.C,J3*%
X103615000Y-88430000D03*
%TO.C,J4*%
X106155000Y-65570000D03*
%TO.C,J3*%
X106155000Y-88430000D03*
M02*
