%TF.GenerationSoftware,KiCad,Pcbnew,9.0.0*%
%TF.CreationDate,2025-04-10T14:52:18+00:00*%
%TF.ProjectId,jkembedded-audio-board,6a6b656d-6265-4646-9465-642d61756469,rev?*%
%TF.SameCoordinates,Original*%
%TF.FileFunction,Profile,NP*%
%FSLAX46Y46*%
G04 Gerber Fmt 4.6, Leading zero omitted, Abs format (unit mm)*
G04 Created by KiCad (PCBNEW 9.0.0) date 2025-04-10 14:52:18*
%MOMM*%
%LPD*%
G01*
G04 APERTURE LIST*
%TA.AperFunction,Profile*%
%ADD10C,0.100000*%
%TD*%
G04 APERTURE END LIST*
D10*
X69310000Y-90827000D02*
X69310000Y-92939000D01*
X57245000Y-89750800D02*
G75*
G02*
X56991000Y-89750800I-127000J0D01*
G01*
X56991000Y-89750800D02*
G75*
G02*
X57245000Y-89750800I127000J0D01*
G01*
X73120000Y-145009000D02*
X73120000Y-133769000D01*
X54800000Y-147009000D02*
X71120000Y-147009000D01*
X71310000Y-94939000D02*
G75*
G02*
X69310000Y-92939000I0J2000000D01*
G01*
X57372000Y-89827000D02*
X57372000Y-89700000D01*
X104680000Y-89859000D02*
X104680000Y-89700000D01*
X93170000Y-89827000D02*
X93186000Y-89700000D01*
X56800000Y-154629000D02*
X105680000Y-154629000D01*
X52800000Y-88700000D02*
X52800000Y-65300000D01*
X56800000Y-89859000D02*
X56864000Y-89700000D01*
X57372000Y-89700000D02*
X67786000Y-89700000D01*
X73120000Y-145009000D02*
G75*
G02*
X71120000Y-147009000I-2000000J0D01*
G01*
X105680000Y-89859000D02*
X104680000Y-89859000D01*
X68294000Y-89700000D02*
X68310000Y-89827000D01*
X109680000Y-150629000D02*
X109680000Y-93859000D01*
X71120000Y-131769000D02*
X54800000Y-131769000D01*
X93186000Y-89700000D02*
X68294000Y-89700000D01*
X104514400Y-89776200D02*
G75*
G02*
X104260400Y-89776200I-127000J0D01*
G01*
X104260400Y-89776200D02*
G75*
G02*
X104514400Y-89776200I127000J0D01*
G01*
X104108000Y-89827000D02*
X93694000Y-89827000D01*
X93567000Y-89776200D02*
G75*
G02*
X93313000Y-89776200I-127000J0D01*
G01*
X93313000Y-89776200D02*
G75*
G02*
X93567000Y-89776200I127000J0D01*
G01*
X68167000Y-89750800D02*
G75*
G02*
X67913000Y-89750800I-127000J0D01*
G01*
X67913000Y-89750800D02*
G75*
G02*
X68167000Y-89750800I127000J0D01*
G01*
X93694000Y-89700000D02*
X104108000Y-89700000D01*
X92170000Y-92939000D02*
G75*
G02*
X90170000Y-94939000I-2000000J0D01*
G01*
X53800000Y-64300000D02*
X107410000Y-64300000D01*
X92170000Y-92939000D02*
X92170000Y-90827000D01*
X92170000Y-90827000D02*
G75*
G02*
X93170000Y-89827000I1000000J0D01*
G01*
X109950000Y-66840000D02*
X109950000Y-88700000D01*
X68310000Y-89827000D02*
G75*
G02*
X69310000Y-90827000I0J-1000000D01*
G01*
X52800000Y-93859000D02*
G75*
G02*
X56800000Y-89859000I4000000J0D01*
G01*
X104108000Y-89700000D02*
X104108000Y-89827000D01*
X105680000Y-89859000D02*
G75*
G02*
X109680000Y-93859000I0J-4000000D01*
G01*
X109950000Y-66840000D02*
X107410000Y-64300000D01*
X52800000Y-149009000D02*
X52800000Y-150629000D01*
X93694000Y-89827000D02*
X93694000Y-89700000D01*
X54800000Y-131769000D02*
G75*
G02*
X52800000Y-129769000I0J2000000D01*
G01*
X52800000Y-129769000D02*
X52800000Y-93859000D01*
X71120000Y-131769000D02*
G75*
G02*
X73120000Y-133769000I0J-2000000D01*
G01*
X52800000Y-149009000D02*
G75*
G02*
X54800000Y-147009000I2000000J0D01*
G01*
X71310000Y-94939000D02*
X90170000Y-94939000D01*
X67786000Y-89827000D02*
X57372000Y-89827000D01*
X67786000Y-89700000D02*
X67786000Y-89827000D01*
X53800000Y-89700000D02*
G75*
G02*
X52800000Y-88700000I0J1000000D01*
G01*
X56800000Y-154629000D02*
G75*
G02*
X52800000Y-150629000I0J4000000D01*
G01*
X109950000Y-88700000D02*
G75*
G02*
X108950000Y-89700000I-1000000J0D01*
G01*
X109680000Y-150629000D02*
G75*
G02*
X105680000Y-154629000I-4000000J0D01*
G01*
X108950000Y-89700000D02*
X104680000Y-89700000D01*
X52800000Y-65300000D02*
G75*
G02*
X53800000Y-64300000I1000000J0D01*
G01*
X56864000Y-89700000D02*
X53800000Y-89700000D01*
M02*
