%TF.GenerationSoftware,KiCad,Pcbnew,9.0.0*%
%TF.CreationDate,2025-04-10T14:52:18+00:00*%
%TF.ProjectId,jkembedded-audio-board,6a6b656d-6265-4646-9465-642d61756469,rev?*%
%TF.SameCoordinates,Original*%
%TF.FileFunction,Legend,Bot*%
%TF.FilePolarity,Positive*%
%FSLAX46Y46*%
G04 Gerber Fmt 4.6, Leading zero omitted, Abs format (unit mm)*
G04 Created by KiCad (PCBNEW 9.0.0) date 2025-04-10 14:52:18*
%MOMM*%
%LPD*%
G01*
G04 APERTURE LIST*
%ADD10C,0.150000*%
%ADD11C,0.120000*%
G04 APERTURE END LIST*
D10*
X108215057Y-68289160D02*
X108167438Y-68336779D01*
X108167438Y-68336779D02*
X108119819Y-68432017D01*
X108119819Y-68432017D02*
X108119819Y-68670112D01*
X108119819Y-68670112D02*
X108167438Y-68765350D01*
X108167438Y-68765350D02*
X108215057Y-68812969D01*
X108215057Y-68812969D02*
X108310295Y-68860588D01*
X108310295Y-68860588D02*
X108405533Y-68860588D01*
X108405533Y-68860588D02*
X108548390Y-68812969D01*
X108548390Y-68812969D02*
X109119819Y-68241541D01*
X109119819Y-68241541D02*
X109119819Y-68860588D01*
X108119819Y-69479636D02*
X108119819Y-69574874D01*
X108119819Y-69574874D02*
X108167438Y-69670112D01*
X108167438Y-69670112D02*
X108215057Y-69717731D01*
X108215057Y-69717731D02*
X108310295Y-69765350D01*
X108310295Y-69765350D02*
X108500771Y-69812969D01*
X108500771Y-69812969D02*
X108738866Y-69812969D01*
X108738866Y-69812969D02*
X108929342Y-69765350D01*
X108929342Y-69765350D02*
X109024580Y-69717731D01*
X109024580Y-69717731D02*
X109072200Y-69670112D01*
X109072200Y-69670112D02*
X109119819Y-69574874D01*
X109119819Y-69574874D02*
X109119819Y-69479636D01*
X109119819Y-69479636D02*
X109072200Y-69384398D01*
X109072200Y-69384398D02*
X109024580Y-69336779D01*
X109024580Y-69336779D02*
X108929342Y-69289160D01*
X108929342Y-69289160D02*
X108738866Y-69241541D01*
X108738866Y-69241541D02*
X108500771Y-69241541D01*
X108500771Y-69241541D02*
X108310295Y-69289160D01*
X108310295Y-69289160D02*
X108215057Y-69336779D01*
X108215057Y-69336779D02*
X108167438Y-69384398D01*
X108167438Y-69384398D02*
X108119819Y-69479636D01*
X108215057Y-70193922D02*
X108167438Y-70241541D01*
X108167438Y-70241541D02*
X108119819Y-70336779D01*
X108119819Y-70336779D02*
X108119819Y-70574874D01*
X108119819Y-70574874D02*
X108167438Y-70670112D01*
X108167438Y-70670112D02*
X108215057Y-70717731D01*
X108215057Y-70717731D02*
X108310295Y-70765350D01*
X108310295Y-70765350D02*
X108405533Y-70765350D01*
X108405533Y-70765350D02*
X108548390Y-70717731D01*
X108548390Y-70717731D02*
X109119819Y-70146303D01*
X109119819Y-70146303D02*
X109119819Y-70765350D01*
X108119819Y-71670112D02*
X108119819Y-71193922D01*
X108119819Y-71193922D02*
X108596009Y-71146303D01*
X108596009Y-71146303D02*
X108548390Y-71193922D01*
X108548390Y-71193922D02*
X108500771Y-71289160D01*
X108500771Y-71289160D02*
X108500771Y-71527255D01*
X108500771Y-71527255D02*
X108548390Y-71622493D01*
X108548390Y-71622493D02*
X108596009Y-71670112D01*
X108596009Y-71670112D02*
X108691247Y-71717731D01*
X108691247Y-71717731D02*
X108929342Y-71717731D01*
X108929342Y-71717731D02*
X109024580Y-71670112D01*
X109024580Y-71670112D02*
X109072200Y-71622493D01*
X109072200Y-71622493D02*
X109119819Y-71527255D01*
X109119819Y-71527255D02*
X109119819Y-71289160D01*
X109119819Y-71289160D02*
X109072200Y-71193922D01*
X109072200Y-71193922D02*
X109024580Y-71146303D01*
X108738866Y-72146303D02*
X108738866Y-72908208D01*
X108119819Y-73574874D02*
X108119819Y-73670112D01*
X108119819Y-73670112D02*
X108167438Y-73765350D01*
X108167438Y-73765350D02*
X108215057Y-73812969D01*
X108215057Y-73812969D02*
X108310295Y-73860588D01*
X108310295Y-73860588D02*
X108500771Y-73908207D01*
X108500771Y-73908207D02*
X108738866Y-73908207D01*
X108738866Y-73908207D02*
X108929342Y-73860588D01*
X108929342Y-73860588D02*
X109024580Y-73812969D01*
X109024580Y-73812969D02*
X109072200Y-73765350D01*
X109072200Y-73765350D02*
X109119819Y-73670112D01*
X109119819Y-73670112D02*
X109119819Y-73574874D01*
X109119819Y-73574874D02*
X109072200Y-73479636D01*
X109072200Y-73479636D02*
X109024580Y-73432017D01*
X109024580Y-73432017D02*
X108929342Y-73384398D01*
X108929342Y-73384398D02*
X108738866Y-73336779D01*
X108738866Y-73336779D02*
X108500771Y-73336779D01*
X108500771Y-73336779D02*
X108310295Y-73384398D01*
X108310295Y-73384398D02*
X108215057Y-73432017D01*
X108215057Y-73432017D02*
X108167438Y-73479636D01*
X108167438Y-73479636D02*
X108119819Y-73574874D01*
X108453152Y-74765350D02*
X109119819Y-74765350D01*
X108072200Y-74527255D02*
X108786485Y-74289160D01*
X108786485Y-74289160D02*
X108786485Y-74908207D01*
X108738866Y-75289160D02*
X108738866Y-76051065D01*
X109119819Y-77051064D02*
X109119819Y-76479636D01*
X109119819Y-76765350D02*
X108119819Y-76765350D01*
X108119819Y-76765350D02*
X108262676Y-76670112D01*
X108262676Y-76670112D02*
X108357914Y-76574874D01*
X108357914Y-76574874D02*
X108405533Y-76479636D01*
X108119819Y-77670112D02*
X108119819Y-77765350D01*
X108119819Y-77765350D02*
X108167438Y-77860588D01*
X108167438Y-77860588D02*
X108215057Y-77908207D01*
X108215057Y-77908207D02*
X108310295Y-77955826D01*
X108310295Y-77955826D02*
X108500771Y-78003445D01*
X108500771Y-78003445D02*
X108738866Y-78003445D01*
X108738866Y-78003445D02*
X108929342Y-77955826D01*
X108929342Y-77955826D02*
X109024580Y-77908207D01*
X109024580Y-77908207D02*
X109072200Y-77860588D01*
X109072200Y-77860588D02*
X109119819Y-77765350D01*
X109119819Y-77765350D02*
X109119819Y-77670112D01*
X109119819Y-77670112D02*
X109072200Y-77574874D01*
X109072200Y-77574874D02*
X109024580Y-77527255D01*
X109024580Y-77527255D02*
X108929342Y-77479636D01*
X108929342Y-77479636D02*
X108738866Y-77432017D01*
X108738866Y-77432017D02*
X108500771Y-77432017D01*
X108500771Y-77432017D02*
X108310295Y-77479636D01*
X108310295Y-77479636D02*
X108215057Y-77527255D01*
X108215057Y-77527255D02*
X108167438Y-77574874D01*
X108167438Y-77574874D02*
X108119819Y-77670112D01*
X108453152Y-79098684D02*
X109119819Y-79336779D01*
X109119819Y-79336779D02*
X108453152Y-79574874D01*
X108119819Y-80146303D02*
X108119819Y-80241541D01*
X108119819Y-80241541D02*
X108167438Y-80336779D01*
X108167438Y-80336779D02*
X108215057Y-80384398D01*
X108215057Y-80384398D02*
X108310295Y-80432017D01*
X108310295Y-80432017D02*
X108500771Y-80479636D01*
X108500771Y-80479636D02*
X108738866Y-80479636D01*
X108738866Y-80479636D02*
X108929342Y-80432017D01*
X108929342Y-80432017D02*
X109024580Y-80384398D01*
X109024580Y-80384398D02*
X109072200Y-80336779D01*
X109072200Y-80336779D02*
X109119819Y-80241541D01*
X109119819Y-80241541D02*
X109119819Y-80146303D01*
X109119819Y-80146303D02*
X109072200Y-80051065D01*
X109072200Y-80051065D02*
X109024580Y-80003446D01*
X109024580Y-80003446D02*
X108929342Y-79955827D01*
X108929342Y-79955827D02*
X108738866Y-79908208D01*
X108738866Y-79908208D02*
X108500771Y-79908208D01*
X108500771Y-79908208D02*
X108310295Y-79955827D01*
X108310295Y-79955827D02*
X108215057Y-80003446D01*
X108215057Y-80003446D02*
X108167438Y-80051065D01*
X108167438Y-80051065D02*
X108119819Y-80146303D01*
X109024580Y-80908208D02*
X109072200Y-80955827D01*
X109072200Y-80955827D02*
X109119819Y-80908208D01*
X109119819Y-80908208D02*
X109072200Y-80860589D01*
X109072200Y-80860589D02*
X109024580Y-80908208D01*
X109024580Y-80908208D02*
X109119819Y-80908208D01*
X108215057Y-81336779D02*
X108167438Y-81384398D01*
X108167438Y-81384398D02*
X108119819Y-81479636D01*
X108119819Y-81479636D02*
X108119819Y-81717731D01*
X108119819Y-81717731D02*
X108167438Y-81812969D01*
X108167438Y-81812969D02*
X108215057Y-81860588D01*
X108215057Y-81860588D02*
X108310295Y-81908207D01*
X108310295Y-81908207D02*
X108405533Y-81908207D01*
X108405533Y-81908207D02*
X108548390Y-81860588D01*
X108548390Y-81860588D02*
X109119819Y-81289160D01*
X109119819Y-81289160D02*
X109119819Y-81908207D01*
X109024580Y-82336779D02*
X109072200Y-82384398D01*
X109072200Y-82384398D02*
X109119819Y-82336779D01*
X109119819Y-82336779D02*
X109072200Y-82289160D01*
X109072200Y-82289160D02*
X109024580Y-82336779D01*
X109024580Y-82336779D02*
X109119819Y-82336779D01*
X108215057Y-82765350D02*
X108167438Y-82812969D01*
X108167438Y-82812969D02*
X108119819Y-82908207D01*
X108119819Y-82908207D02*
X108119819Y-83146302D01*
X108119819Y-83146302D02*
X108167438Y-83241540D01*
X108167438Y-83241540D02*
X108215057Y-83289159D01*
X108215057Y-83289159D02*
X108310295Y-83336778D01*
X108310295Y-83336778D02*
X108405533Y-83336778D01*
X108405533Y-83336778D02*
X108548390Y-83289159D01*
X108548390Y-83289159D02*
X109119819Y-82717731D01*
X109119819Y-82717731D02*
X109119819Y-83336778D01*
X104333333Y-95204819D02*
X104333333Y-95919104D01*
X104333333Y-95919104D02*
X104380952Y-96061961D01*
X104380952Y-96061961D02*
X104476190Y-96157200D01*
X104476190Y-96157200D02*
X104619047Y-96204819D01*
X104619047Y-96204819D02*
X104714285Y-96204819D01*
X103380952Y-95204819D02*
X103857142Y-95204819D01*
X103857142Y-95204819D02*
X103904761Y-95681009D01*
X103904761Y-95681009D02*
X103857142Y-95633390D01*
X103857142Y-95633390D02*
X103761904Y-95585771D01*
X103761904Y-95585771D02*
X103523809Y-95585771D01*
X103523809Y-95585771D02*
X103428571Y-95633390D01*
X103428571Y-95633390D02*
X103380952Y-95681009D01*
X103380952Y-95681009D02*
X103333333Y-95776247D01*
X103333333Y-95776247D02*
X103333333Y-96014342D01*
X103333333Y-96014342D02*
X103380952Y-96109580D01*
X103380952Y-96109580D02*
X103428571Y-96157200D01*
X103428571Y-96157200D02*
X103523809Y-96204819D01*
X103523809Y-96204819D02*
X103761904Y-96204819D01*
X103761904Y-96204819D02*
X103857142Y-96157200D01*
X103857142Y-96157200D02*
X103904761Y-96109580D01*
D11*
%TO.C,J5*%
X99025000Y-97830000D02*
X100385000Y-97830000D01*
X100385000Y-97260000D02*
X105585000Y-97260000D01*
X100385000Y-97830000D02*
X100385000Y-97260000D01*
X100385000Y-100370000D02*
X100385000Y-99350000D01*
X100385000Y-102910000D02*
X100385000Y-101890000D01*
X100385000Y-105450000D02*
X100385000Y-104430000D01*
X100385000Y-107990000D02*
X100385000Y-106970000D01*
X100385000Y-110530000D02*
X100385000Y-109510000D01*
X100385000Y-113070000D02*
X100385000Y-112050000D01*
X100385000Y-115610000D02*
X100385000Y-114590000D01*
X100385000Y-118150000D02*
X100385000Y-117130000D01*
X100385000Y-120690000D02*
X100385000Y-119670000D01*
X100385000Y-123230000D02*
X100385000Y-122210000D01*
X100385000Y-125770000D02*
X100385000Y-124750000D01*
X100385000Y-128310000D02*
X100385000Y-127290000D01*
X100385000Y-130850000D02*
X100385000Y-129830000D01*
X100385000Y-133390000D02*
X100385000Y-132370000D01*
X100385000Y-135930000D02*
X100385000Y-134910000D01*
X100385000Y-138470000D02*
X100385000Y-137450000D01*
X100385000Y-141010000D02*
X100385000Y-139990000D01*
X100385000Y-143550000D02*
X100385000Y-142530000D01*
X100385000Y-146090000D02*
X100385000Y-145070000D01*
X100385000Y-148180000D02*
X100385000Y-147610000D01*
X100385000Y-148180000D02*
X105585000Y-148180000D01*
X105585000Y-97830000D02*
X105585000Y-97260000D01*
X105585000Y-100370000D02*
X105585000Y-99350000D01*
X105585000Y-102910000D02*
X105585000Y-101890000D01*
X105585000Y-105450000D02*
X105585000Y-104430000D01*
X105585000Y-107990000D02*
X105585000Y-106970000D01*
X105585000Y-110530000D02*
X105585000Y-109510000D01*
X105585000Y-113070000D02*
X105585000Y-112050000D01*
X105585000Y-115610000D02*
X105585000Y-114590000D01*
X105585000Y-118150000D02*
X105585000Y-117130000D01*
X105585000Y-120690000D02*
X105585000Y-119670000D01*
X105585000Y-123230000D02*
X105585000Y-122210000D01*
X105585000Y-125770000D02*
X105585000Y-124750000D01*
X105585000Y-128310000D02*
X105585000Y-127290000D01*
X105585000Y-130850000D02*
X105585000Y-129830000D01*
X105585000Y-133390000D02*
X105585000Y-132370000D01*
X105585000Y-135930000D02*
X105585000Y-134910000D01*
X105585000Y-138470000D02*
X105585000Y-137450000D01*
X105585000Y-141010000D02*
X105585000Y-139990000D01*
X105585000Y-143550000D02*
X105585000Y-142530000D01*
X105585000Y-146090000D02*
X105585000Y-145070000D01*
X105585000Y-148180000D02*
X105585000Y-147610000D01*
%TD*%
M02*
