%TF.GenerationSoftware,KiCad,Pcbnew,9.0.0*%
%TF.CreationDate,2025-04-10T14:52:18+00:00*%
%TF.ProjectId,jkembedded-audio-board,6a6b656d-6265-4646-9465-642d61756469,rev?*%
%TF.SameCoordinates,Original*%
%TF.FileFunction,Soldermask,Top*%
%TF.FilePolarity,Negative*%
%FSLAX46Y46*%
G04 Gerber Fmt 4.6, Leading zero omitted, Abs format (unit mm)*
G04 Created by KiCad (PCBNEW 9.0.0) date 2025-04-10 14:52:18*
%MOMM*%
%LPD*%
G01*
G04 APERTURE LIST*
G04 Aperture macros list*
%AMRoundRect*
0 Rectangle with rounded corners*
0 $1 Rounding radius*
0 $2 $3 $4 $5 $6 $7 $8 $9 X,Y pos of 4 corners*
0 Add a 4 corners polygon primitive as box body*
4,1,4,$2,$3,$4,$5,$6,$7,$8,$9,$2,$3,0*
0 Add four circle primitives for the rounded corners*
1,1,$1+$1,$2,$3*
1,1,$1+$1,$4,$5*
1,1,$1+$1,$6,$7*
1,1,$1+$1,$8,$9*
0 Add four rect primitives between the rounded corners*
20,1,$1+$1,$2,$3,$4,$5,0*
20,1,$1+$1,$4,$5,$6,$7,0*
20,1,$1+$1,$6,$7,$8,$9,0*
20,1,$1+$1,$8,$9,$2,$3,0*%
G04 Aperture macros list end*
%ADD10C,0.010000*%
%ADD11RoundRect,0.225000X-0.250000X0.225000X-0.250000X-0.225000X0.250000X-0.225000X0.250000X0.225000X0*%
%ADD12R,1.168400X0.254000*%
%ADD13RoundRect,0.200000X-0.275000X0.200000X-0.275000X-0.200000X0.275000X-0.200000X0.275000X0.200000X0*%
%ADD14RoundRect,0.225000X-0.225000X-0.250000X0.225000X-0.250000X0.225000X0.250000X-0.225000X0.250000X0*%
%ADD15RoundRect,0.200000X0.275000X-0.200000X0.275000X0.200000X-0.275000X0.200000X-0.275000X-0.200000X0*%
%ADD16RoundRect,0.225000X0.250000X-0.225000X0.250000X0.225000X-0.250000X0.225000X-0.250000X-0.225000X0*%
%ADD17RoundRect,0.200000X0.200000X0.275000X-0.200000X0.275000X-0.200000X-0.275000X0.200000X-0.275000X0*%
%ADD18RoundRect,0.200000X-0.200000X-0.275000X0.200000X-0.275000X0.200000X0.275000X-0.200000X0.275000X0*%
%ADD19RoundRect,0.112500X0.112500X-0.187500X0.112500X0.187500X-0.112500X0.187500X-0.112500X-0.187500X0*%
%ADD20R,1.700000X1.700000*%
%ADD21O,1.700000X1.700000*%
%ADD22RoundRect,0.225000X0.225000X0.250000X-0.225000X0.250000X-0.225000X-0.250000X0.225000X-0.250000X0*%
%ADD23RoundRect,0.102000X0.650000X-1.350000X0.650000X1.350000X-0.650000X1.350000X-0.650000X-1.350000X0*%
%ADD24RoundRect,0.250000X0.275000X-0.287500X0.275000X0.287500X-0.275000X0.287500X-0.275000X-0.287500X0*%
%ADD25RoundRect,0.250000X-0.275000X0.287500X-0.275000X-0.287500X0.275000X-0.287500X0.275000X0.287500X0*%
%ADD26RoundRect,0.250000X-0.425000X0.450000X-0.425000X-0.450000X0.425000X-0.450000X0.425000X0.450000X0*%
%ADD27O,0.240000X0.600000*%
%ADD28O,0.600000X0.240000*%
%ADD29R,2.100000X2.100000*%
%ADD30RoundRect,0.062500X0.062500X-0.062500X0.062500X0.062500X-0.062500X0.062500X-0.062500X-0.062500X0*%
%ADD31RoundRect,0.062500X0.062500X-0.337500X0.062500X0.337500X-0.062500X0.337500X-0.062500X-0.337500X0*%
%ADD32RoundRect,0.062500X0.337500X-0.062500X0.337500X0.062500X-0.337500X0.062500X-0.337500X-0.062500X0*%
%ADD33R,2.700000X2.700000*%
%ADD34R,0.254000X0.812800*%
%ADD35R,0.812800X0.254000*%
%ADD36R,2.540000X2.540000*%
%ADD37C,1.700000*%
%ADD38R,2.200000X2.800000*%
%ADD39R,2.800000X2.800000*%
%ADD40RoundRect,0.150000X0.512500X0.150000X-0.512500X0.150000X-0.512500X-0.150000X0.512500X-0.150000X0*%
%ADD41R,0.956066X0.242473*%
%ADD42R,1.200000X1.599999*%
%ADD43C,1.000000*%
%ADD44RoundRect,0.150000X-0.512500X-0.150000X0.512500X-0.150000X0.512500X0.150000X-0.512500X0.150000X0*%
%ADD45R,1.200000X1.400000*%
%ADD46R,0.850000X0.850000*%
G04 APERTURE END LIST*
D10*
%TO.C,U3*%
X102828000Y-76811000D02*
X102830000Y-76811000D01*
X102833000Y-76812000D01*
X102835000Y-76812000D01*
X102838000Y-76813000D01*
X102840000Y-76814000D01*
X102843000Y-76815000D01*
X102845000Y-76817000D01*
X102847000Y-76818000D01*
X102849000Y-76820000D01*
X102851000Y-76821000D01*
X102853000Y-76823000D01*
X102855000Y-76825000D01*
X102857000Y-76827000D01*
X102859000Y-76829000D01*
X102860000Y-76831000D01*
X102862000Y-76833000D01*
X102863000Y-76835000D01*
X102865000Y-76837000D01*
X102866000Y-76840000D01*
X102867000Y-76842000D01*
X102868000Y-76845000D01*
X102868000Y-76847000D01*
X102869000Y-76850000D01*
X102869000Y-76852000D01*
X102870000Y-76855000D01*
X102870000Y-76857000D01*
X102870000Y-76860000D01*
X102870000Y-77140000D01*
X102870000Y-77143000D01*
X102870000Y-77145000D01*
X102869000Y-77148000D01*
X102869000Y-77150000D01*
X102868000Y-77153000D01*
X102868000Y-77155000D01*
X102867000Y-77158000D01*
X102866000Y-77160000D01*
X102865000Y-77163000D01*
X102863000Y-77165000D01*
X102862000Y-77167000D01*
X102860000Y-77169000D01*
X102859000Y-77171000D01*
X102857000Y-77173000D01*
X102855000Y-77175000D01*
X102853000Y-77177000D01*
X102851000Y-77179000D01*
X102849000Y-77180000D01*
X102847000Y-77182000D01*
X102845000Y-77183000D01*
X102843000Y-77185000D01*
X102840000Y-77186000D01*
X102838000Y-77187000D01*
X102835000Y-77188000D01*
X102833000Y-77188000D01*
X102830000Y-77189000D01*
X102828000Y-77189000D01*
X102825000Y-77190000D01*
X102823000Y-77190000D01*
X102820000Y-77190000D01*
X102180000Y-77190000D01*
X102177000Y-77190000D01*
X102175000Y-77190000D01*
X102172000Y-77189000D01*
X102170000Y-77189000D01*
X102167000Y-77188000D01*
X102165000Y-77188000D01*
X102162000Y-77187000D01*
X102160000Y-77186000D01*
X102157000Y-77185000D01*
X102155000Y-77183000D01*
X102153000Y-77182000D01*
X102151000Y-77180000D01*
X102149000Y-77179000D01*
X102147000Y-77177000D01*
X102145000Y-77175000D01*
X102143000Y-77173000D01*
X102141000Y-77171000D01*
X102140000Y-77169000D01*
X102138000Y-77167000D01*
X102137000Y-77165000D01*
X102135000Y-77163000D01*
X102134000Y-77160000D01*
X102133000Y-77158000D01*
X102132000Y-77155000D01*
X102132000Y-77153000D01*
X102131000Y-77150000D01*
X102131000Y-77148000D01*
X102130000Y-77145000D01*
X102130000Y-77143000D01*
X102130000Y-77140000D01*
X102130000Y-76860000D01*
X102130000Y-76857000D01*
X102130000Y-76855000D01*
X102131000Y-76852000D01*
X102131000Y-76850000D01*
X102132000Y-76847000D01*
X102132000Y-76845000D01*
X102133000Y-76842000D01*
X102134000Y-76840000D01*
X102135000Y-76837000D01*
X102137000Y-76835000D01*
X102138000Y-76833000D01*
X102140000Y-76831000D01*
X102141000Y-76829000D01*
X102143000Y-76827000D01*
X102145000Y-76825000D01*
X102147000Y-76823000D01*
X102149000Y-76821000D01*
X102151000Y-76820000D01*
X102153000Y-76818000D01*
X102155000Y-76817000D01*
X102157000Y-76815000D01*
X102160000Y-76814000D01*
X102162000Y-76813000D01*
X102165000Y-76812000D01*
X102167000Y-76812000D01*
X102170000Y-76811000D01*
X102172000Y-76811000D01*
X102175000Y-76810000D01*
X102177000Y-76810000D01*
X102180000Y-76810000D01*
X102820000Y-76810000D01*
X102823000Y-76810000D01*
X102825000Y-76810000D01*
X102828000Y-76811000D01*
G36*
X102828000Y-76811000D02*
G01*
X102830000Y-76811000D01*
X102833000Y-76812000D01*
X102835000Y-76812000D01*
X102838000Y-76813000D01*
X102840000Y-76814000D01*
X102843000Y-76815000D01*
X102845000Y-76817000D01*
X102847000Y-76818000D01*
X102849000Y-76820000D01*
X102851000Y-76821000D01*
X102853000Y-76823000D01*
X102855000Y-76825000D01*
X102857000Y-76827000D01*
X102859000Y-76829000D01*
X102860000Y-76831000D01*
X102862000Y-76833000D01*
X102863000Y-76835000D01*
X102865000Y-76837000D01*
X102866000Y-76840000D01*
X102867000Y-76842000D01*
X102868000Y-76845000D01*
X102868000Y-76847000D01*
X102869000Y-76850000D01*
X102869000Y-76852000D01*
X102870000Y-76855000D01*
X102870000Y-76857000D01*
X102870000Y-76860000D01*
X102870000Y-77140000D01*
X102870000Y-77143000D01*
X102870000Y-77145000D01*
X102869000Y-77148000D01*
X102869000Y-77150000D01*
X102868000Y-77153000D01*
X102868000Y-77155000D01*
X102867000Y-77158000D01*
X102866000Y-77160000D01*
X102865000Y-77163000D01*
X102863000Y-77165000D01*
X102862000Y-77167000D01*
X102860000Y-77169000D01*
X102859000Y-77171000D01*
X102857000Y-77173000D01*
X102855000Y-77175000D01*
X102853000Y-77177000D01*
X102851000Y-77179000D01*
X102849000Y-77180000D01*
X102847000Y-77182000D01*
X102845000Y-77183000D01*
X102843000Y-77185000D01*
X102840000Y-77186000D01*
X102838000Y-77187000D01*
X102835000Y-77188000D01*
X102833000Y-77188000D01*
X102830000Y-77189000D01*
X102828000Y-77189000D01*
X102825000Y-77190000D01*
X102823000Y-77190000D01*
X102820000Y-77190000D01*
X102180000Y-77190000D01*
X102177000Y-77190000D01*
X102175000Y-77190000D01*
X102172000Y-77189000D01*
X102170000Y-77189000D01*
X102167000Y-77188000D01*
X102165000Y-77188000D01*
X102162000Y-77187000D01*
X102160000Y-77186000D01*
X102157000Y-77185000D01*
X102155000Y-77183000D01*
X102153000Y-77182000D01*
X102151000Y-77180000D01*
X102149000Y-77179000D01*
X102147000Y-77177000D01*
X102145000Y-77175000D01*
X102143000Y-77173000D01*
X102141000Y-77171000D01*
X102140000Y-77169000D01*
X102138000Y-77167000D01*
X102137000Y-77165000D01*
X102135000Y-77163000D01*
X102134000Y-77160000D01*
X102133000Y-77158000D01*
X102132000Y-77155000D01*
X102132000Y-77153000D01*
X102131000Y-77150000D01*
X102131000Y-77148000D01*
X102130000Y-77145000D01*
X102130000Y-77143000D01*
X102130000Y-77140000D01*
X102130000Y-76860000D01*
X102130000Y-76857000D01*
X102130000Y-76855000D01*
X102131000Y-76852000D01*
X102131000Y-76850000D01*
X102132000Y-76847000D01*
X102132000Y-76845000D01*
X102133000Y-76842000D01*
X102134000Y-76840000D01*
X102135000Y-76837000D01*
X102137000Y-76835000D01*
X102138000Y-76833000D01*
X102140000Y-76831000D01*
X102141000Y-76829000D01*
X102143000Y-76827000D01*
X102145000Y-76825000D01*
X102147000Y-76823000D01*
X102149000Y-76821000D01*
X102151000Y-76820000D01*
X102153000Y-76818000D01*
X102155000Y-76817000D01*
X102157000Y-76815000D01*
X102160000Y-76814000D01*
X102162000Y-76813000D01*
X102165000Y-76812000D01*
X102167000Y-76812000D01*
X102170000Y-76811000D01*
X102172000Y-76811000D01*
X102175000Y-76810000D01*
X102177000Y-76810000D01*
X102180000Y-76810000D01*
X102820000Y-76810000D01*
X102823000Y-76810000D01*
X102825000Y-76810000D01*
X102828000Y-76811000D01*
G37*
X102828000Y-77311000D02*
X102830000Y-77311000D01*
X102833000Y-77312000D01*
X102835000Y-77312000D01*
X102838000Y-77313000D01*
X102840000Y-77314000D01*
X102843000Y-77315000D01*
X102845000Y-77317000D01*
X102847000Y-77318000D01*
X102849000Y-77320000D01*
X102851000Y-77321000D01*
X102853000Y-77323000D01*
X102855000Y-77325000D01*
X102857000Y-77327000D01*
X102859000Y-77329000D01*
X102860000Y-77331000D01*
X102862000Y-77333000D01*
X102863000Y-77335000D01*
X102865000Y-77337000D01*
X102866000Y-77340000D01*
X102867000Y-77342000D01*
X102868000Y-77345000D01*
X102868000Y-77347000D01*
X102869000Y-77350000D01*
X102869000Y-77352000D01*
X102870000Y-77355000D01*
X102870000Y-77357000D01*
X102870000Y-77360000D01*
X102870000Y-77640000D01*
X102870000Y-77643000D01*
X102870000Y-77645000D01*
X102869000Y-77648000D01*
X102869000Y-77650000D01*
X102868000Y-77653000D01*
X102868000Y-77655000D01*
X102867000Y-77658000D01*
X102866000Y-77660000D01*
X102865000Y-77663000D01*
X102863000Y-77665000D01*
X102862000Y-77667000D01*
X102860000Y-77669000D01*
X102859000Y-77671000D01*
X102857000Y-77673000D01*
X102855000Y-77675000D01*
X102853000Y-77677000D01*
X102851000Y-77679000D01*
X102849000Y-77680000D01*
X102847000Y-77682000D01*
X102845000Y-77683000D01*
X102843000Y-77685000D01*
X102840000Y-77686000D01*
X102838000Y-77687000D01*
X102835000Y-77688000D01*
X102833000Y-77688000D01*
X102830000Y-77689000D01*
X102828000Y-77689000D01*
X102825000Y-77690000D01*
X102823000Y-77690000D01*
X102820000Y-77690000D01*
X102180000Y-77690000D01*
X102177000Y-77690000D01*
X102175000Y-77690000D01*
X102172000Y-77689000D01*
X102170000Y-77689000D01*
X102167000Y-77688000D01*
X102165000Y-77688000D01*
X102162000Y-77687000D01*
X102160000Y-77686000D01*
X102157000Y-77685000D01*
X102155000Y-77683000D01*
X102153000Y-77682000D01*
X102151000Y-77680000D01*
X102149000Y-77679000D01*
X102147000Y-77677000D01*
X102145000Y-77675000D01*
X102143000Y-77673000D01*
X102141000Y-77671000D01*
X102140000Y-77669000D01*
X102138000Y-77667000D01*
X102137000Y-77665000D01*
X102135000Y-77663000D01*
X102134000Y-77660000D01*
X102133000Y-77658000D01*
X102132000Y-77655000D01*
X102132000Y-77653000D01*
X102131000Y-77650000D01*
X102131000Y-77648000D01*
X102130000Y-77645000D01*
X102130000Y-77643000D01*
X102130000Y-77640000D01*
X102130000Y-77360000D01*
X102130000Y-77357000D01*
X102130000Y-77355000D01*
X102131000Y-77352000D01*
X102131000Y-77350000D01*
X102132000Y-77347000D01*
X102132000Y-77345000D01*
X102133000Y-77342000D01*
X102134000Y-77340000D01*
X102135000Y-77337000D01*
X102137000Y-77335000D01*
X102138000Y-77333000D01*
X102140000Y-77331000D01*
X102141000Y-77329000D01*
X102143000Y-77327000D01*
X102145000Y-77325000D01*
X102147000Y-77323000D01*
X102149000Y-77321000D01*
X102151000Y-77320000D01*
X102153000Y-77318000D01*
X102155000Y-77317000D01*
X102157000Y-77315000D01*
X102160000Y-77314000D01*
X102162000Y-77313000D01*
X102165000Y-77312000D01*
X102167000Y-77312000D01*
X102170000Y-77311000D01*
X102172000Y-77311000D01*
X102175000Y-77310000D01*
X102177000Y-77310000D01*
X102180000Y-77310000D01*
X102820000Y-77310000D01*
X102823000Y-77310000D01*
X102825000Y-77310000D01*
X102828000Y-77311000D01*
G36*
X102828000Y-77311000D02*
G01*
X102830000Y-77311000D01*
X102833000Y-77312000D01*
X102835000Y-77312000D01*
X102838000Y-77313000D01*
X102840000Y-77314000D01*
X102843000Y-77315000D01*
X102845000Y-77317000D01*
X102847000Y-77318000D01*
X102849000Y-77320000D01*
X102851000Y-77321000D01*
X102853000Y-77323000D01*
X102855000Y-77325000D01*
X102857000Y-77327000D01*
X102859000Y-77329000D01*
X102860000Y-77331000D01*
X102862000Y-77333000D01*
X102863000Y-77335000D01*
X102865000Y-77337000D01*
X102866000Y-77340000D01*
X102867000Y-77342000D01*
X102868000Y-77345000D01*
X102868000Y-77347000D01*
X102869000Y-77350000D01*
X102869000Y-77352000D01*
X102870000Y-77355000D01*
X102870000Y-77357000D01*
X102870000Y-77360000D01*
X102870000Y-77640000D01*
X102870000Y-77643000D01*
X102870000Y-77645000D01*
X102869000Y-77648000D01*
X102869000Y-77650000D01*
X102868000Y-77653000D01*
X102868000Y-77655000D01*
X102867000Y-77658000D01*
X102866000Y-77660000D01*
X102865000Y-77663000D01*
X102863000Y-77665000D01*
X102862000Y-77667000D01*
X102860000Y-77669000D01*
X102859000Y-77671000D01*
X102857000Y-77673000D01*
X102855000Y-77675000D01*
X102853000Y-77677000D01*
X102851000Y-77679000D01*
X102849000Y-77680000D01*
X102847000Y-77682000D01*
X102845000Y-77683000D01*
X102843000Y-77685000D01*
X102840000Y-77686000D01*
X102838000Y-77687000D01*
X102835000Y-77688000D01*
X102833000Y-77688000D01*
X102830000Y-77689000D01*
X102828000Y-77689000D01*
X102825000Y-77690000D01*
X102823000Y-77690000D01*
X102820000Y-77690000D01*
X102180000Y-77690000D01*
X102177000Y-77690000D01*
X102175000Y-77690000D01*
X102172000Y-77689000D01*
X102170000Y-77689000D01*
X102167000Y-77688000D01*
X102165000Y-77688000D01*
X102162000Y-77687000D01*
X102160000Y-77686000D01*
X102157000Y-77685000D01*
X102155000Y-77683000D01*
X102153000Y-77682000D01*
X102151000Y-77680000D01*
X102149000Y-77679000D01*
X102147000Y-77677000D01*
X102145000Y-77675000D01*
X102143000Y-77673000D01*
X102141000Y-77671000D01*
X102140000Y-77669000D01*
X102138000Y-77667000D01*
X102137000Y-77665000D01*
X102135000Y-77663000D01*
X102134000Y-77660000D01*
X102133000Y-77658000D01*
X102132000Y-77655000D01*
X102132000Y-77653000D01*
X102131000Y-77650000D01*
X102131000Y-77648000D01*
X102130000Y-77645000D01*
X102130000Y-77643000D01*
X102130000Y-77640000D01*
X102130000Y-77360000D01*
X102130000Y-77357000D01*
X102130000Y-77355000D01*
X102131000Y-77352000D01*
X102131000Y-77350000D01*
X102132000Y-77347000D01*
X102132000Y-77345000D01*
X102133000Y-77342000D01*
X102134000Y-77340000D01*
X102135000Y-77337000D01*
X102137000Y-77335000D01*
X102138000Y-77333000D01*
X102140000Y-77331000D01*
X102141000Y-77329000D01*
X102143000Y-77327000D01*
X102145000Y-77325000D01*
X102147000Y-77323000D01*
X102149000Y-77321000D01*
X102151000Y-77320000D01*
X102153000Y-77318000D01*
X102155000Y-77317000D01*
X102157000Y-77315000D01*
X102160000Y-77314000D01*
X102162000Y-77313000D01*
X102165000Y-77312000D01*
X102167000Y-77312000D01*
X102170000Y-77311000D01*
X102172000Y-77311000D01*
X102175000Y-77310000D01*
X102177000Y-77310000D01*
X102180000Y-77310000D01*
X102820000Y-77310000D01*
X102823000Y-77310000D01*
X102825000Y-77310000D01*
X102828000Y-77311000D01*
G37*
X102828000Y-77811000D02*
X102830000Y-77811000D01*
X102833000Y-77812000D01*
X102835000Y-77812000D01*
X102838000Y-77813000D01*
X102840000Y-77814000D01*
X102843000Y-77815000D01*
X102845000Y-77817000D01*
X102847000Y-77818000D01*
X102849000Y-77820000D01*
X102851000Y-77821000D01*
X102853000Y-77823000D01*
X102855000Y-77825000D01*
X102857000Y-77827000D01*
X102859000Y-77829000D01*
X102860000Y-77831000D01*
X102862000Y-77833000D01*
X102863000Y-77835000D01*
X102865000Y-77837000D01*
X102866000Y-77840000D01*
X102867000Y-77842000D01*
X102868000Y-77845000D01*
X102868000Y-77847000D01*
X102869000Y-77850000D01*
X102869000Y-77852000D01*
X102870000Y-77855000D01*
X102870000Y-77857000D01*
X102870000Y-77860000D01*
X102870000Y-78140000D01*
X102870000Y-78143000D01*
X102870000Y-78145000D01*
X102869000Y-78148000D01*
X102869000Y-78150000D01*
X102868000Y-78153000D01*
X102868000Y-78155000D01*
X102867000Y-78158000D01*
X102866000Y-78160000D01*
X102865000Y-78163000D01*
X102863000Y-78165000D01*
X102862000Y-78167000D01*
X102860000Y-78169000D01*
X102859000Y-78171000D01*
X102857000Y-78173000D01*
X102855000Y-78175000D01*
X102853000Y-78177000D01*
X102851000Y-78179000D01*
X102849000Y-78180000D01*
X102847000Y-78182000D01*
X102845000Y-78183000D01*
X102843000Y-78185000D01*
X102840000Y-78186000D01*
X102838000Y-78187000D01*
X102835000Y-78188000D01*
X102833000Y-78188000D01*
X102830000Y-78189000D01*
X102828000Y-78189000D01*
X102825000Y-78190000D01*
X102823000Y-78190000D01*
X102820000Y-78190000D01*
X102180000Y-78190000D01*
X102177000Y-78190000D01*
X102175000Y-78190000D01*
X102172000Y-78189000D01*
X102170000Y-78189000D01*
X102167000Y-78188000D01*
X102165000Y-78188000D01*
X102162000Y-78187000D01*
X102160000Y-78186000D01*
X102157000Y-78185000D01*
X102155000Y-78183000D01*
X102153000Y-78182000D01*
X102151000Y-78180000D01*
X102149000Y-78179000D01*
X102147000Y-78177000D01*
X102145000Y-78175000D01*
X102143000Y-78173000D01*
X102141000Y-78171000D01*
X102140000Y-78169000D01*
X102138000Y-78167000D01*
X102137000Y-78165000D01*
X102135000Y-78163000D01*
X102134000Y-78160000D01*
X102133000Y-78158000D01*
X102132000Y-78155000D01*
X102132000Y-78153000D01*
X102131000Y-78150000D01*
X102131000Y-78148000D01*
X102130000Y-78145000D01*
X102130000Y-78143000D01*
X102130000Y-78140000D01*
X102130000Y-77860000D01*
X102130000Y-77857000D01*
X102130000Y-77855000D01*
X102131000Y-77852000D01*
X102131000Y-77850000D01*
X102132000Y-77847000D01*
X102132000Y-77845000D01*
X102133000Y-77842000D01*
X102134000Y-77840000D01*
X102135000Y-77837000D01*
X102137000Y-77835000D01*
X102138000Y-77833000D01*
X102140000Y-77831000D01*
X102141000Y-77829000D01*
X102143000Y-77827000D01*
X102145000Y-77825000D01*
X102147000Y-77823000D01*
X102149000Y-77821000D01*
X102151000Y-77820000D01*
X102153000Y-77818000D01*
X102155000Y-77817000D01*
X102157000Y-77815000D01*
X102160000Y-77814000D01*
X102162000Y-77813000D01*
X102165000Y-77812000D01*
X102167000Y-77812000D01*
X102170000Y-77811000D01*
X102172000Y-77811000D01*
X102175000Y-77810000D01*
X102177000Y-77810000D01*
X102180000Y-77810000D01*
X102820000Y-77810000D01*
X102823000Y-77810000D01*
X102825000Y-77810000D01*
X102828000Y-77811000D01*
G36*
X102828000Y-77811000D02*
G01*
X102830000Y-77811000D01*
X102833000Y-77812000D01*
X102835000Y-77812000D01*
X102838000Y-77813000D01*
X102840000Y-77814000D01*
X102843000Y-77815000D01*
X102845000Y-77817000D01*
X102847000Y-77818000D01*
X102849000Y-77820000D01*
X102851000Y-77821000D01*
X102853000Y-77823000D01*
X102855000Y-77825000D01*
X102857000Y-77827000D01*
X102859000Y-77829000D01*
X102860000Y-77831000D01*
X102862000Y-77833000D01*
X102863000Y-77835000D01*
X102865000Y-77837000D01*
X102866000Y-77840000D01*
X102867000Y-77842000D01*
X102868000Y-77845000D01*
X102868000Y-77847000D01*
X102869000Y-77850000D01*
X102869000Y-77852000D01*
X102870000Y-77855000D01*
X102870000Y-77857000D01*
X102870000Y-77860000D01*
X102870000Y-78140000D01*
X102870000Y-78143000D01*
X102870000Y-78145000D01*
X102869000Y-78148000D01*
X102869000Y-78150000D01*
X102868000Y-78153000D01*
X102868000Y-78155000D01*
X102867000Y-78158000D01*
X102866000Y-78160000D01*
X102865000Y-78163000D01*
X102863000Y-78165000D01*
X102862000Y-78167000D01*
X102860000Y-78169000D01*
X102859000Y-78171000D01*
X102857000Y-78173000D01*
X102855000Y-78175000D01*
X102853000Y-78177000D01*
X102851000Y-78179000D01*
X102849000Y-78180000D01*
X102847000Y-78182000D01*
X102845000Y-78183000D01*
X102843000Y-78185000D01*
X102840000Y-78186000D01*
X102838000Y-78187000D01*
X102835000Y-78188000D01*
X102833000Y-78188000D01*
X102830000Y-78189000D01*
X102828000Y-78189000D01*
X102825000Y-78190000D01*
X102823000Y-78190000D01*
X102820000Y-78190000D01*
X102180000Y-78190000D01*
X102177000Y-78190000D01*
X102175000Y-78190000D01*
X102172000Y-78189000D01*
X102170000Y-78189000D01*
X102167000Y-78188000D01*
X102165000Y-78188000D01*
X102162000Y-78187000D01*
X102160000Y-78186000D01*
X102157000Y-78185000D01*
X102155000Y-78183000D01*
X102153000Y-78182000D01*
X102151000Y-78180000D01*
X102149000Y-78179000D01*
X102147000Y-78177000D01*
X102145000Y-78175000D01*
X102143000Y-78173000D01*
X102141000Y-78171000D01*
X102140000Y-78169000D01*
X102138000Y-78167000D01*
X102137000Y-78165000D01*
X102135000Y-78163000D01*
X102134000Y-78160000D01*
X102133000Y-78158000D01*
X102132000Y-78155000D01*
X102132000Y-78153000D01*
X102131000Y-78150000D01*
X102131000Y-78148000D01*
X102130000Y-78145000D01*
X102130000Y-78143000D01*
X102130000Y-78140000D01*
X102130000Y-77860000D01*
X102130000Y-77857000D01*
X102130000Y-77855000D01*
X102131000Y-77852000D01*
X102131000Y-77850000D01*
X102132000Y-77847000D01*
X102132000Y-77845000D01*
X102133000Y-77842000D01*
X102134000Y-77840000D01*
X102135000Y-77837000D01*
X102137000Y-77835000D01*
X102138000Y-77833000D01*
X102140000Y-77831000D01*
X102141000Y-77829000D01*
X102143000Y-77827000D01*
X102145000Y-77825000D01*
X102147000Y-77823000D01*
X102149000Y-77821000D01*
X102151000Y-77820000D01*
X102153000Y-77818000D01*
X102155000Y-77817000D01*
X102157000Y-77815000D01*
X102160000Y-77814000D01*
X102162000Y-77813000D01*
X102165000Y-77812000D01*
X102167000Y-77812000D01*
X102170000Y-77811000D01*
X102172000Y-77811000D01*
X102175000Y-77810000D01*
X102177000Y-77810000D01*
X102180000Y-77810000D01*
X102820000Y-77810000D01*
X102823000Y-77810000D01*
X102825000Y-77810000D01*
X102828000Y-77811000D01*
G37*
X102828000Y-78311000D02*
X102830000Y-78311000D01*
X102833000Y-78312000D01*
X102835000Y-78312000D01*
X102838000Y-78313000D01*
X102840000Y-78314000D01*
X102843000Y-78315000D01*
X102845000Y-78317000D01*
X102847000Y-78318000D01*
X102849000Y-78320000D01*
X102851000Y-78321000D01*
X102853000Y-78323000D01*
X102855000Y-78325000D01*
X102857000Y-78327000D01*
X102859000Y-78329000D01*
X102860000Y-78331000D01*
X102862000Y-78333000D01*
X102863000Y-78335000D01*
X102865000Y-78337000D01*
X102866000Y-78340000D01*
X102867000Y-78342000D01*
X102868000Y-78345000D01*
X102868000Y-78347000D01*
X102869000Y-78350000D01*
X102869000Y-78352000D01*
X102870000Y-78355000D01*
X102870000Y-78357000D01*
X102870000Y-78360000D01*
X102870000Y-78640000D01*
X102870000Y-78643000D01*
X102870000Y-78645000D01*
X102869000Y-78648000D01*
X102869000Y-78650000D01*
X102868000Y-78653000D01*
X102868000Y-78655000D01*
X102867000Y-78658000D01*
X102866000Y-78660000D01*
X102865000Y-78663000D01*
X102863000Y-78665000D01*
X102862000Y-78667000D01*
X102860000Y-78669000D01*
X102859000Y-78671000D01*
X102857000Y-78673000D01*
X102855000Y-78675000D01*
X102853000Y-78677000D01*
X102851000Y-78679000D01*
X102849000Y-78680000D01*
X102847000Y-78682000D01*
X102845000Y-78683000D01*
X102843000Y-78685000D01*
X102840000Y-78686000D01*
X102838000Y-78687000D01*
X102835000Y-78688000D01*
X102833000Y-78688000D01*
X102830000Y-78689000D01*
X102828000Y-78689000D01*
X102825000Y-78690000D01*
X102823000Y-78690000D01*
X102820000Y-78690000D01*
X102180000Y-78690000D01*
X102177000Y-78690000D01*
X102175000Y-78690000D01*
X102172000Y-78689000D01*
X102170000Y-78689000D01*
X102167000Y-78688000D01*
X102165000Y-78688000D01*
X102162000Y-78687000D01*
X102160000Y-78686000D01*
X102157000Y-78685000D01*
X102155000Y-78683000D01*
X102153000Y-78682000D01*
X102151000Y-78680000D01*
X102149000Y-78679000D01*
X102147000Y-78677000D01*
X102145000Y-78675000D01*
X102143000Y-78673000D01*
X102141000Y-78671000D01*
X102140000Y-78669000D01*
X102138000Y-78667000D01*
X102137000Y-78665000D01*
X102135000Y-78663000D01*
X102134000Y-78660000D01*
X102133000Y-78658000D01*
X102132000Y-78655000D01*
X102132000Y-78653000D01*
X102131000Y-78650000D01*
X102131000Y-78648000D01*
X102130000Y-78645000D01*
X102130000Y-78643000D01*
X102130000Y-78640000D01*
X102130000Y-78360000D01*
X102130000Y-78357000D01*
X102130000Y-78355000D01*
X102131000Y-78352000D01*
X102131000Y-78350000D01*
X102132000Y-78347000D01*
X102132000Y-78345000D01*
X102133000Y-78342000D01*
X102134000Y-78340000D01*
X102135000Y-78337000D01*
X102137000Y-78335000D01*
X102138000Y-78333000D01*
X102140000Y-78331000D01*
X102141000Y-78329000D01*
X102143000Y-78327000D01*
X102145000Y-78325000D01*
X102147000Y-78323000D01*
X102149000Y-78321000D01*
X102151000Y-78320000D01*
X102153000Y-78318000D01*
X102155000Y-78317000D01*
X102157000Y-78315000D01*
X102160000Y-78314000D01*
X102162000Y-78313000D01*
X102165000Y-78312000D01*
X102167000Y-78312000D01*
X102170000Y-78311000D01*
X102172000Y-78311000D01*
X102175000Y-78310000D01*
X102177000Y-78310000D01*
X102180000Y-78310000D01*
X102820000Y-78310000D01*
X102823000Y-78310000D01*
X102825000Y-78310000D01*
X102828000Y-78311000D01*
G36*
X102828000Y-78311000D02*
G01*
X102830000Y-78311000D01*
X102833000Y-78312000D01*
X102835000Y-78312000D01*
X102838000Y-78313000D01*
X102840000Y-78314000D01*
X102843000Y-78315000D01*
X102845000Y-78317000D01*
X102847000Y-78318000D01*
X102849000Y-78320000D01*
X102851000Y-78321000D01*
X102853000Y-78323000D01*
X102855000Y-78325000D01*
X102857000Y-78327000D01*
X102859000Y-78329000D01*
X102860000Y-78331000D01*
X102862000Y-78333000D01*
X102863000Y-78335000D01*
X102865000Y-78337000D01*
X102866000Y-78340000D01*
X102867000Y-78342000D01*
X102868000Y-78345000D01*
X102868000Y-78347000D01*
X102869000Y-78350000D01*
X102869000Y-78352000D01*
X102870000Y-78355000D01*
X102870000Y-78357000D01*
X102870000Y-78360000D01*
X102870000Y-78640000D01*
X102870000Y-78643000D01*
X102870000Y-78645000D01*
X102869000Y-78648000D01*
X102869000Y-78650000D01*
X102868000Y-78653000D01*
X102868000Y-78655000D01*
X102867000Y-78658000D01*
X102866000Y-78660000D01*
X102865000Y-78663000D01*
X102863000Y-78665000D01*
X102862000Y-78667000D01*
X102860000Y-78669000D01*
X102859000Y-78671000D01*
X102857000Y-78673000D01*
X102855000Y-78675000D01*
X102853000Y-78677000D01*
X102851000Y-78679000D01*
X102849000Y-78680000D01*
X102847000Y-78682000D01*
X102845000Y-78683000D01*
X102843000Y-78685000D01*
X102840000Y-78686000D01*
X102838000Y-78687000D01*
X102835000Y-78688000D01*
X102833000Y-78688000D01*
X102830000Y-78689000D01*
X102828000Y-78689000D01*
X102825000Y-78690000D01*
X102823000Y-78690000D01*
X102820000Y-78690000D01*
X102180000Y-78690000D01*
X102177000Y-78690000D01*
X102175000Y-78690000D01*
X102172000Y-78689000D01*
X102170000Y-78689000D01*
X102167000Y-78688000D01*
X102165000Y-78688000D01*
X102162000Y-78687000D01*
X102160000Y-78686000D01*
X102157000Y-78685000D01*
X102155000Y-78683000D01*
X102153000Y-78682000D01*
X102151000Y-78680000D01*
X102149000Y-78679000D01*
X102147000Y-78677000D01*
X102145000Y-78675000D01*
X102143000Y-78673000D01*
X102141000Y-78671000D01*
X102140000Y-78669000D01*
X102138000Y-78667000D01*
X102137000Y-78665000D01*
X102135000Y-78663000D01*
X102134000Y-78660000D01*
X102133000Y-78658000D01*
X102132000Y-78655000D01*
X102132000Y-78653000D01*
X102131000Y-78650000D01*
X102131000Y-78648000D01*
X102130000Y-78645000D01*
X102130000Y-78643000D01*
X102130000Y-78640000D01*
X102130000Y-78360000D01*
X102130000Y-78357000D01*
X102130000Y-78355000D01*
X102131000Y-78352000D01*
X102131000Y-78350000D01*
X102132000Y-78347000D01*
X102132000Y-78345000D01*
X102133000Y-78342000D01*
X102134000Y-78340000D01*
X102135000Y-78337000D01*
X102137000Y-78335000D01*
X102138000Y-78333000D01*
X102140000Y-78331000D01*
X102141000Y-78329000D01*
X102143000Y-78327000D01*
X102145000Y-78325000D01*
X102147000Y-78323000D01*
X102149000Y-78321000D01*
X102151000Y-78320000D01*
X102153000Y-78318000D01*
X102155000Y-78317000D01*
X102157000Y-78315000D01*
X102160000Y-78314000D01*
X102162000Y-78313000D01*
X102165000Y-78312000D01*
X102167000Y-78312000D01*
X102170000Y-78311000D01*
X102172000Y-78311000D01*
X102175000Y-78310000D01*
X102177000Y-78310000D01*
X102180000Y-78310000D01*
X102820000Y-78310000D01*
X102823000Y-78310000D01*
X102825000Y-78310000D01*
X102828000Y-78311000D01*
G37*
X103298000Y-75981000D02*
X103300000Y-75981000D01*
X103303000Y-75982000D01*
X103305000Y-75982000D01*
X103308000Y-75983000D01*
X103310000Y-75984000D01*
X103313000Y-75985000D01*
X103315000Y-75987000D01*
X103317000Y-75988000D01*
X103319000Y-75990000D01*
X103321000Y-75991000D01*
X103323000Y-75993000D01*
X103325000Y-75995000D01*
X103327000Y-75997000D01*
X103329000Y-75999000D01*
X103330000Y-76001000D01*
X103332000Y-76003000D01*
X103333000Y-76005000D01*
X103335000Y-76007000D01*
X103336000Y-76010000D01*
X103337000Y-76012000D01*
X103338000Y-76015000D01*
X103338000Y-76017000D01*
X103339000Y-76020000D01*
X103339000Y-76022000D01*
X103340000Y-76025000D01*
X103340000Y-76027000D01*
X103340000Y-76030000D01*
X103340000Y-76670000D01*
X103340000Y-76673000D01*
X103340000Y-76675000D01*
X103339000Y-76678000D01*
X103339000Y-76680000D01*
X103338000Y-76683000D01*
X103338000Y-76685000D01*
X103337000Y-76688000D01*
X103336000Y-76690000D01*
X103335000Y-76693000D01*
X103333000Y-76695000D01*
X103332000Y-76697000D01*
X103330000Y-76699000D01*
X103329000Y-76701000D01*
X103327000Y-76703000D01*
X103325000Y-76705000D01*
X103323000Y-76707000D01*
X103321000Y-76709000D01*
X103319000Y-76710000D01*
X103317000Y-76712000D01*
X103315000Y-76713000D01*
X103313000Y-76715000D01*
X103310000Y-76716000D01*
X103308000Y-76717000D01*
X103305000Y-76718000D01*
X103303000Y-76718000D01*
X103300000Y-76719000D01*
X103298000Y-76719000D01*
X103295000Y-76720000D01*
X103293000Y-76720000D01*
X103290000Y-76720000D01*
X103010000Y-76720000D01*
X103007000Y-76720000D01*
X103005000Y-76720000D01*
X103002000Y-76719000D01*
X103000000Y-76719000D01*
X102997000Y-76718000D01*
X102995000Y-76718000D01*
X102992000Y-76717000D01*
X102990000Y-76716000D01*
X102987000Y-76715000D01*
X102985000Y-76713000D01*
X102983000Y-76712000D01*
X102981000Y-76710000D01*
X102979000Y-76709000D01*
X102977000Y-76707000D01*
X102975000Y-76705000D01*
X102973000Y-76703000D01*
X102971000Y-76701000D01*
X102970000Y-76699000D01*
X102968000Y-76697000D01*
X102967000Y-76695000D01*
X102965000Y-76693000D01*
X102964000Y-76690000D01*
X102963000Y-76688000D01*
X102962000Y-76685000D01*
X102962000Y-76683000D01*
X102961000Y-76680000D01*
X102961000Y-76678000D01*
X102960000Y-76675000D01*
X102960000Y-76673000D01*
X102960000Y-76670000D01*
X102960000Y-76030000D01*
X102960000Y-76027000D01*
X102960000Y-76025000D01*
X102961000Y-76022000D01*
X102961000Y-76020000D01*
X102962000Y-76017000D01*
X102962000Y-76015000D01*
X102963000Y-76012000D01*
X102964000Y-76010000D01*
X102965000Y-76007000D01*
X102967000Y-76005000D01*
X102968000Y-76003000D01*
X102970000Y-76001000D01*
X102971000Y-75999000D01*
X102973000Y-75997000D01*
X102975000Y-75995000D01*
X102977000Y-75993000D01*
X102979000Y-75991000D01*
X102981000Y-75990000D01*
X102983000Y-75988000D01*
X102985000Y-75987000D01*
X102987000Y-75985000D01*
X102990000Y-75984000D01*
X102992000Y-75983000D01*
X102995000Y-75982000D01*
X102997000Y-75982000D01*
X103000000Y-75981000D01*
X103002000Y-75981000D01*
X103005000Y-75980000D01*
X103007000Y-75980000D01*
X103010000Y-75980000D01*
X103290000Y-75980000D01*
X103293000Y-75980000D01*
X103295000Y-75980000D01*
X103298000Y-75981000D01*
G36*
X103298000Y-75981000D02*
G01*
X103300000Y-75981000D01*
X103303000Y-75982000D01*
X103305000Y-75982000D01*
X103308000Y-75983000D01*
X103310000Y-75984000D01*
X103313000Y-75985000D01*
X103315000Y-75987000D01*
X103317000Y-75988000D01*
X103319000Y-75990000D01*
X103321000Y-75991000D01*
X103323000Y-75993000D01*
X103325000Y-75995000D01*
X103327000Y-75997000D01*
X103329000Y-75999000D01*
X103330000Y-76001000D01*
X103332000Y-76003000D01*
X103333000Y-76005000D01*
X103335000Y-76007000D01*
X103336000Y-76010000D01*
X103337000Y-76012000D01*
X103338000Y-76015000D01*
X103338000Y-76017000D01*
X103339000Y-76020000D01*
X103339000Y-76022000D01*
X103340000Y-76025000D01*
X103340000Y-76027000D01*
X103340000Y-76030000D01*
X103340000Y-76670000D01*
X103340000Y-76673000D01*
X103340000Y-76675000D01*
X103339000Y-76678000D01*
X103339000Y-76680000D01*
X103338000Y-76683000D01*
X103338000Y-76685000D01*
X103337000Y-76688000D01*
X103336000Y-76690000D01*
X103335000Y-76693000D01*
X103333000Y-76695000D01*
X103332000Y-76697000D01*
X103330000Y-76699000D01*
X103329000Y-76701000D01*
X103327000Y-76703000D01*
X103325000Y-76705000D01*
X103323000Y-76707000D01*
X103321000Y-76709000D01*
X103319000Y-76710000D01*
X103317000Y-76712000D01*
X103315000Y-76713000D01*
X103313000Y-76715000D01*
X103310000Y-76716000D01*
X103308000Y-76717000D01*
X103305000Y-76718000D01*
X103303000Y-76718000D01*
X103300000Y-76719000D01*
X103298000Y-76719000D01*
X103295000Y-76720000D01*
X103293000Y-76720000D01*
X103290000Y-76720000D01*
X103010000Y-76720000D01*
X103007000Y-76720000D01*
X103005000Y-76720000D01*
X103002000Y-76719000D01*
X103000000Y-76719000D01*
X102997000Y-76718000D01*
X102995000Y-76718000D01*
X102992000Y-76717000D01*
X102990000Y-76716000D01*
X102987000Y-76715000D01*
X102985000Y-76713000D01*
X102983000Y-76712000D01*
X102981000Y-76710000D01*
X102979000Y-76709000D01*
X102977000Y-76707000D01*
X102975000Y-76705000D01*
X102973000Y-76703000D01*
X102971000Y-76701000D01*
X102970000Y-76699000D01*
X102968000Y-76697000D01*
X102967000Y-76695000D01*
X102965000Y-76693000D01*
X102964000Y-76690000D01*
X102963000Y-76688000D01*
X102962000Y-76685000D01*
X102962000Y-76683000D01*
X102961000Y-76680000D01*
X102961000Y-76678000D01*
X102960000Y-76675000D01*
X102960000Y-76673000D01*
X102960000Y-76670000D01*
X102960000Y-76030000D01*
X102960000Y-76027000D01*
X102960000Y-76025000D01*
X102961000Y-76022000D01*
X102961000Y-76020000D01*
X102962000Y-76017000D01*
X102962000Y-76015000D01*
X102963000Y-76012000D01*
X102964000Y-76010000D01*
X102965000Y-76007000D01*
X102967000Y-76005000D01*
X102968000Y-76003000D01*
X102970000Y-76001000D01*
X102971000Y-75999000D01*
X102973000Y-75997000D01*
X102975000Y-75995000D01*
X102977000Y-75993000D01*
X102979000Y-75991000D01*
X102981000Y-75990000D01*
X102983000Y-75988000D01*
X102985000Y-75987000D01*
X102987000Y-75985000D01*
X102990000Y-75984000D01*
X102992000Y-75983000D01*
X102995000Y-75982000D01*
X102997000Y-75982000D01*
X103000000Y-75981000D01*
X103002000Y-75981000D01*
X103005000Y-75980000D01*
X103007000Y-75980000D01*
X103010000Y-75980000D01*
X103290000Y-75980000D01*
X103293000Y-75980000D01*
X103295000Y-75980000D01*
X103298000Y-75981000D01*
G37*
X103298000Y-78781000D02*
X103300000Y-78781000D01*
X103303000Y-78782000D01*
X103305000Y-78782000D01*
X103308000Y-78783000D01*
X103310000Y-78784000D01*
X103313000Y-78785000D01*
X103315000Y-78787000D01*
X103317000Y-78788000D01*
X103319000Y-78790000D01*
X103321000Y-78791000D01*
X103323000Y-78793000D01*
X103325000Y-78795000D01*
X103327000Y-78797000D01*
X103329000Y-78799000D01*
X103330000Y-78801000D01*
X103332000Y-78803000D01*
X103333000Y-78805000D01*
X103335000Y-78807000D01*
X103336000Y-78810000D01*
X103337000Y-78812000D01*
X103338000Y-78815000D01*
X103338000Y-78817000D01*
X103339000Y-78820000D01*
X103339000Y-78822000D01*
X103340000Y-78825000D01*
X103340000Y-78827000D01*
X103340000Y-78830000D01*
X103340000Y-79470000D01*
X103340000Y-79473000D01*
X103340000Y-79475000D01*
X103339000Y-79478000D01*
X103339000Y-79480000D01*
X103338000Y-79483000D01*
X103338000Y-79485000D01*
X103337000Y-79488000D01*
X103336000Y-79490000D01*
X103335000Y-79493000D01*
X103333000Y-79495000D01*
X103332000Y-79497000D01*
X103330000Y-79499000D01*
X103329000Y-79501000D01*
X103327000Y-79503000D01*
X103325000Y-79505000D01*
X103323000Y-79507000D01*
X103321000Y-79509000D01*
X103319000Y-79510000D01*
X103317000Y-79512000D01*
X103315000Y-79513000D01*
X103313000Y-79515000D01*
X103310000Y-79516000D01*
X103308000Y-79517000D01*
X103305000Y-79518000D01*
X103303000Y-79518000D01*
X103300000Y-79519000D01*
X103298000Y-79519000D01*
X103295000Y-79520000D01*
X103293000Y-79520000D01*
X103290000Y-79520000D01*
X103010000Y-79520000D01*
X103007000Y-79520000D01*
X103005000Y-79520000D01*
X103002000Y-79519000D01*
X103000000Y-79519000D01*
X102997000Y-79518000D01*
X102995000Y-79518000D01*
X102992000Y-79517000D01*
X102990000Y-79516000D01*
X102987000Y-79515000D01*
X102985000Y-79513000D01*
X102983000Y-79512000D01*
X102981000Y-79510000D01*
X102979000Y-79509000D01*
X102977000Y-79507000D01*
X102975000Y-79505000D01*
X102973000Y-79503000D01*
X102971000Y-79501000D01*
X102970000Y-79499000D01*
X102968000Y-79497000D01*
X102967000Y-79495000D01*
X102965000Y-79493000D01*
X102964000Y-79490000D01*
X102963000Y-79488000D01*
X102962000Y-79485000D01*
X102962000Y-79483000D01*
X102961000Y-79480000D01*
X102961000Y-79478000D01*
X102960000Y-79475000D01*
X102960000Y-79473000D01*
X102960000Y-79470000D01*
X102960000Y-78830000D01*
X102960000Y-78827000D01*
X102960000Y-78825000D01*
X102961000Y-78822000D01*
X102961000Y-78820000D01*
X102962000Y-78817000D01*
X102962000Y-78815000D01*
X102963000Y-78812000D01*
X102964000Y-78810000D01*
X102965000Y-78807000D01*
X102967000Y-78805000D01*
X102968000Y-78803000D01*
X102970000Y-78801000D01*
X102971000Y-78799000D01*
X102973000Y-78797000D01*
X102975000Y-78795000D01*
X102977000Y-78793000D01*
X102979000Y-78791000D01*
X102981000Y-78790000D01*
X102983000Y-78788000D01*
X102985000Y-78787000D01*
X102987000Y-78785000D01*
X102990000Y-78784000D01*
X102992000Y-78783000D01*
X102995000Y-78782000D01*
X102997000Y-78782000D01*
X103000000Y-78781000D01*
X103002000Y-78781000D01*
X103005000Y-78780000D01*
X103007000Y-78780000D01*
X103010000Y-78780000D01*
X103290000Y-78780000D01*
X103293000Y-78780000D01*
X103295000Y-78780000D01*
X103298000Y-78781000D01*
G36*
X103298000Y-78781000D02*
G01*
X103300000Y-78781000D01*
X103303000Y-78782000D01*
X103305000Y-78782000D01*
X103308000Y-78783000D01*
X103310000Y-78784000D01*
X103313000Y-78785000D01*
X103315000Y-78787000D01*
X103317000Y-78788000D01*
X103319000Y-78790000D01*
X103321000Y-78791000D01*
X103323000Y-78793000D01*
X103325000Y-78795000D01*
X103327000Y-78797000D01*
X103329000Y-78799000D01*
X103330000Y-78801000D01*
X103332000Y-78803000D01*
X103333000Y-78805000D01*
X103335000Y-78807000D01*
X103336000Y-78810000D01*
X103337000Y-78812000D01*
X103338000Y-78815000D01*
X103338000Y-78817000D01*
X103339000Y-78820000D01*
X103339000Y-78822000D01*
X103340000Y-78825000D01*
X103340000Y-78827000D01*
X103340000Y-78830000D01*
X103340000Y-79470000D01*
X103340000Y-79473000D01*
X103340000Y-79475000D01*
X103339000Y-79478000D01*
X103339000Y-79480000D01*
X103338000Y-79483000D01*
X103338000Y-79485000D01*
X103337000Y-79488000D01*
X103336000Y-79490000D01*
X103335000Y-79493000D01*
X103333000Y-79495000D01*
X103332000Y-79497000D01*
X103330000Y-79499000D01*
X103329000Y-79501000D01*
X103327000Y-79503000D01*
X103325000Y-79505000D01*
X103323000Y-79507000D01*
X103321000Y-79509000D01*
X103319000Y-79510000D01*
X103317000Y-79512000D01*
X103315000Y-79513000D01*
X103313000Y-79515000D01*
X103310000Y-79516000D01*
X103308000Y-79517000D01*
X103305000Y-79518000D01*
X103303000Y-79518000D01*
X103300000Y-79519000D01*
X103298000Y-79519000D01*
X103295000Y-79520000D01*
X103293000Y-79520000D01*
X103290000Y-79520000D01*
X103010000Y-79520000D01*
X103007000Y-79520000D01*
X103005000Y-79520000D01*
X103002000Y-79519000D01*
X103000000Y-79519000D01*
X102997000Y-79518000D01*
X102995000Y-79518000D01*
X102992000Y-79517000D01*
X102990000Y-79516000D01*
X102987000Y-79515000D01*
X102985000Y-79513000D01*
X102983000Y-79512000D01*
X102981000Y-79510000D01*
X102979000Y-79509000D01*
X102977000Y-79507000D01*
X102975000Y-79505000D01*
X102973000Y-79503000D01*
X102971000Y-79501000D01*
X102970000Y-79499000D01*
X102968000Y-79497000D01*
X102967000Y-79495000D01*
X102965000Y-79493000D01*
X102964000Y-79490000D01*
X102963000Y-79488000D01*
X102962000Y-79485000D01*
X102962000Y-79483000D01*
X102961000Y-79480000D01*
X102961000Y-79478000D01*
X102960000Y-79475000D01*
X102960000Y-79473000D01*
X102960000Y-79470000D01*
X102960000Y-78830000D01*
X102960000Y-78827000D01*
X102960000Y-78825000D01*
X102961000Y-78822000D01*
X102961000Y-78820000D01*
X102962000Y-78817000D01*
X102962000Y-78815000D01*
X102963000Y-78812000D01*
X102964000Y-78810000D01*
X102965000Y-78807000D01*
X102967000Y-78805000D01*
X102968000Y-78803000D01*
X102970000Y-78801000D01*
X102971000Y-78799000D01*
X102973000Y-78797000D01*
X102975000Y-78795000D01*
X102977000Y-78793000D01*
X102979000Y-78791000D01*
X102981000Y-78790000D01*
X102983000Y-78788000D01*
X102985000Y-78787000D01*
X102987000Y-78785000D01*
X102990000Y-78784000D01*
X102992000Y-78783000D01*
X102995000Y-78782000D01*
X102997000Y-78782000D01*
X103000000Y-78781000D01*
X103002000Y-78781000D01*
X103005000Y-78780000D01*
X103007000Y-78780000D01*
X103010000Y-78780000D01*
X103290000Y-78780000D01*
X103293000Y-78780000D01*
X103295000Y-78780000D01*
X103298000Y-78781000D01*
G37*
X103798000Y-75981000D02*
X103800000Y-75981000D01*
X103803000Y-75982000D01*
X103805000Y-75982000D01*
X103808000Y-75983000D01*
X103810000Y-75984000D01*
X103813000Y-75985000D01*
X103815000Y-75987000D01*
X103817000Y-75988000D01*
X103819000Y-75990000D01*
X103821000Y-75991000D01*
X103823000Y-75993000D01*
X103825000Y-75995000D01*
X103827000Y-75997000D01*
X103829000Y-75999000D01*
X103830000Y-76001000D01*
X103832000Y-76003000D01*
X103833000Y-76005000D01*
X103835000Y-76007000D01*
X103836000Y-76010000D01*
X103837000Y-76012000D01*
X103838000Y-76015000D01*
X103838000Y-76017000D01*
X103839000Y-76020000D01*
X103839000Y-76022000D01*
X103840000Y-76025000D01*
X103840000Y-76027000D01*
X103840000Y-76030000D01*
X103840000Y-76670000D01*
X103840000Y-76673000D01*
X103840000Y-76675000D01*
X103839000Y-76678000D01*
X103839000Y-76680000D01*
X103838000Y-76683000D01*
X103838000Y-76685000D01*
X103837000Y-76688000D01*
X103836000Y-76690000D01*
X103835000Y-76693000D01*
X103833000Y-76695000D01*
X103832000Y-76697000D01*
X103830000Y-76699000D01*
X103829000Y-76701000D01*
X103827000Y-76703000D01*
X103825000Y-76705000D01*
X103823000Y-76707000D01*
X103821000Y-76709000D01*
X103819000Y-76710000D01*
X103817000Y-76712000D01*
X103815000Y-76713000D01*
X103813000Y-76715000D01*
X103810000Y-76716000D01*
X103808000Y-76717000D01*
X103805000Y-76718000D01*
X103803000Y-76718000D01*
X103800000Y-76719000D01*
X103798000Y-76719000D01*
X103795000Y-76720000D01*
X103793000Y-76720000D01*
X103790000Y-76720000D01*
X103510000Y-76720000D01*
X103507000Y-76720000D01*
X103505000Y-76720000D01*
X103502000Y-76719000D01*
X103500000Y-76719000D01*
X103497000Y-76718000D01*
X103495000Y-76718000D01*
X103492000Y-76717000D01*
X103490000Y-76716000D01*
X103487000Y-76715000D01*
X103485000Y-76713000D01*
X103483000Y-76712000D01*
X103481000Y-76710000D01*
X103479000Y-76709000D01*
X103477000Y-76707000D01*
X103475000Y-76705000D01*
X103473000Y-76703000D01*
X103471000Y-76701000D01*
X103470000Y-76699000D01*
X103468000Y-76697000D01*
X103467000Y-76695000D01*
X103465000Y-76693000D01*
X103464000Y-76690000D01*
X103463000Y-76688000D01*
X103462000Y-76685000D01*
X103462000Y-76683000D01*
X103461000Y-76680000D01*
X103461000Y-76678000D01*
X103460000Y-76675000D01*
X103460000Y-76673000D01*
X103460000Y-76670000D01*
X103460000Y-76030000D01*
X103460000Y-76027000D01*
X103460000Y-76025000D01*
X103461000Y-76022000D01*
X103461000Y-76020000D01*
X103462000Y-76017000D01*
X103462000Y-76015000D01*
X103463000Y-76012000D01*
X103464000Y-76010000D01*
X103465000Y-76007000D01*
X103467000Y-76005000D01*
X103468000Y-76003000D01*
X103470000Y-76001000D01*
X103471000Y-75999000D01*
X103473000Y-75997000D01*
X103475000Y-75995000D01*
X103477000Y-75993000D01*
X103479000Y-75991000D01*
X103481000Y-75990000D01*
X103483000Y-75988000D01*
X103485000Y-75987000D01*
X103487000Y-75985000D01*
X103490000Y-75984000D01*
X103492000Y-75983000D01*
X103495000Y-75982000D01*
X103497000Y-75982000D01*
X103500000Y-75981000D01*
X103502000Y-75981000D01*
X103505000Y-75980000D01*
X103507000Y-75980000D01*
X103510000Y-75980000D01*
X103790000Y-75980000D01*
X103793000Y-75980000D01*
X103795000Y-75980000D01*
X103798000Y-75981000D01*
G36*
X103798000Y-75981000D02*
G01*
X103800000Y-75981000D01*
X103803000Y-75982000D01*
X103805000Y-75982000D01*
X103808000Y-75983000D01*
X103810000Y-75984000D01*
X103813000Y-75985000D01*
X103815000Y-75987000D01*
X103817000Y-75988000D01*
X103819000Y-75990000D01*
X103821000Y-75991000D01*
X103823000Y-75993000D01*
X103825000Y-75995000D01*
X103827000Y-75997000D01*
X103829000Y-75999000D01*
X103830000Y-76001000D01*
X103832000Y-76003000D01*
X103833000Y-76005000D01*
X103835000Y-76007000D01*
X103836000Y-76010000D01*
X103837000Y-76012000D01*
X103838000Y-76015000D01*
X103838000Y-76017000D01*
X103839000Y-76020000D01*
X103839000Y-76022000D01*
X103840000Y-76025000D01*
X103840000Y-76027000D01*
X103840000Y-76030000D01*
X103840000Y-76670000D01*
X103840000Y-76673000D01*
X103840000Y-76675000D01*
X103839000Y-76678000D01*
X103839000Y-76680000D01*
X103838000Y-76683000D01*
X103838000Y-76685000D01*
X103837000Y-76688000D01*
X103836000Y-76690000D01*
X103835000Y-76693000D01*
X103833000Y-76695000D01*
X103832000Y-76697000D01*
X103830000Y-76699000D01*
X103829000Y-76701000D01*
X103827000Y-76703000D01*
X103825000Y-76705000D01*
X103823000Y-76707000D01*
X103821000Y-76709000D01*
X103819000Y-76710000D01*
X103817000Y-76712000D01*
X103815000Y-76713000D01*
X103813000Y-76715000D01*
X103810000Y-76716000D01*
X103808000Y-76717000D01*
X103805000Y-76718000D01*
X103803000Y-76718000D01*
X103800000Y-76719000D01*
X103798000Y-76719000D01*
X103795000Y-76720000D01*
X103793000Y-76720000D01*
X103790000Y-76720000D01*
X103510000Y-76720000D01*
X103507000Y-76720000D01*
X103505000Y-76720000D01*
X103502000Y-76719000D01*
X103500000Y-76719000D01*
X103497000Y-76718000D01*
X103495000Y-76718000D01*
X103492000Y-76717000D01*
X103490000Y-76716000D01*
X103487000Y-76715000D01*
X103485000Y-76713000D01*
X103483000Y-76712000D01*
X103481000Y-76710000D01*
X103479000Y-76709000D01*
X103477000Y-76707000D01*
X103475000Y-76705000D01*
X103473000Y-76703000D01*
X103471000Y-76701000D01*
X103470000Y-76699000D01*
X103468000Y-76697000D01*
X103467000Y-76695000D01*
X103465000Y-76693000D01*
X103464000Y-76690000D01*
X103463000Y-76688000D01*
X103462000Y-76685000D01*
X103462000Y-76683000D01*
X103461000Y-76680000D01*
X103461000Y-76678000D01*
X103460000Y-76675000D01*
X103460000Y-76673000D01*
X103460000Y-76670000D01*
X103460000Y-76030000D01*
X103460000Y-76027000D01*
X103460000Y-76025000D01*
X103461000Y-76022000D01*
X103461000Y-76020000D01*
X103462000Y-76017000D01*
X103462000Y-76015000D01*
X103463000Y-76012000D01*
X103464000Y-76010000D01*
X103465000Y-76007000D01*
X103467000Y-76005000D01*
X103468000Y-76003000D01*
X103470000Y-76001000D01*
X103471000Y-75999000D01*
X103473000Y-75997000D01*
X103475000Y-75995000D01*
X103477000Y-75993000D01*
X103479000Y-75991000D01*
X103481000Y-75990000D01*
X103483000Y-75988000D01*
X103485000Y-75987000D01*
X103487000Y-75985000D01*
X103490000Y-75984000D01*
X103492000Y-75983000D01*
X103495000Y-75982000D01*
X103497000Y-75982000D01*
X103500000Y-75981000D01*
X103502000Y-75981000D01*
X103505000Y-75980000D01*
X103507000Y-75980000D01*
X103510000Y-75980000D01*
X103790000Y-75980000D01*
X103793000Y-75980000D01*
X103795000Y-75980000D01*
X103798000Y-75981000D01*
G37*
X103798000Y-78781000D02*
X103800000Y-78781000D01*
X103803000Y-78782000D01*
X103805000Y-78782000D01*
X103808000Y-78783000D01*
X103810000Y-78784000D01*
X103813000Y-78785000D01*
X103815000Y-78787000D01*
X103817000Y-78788000D01*
X103819000Y-78790000D01*
X103821000Y-78791000D01*
X103823000Y-78793000D01*
X103825000Y-78795000D01*
X103827000Y-78797000D01*
X103829000Y-78799000D01*
X103830000Y-78801000D01*
X103832000Y-78803000D01*
X103833000Y-78805000D01*
X103835000Y-78807000D01*
X103836000Y-78810000D01*
X103837000Y-78812000D01*
X103838000Y-78815000D01*
X103838000Y-78817000D01*
X103839000Y-78820000D01*
X103839000Y-78822000D01*
X103840000Y-78825000D01*
X103840000Y-78827000D01*
X103840000Y-78830000D01*
X103840000Y-79470000D01*
X103840000Y-79473000D01*
X103840000Y-79475000D01*
X103839000Y-79478000D01*
X103839000Y-79480000D01*
X103838000Y-79483000D01*
X103838000Y-79485000D01*
X103837000Y-79488000D01*
X103836000Y-79490000D01*
X103835000Y-79493000D01*
X103833000Y-79495000D01*
X103832000Y-79497000D01*
X103830000Y-79499000D01*
X103829000Y-79501000D01*
X103827000Y-79503000D01*
X103825000Y-79505000D01*
X103823000Y-79507000D01*
X103821000Y-79509000D01*
X103819000Y-79510000D01*
X103817000Y-79512000D01*
X103815000Y-79513000D01*
X103813000Y-79515000D01*
X103810000Y-79516000D01*
X103808000Y-79517000D01*
X103805000Y-79518000D01*
X103803000Y-79518000D01*
X103800000Y-79519000D01*
X103798000Y-79519000D01*
X103795000Y-79520000D01*
X103793000Y-79520000D01*
X103790000Y-79520000D01*
X103510000Y-79520000D01*
X103507000Y-79520000D01*
X103505000Y-79520000D01*
X103502000Y-79519000D01*
X103500000Y-79519000D01*
X103497000Y-79518000D01*
X103495000Y-79518000D01*
X103492000Y-79517000D01*
X103490000Y-79516000D01*
X103487000Y-79515000D01*
X103485000Y-79513000D01*
X103483000Y-79512000D01*
X103481000Y-79510000D01*
X103479000Y-79509000D01*
X103477000Y-79507000D01*
X103475000Y-79505000D01*
X103473000Y-79503000D01*
X103471000Y-79501000D01*
X103470000Y-79499000D01*
X103468000Y-79497000D01*
X103467000Y-79495000D01*
X103465000Y-79493000D01*
X103464000Y-79490000D01*
X103463000Y-79488000D01*
X103462000Y-79485000D01*
X103462000Y-79483000D01*
X103461000Y-79480000D01*
X103461000Y-79478000D01*
X103460000Y-79475000D01*
X103460000Y-79473000D01*
X103460000Y-79470000D01*
X103460000Y-78830000D01*
X103460000Y-78827000D01*
X103460000Y-78825000D01*
X103461000Y-78822000D01*
X103461000Y-78820000D01*
X103462000Y-78817000D01*
X103462000Y-78815000D01*
X103463000Y-78812000D01*
X103464000Y-78810000D01*
X103465000Y-78807000D01*
X103467000Y-78805000D01*
X103468000Y-78803000D01*
X103470000Y-78801000D01*
X103471000Y-78799000D01*
X103473000Y-78797000D01*
X103475000Y-78795000D01*
X103477000Y-78793000D01*
X103479000Y-78791000D01*
X103481000Y-78790000D01*
X103483000Y-78788000D01*
X103485000Y-78787000D01*
X103487000Y-78785000D01*
X103490000Y-78784000D01*
X103492000Y-78783000D01*
X103495000Y-78782000D01*
X103497000Y-78782000D01*
X103500000Y-78781000D01*
X103502000Y-78781000D01*
X103505000Y-78780000D01*
X103507000Y-78780000D01*
X103510000Y-78780000D01*
X103790000Y-78780000D01*
X103793000Y-78780000D01*
X103795000Y-78780000D01*
X103798000Y-78781000D01*
G36*
X103798000Y-78781000D02*
G01*
X103800000Y-78781000D01*
X103803000Y-78782000D01*
X103805000Y-78782000D01*
X103808000Y-78783000D01*
X103810000Y-78784000D01*
X103813000Y-78785000D01*
X103815000Y-78787000D01*
X103817000Y-78788000D01*
X103819000Y-78790000D01*
X103821000Y-78791000D01*
X103823000Y-78793000D01*
X103825000Y-78795000D01*
X103827000Y-78797000D01*
X103829000Y-78799000D01*
X103830000Y-78801000D01*
X103832000Y-78803000D01*
X103833000Y-78805000D01*
X103835000Y-78807000D01*
X103836000Y-78810000D01*
X103837000Y-78812000D01*
X103838000Y-78815000D01*
X103838000Y-78817000D01*
X103839000Y-78820000D01*
X103839000Y-78822000D01*
X103840000Y-78825000D01*
X103840000Y-78827000D01*
X103840000Y-78830000D01*
X103840000Y-79470000D01*
X103840000Y-79473000D01*
X103840000Y-79475000D01*
X103839000Y-79478000D01*
X103839000Y-79480000D01*
X103838000Y-79483000D01*
X103838000Y-79485000D01*
X103837000Y-79488000D01*
X103836000Y-79490000D01*
X103835000Y-79493000D01*
X103833000Y-79495000D01*
X103832000Y-79497000D01*
X103830000Y-79499000D01*
X103829000Y-79501000D01*
X103827000Y-79503000D01*
X103825000Y-79505000D01*
X103823000Y-79507000D01*
X103821000Y-79509000D01*
X103819000Y-79510000D01*
X103817000Y-79512000D01*
X103815000Y-79513000D01*
X103813000Y-79515000D01*
X103810000Y-79516000D01*
X103808000Y-79517000D01*
X103805000Y-79518000D01*
X103803000Y-79518000D01*
X103800000Y-79519000D01*
X103798000Y-79519000D01*
X103795000Y-79520000D01*
X103793000Y-79520000D01*
X103790000Y-79520000D01*
X103510000Y-79520000D01*
X103507000Y-79520000D01*
X103505000Y-79520000D01*
X103502000Y-79519000D01*
X103500000Y-79519000D01*
X103497000Y-79518000D01*
X103495000Y-79518000D01*
X103492000Y-79517000D01*
X103490000Y-79516000D01*
X103487000Y-79515000D01*
X103485000Y-79513000D01*
X103483000Y-79512000D01*
X103481000Y-79510000D01*
X103479000Y-79509000D01*
X103477000Y-79507000D01*
X103475000Y-79505000D01*
X103473000Y-79503000D01*
X103471000Y-79501000D01*
X103470000Y-79499000D01*
X103468000Y-79497000D01*
X103467000Y-79495000D01*
X103465000Y-79493000D01*
X103464000Y-79490000D01*
X103463000Y-79488000D01*
X103462000Y-79485000D01*
X103462000Y-79483000D01*
X103461000Y-79480000D01*
X103461000Y-79478000D01*
X103460000Y-79475000D01*
X103460000Y-79473000D01*
X103460000Y-79470000D01*
X103460000Y-78830000D01*
X103460000Y-78827000D01*
X103460000Y-78825000D01*
X103461000Y-78822000D01*
X103461000Y-78820000D01*
X103462000Y-78817000D01*
X103462000Y-78815000D01*
X103463000Y-78812000D01*
X103464000Y-78810000D01*
X103465000Y-78807000D01*
X103467000Y-78805000D01*
X103468000Y-78803000D01*
X103470000Y-78801000D01*
X103471000Y-78799000D01*
X103473000Y-78797000D01*
X103475000Y-78795000D01*
X103477000Y-78793000D01*
X103479000Y-78791000D01*
X103481000Y-78790000D01*
X103483000Y-78788000D01*
X103485000Y-78787000D01*
X103487000Y-78785000D01*
X103490000Y-78784000D01*
X103492000Y-78783000D01*
X103495000Y-78782000D01*
X103497000Y-78782000D01*
X103500000Y-78781000D01*
X103502000Y-78781000D01*
X103505000Y-78780000D01*
X103507000Y-78780000D01*
X103510000Y-78780000D01*
X103790000Y-78780000D01*
X103793000Y-78780000D01*
X103795000Y-78780000D01*
X103798000Y-78781000D01*
G37*
X104298000Y-75981000D02*
X104300000Y-75981000D01*
X104303000Y-75982000D01*
X104305000Y-75982000D01*
X104308000Y-75983000D01*
X104310000Y-75984000D01*
X104313000Y-75985000D01*
X104315000Y-75987000D01*
X104317000Y-75988000D01*
X104319000Y-75990000D01*
X104321000Y-75991000D01*
X104323000Y-75993000D01*
X104325000Y-75995000D01*
X104327000Y-75997000D01*
X104329000Y-75999000D01*
X104330000Y-76001000D01*
X104332000Y-76003000D01*
X104333000Y-76005000D01*
X104335000Y-76007000D01*
X104336000Y-76010000D01*
X104337000Y-76012000D01*
X104338000Y-76015000D01*
X104338000Y-76017000D01*
X104339000Y-76020000D01*
X104339000Y-76022000D01*
X104340000Y-76025000D01*
X104340000Y-76027000D01*
X104340000Y-76030000D01*
X104340000Y-76670000D01*
X104340000Y-76673000D01*
X104340000Y-76675000D01*
X104339000Y-76678000D01*
X104339000Y-76680000D01*
X104338000Y-76683000D01*
X104338000Y-76685000D01*
X104337000Y-76688000D01*
X104336000Y-76690000D01*
X104335000Y-76693000D01*
X104333000Y-76695000D01*
X104332000Y-76697000D01*
X104330000Y-76699000D01*
X104329000Y-76701000D01*
X104327000Y-76703000D01*
X104325000Y-76705000D01*
X104323000Y-76707000D01*
X104321000Y-76709000D01*
X104319000Y-76710000D01*
X104317000Y-76712000D01*
X104315000Y-76713000D01*
X104313000Y-76715000D01*
X104310000Y-76716000D01*
X104308000Y-76717000D01*
X104305000Y-76718000D01*
X104303000Y-76718000D01*
X104300000Y-76719000D01*
X104298000Y-76719000D01*
X104295000Y-76720000D01*
X104293000Y-76720000D01*
X104290000Y-76720000D01*
X104010000Y-76720000D01*
X104007000Y-76720000D01*
X104005000Y-76720000D01*
X104002000Y-76719000D01*
X104000000Y-76719000D01*
X103997000Y-76718000D01*
X103995000Y-76718000D01*
X103992000Y-76717000D01*
X103990000Y-76716000D01*
X103987000Y-76715000D01*
X103985000Y-76713000D01*
X103983000Y-76712000D01*
X103981000Y-76710000D01*
X103979000Y-76709000D01*
X103977000Y-76707000D01*
X103975000Y-76705000D01*
X103973000Y-76703000D01*
X103971000Y-76701000D01*
X103970000Y-76699000D01*
X103968000Y-76697000D01*
X103967000Y-76695000D01*
X103965000Y-76693000D01*
X103964000Y-76690000D01*
X103963000Y-76688000D01*
X103962000Y-76685000D01*
X103962000Y-76683000D01*
X103961000Y-76680000D01*
X103961000Y-76678000D01*
X103960000Y-76675000D01*
X103960000Y-76673000D01*
X103960000Y-76670000D01*
X103960000Y-76030000D01*
X103960000Y-76027000D01*
X103960000Y-76025000D01*
X103961000Y-76022000D01*
X103961000Y-76020000D01*
X103962000Y-76017000D01*
X103962000Y-76015000D01*
X103963000Y-76012000D01*
X103964000Y-76010000D01*
X103965000Y-76007000D01*
X103967000Y-76005000D01*
X103968000Y-76003000D01*
X103970000Y-76001000D01*
X103971000Y-75999000D01*
X103973000Y-75997000D01*
X103975000Y-75995000D01*
X103977000Y-75993000D01*
X103979000Y-75991000D01*
X103981000Y-75990000D01*
X103983000Y-75988000D01*
X103985000Y-75987000D01*
X103987000Y-75985000D01*
X103990000Y-75984000D01*
X103992000Y-75983000D01*
X103995000Y-75982000D01*
X103997000Y-75982000D01*
X104000000Y-75981000D01*
X104002000Y-75981000D01*
X104005000Y-75980000D01*
X104007000Y-75980000D01*
X104010000Y-75980000D01*
X104290000Y-75980000D01*
X104293000Y-75980000D01*
X104295000Y-75980000D01*
X104298000Y-75981000D01*
G36*
X104298000Y-75981000D02*
G01*
X104300000Y-75981000D01*
X104303000Y-75982000D01*
X104305000Y-75982000D01*
X104308000Y-75983000D01*
X104310000Y-75984000D01*
X104313000Y-75985000D01*
X104315000Y-75987000D01*
X104317000Y-75988000D01*
X104319000Y-75990000D01*
X104321000Y-75991000D01*
X104323000Y-75993000D01*
X104325000Y-75995000D01*
X104327000Y-75997000D01*
X104329000Y-75999000D01*
X104330000Y-76001000D01*
X104332000Y-76003000D01*
X104333000Y-76005000D01*
X104335000Y-76007000D01*
X104336000Y-76010000D01*
X104337000Y-76012000D01*
X104338000Y-76015000D01*
X104338000Y-76017000D01*
X104339000Y-76020000D01*
X104339000Y-76022000D01*
X104340000Y-76025000D01*
X104340000Y-76027000D01*
X104340000Y-76030000D01*
X104340000Y-76670000D01*
X104340000Y-76673000D01*
X104340000Y-76675000D01*
X104339000Y-76678000D01*
X104339000Y-76680000D01*
X104338000Y-76683000D01*
X104338000Y-76685000D01*
X104337000Y-76688000D01*
X104336000Y-76690000D01*
X104335000Y-76693000D01*
X104333000Y-76695000D01*
X104332000Y-76697000D01*
X104330000Y-76699000D01*
X104329000Y-76701000D01*
X104327000Y-76703000D01*
X104325000Y-76705000D01*
X104323000Y-76707000D01*
X104321000Y-76709000D01*
X104319000Y-76710000D01*
X104317000Y-76712000D01*
X104315000Y-76713000D01*
X104313000Y-76715000D01*
X104310000Y-76716000D01*
X104308000Y-76717000D01*
X104305000Y-76718000D01*
X104303000Y-76718000D01*
X104300000Y-76719000D01*
X104298000Y-76719000D01*
X104295000Y-76720000D01*
X104293000Y-76720000D01*
X104290000Y-76720000D01*
X104010000Y-76720000D01*
X104007000Y-76720000D01*
X104005000Y-76720000D01*
X104002000Y-76719000D01*
X104000000Y-76719000D01*
X103997000Y-76718000D01*
X103995000Y-76718000D01*
X103992000Y-76717000D01*
X103990000Y-76716000D01*
X103987000Y-76715000D01*
X103985000Y-76713000D01*
X103983000Y-76712000D01*
X103981000Y-76710000D01*
X103979000Y-76709000D01*
X103977000Y-76707000D01*
X103975000Y-76705000D01*
X103973000Y-76703000D01*
X103971000Y-76701000D01*
X103970000Y-76699000D01*
X103968000Y-76697000D01*
X103967000Y-76695000D01*
X103965000Y-76693000D01*
X103964000Y-76690000D01*
X103963000Y-76688000D01*
X103962000Y-76685000D01*
X103962000Y-76683000D01*
X103961000Y-76680000D01*
X103961000Y-76678000D01*
X103960000Y-76675000D01*
X103960000Y-76673000D01*
X103960000Y-76670000D01*
X103960000Y-76030000D01*
X103960000Y-76027000D01*
X103960000Y-76025000D01*
X103961000Y-76022000D01*
X103961000Y-76020000D01*
X103962000Y-76017000D01*
X103962000Y-76015000D01*
X103963000Y-76012000D01*
X103964000Y-76010000D01*
X103965000Y-76007000D01*
X103967000Y-76005000D01*
X103968000Y-76003000D01*
X103970000Y-76001000D01*
X103971000Y-75999000D01*
X103973000Y-75997000D01*
X103975000Y-75995000D01*
X103977000Y-75993000D01*
X103979000Y-75991000D01*
X103981000Y-75990000D01*
X103983000Y-75988000D01*
X103985000Y-75987000D01*
X103987000Y-75985000D01*
X103990000Y-75984000D01*
X103992000Y-75983000D01*
X103995000Y-75982000D01*
X103997000Y-75982000D01*
X104000000Y-75981000D01*
X104002000Y-75981000D01*
X104005000Y-75980000D01*
X104007000Y-75980000D01*
X104010000Y-75980000D01*
X104290000Y-75980000D01*
X104293000Y-75980000D01*
X104295000Y-75980000D01*
X104298000Y-75981000D01*
G37*
X104298000Y-78781000D02*
X104300000Y-78781000D01*
X104303000Y-78782000D01*
X104305000Y-78782000D01*
X104308000Y-78783000D01*
X104310000Y-78784000D01*
X104313000Y-78785000D01*
X104315000Y-78787000D01*
X104317000Y-78788000D01*
X104319000Y-78790000D01*
X104321000Y-78791000D01*
X104323000Y-78793000D01*
X104325000Y-78795000D01*
X104327000Y-78797000D01*
X104329000Y-78799000D01*
X104330000Y-78801000D01*
X104332000Y-78803000D01*
X104333000Y-78805000D01*
X104335000Y-78807000D01*
X104336000Y-78810000D01*
X104337000Y-78812000D01*
X104338000Y-78815000D01*
X104338000Y-78817000D01*
X104339000Y-78820000D01*
X104339000Y-78822000D01*
X104340000Y-78825000D01*
X104340000Y-78827000D01*
X104340000Y-78830000D01*
X104340000Y-79470000D01*
X104340000Y-79473000D01*
X104340000Y-79475000D01*
X104339000Y-79478000D01*
X104339000Y-79480000D01*
X104338000Y-79483000D01*
X104338000Y-79485000D01*
X104337000Y-79488000D01*
X104336000Y-79490000D01*
X104335000Y-79493000D01*
X104333000Y-79495000D01*
X104332000Y-79497000D01*
X104330000Y-79499000D01*
X104329000Y-79501000D01*
X104327000Y-79503000D01*
X104325000Y-79505000D01*
X104323000Y-79507000D01*
X104321000Y-79509000D01*
X104319000Y-79510000D01*
X104317000Y-79512000D01*
X104315000Y-79513000D01*
X104313000Y-79515000D01*
X104310000Y-79516000D01*
X104308000Y-79517000D01*
X104305000Y-79518000D01*
X104303000Y-79518000D01*
X104300000Y-79519000D01*
X104298000Y-79519000D01*
X104295000Y-79520000D01*
X104293000Y-79520000D01*
X104290000Y-79520000D01*
X104010000Y-79520000D01*
X104007000Y-79520000D01*
X104005000Y-79520000D01*
X104002000Y-79519000D01*
X104000000Y-79519000D01*
X103997000Y-79518000D01*
X103995000Y-79518000D01*
X103992000Y-79517000D01*
X103990000Y-79516000D01*
X103987000Y-79515000D01*
X103985000Y-79513000D01*
X103983000Y-79512000D01*
X103981000Y-79510000D01*
X103979000Y-79509000D01*
X103977000Y-79507000D01*
X103975000Y-79505000D01*
X103973000Y-79503000D01*
X103971000Y-79501000D01*
X103970000Y-79499000D01*
X103968000Y-79497000D01*
X103967000Y-79495000D01*
X103965000Y-79493000D01*
X103964000Y-79490000D01*
X103963000Y-79488000D01*
X103962000Y-79485000D01*
X103962000Y-79483000D01*
X103961000Y-79480000D01*
X103961000Y-79478000D01*
X103960000Y-79475000D01*
X103960000Y-79473000D01*
X103960000Y-79470000D01*
X103960000Y-78830000D01*
X103960000Y-78827000D01*
X103960000Y-78825000D01*
X103961000Y-78822000D01*
X103961000Y-78820000D01*
X103962000Y-78817000D01*
X103962000Y-78815000D01*
X103963000Y-78812000D01*
X103964000Y-78810000D01*
X103965000Y-78807000D01*
X103967000Y-78805000D01*
X103968000Y-78803000D01*
X103970000Y-78801000D01*
X103971000Y-78799000D01*
X103973000Y-78797000D01*
X103975000Y-78795000D01*
X103977000Y-78793000D01*
X103979000Y-78791000D01*
X103981000Y-78790000D01*
X103983000Y-78788000D01*
X103985000Y-78787000D01*
X103987000Y-78785000D01*
X103990000Y-78784000D01*
X103992000Y-78783000D01*
X103995000Y-78782000D01*
X103997000Y-78782000D01*
X104000000Y-78781000D01*
X104002000Y-78781000D01*
X104005000Y-78780000D01*
X104007000Y-78780000D01*
X104010000Y-78780000D01*
X104290000Y-78780000D01*
X104293000Y-78780000D01*
X104295000Y-78780000D01*
X104298000Y-78781000D01*
G36*
X104298000Y-78781000D02*
G01*
X104300000Y-78781000D01*
X104303000Y-78782000D01*
X104305000Y-78782000D01*
X104308000Y-78783000D01*
X104310000Y-78784000D01*
X104313000Y-78785000D01*
X104315000Y-78787000D01*
X104317000Y-78788000D01*
X104319000Y-78790000D01*
X104321000Y-78791000D01*
X104323000Y-78793000D01*
X104325000Y-78795000D01*
X104327000Y-78797000D01*
X104329000Y-78799000D01*
X104330000Y-78801000D01*
X104332000Y-78803000D01*
X104333000Y-78805000D01*
X104335000Y-78807000D01*
X104336000Y-78810000D01*
X104337000Y-78812000D01*
X104338000Y-78815000D01*
X104338000Y-78817000D01*
X104339000Y-78820000D01*
X104339000Y-78822000D01*
X104340000Y-78825000D01*
X104340000Y-78827000D01*
X104340000Y-78830000D01*
X104340000Y-79470000D01*
X104340000Y-79473000D01*
X104340000Y-79475000D01*
X104339000Y-79478000D01*
X104339000Y-79480000D01*
X104338000Y-79483000D01*
X104338000Y-79485000D01*
X104337000Y-79488000D01*
X104336000Y-79490000D01*
X104335000Y-79493000D01*
X104333000Y-79495000D01*
X104332000Y-79497000D01*
X104330000Y-79499000D01*
X104329000Y-79501000D01*
X104327000Y-79503000D01*
X104325000Y-79505000D01*
X104323000Y-79507000D01*
X104321000Y-79509000D01*
X104319000Y-79510000D01*
X104317000Y-79512000D01*
X104315000Y-79513000D01*
X104313000Y-79515000D01*
X104310000Y-79516000D01*
X104308000Y-79517000D01*
X104305000Y-79518000D01*
X104303000Y-79518000D01*
X104300000Y-79519000D01*
X104298000Y-79519000D01*
X104295000Y-79520000D01*
X104293000Y-79520000D01*
X104290000Y-79520000D01*
X104010000Y-79520000D01*
X104007000Y-79520000D01*
X104005000Y-79520000D01*
X104002000Y-79519000D01*
X104000000Y-79519000D01*
X103997000Y-79518000D01*
X103995000Y-79518000D01*
X103992000Y-79517000D01*
X103990000Y-79516000D01*
X103987000Y-79515000D01*
X103985000Y-79513000D01*
X103983000Y-79512000D01*
X103981000Y-79510000D01*
X103979000Y-79509000D01*
X103977000Y-79507000D01*
X103975000Y-79505000D01*
X103973000Y-79503000D01*
X103971000Y-79501000D01*
X103970000Y-79499000D01*
X103968000Y-79497000D01*
X103967000Y-79495000D01*
X103965000Y-79493000D01*
X103964000Y-79490000D01*
X103963000Y-79488000D01*
X103962000Y-79485000D01*
X103962000Y-79483000D01*
X103961000Y-79480000D01*
X103961000Y-79478000D01*
X103960000Y-79475000D01*
X103960000Y-79473000D01*
X103960000Y-79470000D01*
X103960000Y-78830000D01*
X103960000Y-78827000D01*
X103960000Y-78825000D01*
X103961000Y-78822000D01*
X103961000Y-78820000D01*
X103962000Y-78817000D01*
X103962000Y-78815000D01*
X103963000Y-78812000D01*
X103964000Y-78810000D01*
X103965000Y-78807000D01*
X103967000Y-78805000D01*
X103968000Y-78803000D01*
X103970000Y-78801000D01*
X103971000Y-78799000D01*
X103973000Y-78797000D01*
X103975000Y-78795000D01*
X103977000Y-78793000D01*
X103979000Y-78791000D01*
X103981000Y-78790000D01*
X103983000Y-78788000D01*
X103985000Y-78787000D01*
X103987000Y-78785000D01*
X103990000Y-78784000D01*
X103992000Y-78783000D01*
X103995000Y-78782000D01*
X103997000Y-78782000D01*
X104000000Y-78781000D01*
X104002000Y-78781000D01*
X104005000Y-78780000D01*
X104007000Y-78780000D01*
X104010000Y-78780000D01*
X104290000Y-78780000D01*
X104293000Y-78780000D01*
X104295000Y-78780000D01*
X104298000Y-78781000D01*
G37*
X104798000Y-75981000D02*
X104800000Y-75981000D01*
X104803000Y-75982000D01*
X104805000Y-75982000D01*
X104808000Y-75983000D01*
X104810000Y-75984000D01*
X104813000Y-75985000D01*
X104815000Y-75987000D01*
X104817000Y-75988000D01*
X104819000Y-75990000D01*
X104821000Y-75991000D01*
X104823000Y-75993000D01*
X104825000Y-75995000D01*
X104827000Y-75997000D01*
X104829000Y-75999000D01*
X104830000Y-76001000D01*
X104832000Y-76003000D01*
X104833000Y-76005000D01*
X104835000Y-76007000D01*
X104836000Y-76010000D01*
X104837000Y-76012000D01*
X104838000Y-76015000D01*
X104838000Y-76017000D01*
X104839000Y-76020000D01*
X104839000Y-76022000D01*
X104840000Y-76025000D01*
X104840000Y-76027000D01*
X104840000Y-76030000D01*
X104840000Y-76670000D01*
X104840000Y-76673000D01*
X104840000Y-76675000D01*
X104839000Y-76678000D01*
X104839000Y-76680000D01*
X104838000Y-76683000D01*
X104838000Y-76685000D01*
X104837000Y-76688000D01*
X104836000Y-76690000D01*
X104835000Y-76693000D01*
X104833000Y-76695000D01*
X104832000Y-76697000D01*
X104830000Y-76699000D01*
X104829000Y-76701000D01*
X104827000Y-76703000D01*
X104825000Y-76705000D01*
X104823000Y-76707000D01*
X104821000Y-76709000D01*
X104819000Y-76710000D01*
X104817000Y-76712000D01*
X104815000Y-76713000D01*
X104813000Y-76715000D01*
X104810000Y-76716000D01*
X104808000Y-76717000D01*
X104805000Y-76718000D01*
X104803000Y-76718000D01*
X104800000Y-76719000D01*
X104798000Y-76719000D01*
X104795000Y-76720000D01*
X104793000Y-76720000D01*
X104790000Y-76720000D01*
X104510000Y-76720000D01*
X104507000Y-76720000D01*
X104505000Y-76720000D01*
X104502000Y-76719000D01*
X104500000Y-76719000D01*
X104497000Y-76718000D01*
X104495000Y-76718000D01*
X104492000Y-76717000D01*
X104490000Y-76716000D01*
X104487000Y-76715000D01*
X104485000Y-76713000D01*
X104483000Y-76712000D01*
X104481000Y-76710000D01*
X104479000Y-76709000D01*
X104477000Y-76707000D01*
X104475000Y-76705000D01*
X104473000Y-76703000D01*
X104471000Y-76701000D01*
X104470000Y-76699000D01*
X104468000Y-76697000D01*
X104467000Y-76695000D01*
X104465000Y-76693000D01*
X104464000Y-76690000D01*
X104463000Y-76688000D01*
X104462000Y-76685000D01*
X104462000Y-76683000D01*
X104461000Y-76680000D01*
X104461000Y-76678000D01*
X104460000Y-76675000D01*
X104460000Y-76673000D01*
X104460000Y-76670000D01*
X104460000Y-76030000D01*
X104460000Y-76027000D01*
X104460000Y-76025000D01*
X104461000Y-76022000D01*
X104461000Y-76020000D01*
X104462000Y-76017000D01*
X104462000Y-76015000D01*
X104463000Y-76012000D01*
X104464000Y-76010000D01*
X104465000Y-76007000D01*
X104467000Y-76005000D01*
X104468000Y-76003000D01*
X104470000Y-76001000D01*
X104471000Y-75999000D01*
X104473000Y-75997000D01*
X104475000Y-75995000D01*
X104477000Y-75993000D01*
X104479000Y-75991000D01*
X104481000Y-75990000D01*
X104483000Y-75988000D01*
X104485000Y-75987000D01*
X104487000Y-75985000D01*
X104490000Y-75984000D01*
X104492000Y-75983000D01*
X104495000Y-75982000D01*
X104497000Y-75982000D01*
X104500000Y-75981000D01*
X104502000Y-75981000D01*
X104505000Y-75980000D01*
X104507000Y-75980000D01*
X104510000Y-75980000D01*
X104790000Y-75980000D01*
X104793000Y-75980000D01*
X104795000Y-75980000D01*
X104798000Y-75981000D01*
G36*
X104798000Y-75981000D02*
G01*
X104800000Y-75981000D01*
X104803000Y-75982000D01*
X104805000Y-75982000D01*
X104808000Y-75983000D01*
X104810000Y-75984000D01*
X104813000Y-75985000D01*
X104815000Y-75987000D01*
X104817000Y-75988000D01*
X104819000Y-75990000D01*
X104821000Y-75991000D01*
X104823000Y-75993000D01*
X104825000Y-75995000D01*
X104827000Y-75997000D01*
X104829000Y-75999000D01*
X104830000Y-76001000D01*
X104832000Y-76003000D01*
X104833000Y-76005000D01*
X104835000Y-76007000D01*
X104836000Y-76010000D01*
X104837000Y-76012000D01*
X104838000Y-76015000D01*
X104838000Y-76017000D01*
X104839000Y-76020000D01*
X104839000Y-76022000D01*
X104840000Y-76025000D01*
X104840000Y-76027000D01*
X104840000Y-76030000D01*
X104840000Y-76670000D01*
X104840000Y-76673000D01*
X104840000Y-76675000D01*
X104839000Y-76678000D01*
X104839000Y-76680000D01*
X104838000Y-76683000D01*
X104838000Y-76685000D01*
X104837000Y-76688000D01*
X104836000Y-76690000D01*
X104835000Y-76693000D01*
X104833000Y-76695000D01*
X104832000Y-76697000D01*
X104830000Y-76699000D01*
X104829000Y-76701000D01*
X104827000Y-76703000D01*
X104825000Y-76705000D01*
X104823000Y-76707000D01*
X104821000Y-76709000D01*
X104819000Y-76710000D01*
X104817000Y-76712000D01*
X104815000Y-76713000D01*
X104813000Y-76715000D01*
X104810000Y-76716000D01*
X104808000Y-76717000D01*
X104805000Y-76718000D01*
X104803000Y-76718000D01*
X104800000Y-76719000D01*
X104798000Y-76719000D01*
X104795000Y-76720000D01*
X104793000Y-76720000D01*
X104790000Y-76720000D01*
X104510000Y-76720000D01*
X104507000Y-76720000D01*
X104505000Y-76720000D01*
X104502000Y-76719000D01*
X104500000Y-76719000D01*
X104497000Y-76718000D01*
X104495000Y-76718000D01*
X104492000Y-76717000D01*
X104490000Y-76716000D01*
X104487000Y-76715000D01*
X104485000Y-76713000D01*
X104483000Y-76712000D01*
X104481000Y-76710000D01*
X104479000Y-76709000D01*
X104477000Y-76707000D01*
X104475000Y-76705000D01*
X104473000Y-76703000D01*
X104471000Y-76701000D01*
X104470000Y-76699000D01*
X104468000Y-76697000D01*
X104467000Y-76695000D01*
X104465000Y-76693000D01*
X104464000Y-76690000D01*
X104463000Y-76688000D01*
X104462000Y-76685000D01*
X104462000Y-76683000D01*
X104461000Y-76680000D01*
X104461000Y-76678000D01*
X104460000Y-76675000D01*
X104460000Y-76673000D01*
X104460000Y-76670000D01*
X104460000Y-76030000D01*
X104460000Y-76027000D01*
X104460000Y-76025000D01*
X104461000Y-76022000D01*
X104461000Y-76020000D01*
X104462000Y-76017000D01*
X104462000Y-76015000D01*
X104463000Y-76012000D01*
X104464000Y-76010000D01*
X104465000Y-76007000D01*
X104467000Y-76005000D01*
X104468000Y-76003000D01*
X104470000Y-76001000D01*
X104471000Y-75999000D01*
X104473000Y-75997000D01*
X104475000Y-75995000D01*
X104477000Y-75993000D01*
X104479000Y-75991000D01*
X104481000Y-75990000D01*
X104483000Y-75988000D01*
X104485000Y-75987000D01*
X104487000Y-75985000D01*
X104490000Y-75984000D01*
X104492000Y-75983000D01*
X104495000Y-75982000D01*
X104497000Y-75982000D01*
X104500000Y-75981000D01*
X104502000Y-75981000D01*
X104505000Y-75980000D01*
X104507000Y-75980000D01*
X104510000Y-75980000D01*
X104790000Y-75980000D01*
X104793000Y-75980000D01*
X104795000Y-75980000D01*
X104798000Y-75981000D01*
G37*
X104798000Y-78781000D02*
X104800000Y-78781000D01*
X104803000Y-78782000D01*
X104805000Y-78782000D01*
X104808000Y-78783000D01*
X104810000Y-78784000D01*
X104813000Y-78785000D01*
X104815000Y-78787000D01*
X104817000Y-78788000D01*
X104819000Y-78790000D01*
X104821000Y-78791000D01*
X104823000Y-78793000D01*
X104825000Y-78795000D01*
X104827000Y-78797000D01*
X104829000Y-78799000D01*
X104830000Y-78801000D01*
X104832000Y-78803000D01*
X104833000Y-78805000D01*
X104835000Y-78807000D01*
X104836000Y-78810000D01*
X104837000Y-78812000D01*
X104838000Y-78815000D01*
X104838000Y-78817000D01*
X104839000Y-78820000D01*
X104839000Y-78822000D01*
X104840000Y-78825000D01*
X104840000Y-78827000D01*
X104840000Y-78830000D01*
X104840000Y-79470000D01*
X104840000Y-79473000D01*
X104840000Y-79475000D01*
X104839000Y-79478000D01*
X104839000Y-79480000D01*
X104838000Y-79483000D01*
X104838000Y-79485000D01*
X104837000Y-79488000D01*
X104836000Y-79490000D01*
X104835000Y-79493000D01*
X104833000Y-79495000D01*
X104832000Y-79497000D01*
X104830000Y-79499000D01*
X104829000Y-79501000D01*
X104827000Y-79503000D01*
X104825000Y-79505000D01*
X104823000Y-79507000D01*
X104821000Y-79509000D01*
X104819000Y-79510000D01*
X104817000Y-79512000D01*
X104815000Y-79513000D01*
X104813000Y-79515000D01*
X104810000Y-79516000D01*
X104808000Y-79517000D01*
X104805000Y-79518000D01*
X104803000Y-79518000D01*
X104800000Y-79519000D01*
X104798000Y-79519000D01*
X104795000Y-79520000D01*
X104793000Y-79520000D01*
X104790000Y-79520000D01*
X104510000Y-79520000D01*
X104507000Y-79520000D01*
X104505000Y-79520000D01*
X104502000Y-79519000D01*
X104500000Y-79519000D01*
X104497000Y-79518000D01*
X104495000Y-79518000D01*
X104492000Y-79517000D01*
X104490000Y-79516000D01*
X104487000Y-79515000D01*
X104485000Y-79513000D01*
X104483000Y-79512000D01*
X104481000Y-79510000D01*
X104479000Y-79509000D01*
X104477000Y-79507000D01*
X104475000Y-79505000D01*
X104473000Y-79503000D01*
X104471000Y-79501000D01*
X104470000Y-79499000D01*
X104468000Y-79497000D01*
X104467000Y-79495000D01*
X104465000Y-79493000D01*
X104464000Y-79490000D01*
X104463000Y-79488000D01*
X104462000Y-79485000D01*
X104462000Y-79483000D01*
X104461000Y-79480000D01*
X104461000Y-79478000D01*
X104460000Y-79475000D01*
X104460000Y-79473000D01*
X104460000Y-79470000D01*
X104460000Y-78830000D01*
X104460000Y-78827000D01*
X104460000Y-78825000D01*
X104461000Y-78822000D01*
X104461000Y-78820000D01*
X104462000Y-78817000D01*
X104462000Y-78815000D01*
X104463000Y-78812000D01*
X104464000Y-78810000D01*
X104465000Y-78807000D01*
X104467000Y-78805000D01*
X104468000Y-78803000D01*
X104470000Y-78801000D01*
X104471000Y-78799000D01*
X104473000Y-78797000D01*
X104475000Y-78795000D01*
X104477000Y-78793000D01*
X104479000Y-78791000D01*
X104481000Y-78790000D01*
X104483000Y-78788000D01*
X104485000Y-78787000D01*
X104487000Y-78785000D01*
X104490000Y-78784000D01*
X104492000Y-78783000D01*
X104495000Y-78782000D01*
X104497000Y-78782000D01*
X104500000Y-78781000D01*
X104502000Y-78781000D01*
X104505000Y-78780000D01*
X104507000Y-78780000D01*
X104510000Y-78780000D01*
X104790000Y-78780000D01*
X104793000Y-78780000D01*
X104795000Y-78780000D01*
X104798000Y-78781000D01*
G36*
X104798000Y-78781000D02*
G01*
X104800000Y-78781000D01*
X104803000Y-78782000D01*
X104805000Y-78782000D01*
X104808000Y-78783000D01*
X104810000Y-78784000D01*
X104813000Y-78785000D01*
X104815000Y-78787000D01*
X104817000Y-78788000D01*
X104819000Y-78790000D01*
X104821000Y-78791000D01*
X104823000Y-78793000D01*
X104825000Y-78795000D01*
X104827000Y-78797000D01*
X104829000Y-78799000D01*
X104830000Y-78801000D01*
X104832000Y-78803000D01*
X104833000Y-78805000D01*
X104835000Y-78807000D01*
X104836000Y-78810000D01*
X104837000Y-78812000D01*
X104838000Y-78815000D01*
X104838000Y-78817000D01*
X104839000Y-78820000D01*
X104839000Y-78822000D01*
X104840000Y-78825000D01*
X104840000Y-78827000D01*
X104840000Y-78830000D01*
X104840000Y-79470000D01*
X104840000Y-79473000D01*
X104840000Y-79475000D01*
X104839000Y-79478000D01*
X104839000Y-79480000D01*
X104838000Y-79483000D01*
X104838000Y-79485000D01*
X104837000Y-79488000D01*
X104836000Y-79490000D01*
X104835000Y-79493000D01*
X104833000Y-79495000D01*
X104832000Y-79497000D01*
X104830000Y-79499000D01*
X104829000Y-79501000D01*
X104827000Y-79503000D01*
X104825000Y-79505000D01*
X104823000Y-79507000D01*
X104821000Y-79509000D01*
X104819000Y-79510000D01*
X104817000Y-79512000D01*
X104815000Y-79513000D01*
X104813000Y-79515000D01*
X104810000Y-79516000D01*
X104808000Y-79517000D01*
X104805000Y-79518000D01*
X104803000Y-79518000D01*
X104800000Y-79519000D01*
X104798000Y-79519000D01*
X104795000Y-79520000D01*
X104793000Y-79520000D01*
X104790000Y-79520000D01*
X104510000Y-79520000D01*
X104507000Y-79520000D01*
X104505000Y-79520000D01*
X104502000Y-79519000D01*
X104500000Y-79519000D01*
X104497000Y-79518000D01*
X104495000Y-79518000D01*
X104492000Y-79517000D01*
X104490000Y-79516000D01*
X104487000Y-79515000D01*
X104485000Y-79513000D01*
X104483000Y-79512000D01*
X104481000Y-79510000D01*
X104479000Y-79509000D01*
X104477000Y-79507000D01*
X104475000Y-79505000D01*
X104473000Y-79503000D01*
X104471000Y-79501000D01*
X104470000Y-79499000D01*
X104468000Y-79497000D01*
X104467000Y-79495000D01*
X104465000Y-79493000D01*
X104464000Y-79490000D01*
X104463000Y-79488000D01*
X104462000Y-79485000D01*
X104462000Y-79483000D01*
X104461000Y-79480000D01*
X104461000Y-79478000D01*
X104460000Y-79475000D01*
X104460000Y-79473000D01*
X104460000Y-79470000D01*
X104460000Y-78830000D01*
X104460000Y-78827000D01*
X104460000Y-78825000D01*
X104461000Y-78822000D01*
X104461000Y-78820000D01*
X104462000Y-78817000D01*
X104462000Y-78815000D01*
X104463000Y-78812000D01*
X104464000Y-78810000D01*
X104465000Y-78807000D01*
X104467000Y-78805000D01*
X104468000Y-78803000D01*
X104470000Y-78801000D01*
X104471000Y-78799000D01*
X104473000Y-78797000D01*
X104475000Y-78795000D01*
X104477000Y-78793000D01*
X104479000Y-78791000D01*
X104481000Y-78790000D01*
X104483000Y-78788000D01*
X104485000Y-78787000D01*
X104487000Y-78785000D01*
X104490000Y-78784000D01*
X104492000Y-78783000D01*
X104495000Y-78782000D01*
X104497000Y-78782000D01*
X104500000Y-78781000D01*
X104502000Y-78781000D01*
X104505000Y-78780000D01*
X104507000Y-78780000D01*
X104510000Y-78780000D01*
X104790000Y-78780000D01*
X104793000Y-78780000D01*
X104795000Y-78780000D01*
X104798000Y-78781000D01*
G37*
X104768000Y-76841000D02*
X104770000Y-76841000D01*
X104773000Y-76842000D01*
X104775000Y-76842000D01*
X104778000Y-76843000D01*
X104780000Y-76844000D01*
X104783000Y-76845000D01*
X104785000Y-76847000D01*
X104787000Y-76848000D01*
X104789000Y-76850000D01*
X104791000Y-76851000D01*
X104793000Y-76853000D01*
X104795000Y-76855000D01*
X104797000Y-76857000D01*
X104799000Y-76859000D01*
X104800000Y-76861000D01*
X104802000Y-76863000D01*
X104803000Y-76865000D01*
X104805000Y-76867000D01*
X104806000Y-76870000D01*
X104807000Y-76872000D01*
X104808000Y-76875000D01*
X104808000Y-76877000D01*
X104809000Y-76880000D01*
X104809000Y-76882000D01*
X104810000Y-76885000D01*
X104810000Y-76887000D01*
X104810000Y-76890000D01*
X104810000Y-78610000D01*
X104810000Y-78613000D01*
X104810000Y-78615000D01*
X104809000Y-78618000D01*
X104809000Y-78620000D01*
X104808000Y-78623000D01*
X104808000Y-78625000D01*
X104807000Y-78628000D01*
X104806000Y-78630000D01*
X104805000Y-78633000D01*
X104803000Y-78635000D01*
X104802000Y-78637000D01*
X104800000Y-78639000D01*
X104799000Y-78641000D01*
X104797000Y-78643000D01*
X104795000Y-78645000D01*
X104793000Y-78647000D01*
X104791000Y-78649000D01*
X104789000Y-78650000D01*
X104787000Y-78652000D01*
X104785000Y-78653000D01*
X104783000Y-78655000D01*
X104780000Y-78656000D01*
X104778000Y-78657000D01*
X104775000Y-78658000D01*
X104773000Y-78658000D01*
X104770000Y-78659000D01*
X104768000Y-78659000D01*
X104765000Y-78660000D01*
X104763000Y-78660000D01*
X104760000Y-78660000D01*
X103040000Y-78660000D01*
X103037000Y-78660000D01*
X103035000Y-78660000D01*
X103032000Y-78659000D01*
X103030000Y-78659000D01*
X103027000Y-78658000D01*
X103025000Y-78658000D01*
X103022000Y-78657000D01*
X103020000Y-78656000D01*
X103017000Y-78655000D01*
X103015000Y-78653000D01*
X103013000Y-78652000D01*
X103011000Y-78650000D01*
X103009000Y-78649000D01*
X103007000Y-78647000D01*
X103005000Y-78645000D01*
X103003000Y-78643000D01*
X103001000Y-78641000D01*
X103000000Y-78639000D01*
X102998000Y-78637000D01*
X102997000Y-78635000D01*
X102995000Y-78633000D01*
X102994000Y-78630000D01*
X102993000Y-78628000D01*
X102992000Y-78625000D01*
X102992000Y-78623000D01*
X102991000Y-78620000D01*
X102991000Y-78618000D01*
X102990000Y-78615000D01*
X102990000Y-78613000D01*
X102990000Y-78610000D01*
X102990000Y-76890000D01*
X102990000Y-76887000D01*
X102990000Y-76885000D01*
X102991000Y-76882000D01*
X102991000Y-76880000D01*
X102992000Y-76877000D01*
X102992000Y-76875000D01*
X102993000Y-76872000D01*
X102994000Y-76870000D01*
X102995000Y-76867000D01*
X102997000Y-76865000D01*
X102998000Y-76863000D01*
X103000000Y-76861000D01*
X103001000Y-76859000D01*
X103003000Y-76857000D01*
X103005000Y-76855000D01*
X103007000Y-76853000D01*
X103009000Y-76851000D01*
X103011000Y-76850000D01*
X103013000Y-76848000D01*
X103015000Y-76847000D01*
X103017000Y-76845000D01*
X103020000Y-76844000D01*
X103022000Y-76843000D01*
X103025000Y-76842000D01*
X103027000Y-76842000D01*
X103030000Y-76841000D01*
X103032000Y-76841000D01*
X103035000Y-76840000D01*
X103037000Y-76840000D01*
X103040000Y-76840000D01*
X104760000Y-76840000D01*
X104763000Y-76840000D01*
X104765000Y-76840000D01*
X104768000Y-76841000D01*
G36*
X104768000Y-76841000D02*
G01*
X104770000Y-76841000D01*
X104773000Y-76842000D01*
X104775000Y-76842000D01*
X104778000Y-76843000D01*
X104780000Y-76844000D01*
X104783000Y-76845000D01*
X104785000Y-76847000D01*
X104787000Y-76848000D01*
X104789000Y-76850000D01*
X104791000Y-76851000D01*
X104793000Y-76853000D01*
X104795000Y-76855000D01*
X104797000Y-76857000D01*
X104799000Y-76859000D01*
X104800000Y-76861000D01*
X104802000Y-76863000D01*
X104803000Y-76865000D01*
X104805000Y-76867000D01*
X104806000Y-76870000D01*
X104807000Y-76872000D01*
X104808000Y-76875000D01*
X104808000Y-76877000D01*
X104809000Y-76880000D01*
X104809000Y-76882000D01*
X104810000Y-76885000D01*
X104810000Y-76887000D01*
X104810000Y-76890000D01*
X104810000Y-78610000D01*
X104810000Y-78613000D01*
X104810000Y-78615000D01*
X104809000Y-78618000D01*
X104809000Y-78620000D01*
X104808000Y-78623000D01*
X104808000Y-78625000D01*
X104807000Y-78628000D01*
X104806000Y-78630000D01*
X104805000Y-78633000D01*
X104803000Y-78635000D01*
X104802000Y-78637000D01*
X104800000Y-78639000D01*
X104799000Y-78641000D01*
X104797000Y-78643000D01*
X104795000Y-78645000D01*
X104793000Y-78647000D01*
X104791000Y-78649000D01*
X104789000Y-78650000D01*
X104787000Y-78652000D01*
X104785000Y-78653000D01*
X104783000Y-78655000D01*
X104780000Y-78656000D01*
X104778000Y-78657000D01*
X104775000Y-78658000D01*
X104773000Y-78658000D01*
X104770000Y-78659000D01*
X104768000Y-78659000D01*
X104765000Y-78660000D01*
X104763000Y-78660000D01*
X104760000Y-78660000D01*
X103040000Y-78660000D01*
X103037000Y-78660000D01*
X103035000Y-78660000D01*
X103032000Y-78659000D01*
X103030000Y-78659000D01*
X103027000Y-78658000D01*
X103025000Y-78658000D01*
X103022000Y-78657000D01*
X103020000Y-78656000D01*
X103017000Y-78655000D01*
X103015000Y-78653000D01*
X103013000Y-78652000D01*
X103011000Y-78650000D01*
X103009000Y-78649000D01*
X103007000Y-78647000D01*
X103005000Y-78645000D01*
X103003000Y-78643000D01*
X103001000Y-78641000D01*
X103000000Y-78639000D01*
X102998000Y-78637000D01*
X102997000Y-78635000D01*
X102995000Y-78633000D01*
X102994000Y-78630000D01*
X102993000Y-78628000D01*
X102992000Y-78625000D01*
X102992000Y-78623000D01*
X102991000Y-78620000D01*
X102991000Y-78618000D01*
X102990000Y-78615000D01*
X102990000Y-78613000D01*
X102990000Y-78610000D01*
X102990000Y-76890000D01*
X102990000Y-76887000D01*
X102990000Y-76885000D01*
X102991000Y-76882000D01*
X102991000Y-76880000D01*
X102992000Y-76877000D01*
X102992000Y-76875000D01*
X102993000Y-76872000D01*
X102994000Y-76870000D01*
X102995000Y-76867000D01*
X102997000Y-76865000D01*
X102998000Y-76863000D01*
X103000000Y-76861000D01*
X103001000Y-76859000D01*
X103003000Y-76857000D01*
X103005000Y-76855000D01*
X103007000Y-76853000D01*
X103009000Y-76851000D01*
X103011000Y-76850000D01*
X103013000Y-76848000D01*
X103015000Y-76847000D01*
X103017000Y-76845000D01*
X103020000Y-76844000D01*
X103022000Y-76843000D01*
X103025000Y-76842000D01*
X103027000Y-76842000D01*
X103030000Y-76841000D01*
X103032000Y-76841000D01*
X103035000Y-76840000D01*
X103037000Y-76840000D01*
X103040000Y-76840000D01*
X104760000Y-76840000D01*
X104763000Y-76840000D01*
X104765000Y-76840000D01*
X104768000Y-76841000D01*
G37*
X105628000Y-76811000D02*
X105630000Y-76811000D01*
X105633000Y-76812000D01*
X105635000Y-76812000D01*
X105638000Y-76813000D01*
X105640000Y-76814000D01*
X105643000Y-76815000D01*
X105645000Y-76817000D01*
X105647000Y-76818000D01*
X105649000Y-76820000D01*
X105651000Y-76821000D01*
X105653000Y-76823000D01*
X105655000Y-76825000D01*
X105657000Y-76827000D01*
X105659000Y-76829000D01*
X105660000Y-76831000D01*
X105662000Y-76833000D01*
X105663000Y-76835000D01*
X105665000Y-76837000D01*
X105666000Y-76840000D01*
X105667000Y-76842000D01*
X105668000Y-76845000D01*
X105668000Y-76847000D01*
X105669000Y-76850000D01*
X105669000Y-76852000D01*
X105670000Y-76855000D01*
X105670000Y-76857000D01*
X105670000Y-76860000D01*
X105670000Y-77140000D01*
X105670000Y-77143000D01*
X105670000Y-77145000D01*
X105669000Y-77148000D01*
X105669000Y-77150000D01*
X105668000Y-77153000D01*
X105668000Y-77155000D01*
X105667000Y-77158000D01*
X105666000Y-77160000D01*
X105665000Y-77163000D01*
X105663000Y-77165000D01*
X105662000Y-77167000D01*
X105660000Y-77169000D01*
X105659000Y-77171000D01*
X105657000Y-77173000D01*
X105655000Y-77175000D01*
X105653000Y-77177000D01*
X105651000Y-77179000D01*
X105649000Y-77180000D01*
X105647000Y-77182000D01*
X105645000Y-77183000D01*
X105643000Y-77185000D01*
X105640000Y-77186000D01*
X105638000Y-77187000D01*
X105635000Y-77188000D01*
X105633000Y-77188000D01*
X105630000Y-77189000D01*
X105628000Y-77189000D01*
X105625000Y-77190000D01*
X105623000Y-77190000D01*
X105620000Y-77190000D01*
X104980000Y-77190000D01*
X104977000Y-77190000D01*
X104975000Y-77190000D01*
X104972000Y-77189000D01*
X104970000Y-77189000D01*
X104967000Y-77188000D01*
X104965000Y-77188000D01*
X104962000Y-77187000D01*
X104960000Y-77186000D01*
X104957000Y-77185000D01*
X104955000Y-77183000D01*
X104953000Y-77182000D01*
X104951000Y-77180000D01*
X104949000Y-77179000D01*
X104947000Y-77177000D01*
X104945000Y-77175000D01*
X104943000Y-77173000D01*
X104941000Y-77171000D01*
X104940000Y-77169000D01*
X104938000Y-77167000D01*
X104937000Y-77165000D01*
X104935000Y-77163000D01*
X104934000Y-77160000D01*
X104933000Y-77158000D01*
X104932000Y-77155000D01*
X104932000Y-77153000D01*
X104931000Y-77150000D01*
X104931000Y-77148000D01*
X104930000Y-77145000D01*
X104930000Y-77143000D01*
X104930000Y-77140000D01*
X104930000Y-76860000D01*
X104930000Y-76857000D01*
X104930000Y-76855000D01*
X104931000Y-76852000D01*
X104931000Y-76850000D01*
X104932000Y-76847000D01*
X104932000Y-76845000D01*
X104933000Y-76842000D01*
X104934000Y-76840000D01*
X104935000Y-76837000D01*
X104937000Y-76835000D01*
X104938000Y-76833000D01*
X104940000Y-76831000D01*
X104941000Y-76829000D01*
X104943000Y-76827000D01*
X104945000Y-76825000D01*
X104947000Y-76823000D01*
X104949000Y-76821000D01*
X104951000Y-76820000D01*
X104953000Y-76818000D01*
X104955000Y-76817000D01*
X104957000Y-76815000D01*
X104960000Y-76814000D01*
X104962000Y-76813000D01*
X104965000Y-76812000D01*
X104967000Y-76812000D01*
X104970000Y-76811000D01*
X104972000Y-76811000D01*
X104975000Y-76810000D01*
X104977000Y-76810000D01*
X104980000Y-76810000D01*
X105620000Y-76810000D01*
X105623000Y-76810000D01*
X105625000Y-76810000D01*
X105628000Y-76811000D01*
G36*
X105628000Y-76811000D02*
G01*
X105630000Y-76811000D01*
X105633000Y-76812000D01*
X105635000Y-76812000D01*
X105638000Y-76813000D01*
X105640000Y-76814000D01*
X105643000Y-76815000D01*
X105645000Y-76817000D01*
X105647000Y-76818000D01*
X105649000Y-76820000D01*
X105651000Y-76821000D01*
X105653000Y-76823000D01*
X105655000Y-76825000D01*
X105657000Y-76827000D01*
X105659000Y-76829000D01*
X105660000Y-76831000D01*
X105662000Y-76833000D01*
X105663000Y-76835000D01*
X105665000Y-76837000D01*
X105666000Y-76840000D01*
X105667000Y-76842000D01*
X105668000Y-76845000D01*
X105668000Y-76847000D01*
X105669000Y-76850000D01*
X105669000Y-76852000D01*
X105670000Y-76855000D01*
X105670000Y-76857000D01*
X105670000Y-76860000D01*
X105670000Y-77140000D01*
X105670000Y-77143000D01*
X105670000Y-77145000D01*
X105669000Y-77148000D01*
X105669000Y-77150000D01*
X105668000Y-77153000D01*
X105668000Y-77155000D01*
X105667000Y-77158000D01*
X105666000Y-77160000D01*
X105665000Y-77163000D01*
X105663000Y-77165000D01*
X105662000Y-77167000D01*
X105660000Y-77169000D01*
X105659000Y-77171000D01*
X105657000Y-77173000D01*
X105655000Y-77175000D01*
X105653000Y-77177000D01*
X105651000Y-77179000D01*
X105649000Y-77180000D01*
X105647000Y-77182000D01*
X105645000Y-77183000D01*
X105643000Y-77185000D01*
X105640000Y-77186000D01*
X105638000Y-77187000D01*
X105635000Y-77188000D01*
X105633000Y-77188000D01*
X105630000Y-77189000D01*
X105628000Y-77189000D01*
X105625000Y-77190000D01*
X105623000Y-77190000D01*
X105620000Y-77190000D01*
X104980000Y-77190000D01*
X104977000Y-77190000D01*
X104975000Y-77190000D01*
X104972000Y-77189000D01*
X104970000Y-77189000D01*
X104967000Y-77188000D01*
X104965000Y-77188000D01*
X104962000Y-77187000D01*
X104960000Y-77186000D01*
X104957000Y-77185000D01*
X104955000Y-77183000D01*
X104953000Y-77182000D01*
X104951000Y-77180000D01*
X104949000Y-77179000D01*
X104947000Y-77177000D01*
X104945000Y-77175000D01*
X104943000Y-77173000D01*
X104941000Y-77171000D01*
X104940000Y-77169000D01*
X104938000Y-77167000D01*
X104937000Y-77165000D01*
X104935000Y-77163000D01*
X104934000Y-77160000D01*
X104933000Y-77158000D01*
X104932000Y-77155000D01*
X104932000Y-77153000D01*
X104931000Y-77150000D01*
X104931000Y-77148000D01*
X104930000Y-77145000D01*
X104930000Y-77143000D01*
X104930000Y-77140000D01*
X104930000Y-76860000D01*
X104930000Y-76857000D01*
X104930000Y-76855000D01*
X104931000Y-76852000D01*
X104931000Y-76850000D01*
X104932000Y-76847000D01*
X104932000Y-76845000D01*
X104933000Y-76842000D01*
X104934000Y-76840000D01*
X104935000Y-76837000D01*
X104937000Y-76835000D01*
X104938000Y-76833000D01*
X104940000Y-76831000D01*
X104941000Y-76829000D01*
X104943000Y-76827000D01*
X104945000Y-76825000D01*
X104947000Y-76823000D01*
X104949000Y-76821000D01*
X104951000Y-76820000D01*
X104953000Y-76818000D01*
X104955000Y-76817000D01*
X104957000Y-76815000D01*
X104960000Y-76814000D01*
X104962000Y-76813000D01*
X104965000Y-76812000D01*
X104967000Y-76812000D01*
X104970000Y-76811000D01*
X104972000Y-76811000D01*
X104975000Y-76810000D01*
X104977000Y-76810000D01*
X104980000Y-76810000D01*
X105620000Y-76810000D01*
X105623000Y-76810000D01*
X105625000Y-76810000D01*
X105628000Y-76811000D01*
G37*
X105628000Y-77311000D02*
X105630000Y-77311000D01*
X105633000Y-77312000D01*
X105635000Y-77312000D01*
X105638000Y-77313000D01*
X105640000Y-77314000D01*
X105643000Y-77315000D01*
X105645000Y-77317000D01*
X105647000Y-77318000D01*
X105649000Y-77320000D01*
X105651000Y-77321000D01*
X105653000Y-77323000D01*
X105655000Y-77325000D01*
X105657000Y-77327000D01*
X105659000Y-77329000D01*
X105660000Y-77331000D01*
X105662000Y-77333000D01*
X105663000Y-77335000D01*
X105665000Y-77337000D01*
X105666000Y-77340000D01*
X105667000Y-77342000D01*
X105668000Y-77345000D01*
X105668000Y-77347000D01*
X105669000Y-77350000D01*
X105669000Y-77352000D01*
X105670000Y-77355000D01*
X105670000Y-77357000D01*
X105670000Y-77360000D01*
X105670000Y-77640000D01*
X105670000Y-77643000D01*
X105670000Y-77645000D01*
X105669000Y-77648000D01*
X105669000Y-77650000D01*
X105668000Y-77653000D01*
X105668000Y-77655000D01*
X105667000Y-77658000D01*
X105666000Y-77660000D01*
X105665000Y-77663000D01*
X105663000Y-77665000D01*
X105662000Y-77667000D01*
X105660000Y-77669000D01*
X105659000Y-77671000D01*
X105657000Y-77673000D01*
X105655000Y-77675000D01*
X105653000Y-77677000D01*
X105651000Y-77679000D01*
X105649000Y-77680000D01*
X105647000Y-77682000D01*
X105645000Y-77683000D01*
X105643000Y-77685000D01*
X105640000Y-77686000D01*
X105638000Y-77687000D01*
X105635000Y-77688000D01*
X105633000Y-77688000D01*
X105630000Y-77689000D01*
X105628000Y-77689000D01*
X105625000Y-77690000D01*
X105623000Y-77690000D01*
X105620000Y-77690000D01*
X104980000Y-77690000D01*
X104977000Y-77690000D01*
X104975000Y-77690000D01*
X104972000Y-77689000D01*
X104970000Y-77689000D01*
X104967000Y-77688000D01*
X104965000Y-77688000D01*
X104962000Y-77687000D01*
X104960000Y-77686000D01*
X104957000Y-77685000D01*
X104955000Y-77683000D01*
X104953000Y-77682000D01*
X104951000Y-77680000D01*
X104949000Y-77679000D01*
X104947000Y-77677000D01*
X104945000Y-77675000D01*
X104943000Y-77673000D01*
X104941000Y-77671000D01*
X104940000Y-77669000D01*
X104938000Y-77667000D01*
X104937000Y-77665000D01*
X104935000Y-77663000D01*
X104934000Y-77660000D01*
X104933000Y-77658000D01*
X104932000Y-77655000D01*
X104932000Y-77653000D01*
X104931000Y-77650000D01*
X104931000Y-77648000D01*
X104930000Y-77645000D01*
X104930000Y-77643000D01*
X104930000Y-77640000D01*
X104930000Y-77360000D01*
X104930000Y-77357000D01*
X104930000Y-77355000D01*
X104931000Y-77352000D01*
X104931000Y-77350000D01*
X104932000Y-77347000D01*
X104932000Y-77345000D01*
X104933000Y-77342000D01*
X104934000Y-77340000D01*
X104935000Y-77337000D01*
X104937000Y-77335000D01*
X104938000Y-77333000D01*
X104940000Y-77331000D01*
X104941000Y-77329000D01*
X104943000Y-77327000D01*
X104945000Y-77325000D01*
X104947000Y-77323000D01*
X104949000Y-77321000D01*
X104951000Y-77320000D01*
X104953000Y-77318000D01*
X104955000Y-77317000D01*
X104957000Y-77315000D01*
X104960000Y-77314000D01*
X104962000Y-77313000D01*
X104965000Y-77312000D01*
X104967000Y-77312000D01*
X104970000Y-77311000D01*
X104972000Y-77311000D01*
X104975000Y-77310000D01*
X104977000Y-77310000D01*
X104980000Y-77310000D01*
X105620000Y-77310000D01*
X105623000Y-77310000D01*
X105625000Y-77310000D01*
X105628000Y-77311000D01*
G36*
X105628000Y-77311000D02*
G01*
X105630000Y-77311000D01*
X105633000Y-77312000D01*
X105635000Y-77312000D01*
X105638000Y-77313000D01*
X105640000Y-77314000D01*
X105643000Y-77315000D01*
X105645000Y-77317000D01*
X105647000Y-77318000D01*
X105649000Y-77320000D01*
X105651000Y-77321000D01*
X105653000Y-77323000D01*
X105655000Y-77325000D01*
X105657000Y-77327000D01*
X105659000Y-77329000D01*
X105660000Y-77331000D01*
X105662000Y-77333000D01*
X105663000Y-77335000D01*
X105665000Y-77337000D01*
X105666000Y-77340000D01*
X105667000Y-77342000D01*
X105668000Y-77345000D01*
X105668000Y-77347000D01*
X105669000Y-77350000D01*
X105669000Y-77352000D01*
X105670000Y-77355000D01*
X105670000Y-77357000D01*
X105670000Y-77360000D01*
X105670000Y-77640000D01*
X105670000Y-77643000D01*
X105670000Y-77645000D01*
X105669000Y-77648000D01*
X105669000Y-77650000D01*
X105668000Y-77653000D01*
X105668000Y-77655000D01*
X105667000Y-77658000D01*
X105666000Y-77660000D01*
X105665000Y-77663000D01*
X105663000Y-77665000D01*
X105662000Y-77667000D01*
X105660000Y-77669000D01*
X105659000Y-77671000D01*
X105657000Y-77673000D01*
X105655000Y-77675000D01*
X105653000Y-77677000D01*
X105651000Y-77679000D01*
X105649000Y-77680000D01*
X105647000Y-77682000D01*
X105645000Y-77683000D01*
X105643000Y-77685000D01*
X105640000Y-77686000D01*
X105638000Y-77687000D01*
X105635000Y-77688000D01*
X105633000Y-77688000D01*
X105630000Y-77689000D01*
X105628000Y-77689000D01*
X105625000Y-77690000D01*
X105623000Y-77690000D01*
X105620000Y-77690000D01*
X104980000Y-77690000D01*
X104977000Y-77690000D01*
X104975000Y-77690000D01*
X104972000Y-77689000D01*
X104970000Y-77689000D01*
X104967000Y-77688000D01*
X104965000Y-77688000D01*
X104962000Y-77687000D01*
X104960000Y-77686000D01*
X104957000Y-77685000D01*
X104955000Y-77683000D01*
X104953000Y-77682000D01*
X104951000Y-77680000D01*
X104949000Y-77679000D01*
X104947000Y-77677000D01*
X104945000Y-77675000D01*
X104943000Y-77673000D01*
X104941000Y-77671000D01*
X104940000Y-77669000D01*
X104938000Y-77667000D01*
X104937000Y-77665000D01*
X104935000Y-77663000D01*
X104934000Y-77660000D01*
X104933000Y-77658000D01*
X104932000Y-77655000D01*
X104932000Y-77653000D01*
X104931000Y-77650000D01*
X104931000Y-77648000D01*
X104930000Y-77645000D01*
X104930000Y-77643000D01*
X104930000Y-77640000D01*
X104930000Y-77360000D01*
X104930000Y-77357000D01*
X104930000Y-77355000D01*
X104931000Y-77352000D01*
X104931000Y-77350000D01*
X104932000Y-77347000D01*
X104932000Y-77345000D01*
X104933000Y-77342000D01*
X104934000Y-77340000D01*
X104935000Y-77337000D01*
X104937000Y-77335000D01*
X104938000Y-77333000D01*
X104940000Y-77331000D01*
X104941000Y-77329000D01*
X104943000Y-77327000D01*
X104945000Y-77325000D01*
X104947000Y-77323000D01*
X104949000Y-77321000D01*
X104951000Y-77320000D01*
X104953000Y-77318000D01*
X104955000Y-77317000D01*
X104957000Y-77315000D01*
X104960000Y-77314000D01*
X104962000Y-77313000D01*
X104965000Y-77312000D01*
X104967000Y-77312000D01*
X104970000Y-77311000D01*
X104972000Y-77311000D01*
X104975000Y-77310000D01*
X104977000Y-77310000D01*
X104980000Y-77310000D01*
X105620000Y-77310000D01*
X105623000Y-77310000D01*
X105625000Y-77310000D01*
X105628000Y-77311000D01*
G37*
X105628000Y-77811000D02*
X105630000Y-77811000D01*
X105633000Y-77812000D01*
X105635000Y-77812000D01*
X105638000Y-77813000D01*
X105640000Y-77814000D01*
X105643000Y-77815000D01*
X105645000Y-77817000D01*
X105647000Y-77818000D01*
X105649000Y-77820000D01*
X105651000Y-77821000D01*
X105653000Y-77823000D01*
X105655000Y-77825000D01*
X105657000Y-77827000D01*
X105659000Y-77829000D01*
X105660000Y-77831000D01*
X105662000Y-77833000D01*
X105663000Y-77835000D01*
X105665000Y-77837000D01*
X105666000Y-77840000D01*
X105667000Y-77842000D01*
X105668000Y-77845000D01*
X105668000Y-77847000D01*
X105669000Y-77850000D01*
X105669000Y-77852000D01*
X105670000Y-77855000D01*
X105670000Y-77857000D01*
X105670000Y-77860000D01*
X105670000Y-78140000D01*
X105670000Y-78143000D01*
X105670000Y-78145000D01*
X105669000Y-78148000D01*
X105669000Y-78150000D01*
X105668000Y-78153000D01*
X105668000Y-78155000D01*
X105667000Y-78158000D01*
X105666000Y-78160000D01*
X105665000Y-78163000D01*
X105663000Y-78165000D01*
X105662000Y-78167000D01*
X105660000Y-78169000D01*
X105659000Y-78171000D01*
X105657000Y-78173000D01*
X105655000Y-78175000D01*
X105653000Y-78177000D01*
X105651000Y-78179000D01*
X105649000Y-78180000D01*
X105647000Y-78182000D01*
X105645000Y-78183000D01*
X105643000Y-78185000D01*
X105640000Y-78186000D01*
X105638000Y-78187000D01*
X105635000Y-78188000D01*
X105633000Y-78188000D01*
X105630000Y-78189000D01*
X105628000Y-78189000D01*
X105625000Y-78190000D01*
X105623000Y-78190000D01*
X105620000Y-78190000D01*
X104980000Y-78190000D01*
X104977000Y-78190000D01*
X104975000Y-78190000D01*
X104972000Y-78189000D01*
X104970000Y-78189000D01*
X104967000Y-78188000D01*
X104965000Y-78188000D01*
X104962000Y-78187000D01*
X104960000Y-78186000D01*
X104957000Y-78185000D01*
X104955000Y-78183000D01*
X104953000Y-78182000D01*
X104951000Y-78180000D01*
X104949000Y-78179000D01*
X104947000Y-78177000D01*
X104945000Y-78175000D01*
X104943000Y-78173000D01*
X104941000Y-78171000D01*
X104940000Y-78169000D01*
X104938000Y-78167000D01*
X104937000Y-78165000D01*
X104935000Y-78163000D01*
X104934000Y-78160000D01*
X104933000Y-78158000D01*
X104932000Y-78155000D01*
X104932000Y-78153000D01*
X104931000Y-78150000D01*
X104931000Y-78148000D01*
X104930000Y-78145000D01*
X104930000Y-78143000D01*
X104930000Y-78140000D01*
X104930000Y-77860000D01*
X104930000Y-77857000D01*
X104930000Y-77855000D01*
X104931000Y-77852000D01*
X104931000Y-77850000D01*
X104932000Y-77847000D01*
X104932000Y-77845000D01*
X104933000Y-77842000D01*
X104934000Y-77840000D01*
X104935000Y-77837000D01*
X104937000Y-77835000D01*
X104938000Y-77833000D01*
X104940000Y-77831000D01*
X104941000Y-77829000D01*
X104943000Y-77827000D01*
X104945000Y-77825000D01*
X104947000Y-77823000D01*
X104949000Y-77821000D01*
X104951000Y-77820000D01*
X104953000Y-77818000D01*
X104955000Y-77817000D01*
X104957000Y-77815000D01*
X104960000Y-77814000D01*
X104962000Y-77813000D01*
X104965000Y-77812000D01*
X104967000Y-77812000D01*
X104970000Y-77811000D01*
X104972000Y-77811000D01*
X104975000Y-77810000D01*
X104977000Y-77810000D01*
X104980000Y-77810000D01*
X105620000Y-77810000D01*
X105623000Y-77810000D01*
X105625000Y-77810000D01*
X105628000Y-77811000D01*
G36*
X105628000Y-77811000D02*
G01*
X105630000Y-77811000D01*
X105633000Y-77812000D01*
X105635000Y-77812000D01*
X105638000Y-77813000D01*
X105640000Y-77814000D01*
X105643000Y-77815000D01*
X105645000Y-77817000D01*
X105647000Y-77818000D01*
X105649000Y-77820000D01*
X105651000Y-77821000D01*
X105653000Y-77823000D01*
X105655000Y-77825000D01*
X105657000Y-77827000D01*
X105659000Y-77829000D01*
X105660000Y-77831000D01*
X105662000Y-77833000D01*
X105663000Y-77835000D01*
X105665000Y-77837000D01*
X105666000Y-77840000D01*
X105667000Y-77842000D01*
X105668000Y-77845000D01*
X105668000Y-77847000D01*
X105669000Y-77850000D01*
X105669000Y-77852000D01*
X105670000Y-77855000D01*
X105670000Y-77857000D01*
X105670000Y-77860000D01*
X105670000Y-78140000D01*
X105670000Y-78143000D01*
X105670000Y-78145000D01*
X105669000Y-78148000D01*
X105669000Y-78150000D01*
X105668000Y-78153000D01*
X105668000Y-78155000D01*
X105667000Y-78158000D01*
X105666000Y-78160000D01*
X105665000Y-78163000D01*
X105663000Y-78165000D01*
X105662000Y-78167000D01*
X105660000Y-78169000D01*
X105659000Y-78171000D01*
X105657000Y-78173000D01*
X105655000Y-78175000D01*
X105653000Y-78177000D01*
X105651000Y-78179000D01*
X105649000Y-78180000D01*
X105647000Y-78182000D01*
X105645000Y-78183000D01*
X105643000Y-78185000D01*
X105640000Y-78186000D01*
X105638000Y-78187000D01*
X105635000Y-78188000D01*
X105633000Y-78188000D01*
X105630000Y-78189000D01*
X105628000Y-78189000D01*
X105625000Y-78190000D01*
X105623000Y-78190000D01*
X105620000Y-78190000D01*
X104980000Y-78190000D01*
X104977000Y-78190000D01*
X104975000Y-78190000D01*
X104972000Y-78189000D01*
X104970000Y-78189000D01*
X104967000Y-78188000D01*
X104965000Y-78188000D01*
X104962000Y-78187000D01*
X104960000Y-78186000D01*
X104957000Y-78185000D01*
X104955000Y-78183000D01*
X104953000Y-78182000D01*
X104951000Y-78180000D01*
X104949000Y-78179000D01*
X104947000Y-78177000D01*
X104945000Y-78175000D01*
X104943000Y-78173000D01*
X104941000Y-78171000D01*
X104940000Y-78169000D01*
X104938000Y-78167000D01*
X104937000Y-78165000D01*
X104935000Y-78163000D01*
X104934000Y-78160000D01*
X104933000Y-78158000D01*
X104932000Y-78155000D01*
X104932000Y-78153000D01*
X104931000Y-78150000D01*
X104931000Y-78148000D01*
X104930000Y-78145000D01*
X104930000Y-78143000D01*
X104930000Y-78140000D01*
X104930000Y-77860000D01*
X104930000Y-77857000D01*
X104930000Y-77855000D01*
X104931000Y-77852000D01*
X104931000Y-77850000D01*
X104932000Y-77847000D01*
X104932000Y-77845000D01*
X104933000Y-77842000D01*
X104934000Y-77840000D01*
X104935000Y-77837000D01*
X104937000Y-77835000D01*
X104938000Y-77833000D01*
X104940000Y-77831000D01*
X104941000Y-77829000D01*
X104943000Y-77827000D01*
X104945000Y-77825000D01*
X104947000Y-77823000D01*
X104949000Y-77821000D01*
X104951000Y-77820000D01*
X104953000Y-77818000D01*
X104955000Y-77817000D01*
X104957000Y-77815000D01*
X104960000Y-77814000D01*
X104962000Y-77813000D01*
X104965000Y-77812000D01*
X104967000Y-77812000D01*
X104970000Y-77811000D01*
X104972000Y-77811000D01*
X104975000Y-77810000D01*
X104977000Y-77810000D01*
X104980000Y-77810000D01*
X105620000Y-77810000D01*
X105623000Y-77810000D01*
X105625000Y-77810000D01*
X105628000Y-77811000D01*
G37*
X105628000Y-78311000D02*
X105630000Y-78311000D01*
X105633000Y-78312000D01*
X105635000Y-78312000D01*
X105638000Y-78313000D01*
X105640000Y-78314000D01*
X105643000Y-78315000D01*
X105645000Y-78317000D01*
X105647000Y-78318000D01*
X105649000Y-78320000D01*
X105651000Y-78321000D01*
X105653000Y-78323000D01*
X105655000Y-78325000D01*
X105657000Y-78327000D01*
X105659000Y-78329000D01*
X105660000Y-78331000D01*
X105662000Y-78333000D01*
X105663000Y-78335000D01*
X105665000Y-78337000D01*
X105666000Y-78340000D01*
X105667000Y-78342000D01*
X105668000Y-78345000D01*
X105668000Y-78347000D01*
X105669000Y-78350000D01*
X105669000Y-78352000D01*
X105670000Y-78355000D01*
X105670000Y-78357000D01*
X105670000Y-78360000D01*
X105670000Y-78640000D01*
X105670000Y-78643000D01*
X105670000Y-78645000D01*
X105669000Y-78648000D01*
X105669000Y-78650000D01*
X105668000Y-78653000D01*
X105668000Y-78655000D01*
X105667000Y-78658000D01*
X105666000Y-78660000D01*
X105665000Y-78663000D01*
X105663000Y-78665000D01*
X105662000Y-78667000D01*
X105660000Y-78669000D01*
X105659000Y-78671000D01*
X105657000Y-78673000D01*
X105655000Y-78675000D01*
X105653000Y-78677000D01*
X105651000Y-78679000D01*
X105649000Y-78680000D01*
X105647000Y-78682000D01*
X105645000Y-78683000D01*
X105643000Y-78685000D01*
X105640000Y-78686000D01*
X105638000Y-78687000D01*
X105635000Y-78688000D01*
X105633000Y-78688000D01*
X105630000Y-78689000D01*
X105628000Y-78689000D01*
X105625000Y-78690000D01*
X105623000Y-78690000D01*
X105620000Y-78690000D01*
X104980000Y-78690000D01*
X104977000Y-78690000D01*
X104975000Y-78690000D01*
X104972000Y-78689000D01*
X104970000Y-78689000D01*
X104967000Y-78688000D01*
X104965000Y-78688000D01*
X104962000Y-78687000D01*
X104960000Y-78686000D01*
X104957000Y-78685000D01*
X104955000Y-78683000D01*
X104953000Y-78682000D01*
X104951000Y-78680000D01*
X104949000Y-78679000D01*
X104947000Y-78677000D01*
X104945000Y-78675000D01*
X104943000Y-78673000D01*
X104941000Y-78671000D01*
X104940000Y-78669000D01*
X104938000Y-78667000D01*
X104937000Y-78665000D01*
X104935000Y-78663000D01*
X104934000Y-78660000D01*
X104933000Y-78658000D01*
X104932000Y-78655000D01*
X104932000Y-78653000D01*
X104931000Y-78650000D01*
X104931000Y-78648000D01*
X104930000Y-78645000D01*
X104930000Y-78643000D01*
X104930000Y-78640000D01*
X104930000Y-78360000D01*
X104930000Y-78357000D01*
X104930000Y-78355000D01*
X104931000Y-78352000D01*
X104931000Y-78350000D01*
X104932000Y-78347000D01*
X104932000Y-78345000D01*
X104933000Y-78342000D01*
X104934000Y-78340000D01*
X104935000Y-78337000D01*
X104937000Y-78335000D01*
X104938000Y-78333000D01*
X104940000Y-78331000D01*
X104941000Y-78329000D01*
X104943000Y-78327000D01*
X104945000Y-78325000D01*
X104947000Y-78323000D01*
X104949000Y-78321000D01*
X104951000Y-78320000D01*
X104953000Y-78318000D01*
X104955000Y-78317000D01*
X104957000Y-78315000D01*
X104960000Y-78314000D01*
X104962000Y-78313000D01*
X104965000Y-78312000D01*
X104967000Y-78312000D01*
X104970000Y-78311000D01*
X104972000Y-78311000D01*
X104975000Y-78310000D01*
X104977000Y-78310000D01*
X104980000Y-78310000D01*
X105620000Y-78310000D01*
X105623000Y-78310000D01*
X105625000Y-78310000D01*
X105628000Y-78311000D01*
G36*
X105628000Y-78311000D02*
G01*
X105630000Y-78311000D01*
X105633000Y-78312000D01*
X105635000Y-78312000D01*
X105638000Y-78313000D01*
X105640000Y-78314000D01*
X105643000Y-78315000D01*
X105645000Y-78317000D01*
X105647000Y-78318000D01*
X105649000Y-78320000D01*
X105651000Y-78321000D01*
X105653000Y-78323000D01*
X105655000Y-78325000D01*
X105657000Y-78327000D01*
X105659000Y-78329000D01*
X105660000Y-78331000D01*
X105662000Y-78333000D01*
X105663000Y-78335000D01*
X105665000Y-78337000D01*
X105666000Y-78340000D01*
X105667000Y-78342000D01*
X105668000Y-78345000D01*
X105668000Y-78347000D01*
X105669000Y-78350000D01*
X105669000Y-78352000D01*
X105670000Y-78355000D01*
X105670000Y-78357000D01*
X105670000Y-78360000D01*
X105670000Y-78640000D01*
X105670000Y-78643000D01*
X105670000Y-78645000D01*
X105669000Y-78648000D01*
X105669000Y-78650000D01*
X105668000Y-78653000D01*
X105668000Y-78655000D01*
X105667000Y-78658000D01*
X105666000Y-78660000D01*
X105665000Y-78663000D01*
X105663000Y-78665000D01*
X105662000Y-78667000D01*
X105660000Y-78669000D01*
X105659000Y-78671000D01*
X105657000Y-78673000D01*
X105655000Y-78675000D01*
X105653000Y-78677000D01*
X105651000Y-78679000D01*
X105649000Y-78680000D01*
X105647000Y-78682000D01*
X105645000Y-78683000D01*
X105643000Y-78685000D01*
X105640000Y-78686000D01*
X105638000Y-78687000D01*
X105635000Y-78688000D01*
X105633000Y-78688000D01*
X105630000Y-78689000D01*
X105628000Y-78689000D01*
X105625000Y-78690000D01*
X105623000Y-78690000D01*
X105620000Y-78690000D01*
X104980000Y-78690000D01*
X104977000Y-78690000D01*
X104975000Y-78690000D01*
X104972000Y-78689000D01*
X104970000Y-78689000D01*
X104967000Y-78688000D01*
X104965000Y-78688000D01*
X104962000Y-78687000D01*
X104960000Y-78686000D01*
X104957000Y-78685000D01*
X104955000Y-78683000D01*
X104953000Y-78682000D01*
X104951000Y-78680000D01*
X104949000Y-78679000D01*
X104947000Y-78677000D01*
X104945000Y-78675000D01*
X104943000Y-78673000D01*
X104941000Y-78671000D01*
X104940000Y-78669000D01*
X104938000Y-78667000D01*
X104937000Y-78665000D01*
X104935000Y-78663000D01*
X104934000Y-78660000D01*
X104933000Y-78658000D01*
X104932000Y-78655000D01*
X104932000Y-78653000D01*
X104931000Y-78650000D01*
X104931000Y-78648000D01*
X104930000Y-78645000D01*
X104930000Y-78643000D01*
X104930000Y-78640000D01*
X104930000Y-78360000D01*
X104930000Y-78357000D01*
X104930000Y-78355000D01*
X104931000Y-78352000D01*
X104931000Y-78350000D01*
X104932000Y-78347000D01*
X104932000Y-78345000D01*
X104933000Y-78342000D01*
X104934000Y-78340000D01*
X104935000Y-78337000D01*
X104937000Y-78335000D01*
X104938000Y-78333000D01*
X104940000Y-78331000D01*
X104941000Y-78329000D01*
X104943000Y-78327000D01*
X104945000Y-78325000D01*
X104947000Y-78323000D01*
X104949000Y-78321000D01*
X104951000Y-78320000D01*
X104953000Y-78318000D01*
X104955000Y-78317000D01*
X104957000Y-78315000D01*
X104960000Y-78314000D01*
X104962000Y-78313000D01*
X104965000Y-78312000D01*
X104967000Y-78312000D01*
X104970000Y-78311000D01*
X104972000Y-78311000D01*
X104975000Y-78310000D01*
X104977000Y-78310000D01*
X104980000Y-78310000D01*
X105620000Y-78310000D01*
X105623000Y-78310000D01*
X105625000Y-78310000D01*
X105628000Y-78311000D01*
G37*
%TD*%
D11*
%TO.C,C25*%
X74500000Y-124725000D03*
X74500000Y-126275000D03*
%TD*%
D12*
%TO.C,U10*%
X87378400Y-111499999D03*
X87378400Y-112000000D03*
X87378400Y-112500000D03*
X87378400Y-113000001D03*
X90121600Y-113000001D03*
X90121600Y-112500000D03*
X90121600Y-112000000D03*
X90121600Y-111499999D03*
%TD*%
D13*
%TO.C,R18*%
X76250000Y-69175000D03*
X76250000Y-70825000D03*
%TD*%
D14*
%TO.C,C2*%
X102725000Y-81500000D03*
X104275000Y-81500000D03*
%TD*%
D15*
%TO.C,R14*%
X71000000Y-126325000D03*
X71000000Y-124675000D03*
%TD*%
D16*
%TO.C,C14*%
X72750000Y-70775000D03*
X72750000Y-69225000D03*
%TD*%
D11*
%TO.C,C29*%
X92612500Y-136725000D03*
X92612500Y-138275000D03*
%TD*%
D16*
%TO.C,C4*%
X101000000Y-80775000D03*
X101000000Y-79225000D03*
%TD*%
D11*
%TO.C,C16*%
X75250000Y-82225000D03*
X75250000Y-83775000D03*
%TD*%
D16*
%TO.C,C18*%
X72250000Y-78837500D03*
X72250000Y-77287500D03*
%TD*%
D17*
%TO.C,R7*%
X97075000Y-69000000D03*
X95425000Y-69000000D03*
%TD*%
D18*
%TO.C,R9*%
X82675000Y-77500000D03*
X84325000Y-77500000D03*
%TD*%
D19*
%TO.C,D1*%
X96000000Y-117800000D03*
X96000000Y-115700000D03*
%TD*%
D16*
%TO.C,C3*%
X100750000Y-76275000D03*
X100750000Y-74725000D03*
%TD*%
D15*
%TO.C,R16*%
X76249999Y-126325000D03*
X76249999Y-124675000D03*
%TD*%
D14*
%TO.C,C5*%
X104725000Y-72750000D03*
X106275000Y-72750000D03*
%TD*%
D20*
%TO.C,J3*%
X88375000Y-88430000D03*
D21*
X90915000Y-88430000D03*
X93455000Y-88430000D03*
X95995000Y-88430000D03*
X98535000Y-88430000D03*
X101075000Y-88430000D03*
X103615000Y-88430000D03*
X106155000Y-88430000D03*
%TD*%
D17*
%TO.C,R3*%
X97575000Y-81500000D03*
X95925000Y-81500000D03*
%TD*%
D16*
%TO.C,C13*%
X83250000Y-70775000D03*
X83250000Y-69225000D03*
%TD*%
D11*
%TO.C,C30*%
X92725000Y-104425000D03*
X92725000Y-105975000D03*
%TD*%
D15*
%TO.C,R13*%
X79750000Y-70825000D03*
X79750000Y-69175000D03*
%TD*%
D18*
%TO.C,R5*%
X102675000Y-85000000D03*
X104325000Y-85000000D03*
%TD*%
D22*
%TO.C,C8*%
X97025000Y-72500000D03*
X95475000Y-72500000D03*
%TD*%
D18*
%TO.C,R8*%
X82675000Y-79250000D03*
X84325000Y-79250000D03*
%TD*%
D23*
%TO.C,MB1*%
X85820000Y-152725000D03*
X88360000Y-152725000D03*
X90900000Y-152725000D03*
X93440000Y-152725000D03*
X95980000Y-152725000D03*
X98520000Y-152725000D03*
X101060000Y-152725000D03*
X103600000Y-152725000D03*
X103600000Y-127005000D03*
X101060000Y-127005000D03*
X98520000Y-127005000D03*
X95980000Y-127005000D03*
X93440000Y-127005000D03*
X90900000Y-127005000D03*
X88360000Y-127005000D03*
X85820000Y-127005000D03*
%TD*%
D24*
%TO.C,C17*%
X70500000Y-78775000D03*
X70500000Y-77350000D03*
%TD*%
D11*
%TO.C,C11*%
X87250000Y-80475000D03*
X87250000Y-82025000D03*
%TD*%
%TO.C,C22*%
X82250000Y-82225000D03*
X82250000Y-83775000D03*
%TD*%
D25*
%TO.C,C24*%
X72750000Y-124787500D03*
X72750000Y-126212500D03*
%TD*%
%TO.C,C21*%
X80500000Y-82287500D03*
X80500000Y-83712500D03*
%TD*%
D22*
%TO.C,C28*%
X90025000Y-109750000D03*
X88475000Y-109750000D03*
%TD*%
D15*
%TO.C,R12*%
X81500000Y-70825000D03*
X81500000Y-69175000D03*
%TD*%
D26*
%TO.C,C9*%
X85250000Y-81400000D03*
X85250000Y-84100000D03*
%TD*%
D13*
%TO.C,R17*%
X78000000Y-69175000D03*
X78000000Y-70825000D03*
%TD*%
D14*
%TO.C,C23*%
X87225000Y-69000000D03*
X88775000Y-69000000D03*
%TD*%
D16*
%TO.C,C15*%
X71000000Y-70775000D03*
X71000000Y-69225000D03*
%TD*%
D27*
%TO.C,U4*%
X76512500Y-78912500D03*
X77012500Y-78912500D03*
X77512500Y-78912500D03*
X78012500Y-78912500D03*
X78512500Y-78912500D03*
X79012500Y-78912500D03*
D28*
X79462500Y-78462500D03*
X79462500Y-77962500D03*
X79462500Y-77462500D03*
X79462500Y-76962500D03*
X79462500Y-76462500D03*
X79462500Y-75962500D03*
D27*
X79012500Y-75512500D03*
X78512500Y-75512500D03*
X78012500Y-75512500D03*
X77512500Y-75512500D03*
X77012500Y-75512500D03*
X76512500Y-75512500D03*
D28*
X76062500Y-75962500D03*
X76062500Y-76462500D03*
X76062500Y-76962500D03*
X76062500Y-77462500D03*
X76062500Y-77962500D03*
X76062500Y-78462500D03*
D29*
X77762500Y-77212500D03*
D30*
X76037500Y-78937500D03*
X79487500Y-78937500D03*
X79487500Y-75487500D03*
X76037500Y-75487500D03*
%TD*%
D11*
%TO.C,C32*%
X92500000Y-120475000D03*
X92500000Y-122025000D03*
%TD*%
D31*
%TO.C,U1*%
X91300000Y-80450000D03*
X91800000Y-80450000D03*
X92300000Y-80450000D03*
X92800000Y-80450000D03*
X93300000Y-80450000D03*
D32*
X94250000Y-79500000D03*
X94250000Y-79000000D03*
X94250000Y-78500000D03*
X94250000Y-78000000D03*
X94250000Y-77500000D03*
D31*
X93300000Y-76550000D03*
X92800000Y-76550000D03*
X92300000Y-76550000D03*
X91800000Y-76550000D03*
X91300000Y-76550000D03*
D32*
X90350000Y-77500000D03*
X90350000Y-78000000D03*
X90350000Y-78500000D03*
X90350000Y-79000000D03*
X90350000Y-79500000D03*
D33*
X92300000Y-78500000D03*
%TD*%
D22*
%TO.C,C27*%
X69024999Y-119750000D03*
X67474999Y-119750000D03*
%TD*%
D17*
%TO.C,R11*%
X97575000Y-77750000D03*
X95925000Y-77750000D03*
%TD*%
D11*
%TO.C,C31*%
X92612500Y-143225000D03*
X92612500Y-144775000D03*
%TD*%
D34*
%TO.C,U6*%
X71749999Y-121000000D03*
X72249998Y-121000000D03*
X72749999Y-121000000D03*
X73249999Y-121000000D03*
X73750000Y-121000000D03*
X74249999Y-121000000D03*
D35*
X74943099Y-120306900D03*
X74943099Y-119806901D03*
X74943099Y-119306900D03*
X74943099Y-118806900D03*
X74943099Y-118306899D03*
X74943099Y-117806900D03*
D34*
X74249999Y-117113800D03*
X73750000Y-117113800D03*
X73249999Y-117113800D03*
X72749999Y-117113800D03*
X72249998Y-117113800D03*
X71749999Y-117113800D03*
D35*
X71056899Y-117806900D03*
X71056899Y-118306899D03*
X71056899Y-118806900D03*
X71056899Y-119306900D03*
X71056899Y-119806901D03*
X71056899Y-120306900D03*
D36*
X72999999Y-119056900D03*
%TD*%
D18*
%TO.C,R2*%
X95925000Y-79750000D03*
X97575000Y-79750000D03*
%TD*%
D37*
%TO.C,J2*%
X56500000Y-70000000D03*
X63500000Y-70000000D03*
D38*
X57400000Y-66300000D03*
X55400000Y-73700000D03*
D39*
X64800000Y-73700000D03*
%TD*%
D40*
%TO.C,U2*%
X102887500Y-72500000D03*
X102887500Y-71550000D03*
X102887500Y-70600000D03*
X100612500Y-70600000D03*
X100612500Y-71550000D03*
X100612500Y-72500000D03*
%TD*%
D15*
%TO.C,R20*%
X71750000Y-83825000D03*
X71750000Y-82175000D03*
%TD*%
D18*
%TO.C,R6*%
X95425000Y-70750000D03*
X97075000Y-70750000D03*
%TD*%
D15*
%TO.C,R21*%
X74500000Y-70825000D03*
X74500000Y-69175000D03*
%TD*%
D41*
%TO.C,U5*%
X88271966Y-70499999D03*
X88271966Y-71000000D03*
X88271966Y-71500000D03*
X88271966Y-72000001D03*
X90728034Y-72000001D03*
X90728034Y-71500000D03*
X90728034Y-71000000D03*
X90728034Y-70499999D03*
D42*
X89500000Y-71250000D03*
%TD*%
D43*
%TO.C,TP1*%
X94000000Y-83250000D03*
%TD*%
D18*
%TO.C,R1*%
X95925000Y-85000000D03*
X97575000Y-85000000D03*
%TD*%
D16*
%TO.C,C6*%
X98750000Y-72525000D03*
X98750000Y-70975000D03*
%TD*%
D11*
%TO.C,C20*%
X77000000Y-82225000D03*
X77000000Y-83775000D03*
%TD*%
D13*
%TO.C,R23*%
X81750000Y-108925000D03*
X81750000Y-110575000D03*
%TD*%
D11*
%TO.C,C26*%
X69250000Y-124725000D03*
X69250000Y-126275000D03*
%TD*%
D25*
%TO.C,C19*%
X78750000Y-82287500D03*
X78750000Y-83712500D03*
%TD*%
D11*
%TO.C,C7*%
X104750000Y-69475000D03*
X104750000Y-71025000D03*
%TD*%
D44*
%TO.C,U9*%
X88475000Y-103550000D03*
X88475000Y-104500000D03*
X88475000Y-105450000D03*
X90750000Y-105450000D03*
X90750000Y-104500000D03*
X90750000Y-103550000D03*
%TD*%
D15*
%TO.C,R19*%
X73500000Y-83825000D03*
X73500000Y-82175000D03*
%TD*%
D44*
%TO.C,U8*%
X88475000Y-142300000D03*
X88475000Y-143250000D03*
X88475000Y-144200000D03*
X90750000Y-144200000D03*
X90750000Y-143250000D03*
X90750000Y-142300000D03*
%TD*%
D16*
%TO.C,C10*%
X88750000Y-77525000D03*
X88750000Y-75975000D03*
%TD*%
D44*
%TO.C,U11*%
X88475000Y-135800000D03*
X88475000Y-136750000D03*
X88475000Y-137700000D03*
X90750000Y-137700000D03*
X90750000Y-136750000D03*
X90750000Y-135800000D03*
%TD*%
D22*
%TO.C,C12*%
X95025000Y-74750000D03*
X93475000Y-74750000D03*
%TD*%
D17*
%TO.C,R4*%
X104325000Y-83250000D03*
X102675000Y-83250000D03*
%TD*%
D37*
%TO.C,J4*%
X88375000Y-65570000D03*
D21*
X90915000Y-65570000D03*
X93455000Y-65570000D03*
X95995000Y-65570000D03*
X98535000Y-65570000D03*
X101075000Y-65570000D03*
X103615000Y-65570000D03*
X106155000Y-65570000D03*
%TD*%
D37*
%TO.C,J1*%
X56500000Y-84000000D03*
X63500000Y-84000000D03*
D38*
X57400000Y-80300000D03*
X55400000Y-87700000D03*
D39*
X64800000Y-87700000D03*
%TD*%
D13*
%TO.C,R15*%
X85500000Y-69175000D03*
X85500000Y-70825000D03*
%TD*%
D15*
%TO.C,R22*%
X70000000Y-83825000D03*
X70000000Y-82175000D03*
%TD*%
D18*
%TO.C,R10*%
X82675000Y-75750000D03*
X84325000Y-75750000D03*
%TD*%
D44*
%TO.C,U7*%
X88362500Y-119550000D03*
X88362500Y-120500000D03*
X88362500Y-121450000D03*
X90637500Y-121450000D03*
X90637500Y-120500000D03*
X90637500Y-119550000D03*
%TD*%
D45*
%TO.C,Y1*%
X90850000Y-84600000D03*
X90850000Y-82400000D03*
X89150000Y-82400000D03*
X89150000Y-84600000D03*
%TD*%
D14*
%TO.C,C1*%
X95975000Y-83250000D03*
X97525000Y-83250000D03*
%TD*%
D46*
%TO.C,J7*%
X81750000Y-113000000D03*
%TD*%
M02*
