%TF.GenerationSoftware,KiCad,Pcbnew,9.0.0*%
%TF.CreationDate,2025-04-10T14:52:18+00:00*%
%TF.ProjectId,jkembedded-audio-board,6a6b656d-6265-4646-9465-642d61756469,rev?*%
%TF.SameCoordinates,Original*%
%TF.FileFunction,Soldermask,Bot*%
%TF.FilePolarity,Negative*%
%FSLAX46Y46*%
G04 Gerber Fmt 4.6, Leading zero omitted, Abs format (unit mm)*
G04 Created by KiCad (PCBNEW 9.0.0) date 2025-04-10 14:52:18*
%MOMM*%
%LPD*%
G01*
G04 APERTURE LIST*
%ADD10R,1.700000X1.700000*%
%ADD11O,1.700000X1.700000*%
%ADD12C,1.700000*%
%ADD13R,0.850000X0.850000*%
%ADD14R,3.000000X1.000000*%
G04 APERTURE END LIST*
D10*
%TO.C,J3*%
X88375000Y-88430000D03*
D11*
X90915000Y-88430000D03*
X93455000Y-88430000D03*
X95995000Y-88430000D03*
X98535000Y-88430000D03*
X101075000Y-88430000D03*
X103615000Y-88430000D03*
X106155000Y-88430000D03*
%TD*%
D12*
%TO.C,J2*%
X56500000Y-70000000D03*
X63500000Y-70000000D03*
%TD*%
%TO.C,J4*%
X88375000Y-65570000D03*
D11*
X90915000Y-65570000D03*
X93455000Y-65570000D03*
X95995000Y-65570000D03*
X98535000Y-65570000D03*
X101075000Y-65570000D03*
X103615000Y-65570000D03*
X106155000Y-65570000D03*
%TD*%
D12*
%TO.C,J1*%
X56500000Y-84000000D03*
X63500000Y-84000000D03*
%TD*%
D13*
%TO.C,J7*%
X81750000Y-113000000D03*
%TD*%
D14*
%TO.C,J5*%
X100465000Y-98590000D03*
X105505000Y-98590000D03*
X100465000Y-101130000D03*
X105505000Y-101130000D03*
X100465000Y-103670000D03*
X105505000Y-103670000D03*
X100465000Y-106210000D03*
X105505000Y-106210000D03*
X100465000Y-108750000D03*
X105505000Y-108750000D03*
X100465000Y-111290000D03*
X105505000Y-111290000D03*
X100465000Y-113830000D03*
X105505000Y-113830000D03*
X100465000Y-116370000D03*
X105505000Y-116370000D03*
X100465000Y-118910000D03*
X105505000Y-118910000D03*
X100465000Y-121450000D03*
X105505000Y-121450000D03*
X100465000Y-123990000D03*
X105505000Y-123990000D03*
X100465000Y-126530000D03*
X105505000Y-126530000D03*
X100465000Y-129070000D03*
X105505000Y-129070000D03*
X100465000Y-131610000D03*
X105505000Y-131610000D03*
X100465000Y-134150000D03*
X105505000Y-134150000D03*
X100465000Y-136690000D03*
X105505000Y-136690000D03*
X100465000Y-139230000D03*
X105505000Y-139230000D03*
X100465000Y-141770000D03*
X105505000Y-141770000D03*
X100465000Y-144310000D03*
X105505000Y-144310000D03*
X100465000Y-146850000D03*
X105505000Y-146850000D03*
%TD*%
M02*
