%TF.GenerationSoftware,KiCad,Pcbnew,9.0.0*%
%TF.CreationDate,2025-04-10T14:52:18+00:00*%
%TF.ProjectId,jkembedded-audio-board,6a6b656d-6265-4646-9465-642d61756469,rev?*%
%TF.SameCoordinates,Original*%
%TF.FileFunction,Paste,Bot*%
%TF.FilePolarity,Positive*%
%FSLAX46Y46*%
G04 Gerber Fmt 4.6, Leading zero omitted, Abs format (unit mm)*
G04 Created by KiCad (PCBNEW 9.0.0) date 2025-04-10 14:52:18*
%MOMM*%
%LPD*%
G01*
G04 APERTURE LIST*
%ADD10R,3.000000X1.000000*%
G04 APERTURE END LIST*
D10*
%TO.C,J5*%
X100465000Y-98590000D03*
X105505000Y-98590000D03*
X100465000Y-101130000D03*
X105505000Y-101130000D03*
X100465000Y-103670000D03*
X105505000Y-103670000D03*
X100465000Y-106210000D03*
X105505000Y-106210000D03*
X100465000Y-108750000D03*
X105505000Y-108750000D03*
X100465000Y-111290000D03*
X105505000Y-111290000D03*
X100465000Y-113830000D03*
X105505000Y-113830000D03*
X100465000Y-116370000D03*
X105505000Y-116370000D03*
X100465000Y-118910000D03*
X105505000Y-118910000D03*
X100465000Y-121450000D03*
X105505000Y-121450000D03*
X100465000Y-123990000D03*
X105505000Y-123990000D03*
X100465000Y-126530000D03*
X105505000Y-126530000D03*
X100465000Y-129070000D03*
X105505000Y-129070000D03*
X100465000Y-131610000D03*
X105505000Y-131610000D03*
X100465000Y-134150000D03*
X105505000Y-134150000D03*
X100465000Y-136690000D03*
X105505000Y-136690000D03*
X100465000Y-139230000D03*
X105505000Y-139230000D03*
X100465000Y-141770000D03*
X105505000Y-141770000D03*
X100465000Y-144310000D03*
X105505000Y-144310000D03*
X100465000Y-146850000D03*
X105505000Y-146850000D03*
%TD*%
M02*
